<?xml version="1.0" encoding="UTF-8" standalone="no"?>
<svg
   xmlns:dc="http://purl.org/dc/elements/1.1/"
   xmlns:cc="http://creativecommons.org/ns#"
   xmlns:rdf="http://www.w3.org/1999/02/22-rdf-syntax-ns#"
   xmlns:svg="http://www.w3.org/2000/svg"
   xmlns="http://www.w3.org/2000/svg"
   viewBox="0 0 805.33331 508"
   height="508"
   width="805.33331"
   xml:space="preserve"
   id="svg2"
   version="1.1"><metadata
     id="metadata8"><rdf:RDF><cc:Work
         rdf:about=""><dc:format>image/svg+xml</dc:format><dc:type
           rdf:resource="http://purl.org/dc/dcmitype/StillImage" /></cc:Work></rdf:RDF></metadata><defs
     id="defs6"><clipPath
       id="clipPath20"
       clipPathUnits="userSpaceOnUse"><path
         id="path18"
         d="M 0,0 H 640 V 480 H 0 Z" /></clipPath><clipPath
       id="clipPath38"
       clipPathUnits="userSpaceOnUse"><path
         style="clip-rule:evenodd"
         id="path36"
         d="M 0,0 H 1280 V 960 H 0 Z" /></clipPath></defs><g
     transform="matrix(1.3333333,0,0,-1.3333333,0,508)"
     id="g10"><g
       transform="translate(-9,-45)"
       id="g12"><g
         id="g14"><g
           clip-path="url(#clipPath20)"
           id="g16"><g
             transform="matrix(0.5,0,0,-0.5,0,480)"
             id="g22"><g
               id="g24"><g
                 id="g26" /></g><g
               id="g28"><g
                 id="g30" /></g><g
               id="g32"><g
                 clip-path="url(#clipPath38)"
                 id="g34"><g
                   id="g40" /><g
                   id="g42" /><g
                   transform="scale(2)"
                   id="g44"><path
                     id="path46"
                     style="fill:none;stroke:#a0a0a4;stroke-width:0.5;stroke-linecap:round;stroke-linejoin:round;stroke-miterlimit:10;stroke-dasharray:0.5, 1;stroke-dashoffset:0;stroke-opacity:1"
                     d="m 114.5,365.5 h 489" /><path
                     id="path48"
                     style="fill:none;stroke:#000000;stroke-width:4;stroke-linecap:round;stroke-linejoin:round;stroke-miterlimit:10;stroke-dasharray:none;stroke-opacity:1"
                     d="m 114.5,365.5 h 9" /><path
                     id="path50"
                     style="fill:none;stroke:#000000;stroke-width:4;stroke-linecap:round;stroke-linejoin:round;stroke-miterlimit:10;stroke-dasharray:none;stroke-opacity:1"
                     d="m 603.5,365.5 h -9" /></g><g
                   transform="matrix(2,0,0,2,130,744)"
                   id="g52" /><g
                   transform="matrix(2,0,0,2,130,744)"
                   id="g54" /><g
                   transform="matrix(2,0,0,2,130,744)"
                   id="g56"><g
                     id="g58"><g
                       id="text62"
                       style="font-variant:normal;font-weight:normal;font-size:20px;font-family:'DejaVu Serif';-inkscape-font-specification:DejaVuSerif;writing-mode:lr-tb;fill:#000000;fill-opacity:1;fill-rule:nonzero;stroke:none"
                       aria-label="	0.9"><path
                         id="path530"
                         style=""
                         d="m 12.701172,-0.68359375 q 1.494141,0 2.236328,-1.64062505 0.742188,-1.640625 0.742188,-4.9511718 0,-3.3203124 -0.742188,-4.9609374 -0.742187,-1.640625 -2.236328,-1.640625 -1.494141,0 -2.236328,1.640625 -0.7421877,1.640625 -0.7421877,4.9609374 0,3.3105468 0.7421877,4.9511718 0.742187,1.64062505 2.236328,1.64062505 z m 0,0.96679688 q -2.373047,0 -3.7109376,-1.99218753 -1.328125,-1.9921875 -1.328125,-5.5664062 0,-3.5839844 1.328125,-5.5761724 1.3378906,-1.992187 3.7109376,-1.992187 2.382812,0 3.710937,1.992187 1.328125,1.992188 1.328125,5.5761724 0,3.5742187 -1.328125,5.5664062 -1.328125,1.99218753 -3.710937,1.99218753 z" /><path
                         id="path532"
                         style=""
                         d="m 20.947266,-1.015625 q 0,-0.546875 0.371093,-0.9277344 0.371094,-0.3808594 0.927735,-0.3808594 0.537109,0 0.917968,0.3808594 0.38086,0.3808594 0.38086,0.9277344 0,0.53710937 -0.38086,0.91796875 -0.380859,0.38085938 -0.917968,0.38085938 -0.556641,0 -0.927735,-0.37109375 Q 20.947266,-0.46875 20.947266,-1.015625 Z" /><path
                         id="path534"
                         style=""
                         d="m 34.761719,-6.5332031 q -0.654297,0.7324219 -1.503907,1.09375 -0.849609,0.3613281 -1.914062,0.3613281 -2.167969,0 -3.427734,-1.3085937 -1.25,-1.3085938 -1.25,-3.5742188 0,-2.2167965 1.357421,-3.5449215 1.367188,-1.337891 3.642579,-1.337891 2.470703,0 3.789062,1.845703 1.328125,1.835938 1.328125,5.2539064 0,3.828125 -1.572266,5.9277344 -1.572265,2.09960933 -4.423828,2.09960933 -0.771484,0 -1.621093,-0.14648438 -0.84961,-0.14648438 -1.738282,-0.43945313 V -2.7246094 h 1.09375 q 0.126953,0.9863282 0.761719,1.5136719 0.634766,0.52734375 1.699219,0.52734375 1.894531,0 2.822265,-1.42578125 0.927735,-1.4355469 0.957032,-4.4238281 z m -3.173828,-7.3437499 q -1.386719,0 -2.128907,1.015625 -0.732422,1.005859 -0.732422,2.9003905 0,1.8945312 0.732422,2.9101563 0.742188,1.015625 2.128907,1.015625 1.386718,0 2.11914,-0.9765625 0.742188,-0.9863282 0.742188,-2.8320313 0,-1.943359 -0.742188,-2.988281 -0.742187,-1.044922 -2.11914,-1.044922 z" /></g></g></g><g
                   transform="scale(2)"
                   id="g64"><path
                     id="path66"
                     style="fill:none;stroke:#a0a0a4;stroke-width:0.5;stroke-linecap:round;stroke-linejoin:round;stroke-miterlimit:10;stroke-dasharray:0.5, 1;stroke-dashoffset:0;stroke-opacity:1"
                     d="m 114.5,331.5 h 489" /><path
                     id="path68"
                     style="fill:none;stroke:#000000;stroke-width:4;stroke-linecap:round;stroke-linejoin:round;stroke-miterlimit:10;stroke-dasharray:none;stroke-opacity:1"
                     d="m 114.5,331.5 h 9" /><path
                     id="path70"
                     style="fill:none;stroke:#000000;stroke-width:4;stroke-linecap:round;stroke-linejoin:round;stroke-miterlimit:10;stroke-dasharray:none;stroke-opacity:1"
                     d="m 603.5,331.5 h -9" /></g><g
                   transform="matrix(2,0,0,2,108,676)"
                   id="g72" /><g
                   transform="matrix(2,0,0,2,108,676)"
                   id="g74" /><g
                   transform="matrix(2,0,0,2,108,676)"
                   id="g76"><g
                     id="g78"><g
                       id="text82"
                       style="font-variant:normal;font-weight:normal;font-size:20px;font-family:'DejaVu Serif';-inkscape-font-specification:DejaVuSerif;writing-mode:lr-tb;fill:#000000;fill-opacity:1;fill-rule:nonzero;stroke:none"
                       aria-label="	0.91"><path
                         id="path537"
                         style=""
                         d="m 12.701172,-0.68359375 q 1.494141,0 2.236328,-1.64062505 0.742188,-1.640625 0.742188,-4.9511718 0,-3.3203124 -0.742188,-4.9609374 -0.742187,-1.640625 -2.236328,-1.640625 -1.494141,0 -2.236328,1.640625 -0.7421877,1.640625 -0.7421877,4.9609374 0,3.3105468 0.7421877,4.9511718 0.742187,1.64062505 2.236328,1.64062505 z m 0,0.96679688 q -2.373047,0 -3.7109376,-1.99218753 -1.328125,-1.9921875 -1.328125,-5.5664062 0,-3.5839844 1.328125,-5.5761724 1.3378906,-1.992187 3.7109376,-1.992187 2.382812,0 3.710937,1.992187 1.328125,1.992188 1.328125,5.5761724 0,3.5742187 -1.328125,5.5664062 -1.328125,1.99218753 -3.710937,1.99218753 z" /><path
                         id="path539"
                         style=""
                         d="m 20.947266,-1.015625 q 0,-0.546875 0.371093,-0.9277344 0.371094,-0.3808594 0.927735,-0.3808594 0.537109,0 0.917968,0.3808594 0.38086,0.3808594 0.38086,0.9277344 0,0.53710937 -0.38086,0.91796875 -0.380859,0.38085938 -0.917968,0.38085938 -0.556641,0 -0.927735,-0.37109375 Q 20.947266,-0.46875 20.947266,-1.015625 Z" /><path
                         id="path541"
                         style=""
                         d="m 34.761719,-6.5332031 q -0.654297,0.7324219 -1.503907,1.09375 -0.849609,0.3613281 -1.914062,0.3613281 -2.167969,0 -3.427734,-1.3085937 -1.25,-1.3085938 -1.25,-3.5742188 0,-2.2167965 1.357421,-3.5449215 1.367188,-1.337891 3.642579,-1.337891 2.470703,0 3.789062,1.845703 1.328125,1.835938 1.328125,5.2539064 0,3.828125 -1.572266,5.9277344 -1.572265,2.09960933 -4.423828,2.09960933 -0.771484,0 -1.621093,-0.14648438 -0.84961,-0.14648438 -1.738282,-0.43945313 V -2.7246094 h 1.09375 q 0.126953,0.9863282 0.761719,1.5136719 0.634766,0.52734375 1.699219,0.52734375 1.894531,0 2.822265,-1.42578125 0.927735,-1.4355469 0.957032,-4.4238281 z m -3.173828,-7.3437499 q -1.386719,0 -2.128907,1.015625 -0.732422,1.005859 -0.732422,2.9003905 0,1.8945312 0.732422,2.9101563 0.742188,1.015625 2.128907,1.015625 1.386718,0 2.11914,-0.9765625 0.742188,-0.9863282 0.742188,-2.8320313 0,-1.943359 -0.742188,-2.988281 -0.742187,-1.044922 -2.11914,-1.044922 z" /><path
                         id="path543"
                         style=""
                         d="m 40.966797,0 v -1.0351562 h 2.539062 V -13.164063 l -2.939453,1.904297 v -1.279297 l 3.554688,-2.304687 h 1.347656 v 13.8085938 h 2.539062 V 0 Z" /></g></g></g><g
                   transform="scale(2)"
                   id="g84"><path
                     id="path86"
                     style="fill:none;stroke:#a0a0a4;stroke-width:0.5;stroke-linecap:round;stroke-linejoin:round;stroke-miterlimit:10;stroke-dasharray:0.5, 1;stroke-dashoffset:0;stroke-opacity:1"
                     d="m 114.5,297.5 h 489" /><path
                     id="path88"
                     style="fill:none;stroke:#000000;stroke-width:4;stroke-linecap:round;stroke-linejoin:round;stroke-miterlimit:10;stroke-dasharray:none;stroke-opacity:1"
                     d="m 114.5,297.5 h 9" /><path
                     id="path90"
                     style="fill:none;stroke:#000000;stroke-width:4;stroke-linecap:round;stroke-linejoin:round;stroke-miterlimit:10;stroke-dasharray:none;stroke-opacity:1"
                     d="m 603.5,297.5 h -9" /></g><g
                   transform="matrix(2,0,0,2,106,610)"
                   id="g92" /><g
                   transform="matrix(2,0,0,2,106,610)"
                   id="g94" /><g
                   transform="matrix(2,0,0,2,106,610)"
                   id="g96"><g
                     id="g98"><g
                       id="text102"
                       style="font-variant:normal;font-weight:normal;font-size:20px;font-family:'DejaVu Serif';-inkscape-font-specification:DejaVuSerif;writing-mode:lr-tb;fill:#000000;fill-opacity:1;fill-rule:nonzero;stroke:none"
                       aria-label="	0.92"><path
                         id="path546"
                         style=""
                         d="m 12.701172,-0.68359375 q 1.494141,0 2.236328,-1.64062505 0.742188,-1.640625 0.742188,-4.9511718 0,-3.3203124 -0.742188,-4.9609374 -0.742187,-1.640625 -2.236328,-1.640625 -1.494141,0 -2.236328,1.640625 -0.7421877,1.640625 -0.7421877,4.9609374 0,3.3105468 0.7421877,4.9511718 0.742187,1.64062505 2.236328,1.64062505 z m 0,0.96679688 q -2.373047,0 -3.7109376,-1.99218753 -1.328125,-1.9921875 -1.328125,-5.5664062 0,-3.5839844 1.328125,-5.5761724 1.3378906,-1.992187 3.7109376,-1.992187 2.382812,0 3.710937,1.992187 1.328125,1.992188 1.328125,5.5761724 0,3.5742187 -1.328125,5.5664062 -1.328125,1.99218753 -3.710937,1.99218753 z" /><path
                         id="path548"
                         style=""
                         d="m 20.947266,-1.015625 q 0,-0.546875 0.371093,-0.9277344 0.371094,-0.3808594 0.927735,-0.3808594 0.537109,0 0.917968,0.3808594 0.38086,0.3808594 0.38086,0.9277344 0,0.53710937 -0.38086,0.91796875 -0.380859,0.38085938 -0.917968,0.38085938 -0.556641,0 -0.927735,-0.37109375 Q 20.947266,-0.46875 20.947266,-1.015625 Z" /><path
                         id="path550"
                         style=""
                         d="m 34.761719,-6.5332031 q -0.654297,0.7324219 -1.503907,1.09375 -0.849609,0.3613281 -1.914062,0.3613281 -2.167969,0 -3.427734,-1.3085937 -1.25,-1.3085938 -1.25,-3.5742188 0,-2.2167965 1.357421,-3.5449215 1.367188,-1.337891 3.642579,-1.337891 2.470703,0 3.789062,1.845703 1.328125,1.835938 1.328125,5.2539064 0,3.828125 -1.572266,5.9277344 -1.572265,2.09960933 -4.423828,2.09960933 -0.771484,0 -1.621093,-0.14648438 -0.84961,-0.14648438 -1.738282,-0.43945313 V -2.7246094 h 1.09375 q 0.126953,0.9863282 0.761719,1.5136719 0.634766,0.52734375 1.699219,0.52734375 1.894531,0 2.822265,-1.42578125 0.927735,-1.4355469 0.957032,-4.4238281 z m -3.173828,-7.3437499 q -1.386719,0 -2.128907,1.015625 -0.732422,1.005859 -0.732422,2.9003905 0,1.8945312 0.732422,2.9101563 0.742188,1.015625 2.128907,1.015625 1.386718,0 2.11914,-0.9765625 0.742188,-0.9863282 0.742188,-2.8320313 0,-1.943359 -0.742188,-2.988281 -0.742187,-1.044922 -2.11914,-1.044922 z" /><path
                         id="path552"
                         style=""
                         d="m 40.683594,-11.103516 h -1.09375 v -2.597656 q 1.044922,-0.556641 2.099609,-0.849609 1.064453,-0.292969 2.080078,-0.292969 2.275391,0 3.59375,1.103516 1.31836,1.103515 1.31836,2.998046 0,2.1386724 -2.988282,5.117188 -0.234375,0.2246094 -0.351562,0.3417969 l -3.681641,3.6816406 h 6.083985 v -1.796875 h 1.142578 V 0 h -9.404297 v -1.0644531 l 4.423828,-4.4140625 q 1.464844,-1.4648438 2.089844,-2.6855469 0.625,-1.2304688 0.625,-2.5781255 0,-1.474609 -0.771485,-2.304687 -0.761718,-0.830078 -2.109375,-0.830078 -1.396484,0 -2.158203,0.693359 -0.761719,0.69336 -0.898437,2.080078 z" /></g></g></g><g
                   transform="scale(2)"
                   id="g104"><path
                     id="path106"
                     style="fill:none;stroke:#a0a0a4;stroke-width:0.5;stroke-linecap:round;stroke-linejoin:round;stroke-miterlimit:10;stroke-dasharray:0.5, 1;stroke-dashoffset:0;stroke-opacity:1"
                     d="m 114.5,264.5 h 489" /><path
                     id="path108"
                     style="fill:none;stroke:#000000;stroke-width:4;stroke-linecap:round;stroke-linejoin:round;stroke-miterlimit:10;stroke-dasharray:none;stroke-opacity:1"
                     d="m 114.5,264.5 h 9" /><path
                     id="path110"
                     style="fill:none;stroke:#000000;stroke-width:4;stroke-linecap:round;stroke-linejoin:round;stroke-miterlimit:10;stroke-dasharray:none;stroke-opacity:1"
                     d="m 603.5,264.5 h -9" /></g><g
                   transform="matrix(2,0,0,2,104,542)"
                   id="g112" /><g
                   transform="matrix(2,0,0,2,104,542)"
                   id="g114" /><g
                   transform="matrix(2,0,0,2,104,542)"
                   id="g116"><g
                     id="g118"><g
                       id="text122"
                       style="font-variant:normal;font-weight:normal;font-size:20px;font-family:'DejaVu Serif';-inkscape-font-specification:DejaVuSerif;writing-mode:lr-tb;fill:#000000;fill-opacity:1;fill-rule:nonzero;stroke:none"
                       aria-label="	0.93"><path
                         id="path555"
                         style=""
                         d="m 12.701172,-0.68359375 q 1.494141,0 2.236328,-1.64062505 0.742188,-1.640625 0.742188,-4.9511718 0,-3.3203124 -0.742188,-4.9609374 -0.742187,-1.640625 -2.236328,-1.640625 -1.494141,0 -2.236328,1.640625 -0.7421877,1.640625 -0.7421877,4.9609374 0,3.3105468 0.7421877,4.9511718 0.742187,1.64062505 2.236328,1.64062505 z m 0,0.96679688 q -2.373047,0 -3.7109376,-1.99218753 -1.328125,-1.9921875 -1.328125,-5.5664062 0,-3.5839844 1.328125,-5.5761724 1.3378906,-1.992187 3.7109376,-1.992187 2.382812,0 3.710937,1.992187 1.328125,1.992188 1.328125,5.5761724 0,3.5742187 -1.328125,5.5664062 -1.328125,1.99218753 -3.710937,1.99218753 z" /><path
                         id="path557"
                         style=""
                         d="m 20.947266,-1.015625 q 0,-0.546875 0.371093,-0.9277344 0.371094,-0.3808594 0.927735,-0.3808594 0.537109,0 0.917968,0.3808594 0.38086,0.3808594 0.38086,0.9277344 0,0.53710937 -0.38086,0.91796875 -0.380859,0.38085938 -0.917968,0.38085938 -0.556641,0 -0.927735,-0.37109375 Q 20.947266,-0.46875 20.947266,-1.015625 Z" /><path
                         id="path559"
                         style=""
                         d="m 34.761719,-6.5332031 q -0.654297,0.7324219 -1.503907,1.09375 -0.849609,0.3613281 -1.914062,0.3613281 -2.167969,0 -3.427734,-1.3085937 -1.25,-1.3085938 -1.25,-3.5742188 0,-2.2167965 1.357421,-3.5449215 1.367188,-1.337891 3.642579,-1.337891 2.470703,0 3.789062,1.845703 1.328125,1.835938 1.328125,5.2539064 0,3.828125 -1.572266,5.9277344 -1.572265,2.09960933 -4.423828,2.09960933 -0.771484,0 -1.621093,-0.14648438 -0.84961,-0.14648438 -1.738282,-0.43945313 V -2.7246094 h 1.09375 q 0.126953,0.9863282 0.761719,1.5136719 0.634766,0.52734375 1.699219,0.52734375 1.894531,0 2.822265,-1.42578125 0.927735,-1.4355469 0.957032,-4.4238281 z m -3.173828,-7.3437499 q -1.386719,0 -2.128907,1.015625 -0.732422,1.005859 -0.732422,2.9003905 0,1.8945312 0.732422,2.9101563 0.742188,1.015625 2.128907,1.015625 1.386718,0 2.11914,-0.9765625 0.742188,-0.9863282 0.742188,-2.8320313 0,-1.943359 -0.742188,-2.988281 -0.742187,-1.044922 -2.11914,-1.044922 z" /><path
                         id="path561"
                         style=""
                         d="m 40.068359,-13.964844 q 1.142578,-0.429687 2.1875,-0.654297 1.054688,-0.224609 1.972657,-0.224609 2.138671,0 3.339843,0.927734 1.201172,0.917969 1.201172,2.558594 0,1.318359 -0.830078,2.2070314 -0.830078,0.8789062 -2.353516,1.1914062 1.796875,0.2539063 2.783204,1.3085938 0.996093,1.0449219 0.996093,2.7148437 0,2.0410157 -1.376953,3.13476565 -1.367187,1.08398438 -3.945312,1.08398438 -1.142578,0 -2.236328,-0.24414063 -1.083985,-0.24414063 -2.158204,-0.7421875 v -2.8320313 h 1.09375 q 0.09766,1.40625 0.947266,2.1289063 0.849609,0.72265625 2.392578,0.72265625 1.494141,0 2.353516,-0.85937495 0.86914,-0.8691407 0.86914,-2.3730469 0,-1.71875 -0.888671,-2.5976563 -0.888672,-0.8886718 -2.607422,-0.8886718 h -0.927735 v -0.9960938 h 0.488282 q 1.708984,0 2.558593,-0.703125 0.859375,-0.7128906 0.859375,-2.1386715 0,-1.279297 -0.703125,-1.953125 -0.703125,-0.683594 -2.021484,-0.683594 -1.318359,0 -2.050781,0.625 -0.722657,0.625 -0.84961,1.855469 h -1.09375 z" /></g></g></g><g
                   transform="scale(2)"
                   id="g124"><path
                     id="path126"
                     style="fill:none;stroke:#a0a0a4;stroke-width:0.5;stroke-linecap:round;stroke-linejoin:round;stroke-miterlimit:10;stroke-dasharray:0.5, 1;stroke-dashoffset:0;stroke-opacity:1"
                     d="m 114.5,230.5 h 489" /><path
                     id="path128"
                     style="fill:none;stroke:#000000;stroke-width:4;stroke-linecap:round;stroke-linejoin:round;stroke-miterlimit:10;stroke-dasharray:none;stroke-opacity:1"
                     d="m 114.5,230.5 h 9" /><path
                     id="path130"
                     style="fill:none;stroke:#000000;stroke-width:4;stroke-linecap:round;stroke-linejoin:round;stroke-miterlimit:10;stroke-dasharray:none;stroke-opacity:1"
                     d="m 603.5,230.5 h -9" /></g><g
                   transform="matrix(2,0,0,2,104,476)"
                   id="g132" /><g
                   transform="matrix(2,0,0,2,104,476)"
                   id="g134" /><g
                   transform="matrix(2,0,0,2,104,476)"
                   id="g136"><g
                     id="g138"><g
                       id="text142"
                       style="font-variant:normal;font-weight:normal;font-size:20px;font-family:'DejaVu Serif';-inkscape-font-specification:DejaVuSerif;writing-mode:lr-tb;fill:#000000;fill-opacity:1;fill-rule:nonzero;stroke:none"
                       aria-label="	0.94"><path
                         id="path564"
                         style=""
                         d="m 12.701172,-0.68359375 q 1.494141,0 2.236328,-1.64062505 0.742188,-1.640625 0.742188,-4.9511718 0,-3.3203124 -0.742188,-4.9609374 -0.742187,-1.640625 -2.236328,-1.640625 -1.494141,0 -2.236328,1.640625 -0.7421877,1.640625 -0.7421877,4.9609374 0,3.3105468 0.7421877,4.9511718 0.742187,1.64062505 2.236328,1.64062505 z m 0,0.96679688 q -2.373047,0 -3.7109376,-1.99218753 -1.328125,-1.9921875 -1.328125,-5.5664062 0,-3.5839844 1.328125,-5.5761724 1.3378906,-1.992187 3.7109376,-1.992187 2.382812,0 3.710937,1.992187 1.328125,1.992188 1.328125,5.5761724 0,3.5742187 -1.328125,5.5664062 -1.328125,1.99218753 -3.710937,1.99218753 z" /><path
                         id="path566"
                         style=""
                         d="m 20.947266,-1.015625 q 0,-0.546875 0.371093,-0.9277344 0.371094,-0.3808594 0.927735,-0.3808594 0.537109,0 0.917968,0.3808594 0.38086,0.3808594 0.38086,0.9277344 0,0.53710937 -0.38086,0.91796875 -0.380859,0.38085938 -0.917968,0.38085938 -0.556641,0 -0.927735,-0.37109375 Q 20.947266,-0.46875 20.947266,-1.015625 Z" /><path
                         id="path568"
                         style=""
                         d="m 34.761719,-6.5332031 q -0.654297,0.7324219 -1.503907,1.09375 -0.849609,0.3613281 -1.914062,0.3613281 -2.167969,0 -3.427734,-1.3085937 -1.25,-1.3085938 -1.25,-3.5742188 0,-2.2167965 1.357421,-3.5449215 1.367188,-1.337891 3.642579,-1.337891 2.470703,0 3.789062,1.845703 1.328125,1.835938 1.328125,5.2539064 0,3.828125 -1.572266,5.9277344 -1.572265,2.09960933 -4.423828,2.09960933 -0.771484,0 -1.621093,-0.14648438 -0.84961,-0.14648438 -1.738282,-0.43945313 V -2.7246094 h 1.09375 q 0.126953,0.9863282 0.761719,1.5136719 0.634766,0.52734375 1.699219,0.52734375 1.894531,0 2.822265,-1.42578125 0.927735,-1.4355469 0.957032,-4.4238281 z m -3.173828,-7.3437499 q -1.386719,0 -2.128907,1.015625 -0.732422,1.005859 -0.732422,2.9003905 0,1.8945312 0.732422,2.9101563 0.742188,1.015625 2.128907,1.015625 1.386718,0 2.11914,-0.9765625 0.742188,-0.9863282 0.742188,-2.8320313 0,-1.943359 -0.742188,-2.988281 -0.742187,-1.044922 -2.11914,-1.044922 z" /><path
                         id="path570"
                         style=""
                         d="m 45.107422,-4.9414062 v -7.7539068 l -4.980469,7.7539068 z M 49.404297,0 h -6.640625 v -1.0351562 h 2.34375 v -2.8613282 h -6.367188 v -1.0644531 l 6.386719,-9.8828125 h 1.933594 v 9.9023438 h 2.783203 v 1.0449218 h -2.783203 v 2.8613282 h 2.34375 z" /></g></g></g><g
                   transform="scale(2)"
                   id="g144"><path
                     id="path146"
                     style="fill:none;stroke:#a0a0a4;stroke-width:0.5;stroke-linecap:round;stroke-linejoin:round;stroke-miterlimit:10;stroke-dasharray:0.5, 1;stroke-dashoffset:0;stroke-opacity:1"
                     d="m 114.5,196.5 h 489" /><path
                     id="path148"
                     style="fill:none;stroke:#000000;stroke-width:4;stroke-linecap:round;stroke-linejoin:round;stroke-miterlimit:10;stroke-dasharray:none;stroke-opacity:1"
                     d="m 114.5,196.5 h 9" /><path
                     id="path150"
                     style="fill:none;stroke:#000000;stroke-width:4;stroke-linecap:round;stroke-linejoin:round;stroke-miterlimit:10;stroke-dasharray:none;stroke-opacity:1"
                     d="m 603.5,196.5 h -9" /></g><g
                   transform="matrix(2,0,0,2,104,408)"
                   id="g152" /><g
                   transform="matrix(2,0,0,2,104,408)"
                   id="g154" /><g
                   transform="matrix(2,0,0,2,104,408)"
                   id="g156"><g
                     id="g158"><g
                       id="text162"
                       style="font-variant:normal;font-weight:normal;font-size:20px;font-family:'DejaVu Serif';-inkscape-font-specification:DejaVuSerif;writing-mode:lr-tb;fill:#000000;fill-opacity:1;fill-rule:nonzero;stroke:none"
                       aria-label="	0.95"><path
                         id="path573"
                         style=""
                         d="m 12.701172,-0.68359375 q 1.494141,0 2.236328,-1.64062505 0.742188,-1.640625 0.742188,-4.9511718 0,-3.3203124 -0.742188,-4.9609374 -0.742187,-1.640625 -2.236328,-1.640625 -1.494141,0 -2.236328,1.640625 -0.7421877,1.640625 -0.7421877,4.9609374 0,3.3105468 0.7421877,4.9511718 0.742187,1.64062505 2.236328,1.64062505 z m 0,0.96679688 q -2.373047,0 -3.7109376,-1.99218753 -1.328125,-1.9921875 -1.328125,-5.5664062 0,-3.5839844 1.328125,-5.5761724 1.3378906,-1.992187 3.7109376,-1.992187 2.382812,0 3.710937,1.992187 1.328125,1.992188 1.328125,5.5761724 0,3.5742187 -1.328125,5.5664062 -1.328125,1.99218753 -3.710937,1.99218753 z" /><path
                         id="path575"
                         style=""
                         d="m 20.947266,-1.015625 q 0,-0.546875 0.371093,-0.9277344 0.371094,-0.3808594 0.927735,-0.3808594 0.537109,0 0.917968,0.3808594 0.38086,0.3808594 0.38086,0.9277344 0,0.53710937 -0.38086,0.91796875 -0.380859,0.38085938 -0.917968,0.38085938 -0.556641,0 -0.927735,-0.37109375 Q 20.947266,-0.46875 20.947266,-1.015625 Z" /><path
                         id="path577"
                         style=""
                         d="m 34.761719,-6.5332031 q -0.654297,0.7324219 -1.503907,1.09375 -0.849609,0.3613281 -1.914062,0.3613281 -2.167969,0 -3.427734,-1.3085937 -1.25,-1.3085938 -1.25,-3.5742188 0,-2.2167965 1.357421,-3.5449215 1.367188,-1.337891 3.642579,-1.337891 2.470703,0 3.789062,1.845703 1.328125,1.835938 1.328125,5.2539064 0,3.828125 -1.572266,5.9277344 -1.572265,2.09960933 -4.423828,2.09960933 -0.771484,0 -1.621093,-0.14648438 -0.84961,-0.14648438 -1.738282,-0.43945313 V -2.7246094 h 1.09375 q 0.126953,0.9863282 0.761719,1.5136719 0.634766,0.52734375 1.699219,0.52734375 1.894531,0 2.822265,-1.42578125 0.927735,-1.4355469 0.957032,-4.4238281 z m -3.173828,-7.3437499 q -1.386719,0 -2.128907,1.015625 -0.732422,1.005859 -0.732422,2.9003905 0,1.8945312 0.732422,2.9101563 0.742188,1.015625 2.128907,1.015625 1.386718,0 2.11914,-0.9765625 0.742188,-0.9863282 0.742188,-2.8320313 0,-1.943359 -0.742188,-2.988281 -0.742187,-1.044922 -2.11914,-1.044922 z" /><path
                         id="path579"
                         style=""
                         d="m 48.183594,-14.580078 v 1.601562 h -6.679688 v 4.1796879 q 0.507813,-0.3515625 1.181641,-0.5273438 0.683594,-0.1757812 1.523437,-0.1757812 2.363282,0 3.730469,1.3085937 1.367188,1.3085938 1.367188,3.5742188 0,2.3144531 -1.386719,3.6132812 -1.376953,1.28906253 -3.876953,1.28906253 -1.00586,0 -2.060547,-0.24414063 -1.054688,-0.24414063 -2.158203,-0.7421875 v -2.8320313 h 1.103515 q 0.08789,1.3867188 0.878907,2.1191407 0.800781,0.73242185 2.236328,0.73242185 1.542968,0 2.373047,-1.01562495 0.830078,-1.0156251 0.830078,-2.9199219 0,-1.8945313 -0.830078,-2.9003906 -0.820313,-1.0156251 -2.373047,-1.0156251 -0.878907,0 -1.552735,0.3125 -0.664062,0.3125001 -1.18164,0.9667969 H 40.46875 v -7.3242186 z" /></g></g></g><g
                   transform="scale(2)"
                   id="g164"><path
                     id="path166"
                     style="fill:none;stroke:#a0a0a4;stroke-width:0.5;stroke-linecap:round;stroke-linejoin:round;stroke-miterlimit:10;stroke-dasharray:0.5, 1;stroke-dashoffset:0;stroke-opacity:1"
                     d="m 114.5,163.5 h 489" /><path
                     id="path168"
                     style="fill:none;stroke:#000000;stroke-width:4;stroke-linecap:round;stroke-linejoin:round;stroke-miterlimit:10;stroke-dasharray:none;stroke-opacity:1"
                     d="m 114.5,163.5 h 9" /><path
                     id="path170"
                     style="fill:none;stroke:#000000;stroke-width:4;stroke-linecap:round;stroke-linejoin:round;stroke-miterlimit:10;stroke-dasharray:none;stroke-opacity:1"
                     d="m 603.5,163.5 h -9" /></g><g
                   transform="matrix(2,0,0,2,104,340)"
                   id="g172" /><g
                   transform="matrix(2,0,0,2,104,340)"
                   id="g174" /><g
                   transform="matrix(2,0,0,2,104,340)"
                   id="g176"><g
                     id="g178"><g
                       id="text182"
                       style="font-variant:normal;font-weight:normal;font-size:20px;font-family:'DejaVu Serif';-inkscape-font-specification:DejaVuSerif;writing-mode:lr-tb;fill:#000000;fill-opacity:1;fill-rule:nonzero;stroke:none"
                       aria-label="	0.96"><path
                         id="path582"
                         style=""
                         d="m 12.701172,-0.68359375 q 1.494141,0 2.236328,-1.64062505 0.742188,-1.640625 0.742188,-4.9511718 0,-3.3203124 -0.742188,-4.9609374 -0.742187,-1.640625 -2.236328,-1.640625 -1.494141,0 -2.236328,1.640625 -0.7421877,1.640625 -0.7421877,4.9609374 0,3.3105468 0.7421877,4.9511718 0.742187,1.64062505 2.236328,1.64062505 z m 0,0.96679688 q -2.373047,0 -3.7109376,-1.99218753 -1.328125,-1.9921875 -1.328125,-5.5664062 0,-3.5839844 1.328125,-5.5761724 1.3378906,-1.992187 3.7109376,-1.992187 2.382812,0 3.710937,1.992187 1.328125,1.992188 1.328125,5.5761724 0,3.5742187 -1.328125,5.5664062 -1.328125,1.99218753 -3.710937,1.99218753 z" /><path
                         id="path584"
                         style=""
                         d="m 20.947266,-1.015625 q 0,-0.546875 0.371093,-0.9277344 0.371094,-0.3808594 0.927735,-0.3808594 0.537109,0 0.917968,0.3808594 0.38086,0.3808594 0.38086,0.9277344 0,0.53710937 -0.38086,0.91796875 -0.380859,0.38085938 -0.917968,0.38085938 -0.556641,0 -0.927735,-0.37109375 Q 20.947266,-0.46875 20.947266,-1.015625 Z" /><path
                         id="path586"
                         style=""
                         d="m 34.761719,-6.5332031 q -0.654297,0.7324219 -1.503907,1.09375 -0.849609,0.3613281 -1.914062,0.3613281 -2.167969,0 -3.427734,-1.3085937 -1.25,-1.3085938 -1.25,-3.5742188 0,-2.2167965 1.357421,-3.5449215 1.367188,-1.337891 3.642579,-1.337891 2.470703,0 3.789062,1.845703 1.328125,1.835938 1.328125,5.2539064 0,3.828125 -1.572266,5.9277344 -1.572265,2.09960933 -4.423828,2.09960933 -0.771484,0 -1.621093,-0.14648438 -0.84961,-0.14648438 -1.738282,-0.43945313 V -2.7246094 h 1.09375 q 0.126953,0.9863282 0.761719,1.5136719 0.634766,0.52734375 1.699219,0.52734375 1.894531,0 2.822265,-1.42578125 0.927735,-1.4355469 0.957032,-4.4238281 z m -3.173828,-7.3437499 q -1.386719,0 -2.128907,1.015625 -0.732422,1.005859 -0.732422,2.9003905 0,1.8945312 0.732422,2.9101563 0.742188,1.015625 2.128907,1.015625 1.386718,0 2.11914,-0.9765625 0.742188,-0.9863282 0.742188,-2.8320313 0,-1.943359 -0.742188,-2.988281 -0.742187,-1.044922 -2.11914,-1.044922 z" /><path
                         id="path588"
                         style=""
                         d="m 44.667969,-0.68359375 q 1.376953,0 2.11914,-1.00585935 0.742188,-1.015625 0.742188,-2.9101563 0,-1.8945312 -0.742188,-2.9003906 -0.742187,-1.015625 -2.11914,-1.015625 -1.396485,0 -2.128907,0.9765625 -0.732421,0.9765625 -0.732421,2.8222656 0,1.9433594 0.742187,2.9882813 0.742188,1.04492185 2.119141,1.04492185 z M 41.484375,-8.0273438 q 0.664062,-0.7324218 1.503906,-1.09375 0.839844,-0.3613281 1.894531,-0.3613281 2.177735,0 3.4375,1.3085938 1.269532,1.3085937 1.269532,3.5742187 0,2.2167969 -1.367188,3.5546875 -1.357422,1.32812503 -3.632812,1.32812503 -2.470703,0 -3.798828,-1.83593753 -1.328125,-1.8457031 -1.328125,-5.2636718 0,-3.8281248 1.572265,-5.9277348 1.572266,-2.099609 4.433594,-2.099609 0.771484,0 1.621094,0.146484 0.849609,0.146485 1.738281,0.439453 v 2.402344 h -1.103516 q -0.117187,-0.986328 -0.751953,-1.503906 -0.634765,-0.517578 -1.708984,-0.517578 -1.894531,0 -2.822266,1.435547 -0.927734,1.435547 -0.957031,4.4140622 z" /></g></g></g><g
                   transform="scale(2)"
                   id="g184"><path
                     id="path186"
                     style="fill:none;stroke:#a0a0a4;stroke-width:0.5;stroke-linecap:round;stroke-linejoin:round;stroke-miterlimit:10;stroke-dasharray:0.5, 1;stroke-dashoffset:0;stroke-opacity:1"
                     d="m 114.5,129.5 h 489" /><path
                     id="path188"
                     style="fill:none;stroke:#000000;stroke-width:4;stroke-linecap:round;stroke-linejoin:round;stroke-miterlimit:10;stroke-dasharray:none;stroke-opacity:1"
                     d="m 114.5,129.5 h 9" /><path
                     id="path190"
                     style="fill:none;stroke:#000000;stroke-width:4;stroke-linecap:round;stroke-linejoin:round;stroke-miterlimit:10;stroke-dasharray:none;stroke-opacity:1"
                     d="m 603.5,129.5 h -9" /></g><g
                   transform="matrix(2,0,0,2,104,274)"
                   id="g192" /><g
                   transform="matrix(2,0,0,2,104,274)"
                   id="g194" /><g
                   transform="matrix(2,0,0,2,104,274)"
                   id="g196"><g
                     id="g198"><g
                       id="text202"
                       style="font-variant:normal;font-weight:normal;font-size:20px;font-family:'DejaVu Serif';-inkscape-font-specification:DejaVuSerif;writing-mode:lr-tb;fill:#000000;fill-opacity:1;fill-rule:nonzero;stroke:none"
                       aria-label="	0.97"><path
                         id="path591"
                         style=""
                         d="m 12.701172,-0.68359375 q 1.494141,0 2.236328,-1.64062505 0.742188,-1.640625 0.742188,-4.9511718 0,-3.3203124 -0.742188,-4.9609374 -0.742187,-1.640625 -2.236328,-1.640625 -1.494141,0 -2.236328,1.640625 -0.7421877,1.640625 -0.7421877,4.9609374 0,3.3105468 0.7421877,4.9511718 0.742187,1.64062505 2.236328,1.64062505 z m 0,0.96679688 q -2.373047,0 -3.7109376,-1.99218753 -1.328125,-1.9921875 -1.328125,-5.5664062 0,-3.5839844 1.328125,-5.5761724 1.3378906,-1.992187 3.7109376,-1.992187 2.382812,0 3.710937,1.992187 1.328125,1.992188 1.328125,5.5761724 0,3.5742187 -1.328125,5.5664062 -1.328125,1.99218753 -3.710937,1.99218753 z" /><path
                         id="path593"
                         style=""
                         d="m 20.947266,-1.015625 q 0,-0.546875 0.371093,-0.9277344 0.371094,-0.3808594 0.927735,-0.3808594 0.537109,0 0.917968,0.3808594 0.38086,0.3808594 0.38086,0.9277344 0,0.53710937 -0.38086,0.91796875 -0.380859,0.38085938 -0.917968,0.38085938 -0.556641,0 -0.927735,-0.37109375 Q 20.947266,-0.46875 20.947266,-1.015625 Z" /><path
                         id="path595"
                         style=""
                         d="m 34.761719,-6.5332031 q -0.654297,0.7324219 -1.503907,1.09375 -0.849609,0.3613281 -1.914062,0.3613281 -2.167969,0 -3.427734,-1.3085937 -1.25,-1.3085938 -1.25,-3.5742188 0,-2.2167965 1.357421,-3.5449215 1.367188,-1.337891 3.642579,-1.337891 2.470703,0 3.789062,1.845703 1.328125,1.835938 1.328125,5.2539064 0,3.828125 -1.572266,5.9277344 -1.572265,2.09960933 -4.423828,2.09960933 -0.771484,0 -1.621093,-0.14648438 -0.84961,-0.14648438 -1.738282,-0.43945313 V -2.7246094 h 1.09375 q 0.126953,0.9863282 0.761719,1.5136719 0.634766,0.52734375 1.699219,0.52734375 1.894531,0 2.822265,-1.42578125 0.927735,-1.4355469 0.957032,-4.4238281 z m -3.173828,-7.3437499 q -1.386719,0 -2.128907,1.015625 -0.732422,1.005859 -0.732422,2.9003905 0,1.8945312 0.732422,2.9101563 0.742188,1.015625 2.128907,1.015625 1.386718,0 2.11914,-0.9765625 0.742188,-0.9863282 0.742188,-2.8320313 0,-1.943359 -0.742188,-2.988281 -0.742187,-1.044922 -2.11914,-1.044922 z" /><path
                         id="path597"
                         style=""
                         d="M 49.404297,-13.583984 43.701172,0 h -1.455078 l 5.439453,-12.978516 h -6.738281 v 1.796875 h -1.142579 v -3.398437 h 9.59961 z" /></g></g></g><g
                   transform="scale(2)"
                   id="g204"><path
                     id="path206"
                     style="fill:none;stroke:#a0a0a4;stroke-width:0.5;stroke-linecap:round;stroke-linejoin:round;stroke-miterlimit:10;stroke-dasharray:0.5, 1;stroke-dashoffset:0;stroke-opacity:1"
                     d="m 114.5,95.5 h 489" /><path
                     id="path208"
                     style="fill:none;stroke:#000000;stroke-width:4;stroke-linecap:round;stroke-linejoin:round;stroke-miterlimit:10;stroke-dasharray:none;stroke-opacity:1"
                     d="m 114.5,95.5 h 9" /><path
                     id="path210"
                     style="fill:none;stroke:#000000;stroke-width:4;stroke-linecap:round;stroke-linejoin:round;stroke-miterlimit:10;stroke-dasharray:none;stroke-opacity:1"
                     d="m 603.5,95.5 h -9" /></g><g
                   transform="matrix(2,0,0,2,104,206)"
                   id="g212" /><g
                   transform="matrix(2,0,0,2,104,206)"
                   id="g214" /><g
                   transform="matrix(2,0,0,2,104,206)"
                   id="g216"><g
                     id="g218"><g
                       id="text222"
                       style="font-variant:normal;font-weight:normal;font-size:20px;font-family:'DejaVu Serif';-inkscape-font-specification:DejaVuSerif;writing-mode:lr-tb;fill:#000000;fill-opacity:1;fill-rule:nonzero;stroke:none"
                       aria-label="	0.98"><path
                         id="path600"
                         style=""
                         d="m 12.701172,-0.68359375 q 1.494141,0 2.236328,-1.64062505 0.742188,-1.640625 0.742188,-4.9511718 0,-3.3203124 -0.742188,-4.9609374 -0.742187,-1.640625 -2.236328,-1.640625 -1.494141,0 -2.236328,1.640625 -0.7421877,1.640625 -0.7421877,4.9609374 0,3.3105468 0.7421877,4.9511718 0.742187,1.64062505 2.236328,1.64062505 z m 0,0.96679688 q -2.373047,0 -3.7109376,-1.99218753 -1.328125,-1.9921875 -1.328125,-5.5664062 0,-3.5839844 1.328125,-5.5761724 1.3378906,-1.992187 3.7109376,-1.992187 2.382812,0 3.710937,1.992187 1.328125,1.992188 1.328125,5.5761724 0,3.5742187 -1.328125,5.5664062 -1.328125,1.99218753 -3.710937,1.99218753 z" /><path
                         id="path602"
                         style=""
                         d="m 20.947266,-1.015625 q 0,-0.546875 0.371093,-0.9277344 0.371094,-0.3808594 0.927735,-0.3808594 0.537109,0 0.917968,0.3808594 0.38086,0.3808594 0.38086,0.9277344 0,0.53710937 -0.38086,0.91796875 -0.380859,0.38085938 -0.917968,0.38085938 -0.556641,0 -0.927735,-0.37109375 Q 20.947266,-0.46875 20.947266,-1.015625 Z" /><path
                         id="path604"
                         style=""
                         d="m 34.761719,-6.5332031 q -0.654297,0.7324219 -1.503907,1.09375 -0.849609,0.3613281 -1.914062,0.3613281 -2.167969,0 -3.427734,-1.3085937 -1.25,-1.3085938 -1.25,-3.5742188 0,-2.2167965 1.357421,-3.5449215 1.367188,-1.337891 3.642579,-1.337891 2.470703,0 3.789062,1.845703 1.328125,1.835938 1.328125,5.2539064 0,3.828125 -1.572266,5.9277344 -1.572265,2.09960933 -4.423828,2.09960933 -0.771484,0 -1.621093,-0.14648438 -0.84961,-0.14648438 -1.738282,-0.43945313 V -2.7246094 h 1.09375 q 0.126953,0.9863282 0.761719,1.5136719 0.634766,0.52734375 1.699219,0.52734375 1.894531,0 2.822265,-1.42578125 0.927735,-1.4355469 0.957032,-4.4238281 z m -3.173828,-7.3437499 q -1.386719,0 -2.128907,1.015625 -0.732422,1.005859 -0.732422,2.9003905 0,1.8945312 0.732422,2.9101563 0.742188,1.015625 2.128907,1.015625 1.386718,0 2.11914,-0.9765625 0.742188,-0.9863282 0.742188,-2.8320313 0,-1.943359 -0.742188,-2.988281 -0.742187,-1.044922 -2.11914,-1.044922 z" /><path
                         id="path606"
                         style=""
                         d="m 47.441406,-3.984375 q 0,-1.5625 -0.78125,-2.421875 -0.771484,-0.8691406 -2.177734,-0.8691406 -1.40625,0 -2.1875,0.8691406 -0.771485,0.859375 -0.771485,2.421875 0,1.5722656 0.771485,2.4414063 0.78125,0.85937495 2.1875,0.85937495 1.40625,0 2.177734,-0.85937495 0.78125,-0.8691407 0.78125,-2.4414063 z m -0.40039,-7.080078 q 0,-1.328125 -0.673829,-2.070313 -0.673828,-0.742187 -1.884765,-0.742187 -1.201172,0 -1.884766,0.742187 -0.673828,0.742188 -0.673828,2.070313 0,1.3378905 0.673828,2.080078 0.683594,0.7421875 1.884766,0.7421875 1.210937,0 1.884765,-0.7421875 0.673829,-0.7421875 0.673829,-2.080078 z m -1.054688,3.3007811 q 1.660156,0.2246094 2.587891,1.2304688 0.927734,0.9960937 0.927734,2.5488281 0,2.0507813 -1.298828,3.1640625 -1.298828,1.10351563 -3.720703,1.10351563 -2.41211,0 -3.720703,-1.10351563 -1.298828,-1.1132812 -1.298828,-3.1640625 0,-1.5527344 0.927734,-2.5488281 0.927734,-1.0058594 2.597656,-1.2304688 -1.474609,-0.2636719 -2.265625,-1.1132812 -0.78125,-0.859375 -0.78125,-2.1874999 0,-1.757813 1.210938,-2.763672 1.210937,-1.015625 3.330078,-1.015625 2.11914,0 3.330078,1.015625 1.210937,1.005859 1.210937,2.763672 0,1.3281249 -0.791015,2.1874999 -0.78125,0.8496093 -2.246094,1.1132812 z" /></g></g></g><g
                   transform="scale(2)"
                   id="g224"><path
                     id="path226"
                     style="fill:none;stroke:#a0a0a4;stroke-width:0.5;stroke-linecap:round;stroke-linejoin:round;stroke-miterlimit:10;stroke-dasharray:0.5, 1;stroke-dashoffset:0;stroke-opacity:1"
                     d="m 114.5,62.5 h 489" /><path
                     id="path228"
                     style="fill:none;stroke:#000000;stroke-width:4;stroke-linecap:round;stroke-linejoin:round;stroke-miterlimit:10;stroke-dasharray:none;stroke-opacity:1"
                     d="m 114.5,62.5 h 9" /><path
                     id="path230"
                     style="fill:none;stroke:#000000;stroke-width:4;stroke-linecap:round;stroke-linejoin:round;stroke-miterlimit:10;stroke-dasharray:none;stroke-opacity:1"
                     d="m 603.5,62.5 h -9" /></g><g
                   transform="matrix(2,0,0,2,104,138)"
                   id="g232" /><g
                   transform="matrix(2,0,0,2,104,138)"
                   id="g234" /><g
                   transform="matrix(2,0,0,2,104,138)"
                   id="g236"><g
                     id="g238"><g
                       id="text242"
                       style="font-variant:normal;font-weight:normal;font-size:20px;font-family:'DejaVu Serif';-inkscape-font-specification:DejaVuSerif;writing-mode:lr-tb;fill:#000000;fill-opacity:1;fill-rule:nonzero;stroke:none"
                       aria-label="	0.99"><path
                         id="path609"
                         style=""
                         d="m 12.701172,-0.68359375 q 1.494141,0 2.236328,-1.64062505 0.742188,-1.640625 0.742188,-4.9511718 0,-3.3203124 -0.742188,-4.9609374 -0.742187,-1.640625 -2.236328,-1.640625 -1.494141,0 -2.236328,1.640625 -0.7421877,1.640625 -0.7421877,4.9609374 0,3.3105468 0.7421877,4.9511718 0.742187,1.64062505 2.236328,1.64062505 z m 0,0.96679688 q -2.373047,0 -3.7109376,-1.99218753 -1.328125,-1.9921875 -1.328125,-5.5664062 0,-3.5839844 1.328125,-5.5761724 1.3378906,-1.992187 3.7109376,-1.992187 2.382812,0 3.710937,1.992187 1.328125,1.992188 1.328125,5.5761724 0,3.5742187 -1.328125,5.5664062 -1.328125,1.99218753 -3.710937,1.99218753 z" /><path
                         id="path611"
                         style=""
                         d="m 20.947266,-1.015625 q 0,-0.546875 0.371093,-0.9277344 0.371094,-0.3808594 0.927735,-0.3808594 0.537109,0 0.917968,0.3808594 0.38086,0.3808594 0.38086,0.9277344 0,0.53710937 -0.38086,0.91796875 -0.380859,0.38085938 -0.917968,0.38085938 -0.556641,0 -0.927735,-0.37109375 Q 20.947266,-0.46875 20.947266,-1.015625 Z" /><path
                         id="path613"
                         style=""
                         d="m 34.761719,-6.5332031 q -0.654297,0.7324219 -1.503907,1.09375 -0.849609,0.3613281 -1.914062,0.3613281 -2.167969,0 -3.427734,-1.3085937 -1.25,-1.3085938 -1.25,-3.5742188 0,-2.2167965 1.357421,-3.5449215 1.367188,-1.337891 3.642579,-1.337891 2.470703,0 3.789062,1.845703 1.328125,1.835938 1.328125,5.2539064 0,3.828125 -1.572266,5.9277344 -1.572265,2.09960933 -4.423828,2.09960933 -0.771484,0 -1.621093,-0.14648438 -0.84961,-0.14648438 -1.738282,-0.43945313 V -2.7246094 h 1.09375 q 0.126953,0.9863282 0.761719,1.5136719 0.634766,0.52734375 1.699219,0.52734375 1.894531,0 2.822265,-1.42578125 0.927735,-1.4355469 0.957032,-4.4238281 z m -3.173828,-7.3437499 q -1.386719,0 -2.128907,1.015625 -0.732422,1.005859 -0.732422,2.9003905 0,1.8945312 0.732422,2.9101563 0.742188,1.015625 2.128907,1.015625 1.386718,0 2.11914,-0.9765625 0.742188,-0.9863282 0.742188,-2.8320313 0,-1.943359 -0.742188,-2.988281 -0.742187,-1.044922 -2.11914,-1.044922 z" /><path
                         id="path615"
                         style=""
                         d="m 47.480469,-6.5332031 q -0.654297,0.7324219 -1.503907,1.09375 -0.849609,0.3613281 -1.914062,0.3613281 -2.167969,0 -3.427734,-1.3085937 -1.25,-1.3085938 -1.25,-3.5742188 0,-2.2167965 1.357421,-3.5449215 1.367188,-1.337891 3.642579,-1.337891 2.470703,0 3.789062,1.845703 1.328125,1.835938 1.328125,5.2539064 0,3.828125 -1.572266,5.9277344 -1.572265,2.09960933 -4.423828,2.09960933 -0.771484,0 -1.621093,-0.14648438 -0.84961,-0.14648438 -1.738282,-0.43945313 V -2.7246094 h 1.09375 q 0.126953,0.9863282 0.761719,1.5136719 0.634766,0.52734375 1.699219,0.52734375 1.894531,0 2.822265,-1.42578125 0.927735,-1.4355469 0.957032,-4.4238281 z m -3.173828,-7.3437499 q -1.386719,0 -2.128907,1.015625 -0.732422,1.005859 -0.732422,2.9003905 0,1.8945312 0.732422,2.9101563 0.742188,1.015625 2.128907,1.015625 1.386718,0 2.11914,-0.9765625 0.742188,-0.9863282 0.742188,-2.8320313 0,-1.943359 -0.742188,-2.988281 -0.742187,-1.044922 -2.11914,-1.044922 z" /></g></g></g><g
                   transform="scale(2)"
                   id="g244"><path
                     id="path246"
                     style="fill:none;stroke:#a0a0a4;stroke-width:0.5;stroke-linecap:round;stroke-linejoin:round;stroke-miterlimit:10;stroke-dasharray:0.5, 1;stroke-dashoffset:0;stroke-opacity:1"
                     d="M 114.5,365.5 V 62.5" /><path
                     id="path248"
                     style="fill:none;stroke:#000000;stroke-width:4;stroke-linecap:round;stroke-linejoin:round;stroke-miterlimit:10;stroke-dasharray:none;stroke-opacity:1"
                     d="m 114.5,365.5 v -10" /><path
                     id="path250"
                     style="fill:none;stroke:#000000;stroke-width:4;stroke-linecap:round;stroke-linejoin:round;stroke-miterlimit:10;stroke-dasharray:none;stroke-opacity:1"
                     d="m 114.5,62.5 v 9" /></g><g
                   transform="matrix(2,0,0,2,210,792)"
                   id="g252" /><g
                   transform="matrix(2,0,0,2,210,792)"
                   id="g254" /><g
                   transform="matrix(2,0,0,2,210,792)"
                   id="g256"><g
                     id="g258"><g
                       id="text262"
                       style="font-variant:normal;font-weight:normal;font-size:20px;font-family:'DejaVu Serif';-inkscape-font-specification:DejaVuSerif;writing-mode:lr-tb;fill:#000000;fill-opacity:1;fill-rule:nonzero;stroke:none"
                       aria-label="	0"><path
                         id="path618"
                         style=""
                         d="m 12.701172,-0.68359375 q 1.494141,0 2.236328,-1.64062505 0.742188,-1.640625 0.742188,-4.9511718 0,-3.3203124 -0.742188,-4.9609374 -0.742187,-1.640625 -2.236328,-1.640625 -1.494141,0 -2.236328,1.640625 -0.7421877,1.640625 -0.7421877,4.9609374 0,3.3105468 0.7421877,4.9511718 0.742187,1.64062505 2.236328,1.64062505 z m 0,0.96679688 q -2.373047,0 -3.7109376,-1.99218753 -1.328125,-1.9921875 -1.328125,-5.5664062 0,-3.5839844 1.328125,-5.5761724 1.3378906,-1.992187 3.7109376,-1.992187 2.382812,0 3.710937,1.992187 1.328125,1.992188 1.328125,5.5761724 0,3.5742187 -1.328125,5.5664062 -1.328125,1.99218753 -3.710937,1.99218753 z" /></g></g></g><g
                   transform="scale(2)"
                   id="g264"><path
                     id="path266"
                     style="fill:none;stroke:#a0a0a4;stroke-width:0.5;stroke-linecap:round;stroke-linejoin:round;stroke-miterlimit:10;stroke-dasharray:0.5, 1;stroke-dashoffset:0;stroke-opacity:1"
                     d="M 163.5,365.5 V 62.5" /><path
                     id="path268"
                     style="fill:none;stroke:#000000;stroke-width:4;stroke-linecap:round;stroke-linejoin:round;stroke-miterlimit:10;stroke-dasharray:none;stroke-opacity:1"
                     d="m 163.5,365.5 v -10" /><path
                     id="path270"
                     style="fill:none;stroke:#000000;stroke-width:4;stroke-linecap:round;stroke-linejoin:round;stroke-miterlimit:10;stroke-dasharray:none;stroke-opacity:1"
                     d="m 163.5,62.5 v 9" /></g><g
                   transform="matrix(2,0,0,2,291,792)"
                   id="g272" /><g
                   transform="matrix(2,0,0,2,291,792)"
                   id="g274" /><g
                   transform="matrix(2,0,0,2,291,792)"
                   id="g276"><g
                     id="g278"><g
                       id="text282"
                       style="font-variant:normal;font-weight:normal;font-size:20px;font-family:'DejaVu Serif';-inkscape-font-specification:DejaVuSerif;writing-mode:lr-tb;fill:#000000;fill-opacity:1;fill-rule:nonzero;stroke:none"
                       aria-label="	0.1"><path
                         id="path621"
                         style=""
                         d="m 12.701172,-0.68359375 q 1.494141,0 2.236328,-1.64062505 0.742188,-1.640625 0.742188,-4.9511718 0,-3.3203124 -0.742188,-4.9609374 -0.742187,-1.640625 -2.236328,-1.640625 -1.494141,0 -2.236328,1.640625 -0.7421877,1.640625 -0.7421877,4.9609374 0,3.3105468 0.7421877,4.9511718 0.742187,1.64062505 2.236328,1.64062505 z m 0,0.96679688 q -2.373047,0 -3.7109376,-1.99218753 -1.328125,-1.9921875 -1.328125,-5.5664062 0,-3.5839844 1.328125,-5.5761724 1.3378906,-1.992187 3.7109376,-1.992187 2.382812,0 3.710937,1.992187 1.328125,1.992188 1.328125,5.5761724 0,3.5742187 -1.328125,5.5664062 -1.328125,1.99218753 -3.710937,1.99218753 z" /><path
                         id="path623"
                         style=""
                         d="m 20.947266,-1.015625 q 0,-0.546875 0.371093,-0.9277344 0.371094,-0.3808594 0.927735,-0.3808594 0.537109,0 0.917968,0.3808594 0.38086,0.3808594 0.38086,0.9277344 0,0.53710937 -0.38086,0.91796875 -0.380859,0.38085938 -0.917968,0.38085938 -0.556641,0 -0.927735,-0.37109375 Q 20.947266,-0.46875 20.947266,-1.015625 Z" /><path
                         id="path625"
                         style=""
                         d="m 28.248047,0 v -1.0351562 h 2.539062 V -13.164063 l -2.939453,1.904297 v -1.279297 l 3.554688,-2.304687 H 32.75 v 13.8085938 h 2.539062 V 0 Z" /></g></g></g><g
                   transform="scale(2)"
                   id="g284"><path
                     id="path286"
                     style="fill:none;stroke:#a0a0a4;stroke-width:0.5;stroke-linecap:round;stroke-linejoin:round;stroke-miterlimit:10;stroke-dasharray:0.5, 1;stroke-dashoffset:0;stroke-opacity:1"
                     d="M 212.5,365.5 V 62.5" /><path
                     id="path288"
                     style="fill:none;stroke:#000000;stroke-width:4;stroke-linecap:round;stroke-linejoin:round;stroke-miterlimit:10;stroke-dasharray:none;stroke-opacity:1"
                     d="m 212.5,365.5 v -10" /><path
                     id="path290"
                     style="fill:none;stroke:#000000;stroke-width:4;stroke-linecap:round;stroke-linejoin:round;stroke-miterlimit:10;stroke-dasharray:none;stroke-opacity:1"
                     d="m 212.5,62.5 v 9" /></g><g
                   transform="matrix(2,0,0,2,388,792)"
                   id="g292" /><g
                   transform="matrix(2,0,0,2,388,792)"
                   id="g294" /><g
                   transform="matrix(2,0,0,2,388,792)"
                   id="g296"><g
                     id="g298"><g
                       id="text302"
                       style="font-variant:normal;font-weight:normal;font-size:20px;font-family:'DejaVu Serif';-inkscape-font-specification:DejaVuSerif;writing-mode:lr-tb;fill:#000000;fill-opacity:1;fill-rule:nonzero;stroke:none"
                       aria-label="	0.2"><path
                         id="path628"
                         style=""
                         d="m 12.701172,-0.68359375 q 1.494141,0 2.236328,-1.64062505 0.742188,-1.640625 0.742188,-4.9511718 0,-3.3203124 -0.742188,-4.9609374 -0.742187,-1.640625 -2.236328,-1.640625 -1.494141,0 -2.236328,1.640625 -0.7421877,1.640625 -0.7421877,4.9609374 0,3.3105468 0.7421877,4.9511718 0.742187,1.64062505 2.236328,1.64062505 z m 0,0.96679688 q -2.373047,0 -3.7109376,-1.99218753 -1.328125,-1.9921875 -1.328125,-5.5664062 0,-3.5839844 1.328125,-5.5761724 1.3378906,-1.992187 3.7109376,-1.992187 2.382812,0 3.710937,1.992187 1.328125,1.992188 1.328125,5.5761724 0,3.5742187 -1.328125,5.5664062 -1.328125,1.99218753 -3.710937,1.99218753 z" /><path
                         id="path630"
                         style=""
                         d="m 20.947266,-1.015625 q 0,-0.546875 0.371093,-0.9277344 0.371094,-0.3808594 0.927735,-0.3808594 0.537109,0 0.917968,0.3808594 0.38086,0.3808594 0.38086,0.9277344 0,0.53710937 -0.38086,0.91796875 -0.380859,0.38085938 -0.917968,0.38085938 -0.556641,0 -0.927735,-0.37109375 Q 20.947266,-0.46875 20.947266,-1.015625 Z" /><path
                         id="path632"
                         style=""
                         d="m 27.964844,-11.103516 h -1.09375 v -2.597656 q 1.044922,-0.556641 2.099609,-0.849609 1.064453,-0.292969 2.080078,-0.292969 2.275391,0 3.59375,1.103516 1.31836,1.103515 1.31836,2.998046 0,2.1386724 -2.988282,5.117188 -0.234375,0.2246094 -0.351562,0.3417969 l -3.681641,3.6816406 h 6.083985 v -1.796875 h 1.142578 V 0 H 26.763672 V -1.0644531 L 31.1875,-5.4785156 q 1.464844,-1.4648438 2.089844,-2.6855469 0.625,-1.2304688 0.625,-2.5781255 0,-1.474609 -0.771485,-2.304687 -0.761718,-0.830078 -2.109375,-0.830078 -1.396484,0 -2.158203,0.693359 -0.761719,0.69336 -0.898437,2.080078 z" /></g></g></g><g
                   transform="scale(2)"
                   id="g304"><path
                     id="path306"
                     style="fill:none;stroke:#a0a0a4;stroke-width:0.5;stroke-linecap:round;stroke-linejoin:round;stroke-miterlimit:10;stroke-dasharray:0.5, 1;stroke-dashoffset:0;stroke-opacity:1"
                     d="M 261.5,365.5 V 62.5" /><path
                     id="path308"
                     style="fill:none;stroke:#000000;stroke-width:4;stroke-linecap:round;stroke-linejoin:round;stroke-miterlimit:10;stroke-dasharray:none;stroke-opacity:1"
                     d="m 261.5,365.5 v -10" /><path
                     id="path310"
                     style="fill:none;stroke:#000000;stroke-width:4;stroke-linecap:round;stroke-linejoin:round;stroke-miterlimit:10;stroke-dasharray:none;stroke-opacity:1"
                     d="m 261.5,62.5 v 9" /></g><g
                   transform="matrix(2,0,0,2,485,792)"
                   id="g312" /><g
                   transform="matrix(2,0,0,2,485,792)"
                   id="g314" /><g
                   transform="matrix(2,0,0,2,485,792)"
                   id="g316"><g
                     id="g318"><g
                       id="text322"
                       style="font-variant:normal;font-weight:normal;font-size:20px;font-family:'DejaVu Serif';-inkscape-font-specification:DejaVuSerif;writing-mode:lr-tb;fill:#000000;fill-opacity:1;fill-rule:nonzero;stroke:none"
                       aria-label="	0.3"><path
                         id="path635"
                         style=""
                         d="m 12.701172,-0.68359375 q 1.494141,0 2.236328,-1.64062505 0.742188,-1.640625 0.742188,-4.9511718 0,-3.3203124 -0.742188,-4.9609374 -0.742187,-1.640625 -2.236328,-1.640625 -1.494141,0 -2.236328,1.640625 -0.7421877,1.640625 -0.7421877,4.9609374 0,3.3105468 0.7421877,4.9511718 0.742187,1.64062505 2.236328,1.64062505 z m 0,0.96679688 q -2.373047,0 -3.7109376,-1.99218753 -1.328125,-1.9921875 -1.328125,-5.5664062 0,-3.5839844 1.328125,-5.5761724 1.3378906,-1.992187 3.7109376,-1.992187 2.382812,0 3.710937,1.992187 1.328125,1.992188 1.328125,5.5761724 0,3.5742187 -1.328125,5.5664062 -1.328125,1.99218753 -3.710937,1.99218753 z" /><path
                         id="path637"
                         style=""
                         d="m 20.947266,-1.015625 q 0,-0.546875 0.371093,-0.9277344 0.371094,-0.3808594 0.927735,-0.3808594 0.537109,0 0.917968,0.3808594 0.38086,0.3808594 0.38086,0.9277344 0,0.53710937 -0.38086,0.91796875 -0.380859,0.38085938 -0.917968,0.38085938 -0.556641,0 -0.927735,-0.37109375 Q 20.947266,-0.46875 20.947266,-1.015625 Z" /><path
                         id="path639"
                         style=""
                         d="m 27.349609,-13.964844 q 1.142578,-0.429687 2.1875,-0.654297 1.054688,-0.224609 1.972657,-0.224609 2.138671,0 3.339843,0.927734 1.201172,0.917969 1.201172,2.558594 0,1.318359 -0.830078,2.2070314 -0.830078,0.8789062 -2.353516,1.1914062 1.796875,0.2539063 2.783204,1.3085938 0.996093,1.0449219 0.996093,2.7148437 0,2.0410157 -1.376953,3.13476565 -1.367187,1.08398438 -3.945312,1.08398438 -1.142578,0 -2.236328,-0.24414063 -1.083985,-0.24414063 -2.158204,-0.7421875 v -2.8320313 h 1.09375 q 0.09766,1.40625 0.947266,2.1289063 0.849609,0.72265625 2.392578,0.72265625 1.494141,0 2.353516,-0.85937495 0.86914,-0.8691407 0.86914,-2.3730469 0,-1.71875 -0.888671,-2.5976563 -0.888672,-0.8886718 -2.607422,-0.8886718 h -0.927735 v -0.9960938 h 0.488282 q 1.708984,0 2.558593,-0.703125 0.859375,-0.7128906 0.859375,-2.1386715 0,-1.279297 -0.703125,-1.953125 -0.703125,-0.683594 -2.021484,-0.683594 -1.318359,0 -2.050781,0.625 -0.722657,0.625 -0.84961,1.855469 h -1.09375 z" /></g></g></g><g
                   transform="scale(2)"
                   id="g324"><path
                     id="path326"
                     style="fill:none;stroke:#a0a0a4;stroke-width:0.5;stroke-linecap:round;stroke-linejoin:round;stroke-miterlimit:10;stroke-dasharray:0.5, 1;stroke-dashoffset:0;stroke-opacity:1"
                     d="M 310.5,365.5 V 62.5" /><path
                     id="path328"
                     style="fill:none;stroke:#000000;stroke-width:4;stroke-linecap:round;stroke-linejoin:round;stroke-miterlimit:10;stroke-dasharray:none;stroke-opacity:1"
                     d="m 310.5,365.5 v -10" /><path
                     id="path330"
                     style="fill:none;stroke:#000000;stroke-width:4;stroke-linecap:round;stroke-linejoin:round;stroke-miterlimit:10;stroke-dasharray:none;stroke-opacity:1"
                     d="m 310.5,62.5 v 9" /></g><g
                   transform="matrix(2,0,0,2,583,792)"
                   id="g332" /><g
                   transform="matrix(2,0,0,2,583,792)"
                   id="g334" /><g
                   transform="matrix(2,0,0,2,583,792)"
                   id="g336"><g
                     id="g338"><g
                       id="text342"
                       style="font-variant:normal;font-weight:normal;font-size:20px;font-family:'DejaVu Serif';-inkscape-font-specification:DejaVuSerif;writing-mode:lr-tb;fill:#000000;fill-opacity:1;fill-rule:nonzero;stroke:none"
                       aria-label="	0.4"><path
                         id="path642"
                         style=""
                         d="m 12.701172,-0.68359375 q 1.494141,0 2.236328,-1.64062505 0.742188,-1.640625 0.742188,-4.9511718 0,-3.3203124 -0.742188,-4.9609374 -0.742187,-1.640625 -2.236328,-1.640625 -1.494141,0 -2.236328,1.640625 -0.7421877,1.640625 -0.7421877,4.9609374 0,3.3105468 0.7421877,4.9511718 0.742187,1.64062505 2.236328,1.64062505 z m 0,0.96679688 q -2.373047,0 -3.7109376,-1.99218753 -1.328125,-1.9921875 -1.328125,-5.5664062 0,-3.5839844 1.328125,-5.5761724 1.3378906,-1.992187 3.7109376,-1.992187 2.382812,0 3.710937,1.992187 1.328125,1.992188 1.328125,5.5761724 0,3.5742187 -1.328125,5.5664062 -1.328125,1.99218753 -3.710937,1.99218753 z" /><path
                         id="path644"
                         style=""
                         d="m 20.947266,-1.015625 q 0,-0.546875 0.371093,-0.9277344 0.371094,-0.3808594 0.927735,-0.3808594 0.537109,0 0.917968,0.3808594 0.38086,0.3808594 0.38086,0.9277344 0,0.53710937 -0.38086,0.91796875 -0.380859,0.38085938 -0.917968,0.38085938 -0.556641,0 -0.927735,-0.37109375 Q 20.947266,-0.46875 20.947266,-1.015625 Z" /><path
                         id="path646"
                         style=""
                         d="m 32.388672,-4.9414062 v -7.7539068 l -4.980469,7.7539068 z M 36.685547,0 h -6.640625 v -1.0351562 h 2.34375 v -2.8613282 h -6.367188 v -1.0644531 l 6.386719,-9.8828125 h 1.933594 v 9.9023438 H 37.125 v 1.0449218 h -2.783203 v 2.8613282 h 2.34375 z" /></g></g></g><g
                   transform="scale(2)"
                   id="g344"><path
                     id="path346"
                     style="fill:none;stroke:#a0a0a4;stroke-width:0.5;stroke-linecap:round;stroke-linejoin:round;stroke-miterlimit:10;stroke-dasharray:0.5, 1;stroke-dashoffset:0;stroke-opacity:1"
                     d="M 359.5,365.5 V 62.5" /><path
                     id="path348"
                     style="fill:none;stroke:#000000;stroke-width:4;stroke-linecap:round;stroke-linejoin:round;stroke-miterlimit:10;stroke-dasharray:none;stroke-opacity:1"
                     d="m 359.5,365.5 v -10" /><path
                     id="path350"
                     style="fill:none;stroke:#000000;stroke-width:4;stroke-linecap:round;stroke-linejoin:round;stroke-miterlimit:10;stroke-dasharray:none;stroke-opacity:1"
                     d="m 359.5,62.5 v 9" /></g><g
                   transform="matrix(2,0,0,2,681,792)"
                   id="g352" /><g
                   transform="matrix(2,0,0,2,681,792)"
                   id="g354" /><g
                   transform="matrix(2,0,0,2,681,792)"
                   id="g356"><g
                     id="g358"><g
                       id="text362"
                       style="font-variant:normal;font-weight:normal;font-size:20px;font-family:'DejaVu Serif';-inkscape-font-specification:DejaVuSerif;writing-mode:lr-tb;fill:#000000;fill-opacity:1;fill-rule:nonzero;stroke:none"
                       aria-label="	0.5"><path
                         id="path649"
                         style=""
                         d="m 12.701172,-0.68359375 q 1.494141,0 2.236328,-1.64062505 0.742188,-1.640625 0.742188,-4.9511718 0,-3.3203124 -0.742188,-4.9609374 -0.742187,-1.640625 -2.236328,-1.640625 -1.494141,0 -2.236328,1.640625 -0.7421877,1.640625 -0.7421877,4.9609374 0,3.3105468 0.7421877,4.9511718 0.742187,1.64062505 2.236328,1.64062505 z m 0,0.96679688 q -2.373047,0 -3.7109376,-1.99218753 -1.328125,-1.9921875 -1.328125,-5.5664062 0,-3.5839844 1.328125,-5.5761724 1.3378906,-1.992187 3.7109376,-1.992187 2.382812,0 3.710937,1.992187 1.328125,1.992188 1.328125,5.5761724 0,3.5742187 -1.328125,5.5664062 -1.328125,1.99218753 -3.710937,1.99218753 z" /><path
                         id="path651"
                         style=""
                         d="m 20.947266,-1.015625 q 0,-0.546875 0.371093,-0.9277344 0.371094,-0.3808594 0.927735,-0.3808594 0.537109,0 0.917968,0.3808594 0.38086,0.3808594 0.38086,0.9277344 0,0.53710937 -0.38086,0.91796875 -0.380859,0.38085938 -0.917968,0.38085938 -0.556641,0 -0.927735,-0.37109375 Q 20.947266,-0.46875 20.947266,-1.015625 Z" /><path
                         id="path653"
                         style=""
                         d="m 35.464844,-14.580078 v 1.601562 h -6.679688 v 4.1796879 q 0.507813,-0.3515625 1.181641,-0.5273438 0.683594,-0.1757812 1.523437,-0.1757812 2.363282,0 3.730469,1.3085937 1.367188,1.3085938 1.367188,3.5742188 0,2.3144531 -1.386719,3.6132812 -1.376953,1.28906253 -3.876953,1.28906253 -1.00586,0 -2.060547,-0.24414063 -1.054688,-0.24414063 -2.158203,-0.7421875 v -2.8320313 h 1.103515 q 0.08789,1.3867188 0.878907,2.1191407 0.800781,0.73242185 2.236328,0.73242185 1.542968,0 2.373047,-1.01562495 0.830078,-1.0156251 0.830078,-2.9199219 0,-1.8945313 -0.830078,-2.9003906 -0.820313,-1.0156251 -2.373047,-1.0156251 -0.878907,0 -1.552735,0.3125 -0.664062,0.3125001 -1.18164,0.9667969 H 27.75 v -7.3242186 z" /></g></g></g><g
                   transform="scale(2)"
                   id="g364"><path
                     id="path366"
                     style="fill:none;stroke:#a0a0a4;stroke-width:0.5;stroke-linecap:round;stroke-linejoin:round;stroke-miterlimit:10;stroke-dasharray:0.5, 1;stroke-dashoffset:0;stroke-opacity:1"
                     d="M 407.5,365.5 V 62.5" /><path
                     id="path368"
                     style="fill:none;stroke:#000000;stroke-width:4;stroke-linecap:round;stroke-linejoin:round;stroke-miterlimit:10;stroke-dasharray:none;stroke-opacity:1"
                     d="m 407.5,365.5 v -10" /><path
                     id="path370"
                     style="fill:none;stroke:#000000;stroke-width:4;stroke-linecap:round;stroke-linejoin:round;stroke-miterlimit:10;stroke-dasharray:none;stroke-opacity:1"
                     d="m 407.5,62.5 v 9" /></g><g
                   transform="matrix(2,0,0,2,779,792)"
                   id="g372" /><g
                   transform="matrix(2,0,0,2,779,792)"
                   id="g374" /><g
                   transform="matrix(2,0,0,2,779,792)"
                   id="g376"><g
                     id="g378"><g
                       id="text382"
                       style="font-variant:normal;font-weight:normal;font-size:20px;font-family:'DejaVu Serif';-inkscape-font-specification:DejaVuSerif;writing-mode:lr-tb;fill:#000000;fill-opacity:1;fill-rule:nonzero;stroke:none"
                       aria-label="	0.6"><path
                         id="path656"
                         style=""
                         d="m 12.701172,-0.68359375 q 1.494141,0 2.236328,-1.64062505 0.742188,-1.640625 0.742188,-4.9511718 0,-3.3203124 -0.742188,-4.9609374 -0.742187,-1.640625 -2.236328,-1.640625 -1.494141,0 -2.236328,1.640625 -0.7421877,1.640625 -0.7421877,4.9609374 0,3.3105468 0.7421877,4.9511718 0.742187,1.64062505 2.236328,1.64062505 z m 0,0.96679688 q -2.373047,0 -3.7109376,-1.99218753 -1.328125,-1.9921875 -1.328125,-5.5664062 0,-3.5839844 1.328125,-5.5761724 1.3378906,-1.992187 3.7109376,-1.992187 2.382812,0 3.710937,1.992187 1.328125,1.992188 1.328125,5.5761724 0,3.5742187 -1.328125,5.5664062 -1.328125,1.99218753 -3.710937,1.99218753 z" /><path
                         id="path658"
                         style=""
                         d="m 20.947266,-1.015625 q 0,-0.546875 0.371093,-0.9277344 0.371094,-0.3808594 0.927735,-0.3808594 0.537109,0 0.917968,0.3808594 0.38086,0.3808594 0.38086,0.9277344 0,0.53710937 -0.38086,0.91796875 -0.380859,0.38085938 -0.917968,0.38085938 -0.556641,0 -0.927735,-0.37109375 Q 20.947266,-0.46875 20.947266,-1.015625 Z" /><path
                         id="path660"
                         style=""
                         d="m 31.949219,-0.68359375 q 1.376953,0 2.11914,-1.00585935 0.742188,-1.015625 0.742188,-2.9101563 0,-1.8945312 -0.742188,-2.9003906 -0.742187,-1.015625 -2.11914,-1.015625 -1.396485,0 -2.128907,0.9765625 -0.732421,0.9765625 -0.732421,2.8222656 0,1.9433594 0.742187,2.9882813 0.742188,1.04492185 2.119141,1.04492185 z M 28.765625,-8.0273438 q 0.664062,-0.7324218 1.503906,-1.09375 0.839844,-0.3613281 1.894531,-0.3613281 2.177735,0 3.4375,1.3085938 1.269532,1.3085937 1.269532,3.5742187 0,2.2167969 -1.367188,3.5546875 -1.357422,1.32812503 -3.632812,1.32812503 -2.470703,0 -3.798828,-1.83593753 -1.328125,-1.8457031 -1.328125,-5.2636718 0,-3.8281248 1.572265,-5.9277348 1.572266,-2.099609 4.433594,-2.099609 0.771484,0 1.621094,0.146484 0.849609,0.146485 1.738281,0.439453 v 2.402344 h -1.103516 q -0.117187,-0.986328 -0.751953,-1.503906 -0.634765,-0.517578 -1.708984,-0.517578 -1.894531,0 -2.822266,1.435547 -0.927734,1.435547 -0.957031,4.4140622 z" /></g></g></g><g
                   transform="scale(2)"
                   id="g384"><path
                     id="path386"
                     style="fill:none;stroke:#a0a0a4;stroke-width:0.5;stroke-linecap:round;stroke-linejoin:round;stroke-miterlimit:10;stroke-dasharray:0.5, 1;stroke-dashoffset:0;stroke-opacity:1"
                     d="M 456.5,365.5 V 95.5" /><path
                     id="path388"
                     style="fill:none;stroke:#a0a0a4;stroke-width:0.5;stroke-linecap:round;stroke-linejoin:round;stroke-miterlimit:10;stroke-dasharray:0.5, 1;stroke-dashoffset:0;stroke-opacity:1"
                     d="m 456.5,71.5 v -9" /><path
                     id="path390"
                     style="fill:none;stroke:#000000;stroke-width:4;stroke-linecap:round;stroke-linejoin:round;stroke-miterlimit:10;stroke-dasharray:none;stroke-opacity:1"
                     d="m 456.5,365.5 v -10" /><path
                     id="path392"
                     style="fill:none;stroke:#000000;stroke-width:4;stroke-linecap:round;stroke-linejoin:round;stroke-miterlimit:10;stroke-dasharray:none;stroke-opacity:1"
                     d="m 456.5,62.5 v 9" /></g><g
                   transform="matrix(2,0,0,2,877,792)"
                   id="g394" /><g
                   transform="matrix(2,0,0,2,877,792)"
                   id="g396" /><g
                   transform="matrix(2,0,0,2,877,792)"
                   id="g398"><g
                     id="g400"><g
                       id="text404"
                       style="font-variant:normal;font-weight:normal;font-size:20px;font-family:'DejaVu Serif';-inkscape-font-specification:DejaVuSerif;writing-mode:lr-tb;fill:#000000;fill-opacity:1;fill-rule:nonzero;stroke:none"
                       aria-label="	0.7"><path
                         id="path663"
                         style=""
                         d="m 12.701172,-0.68359375 q 1.494141,0 2.236328,-1.64062505 0.742188,-1.640625 0.742188,-4.9511718 0,-3.3203124 -0.742188,-4.9609374 -0.742187,-1.640625 -2.236328,-1.640625 -1.494141,0 -2.236328,1.640625 -0.7421877,1.640625 -0.7421877,4.9609374 0,3.3105468 0.7421877,4.9511718 0.742187,1.64062505 2.236328,1.64062505 z m 0,0.96679688 q -2.373047,0 -3.7109376,-1.99218753 -1.328125,-1.9921875 -1.328125,-5.5664062 0,-3.5839844 1.328125,-5.5761724 1.3378906,-1.992187 3.7109376,-1.992187 2.382812,0 3.710937,1.992187 1.328125,1.992188 1.328125,5.5761724 0,3.5742187 -1.328125,5.5664062 -1.328125,1.99218753 -3.710937,1.99218753 z" /><path
                         id="path665"
                         style=""
                         d="m 20.947266,-1.015625 q 0,-0.546875 0.371093,-0.9277344 0.371094,-0.3808594 0.927735,-0.3808594 0.537109,0 0.917968,0.3808594 0.38086,0.3808594 0.38086,0.9277344 0,0.53710937 -0.38086,0.91796875 -0.380859,0.38085938 -0.917968,0.38085938 -0.556641,0 -0.927735,-0.37109375 Q 20.947266,-0.46875 20.947266,-1.015625 Z" /><path
                         id="path667"
                         style=""
                         d="M 36.685547,-13.583984 30.982422,0 h -1.455078 l 5.439453,-12.978516 h -6.738281 v 1.796875 h -1.142579 v -3.398437 h 9.59961 z" /></g></g></g><g
                   transform="scale(2)"
                   id="g406"><path
                     id="path408"
                     style="fill:none;stroke:#a0a0a4;stroke-width:0.5;stroke-linecap:round;stroke-linejoin:round;stroke-miterlimit:10;stroke-dasharray:0.5, 1;stroke-dashoffset:0;stroke-opacity:1"
                     d="M 505.5,365.5 V 95.5" /><path
                     id="path410"
                     style="fill:none;stroke:#a0a0a4;stroke-width:0.5;stroke-linecap:round;stroke-linejoin:round;stroke-miterlimit:10;stroke-dasharray:0.5, 1;stroke-dashoffset:0;stroke-opacity:1"
                     d="m 505.5,71.5 v -9" /><path
                     id="path412"
                     style="fill:none;stroke:#000000;stroke-width:4;stroke-linecap:round;stroke-linejoin:round;stroke-miterlimit:10;stroke-dasharray:none;stroke-opacity:1"
                     d="m 505.5,365.5 v -10" /><path
                     id="path414"
                     style="fill:none;stroke:#000000;stroke-width:4;stroke-linecap:round;stroke-linejoin:round;stroke-miterlimit:10;stroke-dasharray:none;stroke-opacity:1"
                     d="m 505.5,62.5 v 9" /></g><g
                   transform="matrix(2,0,0,2,975,792)"
                   id="g416" /><g
                   transform="matrix(2,0,0,2,975,792)"
                   id="g418" /><g
                   transform="matrix(2,0,0,2,975,792)"
                   id="g420"><g
                     id="g422"><g
                       id="text426"
                       style="font-variant:normal;font-weight:normal;font-size:20px;font-family:'DejaVu Serif';-inkscape-font-specification:DejaVuSerif;writing-mode:lr-tb;fill:#000000;fill-opacity:1;fill-rule:nonzero;stroke:none"
                       aria-label="	0.8"><path
                         id="path670"
                         style=""
                         d="m 12.701172,-0.68359375 q 1.494141,0 2.236328,-1.64062505 0.742188,-1.640625 0.742188,-4.9511718 0,-3.3203124 -0.742188,-4.9609374 -0.742187,-1.640625 -2.236328,-1.640625 -1.494141,0 -2.236328,1.640625 -0.7421877,1.640625 -0.7421877,4.9609374 0,3.3105468 0.7421877,4.9511718 0.742187,1.64062505 2.236328,1.64062505 z m 0,0.96679688 q -2.373047,0 -3.7109376,-1.99218753 -1.328125,-1.9921875 -1.328125,-5.5664062 0,-3.5839844 1.328125,-5.5761724 1.3378906,-1.992187 3.7109376,-1.992187 2.382812,0 3.710937,1.992187 1.328125,1.992188 1.328125,5.5761724 0,3.5742187 -1.328125,5.5664062 -1.328125,1.99218753 -3.710937,1.99218753 z" /><path
                         id="path672"
                         style=""
                         d="m 20.947266,-1.015625 q 0,-0.546875 0.371093,-0.9277344 0.371094,-0.3808594 0.927735,-0.3808594 0.537109,0 0.917968,0.3808594 0.38086,0.3808594 0.38086,0.9277344 0,0.53710937 -0.38086,0.91796875 -0.380859,0.38085938 -0.917968,0.38085938 -0.556641,0 -0.927735,-0.37109375 Q 20.947266,-0.46875 20.947266,-1.015625 Z" /><path
                         id="path674"
                         style=""
                         d="m 34.722656,-3.984375 q 0,-1.5625 -0.78125,-2.421875 -0.771484,-0.8691406 -2.177734,-0.8691406 -1.40625,0 -2.1875,0.8691406 -0.771485,0.859375 -0.771485,2.421875 0,1.5722656 0.771485,2.4414063 0.78125,0.85937495 2.1875,0.85937495 1.40625,0 2.177734,-0.85937495 0.78125,-0.8691407 0.78125,-2.4414063 z m -0.40039,-7.080078 q 0,-1.328125 -0.673829,-2.070313 -0.673828,-0.742187 -1.884765,-0.742187 -1.201172,0 -1.884766,0.742187 -0.673828,0.742188 -0.673828,2.070313 0,1.3378905 0.673828,2.080078 0.683594,0.7421875 1.884766,0.7421875 1.210937,0 1.884765,-0.7421875 0.673829,-0.7421875 0.673829,-2.080078 z m -1.054688,3.3007811 q 1.660156,0.2246094 2.587891,1.2304688 0.927734,0.9960937 0.927734,2.5488281 0,2.0507813 -1.298828,3.1640625 -1.298828,1.10351563 -3.720703,1.10351563 -2.41211,0 -3.720703,-1.10351563 -1.298828,-1.1132812 -1.298828,-3.1640625 0,-1.5527344 0.927734,-2.5488281 0.927734,-1.0058594 2.597656,-1.2304688 -1.474609,-0.2636719 -2.265625,-1.1132812 -0.78125,-0.859375 -0.78125,-2.1874999 0,-1.757813 1.210938,-2.763672 1.210937,-1.015625 3.330078,-1.015625 2.11914,0 3.330078,1.015625 1.210937,1.005859 1.210937,2.763672 0,1.3281249 -0.791015,2.1874999 -0.78125,0.8496093 -2.246094,1.1132812 z" /></g></g></g><g
                   transform="scale(2)"
                   id="g428"><path
                     id="path430"
                     style="fill:none;stroke:#a0a0a4;stroke-width:0.5;stroke-linecap:round;stroke-linejoin:round;stroke-miterlimit:10;stroke-dasharray:0.5, 1;stroke-dashoffset:0;stroke-opacity:1"
                     d="M 554.5,365.5 V 95.5" /><path
                     id="path432"
                     style="fill:none;stroke:#a0a0a4;stroke-width:0.5;stroke-linecap:round;stroke-linejoin:round;stroke-miterlimit:10;stroke-dasharray:0.5, 1;stroke-dashoffset:0;stroke-opacity:1"
                     d="m 554.5,71.5 v -9" /><path
                     id="path434"
                     style="fill:none;stroke:#000000;stroke-width:4;stroke-linecap:round;stroke-linejoin:round;stroke-miterlimit:10;stroke-dasharray:none;stroke-opacity:1"
                     d="m 554.5,365.5 v -10" /><path
                     id="path436"
                     style="fill:none;stroke:#000000;stroke-width:4;stroke-linecap:round;stroke-linejoin:round;stroke-miterlimit:10;stroke-dasharray:none;stroke-opacity:1"
                     d="m 554.5,62.5 v 9" /></g><g
                   transform="matrix(2,0,0,2,1073,792)"
                   id="g438" /><g
                   transform="matrix(2,0,0,2,1073,792)"
                   id="g440" /><g
                   transform="matrix(2,0,0,2,1073,792)"
                   id="g442"><g
                     id="g444"><g
                       id="text448"
                       style="font-variant:normal;font-weight:normal;font-size:20px;font-family:'DejaVu Serif';-inkscape-font-specification:DejaVuSerif;writing-mode:lr-tb;fill:#000000;fill-opacity:1;fill-rule:nonzero;stroke:none"
                       aria-label="	0.9"><path
                         id="path677"
                         style=""
                         d="m 12.701172,-0.68359375 q 1.494141,0 2.236328,-1.64062505 0.742188,-1.640625 0.742188,-4.9511718 0,-3.3203124 -0.742188,-4.9609374 -0.742187,-1.640625 -2.236328,-1.640625 -1.494141,0 -2.236328,1.640625 -0.7421877,1.640625 -0.7421877,4.9609374 0,3.3105468 0.7421877,4.9511718 0.742187,1.64062505 2.236328,1.64062505 z m 0,0.96679688 q -2.373047,0 -3.7109376,-1.99218753 -1.328125,-1.9921875 -1.328125,-5.5664062 0,-3.5839844 1.328125,-5.5761724 1.3378906,-1.992187 3.7109376,-1.992187 2.382812,0 3.710937,1.992187 1.328125,1.992188 1.328125,5.5761724 0,3.5742187 -1.328125,5.5664062 -1.328125,1.99218753 -3.710937,1.99218753 z" /><path
                         id="path679"
                         style=""
                         d="m 20.947266,-1.015625 q 0,-0.546875 0.371093,-0.9277344 0.371094,-0.3808594 0.927735,-0.3808594 0.537109,0 0.917968,0.3808594 0.38086,0.3808594 0.38086,0.9277344 0,0.53710937 -0.38086,0.91796875 -0.380859,0.38085938 -0.917968,0.38085938 -0.556641,0 -0.927735,-0.37109375 Q 20.947266,-0.46875 20.947266,-1.015625 Z" /><path
                         id="path681"
                         style=""
                         d="m 34.761719,-6.5332031 q -0.654297,0.7324219 -1.503907,1.09375 -0.849609,0.3613281 -1.914062,0.3613281 -2.167969,0 -3.427734,-1.3085937 -1.25,-1.3085938 -1.25,-3.5742188 0,-2.2167965 1.357421,-3.5449215 1.367188,-1.337891 3.642579,-1.337891 2.470703,0 3.789062,1.845703 1.328125,1.835938 1.328125,5.2539064 0,3.828125 -1.572266,5.9277344 -1.572265,2.09960933 -4.423828,2.09960933 -0.771484,0 -1.621093,-0.14648438 -0.84961,-0.14648438 -1.738282,-0.43945313 V -2.7246094 h 1.09375 q 0.126953,0.9863282 0.761719,1.5136719 0.634766,0.52734375 1.699219,0.52734375 1.894531,0 2.822265,-1.42578125 0.927735,-1.4355469 0.957032,-4.4238281 z m -3.173828,-7.3437499 q -1.386719,0 -2.128907,1.015625 -0.732422,1.005859 -0.732422,2.9003905 0,1.8945312 0.732422,2.9101563 0.742188,1.015625 2.128907,1.015625 1.386718,0 2.11914,-0.9765625 0.742188,-0.9863282 0.742188,-2.8320313 0,-1.943359 -0.742188,-2.988281 -0.742187,-1.044922 -2.11914,-1.044922 z" /></g></g></g><g
                   transform="scale(2)"
                   id="g450"><path
                     id="path452"
                     style="fill:none;stroke:#a0a0a4;stroke-width:0.5;stroke-linecap:round;stroke-linejoin:round;stroke-miterlimit:10;stroke-dasharray:0.5, 1;stroke-dashoffset:0;stroke-opacity:1"
                     d="M 603.5,365.5 V 62.5" /><path
                     id="path454"
                     style="fill:none;stroke:#000000;stroke-width:4;stroke-linecap:round;stroke-linejoin:round;stroke-miterlimit:10;stroke-dasharray:none;stroke-opacity:1"
                     d="m 603.5,365.5 v -10" /><path
                     id="path456"
                     style="fill:none;stroke:#000000;stroke-width:4;stroke-linecap:round;stroke-linejoin:round;stroke-miterlimit:10;stroke-dasharray:none;stroke-opacity:1"
                     d="m 603.5,62.5 v 9" /></g><g
                   transform="matrix(2,0,0,2,1192,792)"
                   id="g458" /><g
                   transform="matrix(2,0,0,2,1192,792)"
                   id="g460" /><g
                   transform="matrix(2,0,0,2,1192,792)"
                   id="g462"><g
                     id="g464"><g
                       id="text468"
                       style="font-variant:normal;font-weight:normal;font-size:20px;font-family:'DejaVu Serif';-inkscape-font-specification:DejaVuSerif;writing-mode:lr-tb;fill:#000000;fill-opacity:1;fill-rule:nonzero;stroke:none"
                       aria-label="	1"><path
                         id="path684"
                         style=""
                         d="M 9.1855469,0 V -1.0351562 H 11.724609 V -13.164063 l -2.9394527,1.904297 v -1.279297 L 12.339844,-14.84375 H 13.6875 v 13.8085938 h 2.539062 V 0 Z" /></g></g></g><g
                   transform="scale(2)"
                   id="g470"><path
                     id="path472"
                     style="fill:none;stroke:#000000;stroke-width:4;stroke-linecap:round;stroke-linejoin:round;stroke-miterlimit:10;stroke-dasharray:none;stroke-opacity:1"
                     d="m 114.5,62.5 v 303 h 489 v -303 z" /></g><g
                   transform="matrix(0,-2,2,0,50,515)"
                   id="g474" /><g
                   transform="matrix(0,-2,2,0,50,515)"
                   id="g476" /><g
                   transform="matrix(0,-2,2,0,50,515)"
                   id="g478"><g
                     id="g480"><g
                       id="text484"
                       style="font-variant:normal;font-weight:normal;font-size:20px;font-family:'DejaVu Serif';-inkscape-font-specification:DejaVuSerif;writing-mode:lr-tb;fill:#000000;fill-opacity:1;fill-rule:nonzero;stroke:none"
                       aria-label="Mass	[g]"><path
                         id="path687"
                         style=""
                         d="M 1.1035156,0 V -1.0351562 H 2.9589844 V -13.535156 H 0.99609375 v -1.044922 H 5.2441406 l 5.1171874,10.3808593 5.117188,-10.3808593 h 3.984375 v 1.044922 h -1.94336 v 12.4999998 h 1.865235 V 0 h -5.703125 v -1.0351562 h 1.855468 V -12.304688 l -5,10.1660161 H 9.1601563 L 4.1601562,-12.304688 V -1.0351562 H 6.015625 V 0 Z" /><path
                         id="path689"
                         style=""
                         d="m 28.427734,-3.2617188 v -2.1972656 h -2.314453 q -1.33789,0 -1.992187,0.5761719 -0.654297,0.5761719 -0.654297,1.7675781 0,1.0839844 0.664062,1.71875 0.664063,0.63476565 1.796875,0.63476565 1.123047,0 1.806641,-0.69335935 0.693359,-0.6933594 0.693359,-1.8066407 z m 1.796875,-3.2226562 v 5.4492188 h 1.601563 V 0 h -3.398438 v -1.1230469 q -0.595703,0.72265627 -1.376953,1.06445315 -0.78125,0.34179688 -1.826172,0.34179688 -1.728515,0 -2.74414,-0.91796875 -1.015625,-0.91796878 -1.015625,-2.48046878 0,-1.6113281 1.162109,-2.5 1.162109,-0.8886718 3.28125,-0.8886718 h 2.519531 v -0.7128907 q 0,-1.1816406 -0.722656,-1.8261719 -0.712891,-0.6542968 -2.011719,-0.6542968 -1.074218,0 -1.708984,0.4882812 -0.634766,0.4882813 -0.791016,1.4453125 h -0.927734 v -2.0996094 q 0.9375,-0.4003907 1.816406,-0.5957027 0.888672,-0.205079 1.728516,-0.205079 2.158203,0 3.28125,1.0742192 1.132812,1.0644532 1.132812,3.1054688 z" /><path
                         id="path691"
                         style=""
                         d="M 33.513672,-0.57617187 V -2.9980469 h 1.035156 q 0.03906,1.1621094 0.722656,1.7382813 0.69336,0.57617185 2.041016,0.57617185 1.210937,0 1.845703,-0.44921875 0.634766,-0.4589844 0.634766,-1.328125 0,-0.6835938 -0.46875,-1.1035156 -0.458985,-0.4199219 -1.953125,-0.8984375 l -1.298828,-0.4394531 q -1.337891,-0.4296875 -1.94336,-1.0742188 -0.595703,-0.6445312 -0.595703,-1.640625 0,-1.4257813 1.044922,-2.2363281 1.044922,-0.8105474 2.890625,-0.8105474 0.820312,0 1.728516,0.214844 0.908203,0.214844 1.875,0.6250002 v 2.2656251 h -1.035157 q -0.03906,-1.0058594 -0.703125,-1.5722657 -0.664062,-0.5664062 -1.80664,-0.5664062 -1.132813,0 -1.71875,0.4003906 -0.576172,0.4003906 -0.576172,1.2011719 0,0.6542969 0.439453,1.0546875 0.439453,0.390625 1.757812,0.8007812 l 1.425782,0.4394532 q 1.474609,0.4589843 2.11914,1.1523437 0.654297,0.6835937 0.654297,1.7675781 0,1.4746094 -1.132812,2.32421878 -1.123047,0.83984375 -3.105469,0.83984375 -1.005859,0 -1.962891,-0.21484376 -0.957031,-0.21484374 -1.914062,-0.64453124 z" /><path
                         id="path693"
                         style=""
                         d="M 43.763672,-0.57617187 V -2.9980469 h 1.035156 q 0.03906,1.1621094 0.722656,1.7382813 0.69336,0.57617185 2.041016,0.57617185 1.210937,0 1.845703,-0.44921875 0.634766,-0.4589844 0.634766,-1.328125 0,-0.6835938 -0.46875,-1.1035156 -0.458985,-0.4199219 -1.953125,-0.8984375 l -1.298828,-0.4394531 q -1.337891,-0.4296875 -1.94336,-1.0742188 -0.595703,-0.6445312 -0.595703,-1.640625 0,-1.4257813 1.044922,-2.2363281 1.044922,-0.8105474 2.890625,-0.8105474 0.820312,0 1.728516,0.214844 0.908203,0.214844 1.875,0.6250002 v 2.2656251 h -1.035157 q -0.03906,-1.0058594 -0.703125,-1.5722657 -0.664062,-0.5664062 -1.80664,-0.5664062 -1.132813,0 -1.71875,0.4003906 -0.576172,0.4003906 -0.576172,1.2011719 0,0.6542969 0.439453,1.0546875 0.439453,0.390625 1.757812,0.8007812 l 1.425782,0.4394532 q 1.474609,0.4589843 2.11914,1.1523437 0.654297,0.6835937 0.654297,1.7675781 0,1.4746094 -1.132812,2.32421878 -1.123047,0.83984375 -3.105469,0.83984375 -1.005859,0 -1.962891,-0.21484376 -0.957031,-0.21484374 -1.914062,-0.64453124 z" /><path
                         id="path695"
                         style=""
                         d="m 60.953125,-15.195313 h 4.541016 v 1.035157 H 62.818359 V 1.6015625 h 2.675782 v 1.0351563 h -4.541016 z" /><path
                         id="path697"
                         style=""
                         d="m 77.529297,-9.3359375 v 9.11132812 q 0,2.23632818 -1.230469,3.44726568 -1.230469,1.2207031 -3.505859,1.2207031 -1.025391,0 -1.962891,-0.1855469 -0.9375,-0.1855469 -1.796875,-0.5566406 V 1.5234375 h 0.9375 q 0.175781,1.015625 0.830078,1.484375 0.654297,0.46875 1.875,0.46875 1.582031,0 2.314453,-0.8984375 0.742188,-0.8886719 0.742188,-2.80273438 V -1.6210937 q -0.527344,0.97656245 -1.347656,1.44531245 -0.810547,0.45898438 -2.011719,0.45898438 -1.914063,0 -3.134766,-1.51367183 -1.210937,-1.5234376 -1.210937,-3.9648438 0,-2.4414062 1.210937,-3.9550781 1.210938,-1.5136724 3.134766,-1.5136724 1.201172,0 2.011719,0.46875 0.820312,0.4589849 1.347656,1.4355474 v -1.6210934 h 3.515625 v 1.0449215 z m -1.796875,3.6328125 q 0,-1.8652344 -0.722656,-2.8515625 -0.712891,-0.9863281 -2.080079,-0.9863281 -1.386718,0 -2.099609,1.09375 -0.703125,1.09375 -0.703125,3.2519531 0,2.1484375 0.703125,3.2519531 0.712891,1.10351565 2.099609,1.10351565 1.367188,0 2.080079,-0.97656245 0.722656,-0.9863282 0.722656,-2.8613282 z" /><path
                         id="path699"
                         style=""
                         d="M 85.912109,-15.195313 V 2.6367188 H 81.371094 V 1.6015625 h 2.675781 V -14.160156 h -2.675781 v -1.035157 z" /></g></g></g><g
                   transform="matrix(2,0,0,2,602,864)"
                   id="g486" /><g
                   transform="matrix(2,0,0,2,602,864)"
                   id="g488" /><g
                   transform="matrix(2,0,0,2,602,864)"
                   id="g490"><g
                     id="g492"><g
                       id="text496"
                       style="font-variant:normal;font-weight:normal;font-size:20px;font-family:'DejaVu Serif';-inkscape-font-specification:DejaVuSerif;writing-mode:lr-tb;fill:#000000;fill-opacity:1;fill-rule:nonzero;stroke:none"
                       aria-label="HCl	[mmol]"><path
                         id="path702"
                         style=""
                         d="M 1.1035156,0 V -1.0351562 H 2.9589844 V -13.535156 H 1.1035156 v -1.044922 H 6.796875 v 1.044922 H 4.9414062 v 5.0390622 H 12.5 v -5.0390622 h -1.855469 v -1.044922 h 5.69336 v 1.044922 h -1.855469 v 12.4999998 h 1.855469 V 0 h -5.69336 V -1.0351562 H 12.5 V -7.3046875 H 4.9414062 v 6.2695313 H 6.796875 V 0 Z" /><path
                         id="path704"
                         style=""
                         d="m 31.539062,-3.8574219 q -0.644531,2.0410157 -2.167968,3.09570315 -1.513672,1.04492188 -3.837891,1.04492188 -1.425781,0 -2.646484,-0.48828126 -1.220703,-0.48828124 -2.167969,-1.43554687 -1.09375,-1.09375 -1.630859,-2.4804687 -0.527344,-1.3964844 -0.527344,-3.1542969 0,-3.3984374 1.96289,-5.4785154 1.962891,-2.089844 5.175782,-2.089844 1.191406,0 2.539062,0.3125 1.347656,0.3125 2.900391,0.947266 v 3.359375 h -1.103516 q -0.361328,-1.835938 -1.455078,-2.705079 -1.083984,-0.86914 -3.046875,-0.86914 -2.333984,0 -3.535156,1.660156 -1.201172,1.650391 -1.201172,4.8632814 0,3.203125 1.201172,4.8632812 1.201172,1.65039065 3.535156,1.65039065 1.630859,0 2.685547,-0.77148435 1.054687,-0.78125 1.523437,-2.3242188 z" /><path
                         id="path706"
                         style=""
                         d="m 36.835937,-1.0351562 h 1.699219 V 0 h -5.224609 v -1.0351562 h 1.728515 V -14.160156 h -1.728515 v -1.035157 h 3.52539 z" /><path
                         id="path708"
                         style=""
                         d="m 47.1875,-15.195313 h 4.541016 v 1.035157 H 49.052734 V 1.6015625 h 2.675782 V 2.6367188 H 47.1875 Z" /><path
                         id="path710"
                         style=""
                         d="m 63.626953,-8.359375 q 0.517578,-1.1425781 1.318359,-1.71875 0.810547,-0.585938 1.884766,-0.585938 1.630859,0 2.431641,1.0156255 0.800781,1.0058594 0.800781,3.046875 v 5.5664063 h 1.621094 V 0 h -4.980469 v -1.0351562 h 1.5625 v -5.3613282 q 0,-1.5917968 -0.46875,-2.265625 -0.46875,-0.6738281 -1.552734,-0.6738281 -1.201172,0 -1.835938,0.9082031 -0.625,0.9082032 -0.625,2.6464844 v 4.7460938 h 1.5625 V 0 h -4.921875 v -1.0351562 h 1.5625 v -5.4296875 q 0,-1.5527344 -0.46875,-2.2070313 -0.46875,-0.6640625 -1.552734,-0.6640625 -1.201172,0 -1.835938,0.9082031 -0.625,0.9082032 -0.625,2.6464844 v 4.7460938 h 1.5625 V 0 h -4.980469 v -1.0351562 h 1.621094 v -8.3203126 h -1.71875 v -1.0253902 h 3.515625 v 1.8457027 q 0.498047,-1.0351562 1.269531,-1.5820317 0.771485,-0.546875 1.748047,-0.546875 1.210938,0 2.021485,0.605469 0.810547,0.5957034 1.083984,1.699219 z" /><path
                         id="path712"
                         style=""
                         d="m 82.580078,-8.359375 q 0.517578,-1.1425781 1.318359,-1.71875 0.810547,-0.585938 1.884766,-0.585938 1.630859,0 2.431641,1.0156255 0.800781,1.0058594 0.800781,3.046875 v 5.5664063 h 1.621094 V 0 H 85.65625 v -1.0351562 h 1.5625 v -5.3613282 q 0,-1.5917968 -0.46875,-2.265625 -0.46875,-0.6738281 -1.552734,-0.6738281 -1.201172,0 -1.835938,0.9082031 -0.625,0.9082032 -0.625,2.6464844 v 4.7460938 h 1.5625 V 0 h -4.921875 v -1.0351562 h 1.5625 v -5.4296875 q 0,-1.5527344 -0.46875,-2.2070313 -0.46875,-0.6640625 -1.552734,-0.6640625 -1.201172,0 -1.835938,0.9082031 -0.625,0.9082032 -0.625,2.6464844 v 4.7460938 h 1.5625 V 0 h -4.980469 v -1.0351562 h 1.621094 v -8.3203126 h -1.71875 v -1.0253902 h 3.515625 v 1.8457027 q 0.498047,-1.0351562 1.269531,-1.5820317 0.771485,-0.546875 1.748047,-0.546875 1.210938,0 2.021485,0.605469 0.810547,0.5957034 1.083984,1.699219 z" /><path
                         id="path714"
                         style=""
                         d="m 97.1875,-0.68359375 q 1.445312,0 2.177734,-1.14257815 0.742186,-1.1425781 0.742186,-3.3691406 0,-2.2265625 -0.742186,-3.359375 -0.732422,-1.1425781 -2.177734,-1.1425781 -1.445313,0 -2.1875,1.1425781 -0.732422,1.1328125 -0.732422,3.359375 0,2.2265625 0.742188,3.3691406 0.742187,1.14257815 2.177734,1.14257815 z m 0,0.96679688 q -2.265625,0 -3.642578,-1.49414063 -1.376953,-1.5039063 -1.376953,-3.984375 0,-2.4804687 1.367187,-3.9746094 1.376953,-1.4941411 3.652344,-1.4941411 2.275391,0 3.64258,1.4941411 1.37695,1.4941407 1.37695,3.9746094 0,2.4804687 -1.37695,3.984375 -1.367189,1.49414063 -3.64258,1.49414063 z" /><path
                         id="path716"
                         style=""
                         d="m 107.30468,-1.0351562 h 1.69922 V 0 h -5.22461 v -1.0351562 h 1.72851 V -14.160156 h -1.72851 v -1.035157 h 3.52539 z" /><path
                         id="path718"
                         style=""
                         d="M 115.67773,-15.195313 V 2.6367188 h -4.54101 V 1.6015625 h 2.67578 V -14.160156 h -2.67578 v -1.035157 z" /></g></g></g><g
                   transform="matrix(2,0,0,2,882,182)"
                   id="g498" /><g
                   transform="matrix(2,0,0,2,882,182)"
                   id="g500" /><g
                   transform="matrix(2,0,0,2,882,182)"
                   id="g502"><g
                     id="g504"><g
                       id="text508"
                       style="font-variant:normal;font-weight:normal;font-size:20px;font-family:'DejaVu Serif';-inkscape-font-specification:DejaVuSerif;writing-mode:lr-tb;fill:#000000;fill-opacity:1;fill-rule:nonzero;stroke:none"
                       aria-label="Calcite"><path
                         id="path721"
                         style=""
                         d="m 14.101563,-3.8574219 q -0.644532,2.0410157 -2.167969,3.09570315 -1.513672,1.04492188 -3.8378909,1.04492188 -1.4257812,0 -2.6464844,-0.48828126 Q 4.2285156,-0.69335937 3.28125,-1.640625 2.1875,-2.734375 1.6503906,-4.1210937 1.1230469,-5.5175781 1.1230469,-7.2753906 q 0,-3.3984374 1.9628906,-5.4785154 1.9628906,-2.089844 5.1757813,-2.089844 1.1914062,0 2.5390622,0.3125 1.347657,0.3125 2.900391,0.947266 v 3.359375 h -1.103516 q -0.361328,-1.835938 -1.455078,-2.705079 -1.083984,-0.86914 -3.0468749,-0.86914 -2.3339844,0 -3.5351562,1.660156 -1.2011719,1.650391 -1.2011719,4.8632814 0,3.203125 1.2011719,4.8632812 1.2011718,1.65039065 3.5351562,1.65039065 1.6308594,0 2.6855469,-0.77148435 1.054688,-0.78125 1.523438,-2.3242188 z" /><path
                         id="path723"
                         style=""
                         d="m 23.255859,-3.2617188 v -2.1972656 h -2.314453 q -1.33789,0 -1.992187,0.5761719 -0.654297,0.5761719 -0.654297,1.7675781 0,1.0839844 0.664062,1.71875 0.664063,0.63476565 1.796875,0.63476565 1.123047,0 1.806641,-0.69335935 0.693359,-0.6933594 0.693359,-1.8066407 z m 1.796875,-3.2226562 v 5.4492188 h 1.601563 V 0 h -3.398438 v -1.1230469 q -0.595703,0.72265627 -1.376953,1.06445315 -0.78125,0.34179688 -1.826172,0.34179688 -1.728515,0 -2.74414,-0.91796875 -1.015625,-0.91796878 -1.015625,-2.48046878 0,-1.6113281 1.162109,-2.5 1.162109,-0.8886718 3.28125,-0.8886718 h 2.519531 v -0.7128907 q 0,-1.1816406 -0.722656,-1.8261719 -0.712891,-0.6542968 -2.011719,-0.6542968 -1.074218,0 -1.708984,0.4882812 -0.634766,0.4882813 -0.791016,1.4453125 H 17.09375 v -2.0996094 q 0.9375,-0.4003907 1.816406,-0.5957027 0.888672,-0.205079 1.728516,-0.205079 2.158203,0 3.28125,1.0742192 1.132812,1.0644532 1.132812,3.1054688 z" /><path
                         id="path725"
                         style=""
                         d="m 31.320312,-1.0351562 h 1.699219 V 0 h -5.224609 v -1.0351562 h 1.728515 V -14.160156 h -1.728515 v -1.035157 h 3.52539 z" /><path
                         id="path727"
                         style=""
                         d="m 43.892578,-3.1152344 q -0.380859,1.6601563 -1.464844,2.5292969 -1.083984,0.86914063 -2.802734,0.86914063 -2.265625,0 -3.642578,-1.49414063 -1.376953,-1.5039063 -1.376953,-3.984375 0,-2.4902344 1.376953,-3.9746094 1.376953,-1.4941411 3.642578,-1.4941411 0.986328,0 1.962891,0.234375 0.976562,0.22461 1.96289,0.6933599 v 2.65625 h -1.044922 q -0.205078,-1.3671875 -0.898437,-1.9921875 -0.683594,-0.625 -1.962891,-0.625 -1.455078,0 -2.197265,1.1328125 -0.742188,1.1230469 -0.742188,3.3691406 0,2.2460937 0.732422,3.3789063 0.742187,1.13281245 2.207031,1.13281245 1.16211,0 1.855469,-0.60546875 0.693359,-0.6054687 0.947266,-1.8261719 z" /><path
                         id="path729"
                         style=""
                         d="m 46.740234,-13.603516 q 0,-0.449218 0.322266,-0.78125 0.332031,-0.332031 0.791016,-0.332031 0.449218,0 0.771484,0.332031 0.332031,0.332032 0.332031,0.78125 0,0.458985 -0.322265,0.78125 Q 48.3125,-12.5 47.853516,-12.5 q -0.458985,0 -0.791016,-0.322266 -0.322266,-0.322265 -0.322266,-0.78125 z m 2.294922,12.5683598 h 1.699219 V 0 h -5.214844 v -1.0351562 h 1.71875 v -8.3007813 h -1.71875 v -1.0449215 h 3.515625 z" /><path
                         id="path731"
                         style=""
                         d="m 53.345703,-9.3359375 h -1.582031 v -1.0449215 h 1.582031 v -3.222657 h 1.806641 v 3.222657 h 3.378906 v 1.0449215 h -3.378906 v 6.5917969 q 0,1.3183594 0.253906,1.6894531 0.253906,0.37109375 0.9375,0.37109375 0.703125,0 1.025391,-0.41015625 0.322265,-0.4199219 0.341796,-1.3476563 h 1.357422 q -0.07813,1.4160157 -0.771484,2.07031255 -0.693359,0.65429688 -2.109375,0.65429688 -1.552734,0 -2.197266,-0.68359376 Q 53.345703,-1.09375 53.345703,-2.7441406 Z" /><path
                         id="path733"
                         style=""
                         d="m 70.058594,-5 h -7.744141 v 0.078125 q 0,2.0996094 0.791016,3.1738281 0.791015,1.06445315 2.333984,1.06445315 1.181641,0 1.933594,-0.61523435 0.761719,-0.625 1.064453,-1.8457032 h 1.445312 q -0.429687,1.7089844 -1.591796,2.56835943 -1.152344,0.859375 -3.03711,0.859375 -2.27539,0 -3.662109,-1.49414063 -1.376953,-1.5039063 -1.376953,-3.984375 0,-2.4609375 1.357422,-3.9648438 1.357421,-1.5039067 3.564453,-1.5039067 2.353515,0 3.613281,1.4550786 Q 70.009766,-7.7636719 70.058594,-5 Z m -2.119141,-1.0351562 q -0.05859,-1.8164063 -0.771484,-2.7343751 -0.703125,-0.9277343 -2.03125,-0.9277343 -1.240235,0 -1.953125,0.9277343 -0.712891,0.9277344 -0.869141,2.7343751 z" /></g></g></g><g
                   transform="scale(2)"
                   id="g510"><path
                     id="path512"
                     style="fill:none;stroke:#0072bd;stroke-width:6;stroke-linecap:round;stroke-linejoin:round;stroke-miterlimit:10;stroke-dasharray:none;stroke-opacity:1"
                     d="m 522.5,83.5 h 57" /></g><g
                   transform="scale(2)"
                   id="g514" /><g
                   transform="scale(2)"
                   id="g516"><path
                     id="path518"
                     style="fill:none;stroke:#0072bd;stroke-width:6;stroke-linecap:round;stroke-linejoin:round;stroke-miterlimit:10;stroke-dasharray:none;stroke-opacity:1"
                     d="m 114,73.9 0.5,0.1 4.4,1 9.4,2.4 9.4,2.6 25.5,9 25.4,11.5 25.4,13.5 25.5,14.8 25.4,15.6 43.9,27.9 43.8,28.5 21.6,14.1 21.5,14.2 15.2,9.9 15.1,9.9 23.8,15.6 23.8,15.6 30.9,20.3 31,20.1 30.4,19.7 30.3,19.6 7.7,4.9" /></g><g
                   transform="scale(2)"
                   id="g520" /><g
                   transform="scale(2)"
                   id="g522"><path
                     id="path524"
                     style="fill:none;stroke:#000000;stroke-width:4;stroke-linecap:round;stroke-linejoin:round;stroke-miterlimit:10;stroke-dasharray:none;stroke-opacity:1"
                     d="m 114.5,62.5 v 303 h 489 v -303 z" /></g></g></g><g
               id="g526"><g
                 id="g528" /></g></g></g></g></g></g></svg>