<?xml version="1.0" encoding="UTF-8" standalone="no"?>
<svg
   xmlns:dc="http://purl.org/dc/elements/1.1/"
   xmlns:cc="http://creativecommons.org/ns#"
   xmlns:rdf="http://www.w3.org/1999/02/22-rdf-syntax-ns#"
   xmlns:svg="http://www.w3.org/2000/svg"
   xmlns="http://www.w3.org/2000/svg"
   viewBox="0 0 804 517.33331"
   height="517.33331"
   width="804"
   xml:space="preserve"
   id="svg2"
   version="1.1"><metadata
     id="metadata8"><rdf:RDF><cc:Work
         rdf:about=""><dc:format>image/svg+xml</dc:format><dc:type
           rdf:resource="http://purl.org/dc/dcmitype/StillImage" /></cc:Work></rdf:RDF></metadata><defs
     id="defs6"><clipPath
       id="clipPath20"
       clipPathUnits="userSpaceOnUse"><path
         id="path18"
         d="M 0,0 H 640 V 480 H 0 Z" /></clipPath><clipPath
       id="clipPath38"
       clipPathUnits="userSpaceOnUse"><path
         style="clip-rule:evenodd"
         id="path36"
         d="M 0,0 H 1280 V 960 H 0 Z" /></clipPath></defs><g
     transform="matrix(1.3333333,0,0,-1.3333333,0,517.33333)"
     id="g10"><g
       transform="translate(-10,-41)"
       id="g12"><g
         id="g14"><g
           clip-path="url(#clipPath20)"
           id="g16"><g
             transform="matrix(0.5,0,0,-0.5,0,480)"
             id="g22"><g
               id="g24"><g
                 id="g26" /></g><g
               id="g28"><g
                 id="g30" /></g><g
               id="g32"><g
                 clip-path="url(#clipPath38)"
                 id="g34"><g
                   id="g40" /><g
                   id="g42" /><g
                   transform="scale(2)"
                   id="g44"><path
                     id="path46"
                     style="fill:none;stroke:#a0a0a4;stroke-width:0.5;stroke-linecap:round;stroke-linejoin:round;stroke-miterlimit:10;stroke-dasharray:0.5, 1;stroke-dashoffset:0;stroke-opacity:1"
                     d="m 102.5,368.5 h 501" /><path
                     id="path48"
                     style="fill:none;stroke:#000000;stroke-width:4;stroke-linecap:round;stroke-linejoin:round;stroke-miterlimit:10;stroke-dasharray:none;stroke-opacity:1"
                     d="m 102.5,368.5 h 9" /><path
                     id="path50"
                     style="fill:none;stroke:#000000;stroke-width:4;stroke-linecap:round;stroke-linejoin:round;stroke-miterlimit:10;stroke-dasharray:none;stroke-opacity:1"
                     d="m 603.5,368.5 h -9" /></g><g
                   transform="matrix(2,0,0,2,106,752)"
                   id="g52" /><g
                   transform="matrix(2,0,0,2,106,752)"
                   id="g54" /><g
                   transform="matrix(2,0,0,2,106,752)"
                   id="g56"><g
                     id="g58"><g
                       id="text62"
                       style="font-variant:normal;font-weight:normal;font-size:20px;font-family:'DejaVu Serif';-inkscape-font-specification:DejaVuSerif;writing-mode:lr-tb;fill:#000000;fill-opacity:1;fill-rule:nonzero;stroke:none"
                       aria-label="	7.8"><path
                         id="path528"
                         style=""
                         d="M 17.623047,-13.583984 11.919922,0 h -1.455078 l 5.439453,-12.978516 H 9.1660156 v 1.796875 H 8.0234375 v -3.398437 h 9.5996095 z" /><path
                         id="path530"
                         style=""
                         d="m 20.947266,-1.015625 q 0,-0.546875 0.371093,-0.9277344 0.371094,-0.3808594 0.927735,-0.3808594 0.537109,0 0.917968,0.3808594 0.38086,0.3808594 0.38086,0.9277344 0,0.53710937 -0.38086,0.91796875 -0.380859,0.38085938 -0.917968,0.38085938 -0.556641,0 -0.927735,-0.37109375 Q 20.947266,-0.46875 20.947266,-1.015625 Z" /><path
                         id="path532"
                         style=""
                         d="m 34.722656,-3.984375 q 0,-1.5625 -0.78125,-2.421875 -0.771484,-0.8691406 -2.177734,-0.8691406 -1.40625,0 -2.1875,0.8691406 -0.771485,0.859375 -0.771485,2.421875 0,1.5722656 0.771485,2.4414063 0.78125,0.85937495 2.1875,0.85937495 1.40625,0 2.177734,-0.85937495 0.78125,-0.8691407 0.78125,-2.4414063 z m -0.40039,-7.080078 q 0,-1.328125 -0.673829,-2.070313 -0.673828,-0.742187 -1.884765,-0.742187 -1.201172,0 -1.884766,0.742187 -0.673828,0.742188 -0.673828,2.070313 0,1.3378905 0.673828,2.080078 0.683594,0.7421875 1.884766,0.7421875 1.210937,0 1.884765,-0.7421875 0.673829,-0.7421875 0.673829,-2.080078 z m -1.054688,3.3007811 q 1.660156,0.2246094 2.587891,1.2304688 0.927734,0.9960937 0.927734,2.5488281 0,2.0507813 -1.298828,3.1640625 -1.298828,1.10351563 -3.720703,1.10351563 -2.41211,0 -3.720703,-1.10351563 -1.298828,-1.1132812 -1.298828,-3.1640625 0,-1.5527344 0.927734,-2.5488281 0.927734,-1.0058594 2.597656,-1.2304688 -1.474609,-0.2636719 -2.265625,-1.1132812 -0.78125,-0.859375 -0.78125,-2.1874999 0,-1.757813 1.210938,-2.763672 1.210937,-1.015625 3.330078,-1.015625 2.11914,0 3.330078,1.015625 1.210937,1.005859 1.210937,2.763672 0,1.3281249 -0.791015,2.1874999 -0.78125,0.8496093 -2.246094,1.1132812 z" /></g></g></g><g
                   transform="scale(2)"
                   id="g64"><path
                     id="path66"
                     style="fill:none;stroke:#a0a0a4;stroke-width:0.5;stroke-linecap:round;stroke-linejoin:round;stroke-miterlimit:10;stroke-dasharray:0.5, 1;stroke-dashoffset:0;stroke-opacity:1"
                     d="m 102.5,337.5 h 501" /><path
                     id="path68"
                     style="fill:none;stroke:#000000;stroke-width:4;stroke-linecap:round;stroke-linejoin:round;stroke-miterlimit:10;stroke-dasharray:none;stroke-opacity:1"
                     d="m 102.5,337.5 h 9" /><path
                     id="path70"
                     style="fill:none;stroke:#000000;stroke-width:4;stroke-linecap:round;stroke-linejoin:round;stroke-miterlimit:10;stroke-dasharray:none;stroke-opacity:1"
                     d="m 603.5,337.5 h -9" /></g><g
                   transform="matrix(2,0,0,2,144,690)"
                   id="g72" /><g
                   transform="matrix(2,0,0,2,144,690)"
                   id="g74" /><g
                   transform="matrix(2,0,0,2,144,690)"
                   id="g76"><g
                     id="g78"><g
                       id="text82"
                       style="font-variant:normal;font-weight:normal;font-size:20px;font-family:'DejaVu Serif';-inkscape-font-specification:DejaVuSerif;writing-mode:lr-tb;fill:#000000;fill-opacity:1;fill-rule:nonzero;stroke:none"
                       aria-label="	8"><path
                         id="path535"
                         style=""
                         d="m 15.660156,-3.984375 q 0,-1.5625 -0.78125,-2.421875 -0.771484,-0.8691406 -2.177734,-0.8691406 -1.40625,0 -2.1875,0.8691406 -0.7714845,0.859375 -0.7714845,2.421875 0,1.5722656 0.7714845,2.4414063 0.78125,0.85937495 2.1875,0.85937495 1.40625,0 2.177734,-0.85937495 0.78125,-0.8691407 0.78125,-2.4414063 z m -0.40039,-7.080078 q 0,-1.328125 -0.673828,-2.070313 -0.673829,-0.742187 -1.884766,-0.742187 -1.201172,0 -1.884766,0.742187 -0.673828,0.742188 -0.673828,2.070313 0,1.3378905 0.673828,2.080078 0.683594,0.7421875 1.884766,0.7421875 1.210937,0 1.884766,-0.7421875 0.673828,-0.7421875 0.673828,-2.080078 z m -1.054688,3.3007811 q 1.660156,0.2246094 2.587891,1.2304688 0.927734,0.9960937 0.927734,2.5488281 0,2.0507813 -1.298828,3.1640625 -1.298828,1.10351563 -3.720703,1.10351563 -2.412109,0 -3.7207032,-1.10351563 -1.2988282,-1.1132812 -1.2988282,-3.1640625 0,-1.5527344 0.9277344,-2.5488281 0.9277344,-1.0058594 2.597656,-1.2304688 -1.4746091,-0.2636719 -2.2656247,-1.1132812 -0.78125,-0.859375 -0.78125,-2.1874999 0,-1.757813 1.2109375,-2.763672 1.2109372,-1.015625 3.3300782,-1.015625 2.119141,0 3.330078,1.015625 1.210937,1.005859 1.210937,2.763672 0,1.3281249 -0.791015,2.1874999 -0.78125,0.8496093 -2.246094,1.1132812 z" /></g></g></g><g
                   transform="scale(2)"
                   id="g84"><path
                     id="path86"
                     style="fill:none;stroke:#a0a0a4;stroke-width:0.5;stroke-linecap:round;stroke-linejoin:round;stroke-miterlimit:10;stroke-dasharray:0.5, 1;stroke-dashoffset:0;stroke-opacity:1"
                     d="m 102.5,306.5 h 501" /><path
                     id="path88"
                     style="fill:none;stroke:#000000;stroke-width:4;stroke-linecap:round;stroke-linejoin:round;stroke-miterlimit:10;stroke-dasharray:none;stroke-opacity:1"
                     d="m 102.5,306.5 h 9" /><path
                     id="path90"
                     style="fill:none;stroke:#000000;stroke-width:4;stroke-linecap:round;stroke-linejoin:round;stroke-miterlimit:10;stroke-dasharray:none;stroke-opacity:1"
                     d="m 603.5,306.5 h -9" /></g><g
                   transform="matrix(2,0,0,2,108,628)"
                   id="g92" /><g
                   transform="matrix(2,0,0,2,108,628)"
                   id="g94" /><g
                   transform="matrix(2,0,0,2,108,628)"
                   id="g96"><g
                     id="g98"><g
                       id="text102"
                       style="font-variant:normal;font-weight:normal;font-size:20px;font-family:'DejaVu Serif';-inkscape-font-specification:DejaVuSerif;writing-mode:lr-tb;fill:#000000;fill-opacity:1;fill-rule:nonzero;stroke:none"
                       aria-label="	8.2"><path
                         id="path538"
                         style=""
                         d="m 15.660156,-3.984375 q 0,-1.5625 -0.78125,-2.421875 -0.771484,-0.8691406 -2.177734,-0.8691406 -1.40625,0 -2.1875,0.8691406 -0.7714845,0.859375 -0.7714845,2.421875 0,1.5722656 0.7714845,2.4414063 0.78125,0.85937495 2.1875,0.85937495 1.40625,0 2.177734,-0.85937495 0.78125,-0.8691407 0.78125,-2.4414063 z m -0.40039,-7.080078 q 0,-1.328125 -0.673828,-2.070313 -0.673829,-0.742187 -1.884766,-0.742187 -1.201172,0 -1.884766,0.742187 -0.673828,0.742188 -0.673828,2.070313 0,1.3378905 0.673828,2.080078 0.683594,0.7421875 1.884766,0.7421875 1.210937,0 1.884766,-0.7421875 0.673828,-0.7421875 0.673828,-2.080078 z m -1.054688,3.3007811 q 1.660156,0.2246094 2.587891,1.2304688 0.927734,0.9960937 0.927734,2.5488281 0,2.0507813 -1.298828,3.1640625 -1.298828,1.10351563 -3.720703,1.10351563 -2.412109,0 -3.7207032,-1.10351563 -1.2988282,-1.1132812 -1.2988282,-3.1640625 0,-1.5527344 0.9277344,-2.5488281 0.9277344,-1.0058594 2.597656,-1.2304688 -1.4746091,-0.2636719 -2.2656247,-1.1132812 -0.78125,-0.859375 -0.78125,-2.1874999 0,-1.757813 1.2109375,-2.763672 1.2109372,-1.015625 3.3300782,-1.015625 2.119141,0 3.330078,1.015625 1.210937,1.005859 1.210937,2.763672 0,1.3281249 -0.791015,2.1874999 -0.78125,0.8496093 -2.246094,1.1132812 z" /><path
                         id="path540"
                         style=""
                         d="m 20.947266,-1.015625 q 0,-0.546875 0.371093,-0.9277344 0.371094,-0.3808594 0.927735,-0.3808594 0.537109,0 0.917968,0.3808594 0.38086,0.3808594 0.38086,0.9277344 0,0.53710937 -0.38086,0.91796875 -0.380859,0.38085938 -0.917968,0.38085938 -0.556641,0 -0.927735,-0.37109375 Q 20.947266,-0.46875 20.947266,-1.015625 Z" /><path
                         id="path542"
                         style=""
                         d="m 27.964844,-11.103516 h -1.09375 v -2.597656 q 1.044922,-0.556641 2.099609,-0.849609 1.064453,-0.292969 2.080078,-0.292969 2.275391,0 3.59375,1.103516 1.31836,1.103515 1.31836,2.998046 0,2.1386724 -2.988282,5.117188 -0.234375,0.2246094 -0.351562,0.3417969 l -3.681641,3.6816406 h 6.083985 v -1.796875 h 1.142578 V 0 H 26.763672 V -1.0644531 L 31.1875,-5.4785156 q 1.464844,-1.4648438 2.089844,-2.6855469 0.625,-1.2304688 0.625,-2.5781255 0,-1.474609 -0.771485,-2.304687 -0.761718,-0.830078 -2.109375,-0.830078 -1.396484,0 -2.158203,0.693359 -0.761719,0.69336 -0.898437,2.080078 z" /></g></g></g><g
                   transform="scale(2)"
                   id="g104"><path
                     id="path106"
                     style="fill:none;stroke:#a0a0a4;stroke-width:0.5;stroke-linecap:round;stroke-linejoin:round;stroke-miterlimit:10;stroke-dasharray:0.5, 1;stroke-dashoffset:0;stroke-opacity:1"
                     d="m 102.5,275.5 h 501" /><path
                     id="path108"
                     style="fill:none;stroke:#000000;stroke-width:4;stroke-linecap:round;stroke-linejoin:round;stroke-miterlimit:10;stroke-dasharray:none;stroke-opacity:1"
                     d="m 102.5,275.5 h 9" /><path
                     id="path110"
                     style="fill:none;stroke:#000000;stroke-width:4;stroke-linecap:round;stroke-linejoin:round;stroke-miterlimit:10;stroke-dasharray:none;stroke-opacity:1"
                     d="m 603.5,275.5 h -9" /></g><g
                   transform="matrix(2,0,0,2,106,566)"
                   id="g112" /><g
                   transform="matrix(2,0,0,2,106,566)"
                   id="g114" /><g
                   transform="matrix(2,0,0,2,106,566)"
                   id="g116"><g
                     id="g118"><g
                       id="text122"
                       style="font-variant:normal;font-weight:normal;font-size:20px;font-family:'DejaVu Serif';-inkscape-font-specification:DejaVuSerif;writing-mode:lr-tb;fill:#000000;fill-opacity:1;fill-rule:nonzero;stroke:none"
                       aria-label="	8.4"><path
                         id="path545"
                         style=""
                         d="m 15.660156,-3.984375 q 0,-1.5625 -0.78125,-2.421875 -0.771484,-0.8691406 -2.177734,-0.8691406 -1.40625,0 -2.1875,0.8691406 -0.7714845,0.859375 -0.7714845,2.421875 0,1.5722656 0.7714845,2.4414063 0.78125,0.85937495 2.1875,0.85937495 1.40625,0 2.177734,-0.85937495 0.78125,-0.8691407 0.78125,-2.4414063 z m -0.40039,-7.080078 q 0,-1.328125 -0.673828,-2.070313 -0.673829,-0.742187 -1.884766,-0.742187 -1.201172,0 -1.884766,0.742187 -0.673828,0.742188 -0.673828,2.070313 0,1.3378905 0.673828,2.080078 0.683594,0.7421875 1.884766,0.7421875 1.210937,0 1.884766,-0.7421875 0.673828,-0.7421875 0.673828,-2.080078 z m -1.054688,3.3007811 q 1.660156,0.2246094 2.587891,1.2304688 0.927734,0.9960937 0.927734,2.5488281 0,2.0507813 -1.298828,3.1640625 -1.298828,1.10351563 -3.720703,1.10351563 -2.412109,0 -3.7207032,-1.10351563 -1.2988282,-1.1132812 -1.2988282,-3.1640625 0,-1.5527344 0.9277344,-2.5488281 0.9277344,-1.0058594 2.597656,-1.2304688 -1.4746091,-0.2636719 -2.2656247,-1.1132812 -0.78125,-0.859375 -0.78125,-2.1874999 0,-1.757813 1.2109375,-2.763672 1.2109372,-1.015625 3.3300782,-1.015625 2.119141,0 3.330078,1.015625 1.210937,1.005859 1.210937,2.763672 0,1.3281249 -0.791015,2.1874999 -0.78125,0.8496093 -2.246094,1.1132812 z" /><path
                         id="path547"
                         style=""
                         d="m 20.947266,-1.015625 q 0,-0.546875 0.371093,-0.9277344 0.371094,-0.3808594 0.927735,-0.3808594 0.537109,0 0.917968,0.3808594 0.38086,0.3808594 0.38086,0.9277344 0,0.53710937 -0.38086,0.91796875 -0.380859,0.38085938 -0.917968,0.38085938 -0.556641,0 -0.927735,-0.37109375 Q 20.947266,-0.46875 20.947266,-1.015625 Z" /><path
                         id="path549"
                         style=""
                         d="m 32.388672,-4.9414062 v -7.7539068 l -4.980469,7.7539068 z M 36.685547,0 h -6.640625 v -1.0351562 h 2.34375 v -2.8613282 h -6.367188 v -1.0644531 l 6.386719,-9.8828125 h 1.933594 v 9.9023438 H 37.125 v 1.0449218 h -2.783203 v 2.8613282 h 2.34375 z" /></g></g></g><g
                   transform="scale(2)"
                   id="g124"><path
                     id="path126"
                     style="fill:none;stroke:#a0a0a4;stroke-width:0.5;stroke-linecap:round;stroke-linejoin:round;stroke-miterlimit:10;stroke-dasharray:0.5, 1;stroke-dashoffset:0;stroke-opacity:1"
                     d="m 102.5,244.5 h 501" /><path
                     id="path128"
                     style="fill:none;stroke:#000000;stroke-width:4;stroke-linecap:round;stroke-linejoin:round;stroke-miterlimit:10;stroke-dasharray:none;stroke-opacity:1"
                     d="m 102.5,244.5 h 9" /><path
                     id="path130"
                     style="fill:none;stroke:#000000;stroke-width:4;stroke-linecap:round;stroke-linejoin:round;stroke-miterlimit:10;stroke-dasharray:none;stroke-opacity:1"
                     d="m 603.5,244.5 h -9" /></g><g
                   transform="matrix(2,0,0,2,106,504)"
                   id="g132" /><g
                   transform="matrix(2,0,0,2,106,504)"
                   id="g134" /><g
                   transform="matrix(2,0,0,2,106,504)"
                   id="g136"><g
                     id="g138"><g
                       id="text142"
                       style="font-variant:normal;font-weight:normal;font-size:20px;font-family:'DejaVu Serif';-inkscape-font-specification:DejaVuSerif;writing-mode:lr-tb;fill:#000000;fill-opacity:1;fill-rule:nonzero;stroke:none"
                       aria-label="	8.6"><path
                         id="path552"
                         style=""
                         d="m 15.660156,-3.984375 q 0,-1.5625 -0.78125,-2.421875 -0.771484,-0.8691406 -2.177734,-0.8691406 -1.40625,0 -2.1875,0.8691406 -0.7714845,0.859375 -0.7714845,2.421875 0,1.5722656 0.7714845,2.4414063 0.78125,0.85937495 2.1875,0.85937495 1.40625,0 2.177734,-0.85937495 0.78125,-0.8691407 0.78125,-2.4414063 z m -0.40039,-7.080078 q 0,-1.328125 -0.673828,-2.070313 -0.673829,-0.742187 -1.884766,-0.742187 -1.201172,0 -1.884766,0.742187 -0.673828,0.742188 -0.673828,2.070313 0,1.3378905 0.673828,2.080078 0.683594,0.7421875 1.884766,0.7421875 1.210937,0 1.884766,-0.7421875 0.673828,-0.7421875 0.673828,-2.080078 z m -1.054688,3.3007811 q 1.660156,0.2246094 2.587891,1.2304688 0.927734,0.9960937 0.927734,2.5488281 0,2.0507813 -1.298828,3.1640625 -1.298828,1.10351563 -3.720703,1.10351563 -2.412109,0 -3.7207032,-1.10351563 -1.2988282,-1.1132812 -1.2988282,-3.1640625 0,-1.5527344 0.9277344,-2.5488281 0.9277344,-1.0058594 2.597656,-1.2304688 -1.4746091,-0.2636719 -2.2656247,-1.1132812 -0.78125,-0.859375 -0.78125,-2.1874999 0,-1.757813 1.2109375,-2.763672 1.2109372,-1.015625 3.3300782,-1.015625 2.119141,0 3.330078,1.015625 1.210937,1.005859 1.210937,2.763672 0,1.3281249 -0.791015,2.1874999 -0.78125,0.8496093 -2.246094,1.1132812 z" /><path
                         id="path554"
                         style=""
                         d="m 20.947266,-1.015625 q 0,-0.546875 0.371093,-0.9277344 0.371094,-0.3808594 0.927735,-0.3808594 0.537109,0 0.917968,0.3808594 0.38086,0.3808594 0.38086,0.9277344 0,0.53710937 -0.38086,0.91796875 -0.380859,0.38085938 -0.917968,0.38085938 -0.556641,0 -0.927735,-0.37109375 Q 20.947266,-0.46875 20.947266,-1.015625 Z" /><path
                         id="path556"
                         style=""
                         d="m 31.949219,-0.68359375 q 1.376953,0 2.11914,-1.00585935 0.742188,-1.015625 0.742188,-2.9101563 0,-1.8945312 -0.742188,-2.9003906 -0.742187,-1.015625 -2.11914,-1.015625 -1.396485,0 -2.128907,0.9765625 -0.732421,0.9765625 -0.732421,2.8222656 0,1.9433594 0.742187,2.9882813 0.742188,1.04492185 2.119141,1.04492185 z M 28.765625,-8.0273438 q 0.664062,-0.7324218 1.503906,-1.09375 0.839844,-0.3613281 1.894531,-0.3613281 2.177735,0 3.4375,1.3085938 1.269532,1.3085937 1.269532,3.5742187 0,2.2167969 -1.367188,3.5546875 -1.357422,1.32812503 -3.632812,1.32812503 -2.470703,0 -3.798828,-1.83593753 -1.328125,-1.8457031 -1.328125,-5.2636718 0,-3.8281248 1.572265,-5.9277348 1.572266,-2.099609 4.433594,-2.099609 0.771484,0 1.621094,0.146484 0.849609,0.146485 1.738281,0.439453 v 2.402344 h -1.103516 q -0.117187,-0.986328 -0.751953,-1.503906 -0.634765,-0.517578 -1.708984,-0.517578 -1.894531,0 -2.822266,1.435547 -0.927734,1.435547 -0.957031,4.4140622 z" /></g></g></g><g
                   transform="scale(2)"
                   id="g144"><path
                     id="path146"
                     style="fill:none;stroke:#a0a0a4;stroke-width:0.5;stroke-linecap:round;stroke-linejoin:round;stroke-miterlimit:10;stroke-dasharray:0.5, 1;stroke-dashoffset:0;stroke-opacity:1"
                     d="m 102.5,213.5 h 501" /><path
                     id="path148"
                     style="fill:none;stroke:#000000;stroke-width:4;stroke-linecap:round;stroke-linejoin:round;stroke-miterlimit:10;stroke-dasharray:none;stroke-opacity:1"
                     d="m 102.5,213.5 h 9" /><path
                     id="path150"
                     style="fill:none;stroke:#000000;stroke-width:4;stroke-linecap:round;stroke-linejoin:round;stroke-miterlimit:10;stroke-dasharray:none;stroke-opacity:1"
                     d="m 603.5,213.5 h -9" /></g><g
                   transform="matrix(2,0,0,2,106,442)"
                   id="g152" /><g
                   transform="matrix(2,0,0,2,106,442)"
                   id="g154" /><g
                   transform="matrix(2,0,0,2,106,442)"
                   id="g156"><g
                     id="g158"><g
                       id="text162"
                       style="font-variant:normal;font-weight:normal;font-size:20px;font-family:'DejaVu Serif';-inkscape-font-specification:DejaVuSerif;writing-mode:lr-tb;fill:#000000;fill-opacity:1;fill-rule:nonzero;stroke:none"
                       aria-label="	8.8"><path
                         id="path559"
                         style=""
                         d="m 15.660156,-3.984375 q 0,-1.5625 -0.78125,-2.421875 -0.771484,-0.8691406 -2.177734,-0.8691406 -1.40625,0 -2.1875,0.8691406 -0.7714845,0.859375 -0.7714845,2.421875 0,1.5722656 0.7714845,2.4414063 0.78125,0.85937495 2.1875,0.85937495 1.40625,0 2.177734,-0.85937495 0.78125,-0.8691407 0.78125,-2.4414063 z m -0.40039,-7.080078 q 0,-1.328125 -0.673828,-2.070313 -0.673829,-0.742187 -1.884766,-0.742187 -1.201172,0 -1.884766,0.742187 -0.673828,0.742188 -0.673828,2.070313 0,1.3378905 0.673828,2.080078 0.683594,0.7421875 1.884766,0.7421875 1.210937,0 1.884766,-0.7421875 0.673828,-0.7421875 0.673828,-2.080078 z m -1.054688,3.3007811 q 1.660156,0.2246094 2.587891,1.2304688 0.927734,0.9960937 0.927734,2.5488281 0,2.0507813 -1.298828,3.1640625 -1.298828,1.10351563 -3.720703,1.10351563 -2.412109,0 -3.7207032,-1.10351563 -1.2988282,-1.1132812 -1.2988282,-3.1640625 0,-1.5527344 0.9277344,-2.5488281 0.9277344,-1.0058594 2.597656,-1.2304688 -1.4746091,-0.2636719 -2.2656247,-1.1132812 -0.78125,-0.859375 -0.78125,-2.1874999 0,-1.757813 1.2109375,-2.763672 1.2109372,-1.015625 3.3300782,-1.015625 2.119141,0 3.330078,1.015625 1.210937,1.005859 1.210937,2.763672 0,1.3281249 -0.791015,2.1874999 -0.78125,0.8496093 -2.246094,1.1132812 z" /><path
                         id="path561"
                         style=""
                         d="m 20.947266,-1.015625 q 0,-0.546875 0.371093,-0.9277344 0.371094,-0.3808594 0.927735,-0.3808594 0.537109,0 0.917968,0.3808594 0.38086,0.3808594 0.38086,0.9277344 0,0.53710937 -0.38086,0.91796875 -0.380859,0.38085938 -0.917968,0.38085938 -0.556641,0 -0.927735,-0.37109375 Q 20.947266,-0.46875 20.947266,-1.015625 Z" /><path
                         id="path563"
                         style=""
                         d="m 34.722656,-3.984375 q 0,-1.5625 -0.78125,-2.421875 -0.771484,-0.8691406 -2.177734,-0.8691406 -1.40625,0 -2.1875,0.8691406 -0.771485,0.859375 -0.771485,2.421875 0,1.5722656 0.771485,2.4414063 0.78125,0.85937495 2.1875,0.85937495 1.40625,0 2.177734,-0.85937495 0.78125,-0.8691407 0.78125,-2.4414063 z m -0.40039,-7.080078 q 0,-1.328125 -0.673829,-2.070313 -0.673828,-0.742187 -1.884765,-0.742187 -1.201172,0 -1.884766,0.742187 -0.673828,0.742188 -0.673828,2.070313 0,1.3378905 0.673828,2.080078 0.683594,0.7421875 1.884766,0.7421875 1.210937,0 1.884765,-0.7421875 0.673829,-0.7421875 0.673829,-2.080078 z m -1.054688,3.3007811 q 1.660156,0.2246094 2.587891,1.2304688 0.927734,0.9960937 0.927734,2.5488281 0,2.0507813 -1.298828,3.1640625 -1.298828,1.10351563 -3.720703,1.10351563 -2.41211,0 -3.720703,-1.10351563 -1.298828,-1.1132812 -1.298828,-3.1640625 0,-1.5527344 0.927734,-2.5488281 0.927734,-1.0058594 2.597656,-1.2304688 -1.474609,-0.2636719 -2.265625,-1.1132812 -0.78125,-0.859375 -0.78125,-2.1874999 0,-1.757813 1.210938,-2.763672 1.210937,-1.015625 3.330078,-1.015625 2.11914,0 3.330078,1.015625 1.210937,1.005859 1.210937,2.763672 0,1.3281249 -0.791015,2.1874999 -0.78125,0.8496093 -2.246094,1.1132812 z" /></g></g></g><g
                   transform="scale(2)"
                   id="g164"><path
                     id="path166"
                     style="fill:none;stroke:#a0a0a4;stroke-width:0.5;stroke-linecap:round;stroke-linejoin:round;stroke-miterlimit:10;stroke-dasharray:0.5, 1;stroke-dashoffset:0;stroke-opacity:1"
                     d="m 102.5,182.5 h 501" /><path
                     id="path168"
                     style="fill:none;stroke:#000000;stroke-width:4;stroke-linecap:round;stroke-linejoin:round;stroke-miterlimit:10;stroke-dasharray:none;stroke-opacity:1"
                     d="m 102.5,182.5 h 9" /><path
                     id="path170"
                     style="fill:none;stroke:#000000;stroke-width:4;stroke-linecap:round;stroke-linejoin:round;stroke-miterlimit:10;stroke-dasharray:none;stroke-opacity:1"
                     d="m 603.5,182.5 h -9" /></g><g
                   transform="matrix(2,0,0,2,144,380)"
                   id="g172" /><g
                   transform="matrix(2,0,0,2,144,380)"
                   id="g174" /><g
                   transform="matrix(2,0,0,2,144,380)"
                   id="g176"><g
                     id="g178"><g
                       id="text182"
                       style="font-variant:normal;font-weight:normal;font-size:20px;font-family:'DejaVu Serif';-inkscape-font-specification:DejaVuSerif;writing-mode:lr-tb;fill:#000000;fill-opacity:1;fill-rule:nonzero;stroke:none"
                       aria-label="	9"><path
                         id="path566"
                         style=""
                         d="m 15.699219,-6.5332031 q -0.654297,0.7324219 -1.503906,1.09375 -0.84961,0.3613281 -1.914063,0.3613281 -2.167969,0 -3.4277344,-1.3085937 -1.25,-1.3085938 -1.25,-3.5742188 0,-2.2167965 1.3574219,-3.5449215 1.3671875,-1.337891 3.6425785,-1.337891 2.470703,0 3.789062,1.845703 1.328125,1.835938 1.328125,5.2539064 0,3.828125 -1.572266,5.9277344 -1.572265,2.09960933 -4.423828,2.09960933 -0.771484,0 -1.621093,-0.14648438 Q 9.2539063,-0.00976563 8.3652344,-0.30273438 V -2.7246094 h 1.09375 q 0.1269531,0.9863282 0.7617186,1.5136719 0.634766,0.52734375 1.699219,0.52734375 1.894531,0 2.822266,-1.42578125 0.927734,-1.4355469 0.957031,-4.4238281 z m -3.173828,-7.3437499 q -1.386719,0 -2.128907,1.015625 -0.7324215,1.005859 -0.7324215,2.9003905 0,1.8945312 0.7324215,2.9101563 0.742188,1.015625 2.128907,1.015625 1.386718,0 2.11914,-0.9765625 0.742188,-0.9863282 0.742188,-2.8320313 0,-1.943359 -0.742188,-2.988281 -0.742187,-1.044922 -2.11914,-1.044922 z" /></g></g></g><g
                   transform="scale(2)"
                   id="g184"><path
                     id="path186"
                     style="fill:none;stroke:#a0a0a4;stroke-width:0.5;stroke-linecap:round;stroke-linejoin:round;stroke-miterlimit:10;stroke-dasharray:0.5, 1;stroke-dashoffset:0;stroke-opacity:1"
                     d="m 102.5,151.5 h 501" /><path
                     id="path188"
                     style="fill:none;stroke:#000000;stroke-width:4;stroke-linecap:round;stroke-linejoin:round;stroke-miterlimit:10;stroke-dasharray:none;stroke-opacity:1"
                     d="m 102.5,151.5 h 9" /><path
                     id="path190"
                     style="fill:none;stroke:#000000;stroke-width:4;stroke-linecap:round;stroke-linejoin:round;stroke-miterlimit:10;stroke-dasharray:none;stroke-opacity:1"
                     d="m 603.5,151.5 h -9" /></g><g
                   transform="matrix(2,0,0,2,108,318)"
                   id="g192" /><g
                   transform="matrix(2,0,0,2,108,318)"
                   id="g194" /><g
                   transform="matrix(2,0,0,2,108,318)"
                   id="g196"><g
                     id="g198"><g
                       id="text202"
                       style="font-variant:normal;font-weight:normal;font-size:20px;font-family:'DejaVu Serif';-inkscape-font-specification:DejaVuSerif;writing-mode:lr-tb;fill:#000000;fill-opacity:1;fill-rule:nonzero;stroke:none"
                       aria-label="	9.2"><path
                         id="path569"
                         style=""
                         d="m 15.699219,-6.5332031 q -0.654297,0.7324219 -1.503906,1.09375 -0.84961,0.3613281 -1.914063,0.3613281 -2.167969,0 -3.4277344,-1.3085937 -1.25,-1.3085938 -1.25,-3.5742188 0,-2.2167965 1.3574219,-3.5449215 1.3671875,-1.337891 3.6425785,-1.337891 2.470703,0 3.789062,1.845703 1.328125,1.835938 1.328125,5.2539064 0,3.828125 -1.572266,5.9277344 -1.572265,2.09960933 -4.423828,2.09960933 -0.771484,0 -1.621093,-0.14648438 Q 9.2539063,-0.00976563 8.3652344,-0.30273438 V -2.7246094 h 1.09375 q 0.1269531,0.9863282 0.7617186,1.5136719 0.634766,0.52734375 1.699219,0.52734375 1.894531,0 2.822266,-1.42578125 0.927734,-1.4355469 0.957031,-4.4238281 z m -3.173828,-7.3437499 q -1.386719,0 -2.128907,1.015625 -0.7324215,1.005859 -0.7324215,2.9003905 0,1.8945312 0.7324215,2.9101563 0.742188,1.015625 2.128907,1.015625 1.386718,0 2.11914,-0.9765625 0.742188,-0.9863282 0.742188,-2.8320313 0,-1.943359 -0.742188,-2.988281 -0.742187,-1.044922 -2.11914,-1.044922 z" /><path
                         id="path571"
                         style=""
                         d="m 20.947266,-1.015625 q 0,-0.546875 0.371093,-0.9277344 0.371094,-0.3808594 0.927735,-0.3808594 0.537109,0 0.917968,0.3808594 0.38086,0.3808594 0.38086,0.9277344 0,0.53710937 -0.38086,0.91796875 -0.380859,0.38085938 -0.917968,0.38085938 -0.556641,0 -0.927735,-0.37109375 Q 20.947266,-0.46875 20.947266,-1.015625 Z" /><path
                         id="path573"
                         style=""
                         d="m 27.964844,-11.103516 h -1.09375 v -2.597656 q 1.044922,-0.556641 2.099609,-0.849609 1.064453,-0.292969 2.080078,-0.292969 2.275391,0 3.59375,1.103516 1.31836,1.103515 1.31836,2.998046 0,2.1386724 -2.988282,5.117188 -0.234375,0.2246094 -0.351562,0.3417969 l -3.681641,3.6816406 h 6.083985 v -1.796875 h 1.142578 V 0 H 26.763672 V -1.0644531 L 31.1875,-5.4785156 q 1.464844,-1.4648438 2.089844,-2.6855469 0.625,-1.2304688 0.625,-2.5781255 0,-1.474609 -0.771485,-2.304687 -0.761718,-0.830078 -2.109375,-0.830078 -1.396484,0 -2.158203,0.693359 -0.761719,0.69336 -0.898437,2.080078 z" /></g></g></g><g
                   transform="scale(2)"
                   id="g204"><path
                     id="path206"
                     style="fill:none;stroke:#a0a0a4;stroke-width:0.5;stroke-linecap:round;stroke-linejoin:round;stroke-miterlimit:10;stroke-dasharray:0.5, 1;stroke-dashoffset:0;stroke-opacity:1"
                     d="m 102.5,120.5 h 501" /><path
                     id="path208"
                     style="fill:none;stroke:#000000;stroke-width:4;stroke-linecap:round;stroke-linejoin:round;stroke-miterlimit:10;stroke-dasharray:none;stroke-opacity:1"
                     d="m 102.5,120.5 h 9" /><path
                     id="path210"
                     style="fill:none;stroke:#000000;stroke-width:4;stroke-linecap:round;stroke-linejoin:round;stroke-miterlimit:10;stroke-dasharray:none;stroke-opacity:1"
                     d="m 603.5,120.5 h -9" /></g><g
                   transform="matrix(2,0,0,2,106,256)"
                   id="g212" /><g
                   transform="matrix(2,0,0,2,106,256)"
                   id="g214" /><g
                   transform="matrix(2,0,0,2,106,256)"
                   id="g216"><g
                     id="g218"><g
                       id="text222"
                       style="font-variant:normal;font-weight:normal;font-size:20px;font-family:'DejaVu Serif';-inkscape-font-specification:DejaVuSerif;writing-mode:lr-tb;fill:#000000;fill-opacity:1;fill-rule:nonzero;stroke:none"
                       aria-label="	9.4"><path
                         id="path576"
                         style=""
                         d="m 15.699219,-6.5332031 q -0.654297,0.7324219 -1.503906,1.09375 -0.84961,0.3613281 -1.914063,0.3613281 -2.167969,0 -3.4277344,-1.3085937 -1.25,-1.3085938 -1.25,-3.5742188 0,-2.2167965 1.3574219,-3.5449215 1.3671875,-1.337891 3.6425785,-1.337891 2.470703,0 3.789062,1.845703 1.328125,1.835938 1.328125,5.2539064 0,3.828125 -1.572266,5.9277344 -1.572265,2.09960933 -4.423828,2.09960933 -0.771484,0 -1.621093,-0.14648438 Q 9.2539063,-0.00976563 8.3652344,-0.30273438 V -2.7246094 h 1.09375 q 0.1269531,0.9863282 0.7617186,1.5136719 0.634766,0.52734375 1.699219,0.52734375 1.894531,0 2.822266,-1.42578125 0.927734,-1.4355469 0.957031,-4.4238281 z m -3.173828,-7.3437499 q -1.386719,0 -2.128907,1.015625 -0.7324215,1.005859 -0.7324215,2.9003905 0,1.8945312 0.7324215,2.9101563 0.742188,1.015625 2.128907,1.015625 1.386718,0 2.11914,-0.9765625 0.742188,-0.9863282 0.742188,-2.8320313 0,-1.943359 -0.742188,-2.988281 -0.742187,-1.044922 -2.11914,-1.044922 z" /><path
                         id="path578"
                         style=""
                         d="m 20.947266,-1.015625 q 0,-0.546875 0.371093,-0.9277344 0.371094,-0.3808594 0.927735,-0.3808594 0.537109,0 0.917968,0.3808594 0.38086,0.3808594 0.38086,0.9277344 0,0.53710937 -0.38086,0.91796875 -0.380859,0.38085938 -0.917968,0.38085938 -0.556641,0 -0.927735,-0.37109375 Q 20.947266,-0.46875 20.947266,-1.015625 Z" /><path
                         id="path580"
                         style=""
                         d="m 32.388672,-4.9414062 v -7.7539068 l -4.980469,7.7539068 z M 36.685547,0 h -6.640625 v -1.0351562 h 2.34375 v -2.8613282 h -6.367188 v -1.0644531 l 6.386719,-9.8828125 h 1.933594 v 9.9023438 H 37.125 v 1.0449218 h -2.783203 v 2.8613282 h 2.34375 z" /></g></g></g><g
                   transform="scale(2)"
                   id="g224"><path
                     id="path226"
                     style="fill:none;stroke:#a0a0a4;stroke-width:0.5;stroke-linecap:round;stroke-linejoin:round;stroke-miterlimit:10;stroke-dasharray:0.5, 1;stroke-dashoffset:0;stroke-opacity:1"
                     d="m 102.5,89.5 h 501" /><path
                     id="path228"
                     style="fill:none;stroke:#000000;stroke-width:4;stroke-linecap:round;stroke-linejoin:round;stroke-miterlimit:10;stroke-dasharray:none;stroke-opacity:1"
                     d="m 102.5,89.5 h 9" /><path
                     id="path230"
                     style="fill:none;stroke:#000000;stroke-width:4;stroke-linecap:round;stroke-linejoin:round;stroke-miterlimit:10;stroke-dasharray:none;stroke-opacity:1"
                     d="m 603.5,89.5 h -9" /></g><g
                   transform="matrix(2,0,0,2,106,194)"
                   id="g232" /><g
                   transform="matrix(2,0,0,2,106,194)"
                   id="g234" /><g
                   transform="matrix(2,0,0,2,106,194)"
                   id="g236"><g
                     id="g238"><g
                       id="text242"
                       style="font-variant:normal;font-weight:normal;font-size:20px;font-family:'DejaVu Serif';-inkscape-font-specification:DejaVuSerif;writing-mode:lr-tb;fill:#000000;fill-opacity:1;fill-rule:nonzero;stroke:none"
                       aria-label="	9.6"><path
                         id="path583"
                         style=""
                         d="m 15.699219,-6.5332031 q -0.654297,0.7324219 -1.503906,1.09375 -0.84961,0.3613281 -1.914063,0.3613281 -2.167969,0 -3.4277344,-1.3085937 -1.25,-1.3085938 -1.25,-3.5742188 0,-2.2167965 1.3574219,-3.5449215 1.3671875,-1.337891 3.6425785,-1.337891 2.470703,0 3.789062,1.845703 1.328125,1.835938 1.328125,5.2539064 0,3.828125 -1.572266,5.9277344 -1.572265,2.09960933 -4.423828,2.09960933 -0.771484,0 -1.621093,-0.14648438 Q 9.2539063,-0.00976563 8.3652344,-0.30273438 V -2.7246094 h 1.09375 q 0.1269531,0.9863282 0.7617186,1.5136719 0.634766,0.52734375 1.699219,0.52734375 1.894531,0 2.822266,-1.42578125 0.927734,-1.4355469 0.957031,-4.4238281 z m -3.173828,-7.3437499 q -1.386719,0 -2.128907,1.015625 -0.7324215,1.005859 -0.7324215,2.9003905 0,1.8945312 0.7324215,2.9101563 0.742188,1.015625 2.128907,1.015625 1.386718,0 2.11914,-0.9765625 0.742188,-0.9863282 0.742188,-2.8320313 0,-1.943359 -0.742188,-2.988281 -0.742187,-1.044922 -2.11914,-1.044922 z" /><path
                         id="path585"
                         style=""
                         d="m 20.947266,-1.015625 q 0,-0.546875 0.371093,-0.9277344 0.371094,-0.3808594 0.927735,-0.3808594 0.537109,0 0.917968,0.3808594 0.38086,0.3808594 0.38086,0.9277344 0,0.53710937 -0.38086,0.91796875 -0.380859,0.38085938 -0.917968,0.38085938 -0.556641,0 -0.927735,-0.37109375 Q 20.947266,-0.46875 20.947266,-1.015625 Z" /><path
                         id="path587"
                         style=""
                         d="m 31.949219,-0.68359375 q 1.376953,0 2.11914,-1.00585935 0.742188,-1.015625 0.742188,-2.9101563 0,-1.8945312 -0.742188,-2.9003906 -0.742187,-1.015625 -2.11914,-1.015625 -1.396485,0 -2.128907,0.9765625 -0.732421,0.9765625 -0.732421,2.8222656 0,1.9433594 0.742187,2.9882813 0.742188,1.04492185 2.119141,1.04492185 z M 28.765625,-8.0273438 q 0.664062,-0.7324218 1.503906,-1.09375 0.839844,-0.3613281 1.894531,-0.3613281 2.177735,0 3.4375,1.3085938 1.269532,1.3085937 1.269532,3.5742187 0,2.2167969 -1.367188,3.5546875 -1.357422,1.32812503 -3.632812,1.32812503 -2.470703,0 -3.798828,-1.83593753 -1.328125,-1.8457031 -1.328125,-5.2636718 0,-3.8281248 1.572265,-5.9277348 1.572266,-2.099609 4.433594,-2.099609 0.771484,0 1.621094,0.146484 0.849609,0.146485 1.738281,0.439453 v 2.402344 h -1.103516 q -0.117187,-0.986328 -0.751953,-1.503906 -0.634765,-0.517578 -1.708984,-0.517578 -1.894531,0 -2.822266,1.435547 -0.927734,1.435547 -0.957031,4.4140622 z" /></g></g></g><g
                   transform="scale(2)"
                   id="g244"><path
                     id="path246"
                     style="fill:none;stroke:#a0a0a4;stroke-width:0.5;stroke-linecap:round;stroke-linejoin:round;stroke-miterlimit:10;stroke-dasharray:0.5, 1;stroke-dashoffset:0;stroke-opacity:1"
                     d="m 102.5,58.5 h 501" /><path
                     id="path248"
                     style="fill:none;stroke:#000000;stroke-width:4;stroke-linecap:round;stroke-linejoin:round;stroke-miterlimit:10;stroke-dasharray:none;stroke-opacity:1"
                     d="m 102.5,58.5 h 9" /><path
                     id="path250"
                     style="fill:none;stroke:#000000;stroke-width:4;stroke-linecap:round;stroke-linejoin:round;stroke-miterlimit:10;stroke-dasharray:none;stroke-opacity:1"
                     d="m 603.5,58.5 h -9" /></g><g
                   transform="matrix(2,0,0,2,106,132)"
                   id="g252" /><g
                   transform="matrix(2,0,0,2,106,132)"
                   id="g254" /><g
                   transform="matrix(2,0,0,2,106,132)"
                   id="g256"><g
                     id="g258"><g
                       id="text262"
                       style="font-variant:normal;font-weight:normal;font-size:20px;font-family:'DejaVu Serif';-inkscape-font-specification:DejaVuSerif;writing-mode:lr-tb;fill:#000000;fill-opacity:1;fill-rule:nonzero;stroke:none"
                       aria-label="	9.8"><path
                         id="path590"
                         style=""
                         d="m 15.699219,-6.5332031 q -0.654297,0.7324219 -1.503906,1.09375 -0.84961,0.3613281 -1.914063,0.3613281 -2.167969,0 -3.4277344,-1.3085937 -1.25,-1.3085938 -1.25,-3.5742188 0,-2.2167965 1.3574219,-3.5449215 1.3671875,-1.337891 3.6425785,-1.337891 2.470703,0 3.789062,1.845703 1.328125,1.835938 1.328125,5.2539064 0,3.828125 -1.572266,5.9277344 -1.572265,2.09960933 -4.423828,2.09960933 -0.771484,0 -1.621093,-0.14648438 Q 9.2539063,-0.00976563 8.3652344,-0.30273438 V -2.7246094 h 1.09375 q 0.1269531,0.9863282 0.7617186,1.5136719 0.634766,0.52734375 1.699219,0.52734375 1.894531,0 2.822266,-1.42578125 0.927734,-1.4355469 0.957031,-4.4238281 z m -3.173828,-7.3437499 q -1.386719,0 -2.128907,1.015625 -0.7324215,1.005859 -0.7324215,2.9003905 0,1.8945312 0.7324215,2.9101563 0.742188,1.015625 2.128907,1.015625 1.386718,0 2.11914,-0.9765625 0.742188,-0.9863282 0.742188,-2.8320313 0,-1.943359 -0.742188,-2.988281 -0.742187,-1.044922 -2.11914,-1.044922 z" /><path
                         id="path592"
                         style=""
                         d="m 20.947266,-1.015625 q 0,-0.546875 0.371093,-0.9277344 0.371094,-0.3808594 0.927735,-0.3808594 0.537109,0 0.917968,0.3808594 0.38086,0.3808594 0.38086,0.9277344 0,0.53710937 -0.38086,0.91796875 -0.380859,0.38085938 -0.917968,0.38085938 -0.556641,0 -0.927735,-0.37109375 Q 20.947266,-0.46875 20.947266,-1.015625 Z" /><path
                         id="path594"
                         style=""
                         d="m 34.722656,-3.984375 q 0,-1.5625 -0.78125,-2.421875 -0.771484,-0.8691406 -2.177734,-0.8691406 -1.40625,0 -2.1875,0.8691406 -0.771485,0.859375 -0.771485,2.421875 0,1.5722656 0.771485,2.4414063 0.78125,0.85937495 2.1875,0.85937495 1.40625,0 2.177734,-0.85937495 0.78125,-0.8691407 0.78125,-2.4414063 z m -0.40039,-7.080078 q 0,-1.328125 -0.673829,-2.070313 -0.673828,-0.742187 -1.884765,-0.742187 -1.201172,0 -1.884766,0.742187 -0.673828,0.742188 -0.673828,2.070313 0,1.3378905 0.673828,2.080078 0.683594,0.7421875 1.884766,0.7421875 1.210937,0 1.884765,-0.7421875 0.673829,-0.7421875 0.673829,-2.080078 z m -1.054688,3.3007811 q 1.660156,0.2246094 2.587891,1.2304688 0.927734,0.9960937 0.927734,2.5488281 0,2.0507813 -1.298828,3.1640625 -1.298828,1.10351563 -3.720703,1.10351563 -2.41211,0 -3.720703,-1.10351563 -1.298828,-1.1132812 -1.298828,-3.1640625 0,-1.5527344 0.927734,-2.5488281 0.927734,-1.0058594 2.597656,-1.2304688 -1.474609,-0.2636719 -2.265625,-1.1132812 -0.78125,-0.859375 -0.78125,-2.1874999 0,-1.757813 1.210938,-2.763672 1.210937,-1.015625 3.330078,-1.015625 2.11914,0 3.330078,1.015625 1.210937,1.005859 1.210937,2.763672 0,1.3281249 -0.791015,2.1874999 -0.78125,0.8496093 -2.246094,1.1132812 z" /></g></g></g><g
                   transform="scale(2)"
                   id="g264"><path
                     id="path266"
                     style="fill:none;stroke:#a0a0a4;stroke-width:0.5;stroke-linecap:round;stroke-linejoin:round;stroke-miterlimit:10;stroke-dasharray:0.5, 1;stroke-dashoffset:0;stroke-opacity:1"
                     d="M 102.5,368.5 V 58.5" /><path
                     id="path268"
                     style="fill:none;stroke:#000000;stroke-width:4;stroke-linecap:round;stroke-linejoin:round;stroke-miterlimit:10;stroke-dasharray:none;stroke-opacity:1"
                     d="m 102.5,368.5 v -9" /><path
                     id="path270"
                     style="fill:none;stroke:#000000;stroke-width:4;stroke-linecap:round;stroke-linejoin:round;stroke-miterlimit:10;stroke-dasharray:none;stroke-opacity:1"
                     d="m 102.5,58.5 v 10" /></g><g
                   transform="matrix(2,0,0,2,186,800)"
                   id="g272" /><g
                   transform="matrix(2,0,0,2,186,800)"
                   id="g274" /><g
                   transform="matrix(2,0,0,2,186,800)"
                   id="g276"><g
                     id="g278"><g
                       id="text282"
                       style="font-variant:normal;font-weight:normal;font-size:20px;font-family:'DejaVu Serif';-inkscape-font-specification:DejaVuSerif;writing-mode:lr-tb;fill:#000000;fill-opacity:1;fill-rule:nonzero;stroke:none"
                       aria-label="	0"><path
                         id="path597"
                         style=""
                         d="m 12.701172,-0.68359375 q 1.494141,0 2.236328,-1.64062505 0.742188,-1.640625 0.742188,-4.9511718 0,-3.3203124 -0.742188,-4.9609374 -0.742187,-1.640625 -2.236328,-1.640625 -1.494141,0 -2.236328,1.640625 -0.7421877,1.640625 -0.7421877,4.9609374 0,3.3105468 0.7421877,4.9511718 0.742187,1.64062505 2.236328,1.64062505 z m 0,0.96679688 q -2.373047,0 -3.7109376,-1.99218753 -1.328125,-1.9921875 -1.328125,-5.5664062 0,-3.5839844 1.328125,-5.5761724 1.3378906,-1.992187 3.7109376,-1.992187 2.382812,0 3.710937,1.992187 1.328125,1.992188 1.328125,5.5761724 0,3.5742187 -1.328125,5.5664062 -1.328125,1.99218753 -3.710937,1.99218753 z" /></g></g></g><g
                   transform="scale(2)"
                   id="g284"><path
                     id="path286"
                     style="fill:none;stroke:#a0a0a4;stroke-width:0.5;stroke-linecap:round;stroke-linejoin:round;stroke-miterlimit:10;stroke-dasharray:0.5, 1;stroke-dashoffset:0;stroke-opacity:1"
                     d="M 152.5,368.5 V 58.5" /><path
                     id="path288"
                     style="fill:none;stroke:#000000;stroke-width:4;stroke-linecap:round;stroke-linejoin:round;stroke-miterlimit:10;stroke-dasharray:none;stroke-opacity:1"
                     d="m 152.5,368.5 v -9" /><path
                     id="path290"
                     style="fill:none;stroke:#000000;stroke-width:4;stroke-linecap:round;stroke-linejoin:round;stroke-miterlimit:10;stroke-dasharray:none;stroke-opacity:1"
                     d="m 152.5,58.5 v 10" /></g><g
                   transform="matrix(2,0,0,2,269,800)"
                   id="g292" /><g
                   transform="matrix(2,0,0,2,269,800)"
                   id="g294" /><g
                   transform="matrix(2,0,0,2,269,800)"
                   id="g296"><g
                     id="g298"><g
                       id="text302"
                       style="font-variant:normal;font-weight:normal;font-size:20px;font-family:'DejaVu Serif';-inkscape-font-specification:DejaVuSerif;writing-mode:lr-tb;fill:#000000;fill-opacity:1;fill-rule:nonzero;stroke:none"
                       aria-label="	0.1"><path
                         id="path600"
                         style=""
                         d="m 12.701172,-0.68359375 q 1.494141,0 2.236328,-1.64062505 0.742188,-1.640625 0.742188,-4.9511718 0,-3.3203124 -0.742188,-4.9609374 -0.742187,-1.640625 -2.236328,-1.640625 -1.494141,0 -2.236328,1.640625 -0.7421877,1.640625 -0.7421877,4.9609374 0,3.3105468 0.7421877,4.9511718 0.742187,1.64062505 2.236328,1.64062505 z m 0,0.96679688 q -2.373047,0 -3.7109376,-1.99218753 -1.328125,-1.9921875 -1.328125,-5.5664062 0,-3.5839844 1.328125,-5.5761724 1.3378906,-1.992187 3.7109376,-1.992187 2.382812,0 3.710937,1.992187 1.328125,1.992188 1.328125,5.5761724 0,3.5742187 -1.328125,5.5664062 -1.328125,1.99218753 -3.710937,1.99218753 z" /><path
                         id="path602"
                         style=""
                         d="m 20.947266,-1.015625 q 0,-0.546875 0.371093,-0.9277344 0.371094,-0.3808594 0.927735,-0.3808594 0.537109,0 0.917968,0.3808594 0.38086,0.3808594 0.38086,0.9277344 0,0.53710937 -0.38086,0.91796875 -0.380859,0.38085938 -0.917968,0.38085938 -0.556641,0 -0.927735,-0.37109375 Q 20.947266,-0.46875 20.947266,-1.015625 Z" /><path
                         id="path604"
                         style=""
                         d="m 28.248047,0 v -1.0351562 h 2.539062 V -13.164063 l -2.939453,1.904297 v -1.279297 l 3.554688,-2.304687 H 32.75 v 13.8085938 h 2.539062 V 0 Z" /></g></g></g><g
                   transform="scale(2)"
                   id="g304"><path
                     id="path306"
                     style="fill:none;stroke:#a0a0a4;stroke-width:0.5;stroke-linecap:round;stroke-linejoin:round;stroke-miterlimit:10;stroke-dasharray:0.5, 1;stroke-dashoffset:0;stroke-opacity:1"
                     d="M 202.5,368.5 V 58.5" /><path
                     id="path308"
                     style="fill:none;stroke:#000000;stroke-width:4;stroke-linecap:round;stroke-linejoin:round;stroke-miterlimit:10;stroke-dasharray:none;stroke-opacity:1"
                     d="m 202.5,368.5 v -9" /><path
                     id="path310"
                     style="fill:none;stroke:#000000;stroke-width:4;stroke-linecap:round;stroke-linejoin:round;stroke-miterlimit:10;stroke-dasharray:none;stroke-opacity:1"
                     d="m 202.5,58.5 v 10" /></g><g
                   transform="matrix(2,0,0,2,368,800)"
                   id="g312" /><g
                   transform="matrix(2,0,0,2,368,800)"
                   id="g314" /><g
                   transform="matrix(2,0,0,2,368,800)"
                   id="g316"><g
                     id="g318"><g
                       id="text322"
                       style="font-variant:normal;font-weight:normal;font-size:20px;font-family:'DejaVu Serif';-inkscape-font-specification:DejaVuSerif;writing-mode:lr-tb;fill:#000000;fill-opacity:1;fill-rule:nonzero;stroke:none"
                       aria-label="	0.2"><path
                         id="path607"
                         style=""
                         d="m 12.701172,-0.68359375 q 1.494141,0 2.236328,-1.64062505 0.742188,-1.640625 0.742188,-4.9511718 0,-3.3203124 -0.742188,-4.9609374 -0.742187,-1.640625 -2.236328,-1.640625 -1.494141,0 -2.236328,1.640625 -0.7421877,1.640625 -0.7421877,4.9609374 0,3.3105468 0.7421877,4.9511718 0.742187,1.64062505 2.236328,1.64062505 z m 0,0.96679688 q -2.373047,0 -3.7109376,-1.99218753 -1.328125,-1.9921875 -1.328125,-5.5664062 0,-3.5839844 1.328125,-5.5761724 1.3378906,-1.992187 3.7109376,-1.992187 2.382812,0 3.710937,1.992187 1.328125,1.992188 1.328125,5.5761724 0,3.5742187 -1.328125,5.5664062 -1.328125,1.99218753 -3.710937,1.99218753 z" /><path
                         id="path609"
                         style=""
                         d="m 20.947266,-1.015625 q 0,-0.546875 0.371093,-0.9277344 0.371094,-0.3808594 0.927735,-0.3808594 0.537109,0 0.917968,0.3808594 0.38086,0.3808594 0.38086,0.9277344 0,0.53710937 -0.38086,0.91796875 -0.380859,0.38085938 -0.917968,0.38085938 -0.556641,0 -0.927735,-0.37109375 Q 20.947266,-0.46875 20.947266,-1.015625 Z" /><path
                         id="path611"
                         style=""
                         d="m 27.964844,-11.103516 h -1.09375 v -2.597656 q 1.044922,-0.556641 2.099609,-0.849609 1.064453,-0.292969 2.080078,-0.292969 2.275391,0 3.59375,1.103516 1.31836,1.103515 1.31836,2.998046 0,2.1386724 -2.988282,5.117188 -0.234375,0.2246094 -0.351562,0.3417969 l -3.681641,3.6816406 h 6.083985 v -1.796875 h 1.142578 V 0 H 26.763672 V -1.0644531 L 31.1875,-5.4785156 q 1.464844,-1.4648438 2.089844,-2.6855469 0.625,-1.2304688 0.625,-2.5781255 0,-1.474609 -0.771485,-2.304687 -0.761718,-0.830078 -2.109375,-0.830078 -1.396484,0 -2.158203,0.693359 -0.761719,0.69336 -0.898437,2.080078 z" /></g></g></g><g
                   transform="scale(2)"
                   id="g324"><path
                     id="path326"
                     style="fill:none;stroke:#a0a0a4;stroke-width:0.5;stroke-linecap:round;stroke-linejoin:round;stroke-miterlimit:10;stroke-dasharray:0.5, 1;stroke-dashoffset:0;stroke-opacity:1"
                     d="M 252.5,368.5 V 58.5" /><path
                     id="path328"
                     style="fill:none;stroke:#000000;stroke-width:4;stroke-linecap:round;stroke-linejoin:round;stroke-miterlimit:10;stroke-dasharray:none;stroke-opacity:1"
                     d="m 252.5,368.5 v -9" /><path
                     id="path330"
                     style="fill:none;stroke:#000000;stroke-width:4;stroke-linecap:round;stroke-linejoin:round;stroke-miterlimit:10;stroke-dasharray:none;stroke-opacity:1"
                     d="m 252.5,58.5 v 10" /></g><g
                   transform="matrix(2,0,0,2,469,800)"
                   id="g332" /><g
                   transform="matrix(2,0,0,2,469,800)"
                   id="g334" /><g
                   transform="matrix(2,0,0,2,469,800)"
                   id="g336"><g
                     id="g338"><g
                       id="text342"
                       style="font-variant:normal;font-weight:normal;font-size:20px;font-family:'DejaVu Serif';-inkscape-font-specification:DejaVuSerif;writing-mode:lr-tb;fill:#000000;fill-opacity:1;fill-rule:nonzero;stroke:none"
                       aria-label="	0.3"><path
                         id="path614"
                         style=""
                         d="m 12.701172,-0.68359375 q 1.494141,0 2.236328,-1.64062505 0.742188,-1.640625 0.742188,-4.9511718 0,-3.3203124 -0.742188,-4.9609374 -0.742187,-1.640625 -2.236328,-1.640625 -1.494141,0 -2.236328,1.640625 -0.7421877,1.640625 -0.7421877,4.9609374 0,3.3105468 0.7421877,4.9511718 0.742187,1.64062505 2.236328,1.64062505 z m 0,0.96679688 q -2.373047,0 -3.7109376,-1.99218753 -1.328125,-1.9921875 -1.328125,-5.5664062 0,-3.5839844 1.328125,-5.5761724 1.3378906,-1.992187 3.7109376,-1.992187 2.382812,0 3.710937,1.992187 1.328125,1.992188 1.328125,5.5761724 0,3.5742187 -1.328125,5.5664062 -1.328125,1.99218753 -3.710937,1.99218753 z" /><path
                         id="path616"
                         style=""
                         d="m 20.947266,-1.015625 q 0,-0.546875 0.371093,-0.9277344 0.371094,-0.3808594 0.927735,-0.3808594 0.537109,0 0.917968,0.3808594 0.38086,0.3808594 0.38086,0.9277344 0,0.53710937 -0.38086,0.91796875 -0.380859,0.38085938 -0.917968,0.38085938 -0.556641,0 -0.927735,-0.37109375 Q 20.947266,-0.46875 20.947266,-1.015625 Z" /><path
                         id="path618"
                         style=""
                         d="m 27.349609,-13.964844 q 1.142578,-0.429687 2.1875,-0.654297 1.054688,-0.224609 1.972657,-0.224609 2.138671,0 3.339843,0.927734 1.201172,0.917969 1.201172,2.558594 0,1.318359 -0.830078,2.2070314 -0.830078,0.8789062 -2.353516,1.1914062 1.796875,0.2539063 2.783204,1.3085938 0.996093,1.0449219 0.996093,2.7148437 0,2.0410157 -1.376953,3.13476565 -1.367187,1.08398438 -3.945312,1.08398438 -1.142578,0 -2.236328,-0.24414063 -1.083985,-0.24414063 -2.158204,-0.7421875 v -2.8320313 h 1.09375 q 0.09766,1.40625 0.947266,2.1289063 0.849609,0.72265625 2.392578,0.72265625 1.494141,0 2.353516,-0.85937495 0.86914,-0.8691407 0.86914,-2.3730469 0,-1.71875 -0.888671,-2.5976563 -0.888672,-0.8886718 -2.607422,-0.8886718 h -0.927735 v -0.9960938 h 0.488282 q 1.708984,0 2.558593,-0.703125 0.859375,-0.7128906 0.859375,-2.1386715 0,-1.279297 -0.703125,-1.953125 -0.703125,-0.683594 -2.021484,-0.683594 -1.318359,0 -2.050781,0.625 -0.722657,0.625 -0.84961,1.855469 h -1.09375 z" /></g></g></g><g
                   transform="scale(2)"
                   id="g344"><path
                     id="path346"
                     style="fill:none;stroke:#a0a0a4;stroke-width:0.5;stroke-linecap:round;stroke-linejoin:round;stroke-miterlimit:10;stroke-dasharray:0.5, 1;stroke-dashoffset:0;stroke-opacity:1"
                     d="M 302.5,368.5 V 58.5" /><path
                     id="path348"
                     style="fill:none;stroke:#000000;stroke-width:4;stroke-linecap:round;stroke-linejoin:round;stroke-miterlimit:10;stroke-dasharray:none;stroke-opacity:1"
                     d="m 302.5,368.5 v -9" /><path
                     id="path350"
                     style="fill:none;stroke:#000000;stroke-width:4;stroke-linecap:round;stroke-linejoin:round;stroke-miterlimit:10;stroke-dasharray:none;stroke-opacity:1"
                     d="m 302.5,58.5 v 10" /></g><g
                   transform="matrix(2,0,0,2,569,800)"
                   id="g352" /><g
                   transform="matrix(2,0,0,2,569,800)"
                   id="g354" /><g
                   transform="matrix(2,0,0,2,569,800)"
                   id="g356"><g
                     id="g358"><g
                       id="text362"
                       style="font-variant:normal;font-weight:normal;font-size:20px;font-family:'DejaVu Serif';-inkscape-font-specification:DejaVuSerif;writing-mode:lr-tb;fill:#000000;fill-opacity:1;fill-rule:nonzero;stroke:none"
                       aria-label="	0.4"><path
                         id="path621"
                         style=""
                         d="m 12.701172,-0.68359375 q 1.494141,0 2.236328,-1.64062505 0.742188,-1.640625 0.742188,-4.9511718 0,-3.3203124 -0.742188,-4.9609374 -0.742187,-1.640625 -2.236328,-1.640625 -1.494141,0 -2.236328,1.640625 -0.7421877,1.640625 -0.7421877,4.9609374 0,3.3105468 0.7421877,4.9511718 0.742187,1.64062505 2.236328,1.64062505 z m 0,0.96679688 q -2.373047,0 -3.7109376,-1.99218753 -1.328125,-1.9921875 -1.328125,-5.5664062 0,-3.5839844 1.328125,-5.5761724 1.3378906,-1.992187 3.7109376,-1.992187 2.382812,0 3.710937,1.992187 1.328125,1.992188 1.328125,5.5761724 0,3.5742187 -1.328125,5.5664062 -1.328125,1.99218753 -3.710937,1.99218753 z" /><path
                         id="path623"
                         style=""
                         d="m 20.947266,-1.015625 q 0,-0.546875 0.371093,-0.9277344 0.371094,-0.3808594 0.927735,-0.3808594 0.537109,0 0.917968,0.3808594 0.38086,0.3808594 0.38086,0.9277344 0,0.53710937 -0.38086,0.91796875 -0.380859,0.38085938 -0.917968,0.38085938 -0.556641,0 -0.927735,-0.37109375 Q 20.947266,-0.46875 20.947266,-1.015625 Z" /><path
                         id="path625"
                         style=""
                         d="m 32.388672,-4.9414062 v -7.7539068 l -4.980469,7.7539068 z M 36.685547,0 h -6.640625 v -1.0351562 h 2.34375 v -2.8613282 h -6.367188 v -1.0644531 l 6.386719,-9.8828125 h 1.933594 v 9.9023438 H 37.125 v 1.0449218 h -2.783203 v 2.8613282 h 2.34375 z" /></g></g></g><g
                   transform="scale(2)"
                   id="g364"><path
                     id="path366"
                     style="fill:none;stroke:#a0a0a4;stroke-width:0.5;stroke-linecap:round;stroke-linejoin:round;stroke-miterlimit:10;stroke-dasharray:0.5, 1;stroke-dashoffset:0;stroke-opacity:1"
                     d="M 353.5,368.5 V 58.5" /><path
                     id="path368"
                     style="fill:none;stroke:#000000;stroke-width:4;stroke-linecap:round;stroke-linejoin:round;stroke-miterlimit:10;stroke-dasharray:none;stroke-opacity:1"
                     d="m 353.5,368.5 v -9" /><path
                     id="path370"
                     style="fill:none;stroke:#000000;stroke-width:4;stroke-linecap:round;stroke-linejoin:round;stroke-miterlimit:10;stroke-dasharray:none;stroke-opacity:1"
                     d="m 353.5,58.5 v 10" /></g><g
                   transform="matrix(2,0,0,2,669,800)"
                   id="g372" /><g
                   transform="matrix(2,0,0,2,669,800)"
                   id="g374" /><g
                   transform="matrix(2,0,0,2,669,800)"
                   id="g376"><g
                     id="g378"><g
                       id="text382"
                       style="font-variant:normal;font-weight:normal;font-size:20px;font-family:'DejaVu Serif';-inkscape-font-specification:DejaVuSerif;writing-mode:lr-tb;fill:#000000;fill-opacity:1;fill-rule:nonzero;stroke:none"
                       aria-label="	0.5"><path
                         id="path628"
                         style=""
                         d="m 12.701172,-0.68359375 q 1.494141,0 2.236328,-1.64062505 0.742188,-1.640625 0.742188,-4.9511718 0,-3.3203124 -0.742188,-4.9609374 -0.742187,-1.640625 -2.236328,-1.640625 -1.494141,0 -2.236328,1.640625 -0.7421877,1.640625 -0.7421877,4.9609374 0,3.3105468 0.7421877,4.9511718 0.742187,1.64062505 2.236328,1.64062505 z m 0,0.96679688 q -2.373047,0 -3.7109376,-1.99218753 -1.328125,-1.9921875 -1.328125,-5.5664062 0,-3.5839844 1.328125,-5.5761724 1.3378906,-1.992187 3.7109376,-1.992187 2.382812,0 3.710937,1.992187 1.328125,1.992188 1.328125,5.5761724 0,3.5742187 -1.328125,5.5664062 -1.328125,1.99218753 -3.710937,1.99218753 z" /><path
                         id="path630"
                         style=""
                         d="m 20.947266,-1.015625 q 0,-0.546875 0.371093,-0.9277344 0.371094,-0.3808594 0.927735,-0.3808594 0.537109,0 0.917968,0.3808594 0.38086,0.3808594 0.38086,0.9277344 0,0.53710937 -0.38086,0.91796875 -0.380859,0.38085938 -0.917968,0.38085938 -0.556641,0 -0.927735,-0.37109375 Q 20.947266,-0.46875 20.947266,-1.015625 Z" /><path
                         id="path632"
                         style=""
                         d="m 35.464844,-14.580078 v 1.601562 h -6.679688 v 4.1796879 q 0.507813,-0.3515625 1.181641,-0.5273438 0.683594,-0.1757812 1.523437,-0.1757812 2.363282,0 3.730469,1.3085937 1.367188,1.3085938 1.367188,3.5742188 0,2.3144531 -1.386719,3.6132812 -1.376953,1.28906253 -3.876953,1.28906253 -1.00586,0 -2.060547,-0.24414063 -1.054688,-0.24414063 -2.158203,-0.7421875 v -2.8320313 h 1.103515 q 0.08789,1.3867188 0.878907,2.1191407 0.800781,0.73242185 2.236328,0.73242185 1.542968,0 2.373047,-1.01562495 0.830078,-1.0156251 0.830078,-2.9199219 0,-1.8945313 -0.830078,-2.9003906 -0.820313,-1.0156251 -2.373047,-1.0156251 -0.878907,0 -1.552735,0.3125 -0.664062,0.3125001 -1.18164,0.9667969 H 27.75 v -7.3242186 z" /></g></g></g><g
                   transform="scale(2)"
                   id="g384"><path
                     id="path386"
                     style="fill:none;stroke:#a0a0a4;stroke-width:0.5;stroke-linecap:round;stroke-linejoin:round;stroke-miterlimit:10;stroke-dasharray:0.5, 1;stroke-dashoffset:0;stroke-opacity:1"
                     d="M 403.5,368.5 V 58.5" /><path
                     id="path388"
                     style="fill:none;stroke:#000000;stroke-width:4;stroke-linecap:round;stroke-linejoin:round;stroke-miterlimit:10;stroke-dasharray:none;stroke-opacity:1"
                     d="m 403.5,368.5 v -9" /><path
                     id="path390"
                     style="fill:none;stroke:#000000;stroke-width:4;stroke-linecap:round;stroke-linejoin:round;stroke-miterlimit:10;stroke-dasharray:none;stroke-opacity:1"
                     d="m 403.5,58.5 v 10" /></g><g
                   transform="matrix(2,0,0,2,769,800)"
                   id="g392" /><g
                   transform="matrix(2,0,0,2,769,800)"
                   id="g394" /><g
                   transform="matrix(2,0,0,2,769,800)"
                   id="g396"><g
                     id="g398"><g
                       id="text402"
                       style="font-variant:normal;font-weight:normal;font-size:20px;font-family:'DejaVu Serif';-inkscape-font-specification:DejaVuSerif;writing-mode:lr-tb;fill:#000000;fill-opacity:1;fill-rule:nonzero;stroke:none"
                       aria-label="	0.6"><path
                         id="path635"
                         style=""
                         d="m 12.701172,-0.68359375 q 1.494141,0 2.236328,-1.64062505 0.742188,-1.640625 0.742188,-4.9511718 0,-3.3203124 -0.742188,-4.9609374 -0.742187,-1.640625 -2.236328,-1.640625 -1.494141,0 -2.236328,1.640625 -0.7421877,1.640625 -0.7421877,4.9609374 0,3.3105468 0.7421877,4.9511718 0.742187,1.64062505 2.236328,1.64062505 z m 0,0.96679688 q -2.373047,0 -3.7109376,-1.99218753 -1.328125,-1.9921875 -1.328125,-5.5664062 0,-3.5839844 1.328125,-5.5761724 1.3378906,-1.992187 3.7109376,-1.992187 2.382812,0 3.710937,1.992187 1.328125,1.992188 1.328125,5.5761724 0,3.5742187 -1.328125,5.5664062 -1.328125,1.99218753 -3.710937,1.99218753 z" /><path
                         id="path637"
                         style=""
                         d="m 20.947266,-1.015625 q 0,-0.546875 0.371093,-0.9277344 0.371094,-0.3808594 0.927735,-0.3808594 0.537109,0 0.917968,0.3808594 0.38086,0.3808594 0.38086,0.9277344 0,0.53710937 -0.38086,0.91796875 -0.380859,0.38085938 -0.917968,0.38085938 -0.556641,0 -0.927735,-0.37109375 Q 20.947266,-0.46875 20.947266,-1.015625 Z" /><path
                         id="path639"
                         style=""
                         d="m 31.949219,-0.68359375 q 1.376953,0 2.11914,-1.00585935 0.742188,-1.015625 0.742188,-2.9101563 0,-1.8945312 -0.742188,-2.9003906 -0.742187,-1.015625 -2.11914,-1.015625 -1.396485,0 -2.128907,0.9765625 -0.732421,0.9765625 -0.732421,2.8222656 0,1.9433594 0.742187,2.9882813 0.742188,1.04492185 2.119141,1.04492185 z M 28.765625,-8.0273438 q 0.664062,-0.7324218 1.503906,-1.09375 0.839844,-0.3613281 1.894531,-0.3613281 2.177735,0 3.4375,1.3085938 1.269532,1.3085937 1.269532,3.5742187 0,2.2167969 -1.367188,3.5546875 -1.357422,1.32812503 -3.632812,1.32812503 -2.470703,0 -3.798828,-1.83593753 -1.328125,-1.8457031 -1.328125,-5.2636718 0,-3.8281248 1.572265,-5.9277348 1.572266,-2.099609 4.433594,-2.099609 0.771484,0 1.621094,0.146484 0.849609,0.146485 1.738281,0.439453 v 2.402344 h -1.103516 q -0.117187,-0.986328 -0.751953,-1.503906 -0.634765,-0.517578 -1.708984,-0.517578 -1.894531,0 -2.822266,1.435547 -0.927734,1.435547 -0.957031,4.4140622 z" /></g></g></g><g
                   transform="scale(2)"
                   id="g404"><path
                     id="path406"
                     style="fill:none;stroke:#a0a0a4;stroke-width:0.5;stroke-linecap:round;stroke-linejoin:round;stroke-miterlimit:10;stroke-dasharray:0.5, 1;stroke-dashoffset:0;stroke-opacity:1"
                     d="M 453.5,368.5 V 58.5" /><path
                     id="path408"
                     style="fill:none;stroke:#000000;stroke-width:4;stroke-linecap:round;stroke-linejoin:round;stroke-miterlimit:10;stroke-dasharray:none;stroke-opacity:1"
                     d="m 453.5,368.5 v -9" /><path
                     id="path410"
                     style="fill:none;stroke:#000000;stroke-width:4;stroke-linecap:round;stroke-linejoin:round;stroke-miterlimit:10;stroke-dasharray:none;stroke-opacity:1"
                     d="m 453.5,58.5 v 10" /></g><g
                   transform="matrix(2,0,0,2,869,800)"
                   id="g412" /><g
                   transform="matrix(2,0,0,2,869,800)"
                   id="g414" /><g
                   transform="matrix(2,0,0,2,869,800)"
                   id="g416"><g
                     id="g418"><g
                       id="text422"
                       style="font-variant:normal;font-weight:normal;font-size:20px;font-family:'DejaVu Serif';-inkscape-font-specification:DejaVuSerif;writing-mode:lr-tb;fill:#000000;fill-opacity:1;fill-rule:nonzero;stroke:none"
                       aria-label="	0.7"><path
                         id="path642"
                         style=""
                         d="m 12.701172,-0.68359375 q 1.494141,0 2.236328,-1.64062505 0.742188,-1.640625 0.742188,-4.9511718 0,-3.3203124 -0.742188,-4.9609374 -0.742187,-1.640625 -2.236328,-1.640625 -1.494141,0 -2.236328,1.640625 -0.7421877,1.640625 -0.7421877,4.9609374 0,3.3105468 0.7421877,4.9511718 0.742187,1.64062505 2.236328,1.64062505 z m 0,0.96679688 q -2.373047,0 -3.7109376,-1.99218753 -1.328125,-1.9921875 -1.328125,-5.5664062 0,-3.5839844 1.328125,-5.5761724 1.3378906,-1.992187 3.7109376,-1.992187 2.382812,0 3.710937,1.992187 1.328125,1.992188 1.328125,5.5761724 0,3.5742187 -1.328125,5.5664062 -1.328125,1.99218753 -3.710937,1.99218753 z" /><path
                         id="path644"
                         style=""
                         d="m 20.947266,-1.015625 q 0,-0.546875 0.371093,-0.9277344 0.371094,-0.3808594 0.927735,-0.3808594 0.537109,0 0.917968,0.3808594 0.38086,0.3808594 0.38086,0.9277344 0,0.53710937 -0.38086,0.91796875 -0.380859,0.38085938 -0.917968,0.38085938 -0.556641,0 -0.927735,-0.37109375 Q 20.947266,-0.46875 20.947266,-1.015625 Z" /><path
                         id="path646"
                         style=""
                         d="M 36.685547,-13.583984 30.982422,0 h -1.455078 l 5.439453,-12.978516 h -6.738281 v 1.796875 h -1.142579 v -3.398437 h 9.59961 z" /></g></g></g><g
                   transform="scale(2)"
                   id="g424"><path
                     id="path426"
                     style="fill:none;stroke:#a0a0a4;stroke-width:0.5;stroke-linecap:round;stroke-linejoin:round;stroke-miterlimit:10;stroke-dasharray:0.5, 1;stroke-dashoffset:0;stroke-opacity:1"
                     d="M 503.5,368.5 V 58.5" /><path
                     id="path428"
                     style="fill:none;stroke:#000000;stroke-width:4;stroke-linecap:round;stroke-linejoin:round;stroke-miterlimit:10;stroke-dasharray:none;stroke-opacity:1"
                     d="m 503.5,368.5 v -9" /><path
                     id="path430"
                     style="fill:none;stroke:#000000;stroke-width:4;stroke-linecap:round;stroke-linejoin:round;stroke-miterlimit:10;stroke-dasharray:none;stroke-opacity:1"
                     d="m 503.5,58.5 v 10" /></g><g
                   transform="matrix(2,0,0,2,971,800)"
                   id="g432" /><g
                   transform="matrix(2,0,0,2,971,800)"
                   id="g434" /><g
                   transform="matrix(2,0,0,2,971,800)"
                   id="g436"><g
                     id="g438"><g
                       id="text442"
                       style="font-variant:normal;font-weight:normal;font-size:20px;font-family:'DejaVu Serif';-inkscape-font-specification:DejaVuSerif;writing-mode:lr-tb;fill:#000000;fill-opacity:1;fill-rule:nonzero;stroke:none"
                       aria-label="	0.8"><path
                         id="path649"
                         style=""
                         d="m 12.701172,-0.68359375 q 1.494141,0 2.236328,-1.64062505 0.742188,-1.640625 0.742188,-4.9511718 0,-3.3203124 -0.742188,-4.9609374 -0.742187,-1.640625 -2.236328,-1.640625 -1.494141,0 -2.236328,1.640625 -0.7421877,1.640625 -0.7421877,4.9609374 0,3.3105468 0.7421877,4.9511718 0.742187,1.64062505 2.236328,1.64062505 z m 0,0.96679688 q -2.373047,0 -3.7109376,-1.99218753 -1.328125,-1.9921875 -1.328125,-5.5664062 0,-3.5839844 1.328125,-5.5761724 1.3378906,-1.992187 3.7109376,-1.992187 2.382812,0 3.710937,1.992187 1.328125,1.992188 1.328125,5.5761724 0,3.5742187 -1.328125,5.5664062 -1.328125,1.99218753 -3.710937,1.99218753 z" /><path
                         id="path651"
                         style=""
                         d="m 20.947266,-1.015625 q 0,-0.546875 0.371093,-0.9277344 0.371094,-0.3808594 0.927735,-0.3808594 0.537109,0 0.917968,0.3808594 0.38086,0.3808594 0.38086,0.9277344 0,0.53710937 -0.38086,0.91796875 -0.380859,0.38085938 -0.917968,0.38085938 -0.556641,0 -0.927735,-0.37109375 Q 20.947266,-0.46875 20.947266,-1.015625 Z" /><path
                         id="path653"
                         style=""
                         d="m 34.722656,-3.984375 q 0,-1.5625 -0.78125,-2.421875 -0.771484,-0.8691406 -2.177734,-0.8691406 -1.40625,0 -2.1875,0.8691406 -0.771485,0.859375 -0.771485,2.421875 0,1.5722656 0.771485,2.4414063 0.78125,0.85937495 2.1875,0.85937495 1.40625,0 2.177734,-0.85937495 0.78125,-0.8691407 0.78125,-2.4414063 z m -0.40039,-7.080078 q 0,-1.328125 -0.673829,-2.070313 -0.673828,-0.742187 -1.884765,-0.742187 -1.201172,0 -1.884766,0.742187 -0.673828,0.742188 -0.673828,2.070313 0,1.3378905 0.673828,2.080078 0.683594,0.7421875 1.884766,0.7421875 1.210937,0 1.884765,-0.7421875 0.673829,-0.7421875 0.673829,-2.080078 z m -1.054688,3.3007811 q 1.660156,0.2246094 2.587891,1.2304688 0.927734,0.9960937 0.927734,2.5488281 0,2.0507813 -1.298828,3.1640625 -1.298828,1.10351563 -3.720703,1.10351563 -2.41211,0 -3.720703,-1.10351563 -1.298828,-1.1132812 -1.298828,-3.1640625 0,-1.5527344 0.927734,-2.5488281 0.927734,-1.0058594 2.597656,-1.2304688 -1.474609,-0.2636719 -2.265625,-1.1132812 -0.78125,-0.859375 -0.78125,-2.1874999 0,-1.757813 1.210938,-2.763672 1.210937,-1.015625 3.330078,-1.015625 2.11914,0 3.330078,1.015625 1.210937,1.005859 1.210937,2.763672 0,1.3281249 -0.791015,2.1874999 -0.78125,0.8496093 -2.246094,1.1132812 z" /></g></g></g><g
                   transform="scale(2)"
                   id="g444"><path
                     id="path446"
                     style="fill:none;stroke:#a0a0a4;stroke-width:0.5;stroke-linecap:round;stroke-linejoin:round;stroke-miterlimit:10;stroke-dasharray:0.5, 1;stroke-dashoffset:0;stroke-opacity:1"
                     d="M 553.5,368.5 V 58.5" /><path
                     id="path448"
                     style="fill:none;stroke:#000000;stroke-width:4;stroke-linecap:round;stroke-linejoin:round;stroke-miterlimit:10;stroke-dasharray:none;stroke-opacity:1"
                     d="m 553.5,368.5 v -9" /><path
                     id="path450"
                     style="fill:none;stroke:#000000;stroke-width:4;stroke-linecap:round;stroke-linejoin:round;stroke-miterlimit:10;stroke-dasharray:none;stroke-opacity:1"
                     d="m 553.5,58.5 v 10" /></g><g
                   transform="matrix(2,0,0,2,1071,800)"
                   id="g452" /><g
                   transform="matrix(2,0,0,2,1071,800)"
                   id="g454" /><g
                   transform="matrix(2,0,0,2,1071,800)"
                   id="g456"><g
                     id="g458"><g
                       id="text462"
                       style="font-variant:normal;font-weight:normal;font-size:20px;font-family:'DejaVu Serif';-inkscape-font-specification:DejaVuSerif;writing-mode:lr-tb;fill:#000000;fill-opacity:1;fill-rule:nonzero;stroke:none"
                       aria-label="	0.9"><path
                         id="path656"
                         style=""
                         d="m 12.701172,-0.68359375 q 1.494141,0 2.236328,-1.64062505 0.742188,-1.640625 0.742188,-4.9511718 0,-3.3203124 -0.742188,-4.9609374 -0.742187,-1.640625 -2.236328,-1.640625 -1.494141,0 -2.236328,1.640625 -0.7421877,1.640625 -0.7421877,4.9609374 0,3.3105468 0.7421877,4.9511718 0.742187,1.64062505 2.236328,1.64062505 z m 0,0.96679688 q -2.373047,0 -3.7109376,-1.99218753 -1.328125,-1.9921875 -1.328125,-5.5664062 0,-3.5839844 1.328125,-5.5761724 1.3378906,-1.992187 3.7109376,-1.992187 2.382812,0 3.710937,1.992187 1.328125,1.992188 1.328125,5.5761724 0,3.5742187 -1.328125,5.5664062 -1.328125,1.99218753 -3.710937,1.99218753 z" /><path
                         id="path658"
                         style=""
                         d="m 20.947266,-1.015625 q 0,-0.546875 0.371093,-0.9277344 0.371094,-0.3808594 0.927735,-0.3808594 0.537109,0 0.917968,0.3808594 0.38086,0.3808594 0.38086,0.9277344 0,0.53710937 -0.38086,0.91796875 -0.380859,0.38085938 -0.917968,0.38085938 -0.556641,0 -0.927735,-0.37109375 Q 20.947266,-0.46875 20.947266,-1.015625 Z" /><path
                         id="path660"
                         style=""
                         d="m 34.761719,-6.5332031 q -0.654297,0.7324219 -1.503907,1.09375 -0.849609,0.3613281 -1.914062,0.3613281 -2.167969,0 -3.427734,-1.3085937 -1.25,-1.3085938 -1.25,-3.5742188 0,-2.2167965 1.357421,-3.5449215 1.367188,-1.337891 3.642579,-1.337891 2.470703,0 3.789062,1.845703 1.328125,1.835938 1.328125,5.2539064 0,3.828125 -1.572266,5.9277344 -1.572265,2.09960933 -4.423828,2.09960933 -0.771484,0 -1.621093,-0.14648438 -0.84961,-0.14648438 -1.738282,-0.43945313 V -2.7246094 h 1.09375 q 0.126953,0.9863282 0.761719,1.5136719 0.634766,0.52734375 1.699219,0.52734375 1.894531,0 2.822265,-1.42578125 0.927735,-1.4355469 0.957032,-4.4238281 z m -3.173828,-7.3437499 q -1.386719,0 -2.128907,1.015625 -0.732422,1.005859 -0.732422,2.9003905 0,1.8945312 0.732422,2.9101563 0.742188,1.015625 2.128907,1.015625 1.386718,0 2.11914,-0.9765625 0.742188,-0.9863282 0.742188,-2.8320313 0,-1.943359 -0.742188,-2.988281 -0.742187,-1.044922 -2.11914,-1.044922 z" /></g></g></g><g
                   transform="scale(2)"
                   id="g464"><path
                     id="path466"
                     style="fill:none;stroke:#a0a0a4;stroke-width:0.5;stroke-linecap:round;stroke-linejoin:round;stroke-miterlimit:10;stroke-dasharray:0.5, 1;stroke-dashoffset:0;stroke-opacity:1"
                     d="M 603.5,368.5 V 58.5" /><path
                     id="path468"
                     style="fill:none;stroke:#000000;stroke-width:4;stroke-linecap:round;stroke-linejoin:round;stroke-miterlimit:10;stroke-dasharray:none;stroke-opacity:1"
                     d="m 603.5,368.5 v -9" /><path
                     id="path470"
                     style="fill:none;stroke:#000000;stroke-width:4;stroke-linecap:round;stroke-linejoin:round;stroke-miterlimit:10;stroke-dasharray:none;stroke-opacity:1"
                     d="m 603.5,58.5 v 10" /></g><g
                   transform="matrix(2,0,0,2,1192,800)"
                   id="g472" /><g
                   transform="matrix(2,0,0,2,1192,800)"
                   id="g474" /><g
                   transform="matrix(2,0,0,2,1192,800)"
                   id="g476"><g
                     id="g478"><g
                       id="text482"
                       style="font-variant:normal;font-weight:normal;font-size:20px;font-family:'DejaVu Serif';-inkscape-font-specification:DejaVuSerif;writing-mode:lr-tb;fill:#000000;fill-opacity:1;fill-rule:nonzero;stroke:none"
                       aria-label="	1"><path
                         id="path663"
                         style=""
                         d="M 9.1855469,0 V -1.0351562 H 11.724609 V -13.164063 l -2.9394527,1.904297 v -1.279297 L 12.339844,-14.84375 H 13.6875 v 13.8085938 h 2.539062 V 0 Z" /></g></g></g><g
                   transform="scale(2)"
                   id="g484"><path
                     id="path486"
                     style="fill:none;stroke:#000000;stroke-width:4;stroke-linecap:round;stroke-linejoin:round;stroke-miterlimit:10;stroke-dasharray:none;stroke-opacity:1"
                     d="m 102.5,58.5 v 310 h 501 v -310 z" /></g><g
                   transform="matrix(0,-2,2,0,50,458)"
                   id="g488" /><g
                   transform="matrix(0,-2,2,0,50,458)"
                   id="g490" /><g
                   transform="matrix(0,-2,2,0,50,458)"
                   id="g492"><g
                     id="g494"><g
                       id="text498"
                       style="font-variant:normal;font-weight:normal;font-size:20px;font-family:'DejaVu Serif';-inkscape-font-specification:DejaVuSerif;writing-mode:lr-tb;fill:#000000;fill-opacity:1;fill-rule:nonzero;stroke:none"
                       aria-label="pH"><path
                         id="path666"
                         style=""
                         d="m 4.1015625,-5.703125 v 1.0253906 q 0,1.875 0.7128906,2.8613282 0.7226563,0.97656245 2.0898438,0.97656245 1.3769531,0 2.0800781,-1.10351565 0.7128906,-1.1035156 0.7128906,-3.2519531 0,-2.1582031 -0.7128906,-3.2519531 -0.703125,-1.09375 -2.0800781,-1.09375 -1.3671875,0 -2.0898438,0.9863281 -0.7128906,0.9863281 -0.7128906,2.8515625 z M 2.3046875,-9.3359375 H 0.57617187 V -10.380859 H 4.1015625 v 1.6210934 q 0.5273437,-0.9765625 1.3378906,-1.4355474 0.8203125,-0.46875 2.0214844,-0.46875 1.9140625,0 3.1250005,1.5136724 1.210937,1.5136719 1.210937,3.9550781 0,2.4414062 -1.210937,3.9648438 Q 9.375,0.28320313 7.4609375,0.28320313 q -1.2011719,0 -2.0214844,-0.45898438 -0.8105469,-0.46875 -1.3378906,-1.44531245 V 3.1152344 H 5.8007812 V 4.1601562 H 0.57617187 V 3.1152344 H 2.3046875 Z" /><path
                         id="path668"
                         style=""
                         d="m 13.900391,0 v -1.0351562 h 1.855468 V -13.535156 h -1.855468 v -1.044922 h 5.693359 v 1.044922 h -1.855469 v 5.0390622 h 7.558594 v -5.0390622 h -1.855469 v -1.044922 h 5.69336 v 1.044922 h -1.855469 v 12.4999998 h 1.855469 V 0 h -5.69336 v -1.0351562 h 1.855469 v -6.2695313 h -7.558594 v 6.2695313 H 19.59375 V 0 Z" /></g></g></g><g
                   transform="matrix(2,0,0,2,590,872)"
                   id="g500" /><g
                   transform="matrix(2,0,0,2,590,872)"
                   id="g502" /><g
                   transform="matrix(2,0,0,2,590,872)"
                   id="g504"><g
                     id="g506"><g
                       id="text510"
                       style="font-variant:normal;font-weight:normal;font-size:20px;font-family:'DejaVu Serif';-inkscape-font-specification:DejaVuSerif;writing-mode:lr-tb;fill:#000000;fill-opacity:1;fill-rule:nonzero;stroke:none"
                       aria-label="HCl	[mmol]"><path
                         id="path671"
                         style=""
                         d="M 1.1035156,0 V -1.0351562 H 2.9589844 V -13.535156 H 1.1035156 v -1.044922 H 6.796875 v 1.044922 H 4.9414062 v 5.0390622 H 12.5 v -5.0390622 h -1.855469 v -1.044922 h 5.69336 v 1.044922 h -1.855469 v 12.4999998 h 1.855469 V 0 h -5.69336 V -1.0351562 H 12.5 V -7.3046875 H 4.9414062 v 6.2695313 H 6.796875 V 0 Z" /><path
                         id="path673"
                         style=""
                         d="m 31.539062,-3.8574219 q -0.644531,2.0410157 -2.167968,3.09570315 -1.513672,1.04492188 -3.837891,1.04492188 -1.425781,0 -2.646484,-0.48828126 -1.220703,-0.48828124 -2.167969,-1.43554687 -1.09375,-1.09375 -1.630859,-2.4804687 -0.527344,-1.3964844 -0.527344,-3.1542969 0,-3.3984374 1.96289,-5.4785154 1.962891,-2.089844 5.175782,-2.089844 1.191406,0 2.539062,0.3125 1.347656,0.3125 2.900391,0.947266 v 3.359375 h -1.103516 q -0.361328,-1.835938 -1.455078,-2.705079 -1.083984,-0.86914 -3.046875,-0.86914 -2.333984,0 -3.535156,1.660156 -1.201172,1.650391 -1.201172,4.8632814 0,3.203125 1.201172,4.8632812 1.201172,1.65039065 3.535156,1.65039065 1.630859,0 2.685547,-0.77148435 1.054687,-0.78125 1.523437,-2.3242188 z" /><path
                         id="path675"
                         style=""
                         d="m 36.835937,-1.0351562 h 1.699219 V 0 h -5.224609 v -1.0351562 h 1.728515 V -14.160156 h -1.728515 v -1.035157 h 3.52539 z" /><path
                         id="path677"
                         style=""
                         d="m 47.1875,-15.195313 h 4.541016 v 1.035157 H 49.052734 V 1.6015625 h 2.675782 V 2.6367188 H 47.1875 Z" /><path
                         id="path679"
                         style=""
                         d="m 63.626953,-8.359375 q 0.517578,-1.1425781 1.318359,-1.71875 0.810547,-0.585938 1.884766,-0.585938 1.630859,0 2.431641,1.0156255 0.800781,1.0058594 0.800781,3.046875 v 5.5664063 h 1.621094 V 0 h -4.980469 v -1.0351562 h 1.5625 v -5.3613282 q 0,-1.5917968 -0.46875,-2.265625 -0.46875,-0.6738281 -1.552734,-0.6738281 -1.201172,0 -1.835938,0.9082031 -0.625,0.9082032 -0.625,2.6464844 v 4.7460938 h 1.5625 V 0 h -4.921875 v -1.0351562 h 1.5625 v -5.4296875 q 0,-1.5527344 -0.46875,-2.2070313 -0.46875,-0.6640625 -1.552734,-0.6640625 -1.201172,0 -1.835938,0.9082031 -0.625,0.9082032 -0.625,2.6464844 v 4.7460938 h 1.5625 V 0 h -4.980469 v -1.0351562 h 1.621094 v -8.3203126 h -1.71875 v -1.0253902 h 3.515625 v 1.8457027 q 0.498047,-1.0351562 1.269531,-1.5820317 0.771485,-0.546875 1.748047,-0.546875 1.210938,0 2.021485,0.605469 0.810547,0.5957034 1.083984,1.699219 z" /><path
                         id="path681"
                         style=""
                         d="m 82.580078,-8.359375 q 0.517578,-1.1425781 1.318359,-1.71875 0.810547,-0.585938 1.884766,-0.585938 1.630859,0 2.431641,1.0156255 0.800781,1.0058594 0.800781,3.046875 v 5.5664063 h 1.621094 V 0 H 85.65625 v -1.0351562 h 1.5625 v -5.3613282 q 0,-1.5917968 -0.46875,-2.265625 -0.46875,-0.6738281 -1.552734,-0.6738281 -1.201172,0 -1.835938,0.9082031 -0.625,0.9082032 -0.625,2.6464844 v 4.7460938 h 1.5625 V 0 h -4.921875 v -1.0351562 h 1.5625 v -5.4296875 q 0,-1.5527344 -0.46875,-2.2070313 -0.46875,-0.6640625 -1.552734,-0.6640625 -1.201172,0 -1.835938,0.9082031 -0.625,0.9082032 -0.625,2.6464844 v 4.7460938 h 1.5625 V 0 h -4.980469 v -1.0351562 h 1.621094 v -8.3203126 h -1.71875 v -1.0253902 h 3.515625 v 1.8457027 q 0.498047,-1.0351562 1.269531,-1.5820317 0.771485,-0.546875 1.748047,-0.546875 1.210938,0 2.021485,0.605469 0.810547,0.5957034 1.083984,1.699219 z" /><path
                         id="path683"
                         style=""
                         d="m 97.1875,-0.68359375 q 1.445312,0 2.177734,-1.14257815 0.742186,-1.1425781 0.742186,-3.3691406 0,-2.2265625 -0.742186,-3.359375 -0.732422,-1.1425781 -2.177734,-1.1425781 -1.445313,0 -2.1875,1.1425781 -0.732422,1.1328125 -0.732422,3.359375 0,2.2265625 0.742188,3.3691406 0.742187,1.14257815 2.177734,1.14257815 z m 0,0.96679688 q -2.265625,0 -3.642578,-1.49414063 -1.376953,-1.5039063 -1.376953,-3.984375 0,-2.4804687 1.367187,-3.9746094 1.376953,-1.4941411 3.652344,-1.4941411 2.275391,0 3.64258,1.4941411 1.37695,1.4941407 1.37695,3.9746094 0,2.4804687 -1.37695,3.984375 -1.367189,1.49414063 -3.64258,1.49414063 z" /><path
                         id="path685"
                         style=""
                         d="m 107.30468,-1.0351562 h 1.69922 V 0 h -5.22461 v -1.0351562 h 1.72851 V -14.160156 h -1.72851 v -1.035157 h 3.52539 z" /><path
                         id="path687"
                         style=""
                         d="M 115.67773,-15.195313 V 2.6367188 h -4.54101 V 1.6015625 h 2.67578 V -14.160156 h -2.67578 v -1.035157 z" /></g></g></g><g
                   transform="scale(2)"
                   id="g512" /><g
                   transform="scale(2)"
                   id="g514"><path
                     id="path516"
                     style="fill:none;stroke:#0072bd;stroke-width:6;stroke-linecap:round;stroke-linejoin:round;stroke-miterlimit:10;stroke-dasharray:none;stroke-opacity:1"
                     d="m 102,60.8 v 0.1 l 0.5,0.4 4.5,4.1 9.6,9.3 9.7,9.7 26.1,27.5 26,27.6 26.1,25.7 26,23.1 26.1,20.3 44.9,29.6 45,24.2 22.1,10.4 22,9.5 15.5,6.3 15.5,6 24.4,8.8 24.4,8.2 31.7,9.8 31.7,9.1 31.1,8.1 31.1,7.6 7.9,1.9" /></g><g
                   transform="scale(2)"
                   id="g518" /><g
                   transform="scale(2)"
                   id="g520"><path
                     id="path522"
                     style="fill:none;stroke:#000000;stroke-width:4;stroke-linecap:round;stroke-linejoin:round;stroke-miterlimit:10;stroke-dasharray:none;stroke-opacity:1"
                     d="m 102.5,58.5 v 310 h 501 v -310 z" /></g></g></g><g
               id="g524"><g
                 id="g526" /></g></g></g></g></g></g></svg>