<?xml version="1.0" encoding="UTF-8" standalone="no"?>
<svg
   xmlns:dc="http://purl.org/dc/elements/1.1/"
   xmlns:cc="http://creativecommons.org/ns#"
   xmlns:rdf="http://www.w3.org/1999/02/22-rdf-syntax-ns#"
   xmlns:svg="http://www.w3.org/2000/svg"
   xmlns="http://www.w3.org/2000/svg"
   viewBox="0 0 772.5 492.5"
   height="492.5"
   width="772.5"
   xml:space="preserve"
   version="1.1"
   id="svg2"><metadata
     id="metadata8"><rdf:RDF><cc:Work
         rdf:about=""><dc:format>image/svg+xml</dc:format><dc:type
           rdf:resource="http://purl.org/dc/dcmitype/StillImage" /></cc:Work></rdf:RDF></metadata><defs
     id="defs6"><clipPath
       id="clipPath18"
       clipPathUnits="userSpaceOnUse"><path
         id="path20"
         d="M 0,0 618,0 618,394 0,394 0,0 Z" /></clipPath><clipPath
       id="clipPath28"
       clipPathUnits="userSpaceOnUse"><path
         id="path30"
         d="M 0,0 640,0 640,480 0,480 0,0 Z" /></clipPath><clipPath
       id="clipPath46"
       clipPathUnits="userSpaceOnUse"><path
         style="clip-rule:evenodd"
         id="path48"
         d="M 0,0 853,0 853,640 0,640 0,0 Z" /></clipPath></defs><g
     transform="matrix(1.25,0,0,-1.25,0,492.5)"
     id="g10"><g
       id="g12"><g
         id="g14"><g
           clip-path="url(#clipPath18)"
           id="g16"><g
             transform="translate(-6,-40)"
             id="g22"><g
               id="g24"><g
                 clip-path="url(#clipPath28)"
                 id="g26"><g
                   transform="matrix(0.75,0,0,-0.75,0,480)"
                   id="g32"><g
                     id="g34"><g
                       id="g36" /></g><g
                     id="g38"><g
                       id="g40" /></g><g
                     id="g42"><g
                       clip-path="url(#clipPath46)"
                       id="g44"><g
                         id="g50" /><g
                         id="g52" /><g
                         transform="scale(1.3328125,1.3328125)"
                         id="g54"><path
                           id="path56"
                           style="fill:none;stroke:#a0a0a4;stroke-width:0.5;stroke-linecap:round;stroke-linejoin:round;stroke-miterlimit:10;stroke-dasharray:0.5, 1;stroke-dashoffset:0;stroke-opacity:1"
                           d="m 60.5,395.5 558,0" /><path
                           id="path58"
                           style="fill:none;stroke:#000000;stroke-width:4;stroke-linecap:round;stroke-linejoin:round;stroke-miterlimit:10;stroke-dasharray:none;stroke-opacity:1"
                           d="m 60.5,395.5 6,0" /><path
                           id="path60"
                           style="fill:none;stroke:#000000;stroke-width:4;stroke-linecap:round;stroke-linejoin:round;stroke-miterlimit:10;stroke-dasharray:none;stroke-opacity:1"
                           d="m 618.5,395.5 -6,0" /></g><g
                         transform="matrix(1.3328125,0,0,1.3328125,43.982813,533.79141)"
                         id="g62" /><g
                         transform="matrix(1.3328125,0,0,1.3328125,43.982813,533.79141)"
                         id="g64" /><g
                         transform="matrix(1.3328125,0,0,1.3328125,43.982813,533.79141)"
                         id="g66"><g
                           id="g68"><g
                             id="text70"
                             style="font-variant:normal;font-weight:normal;font-size:13px;font-family:Georgia;-inkscape-font-specification:Georgia;writing-mode:lr-tb;fill:#000000;fill-opacity:1;fill-rule:nonzero;stroke:none"><path
                               id="path375"
                               style=""
                               d="m 6.2163086,2.3168945 q -0.5966797,0 -1.0917969,-0.1523437 Q 4.6293945,2.0185547 4.2739258,1.7646484 3.918457,1.5107422 3.7216797,1.1806641 3.53125,0.85058594 3.53125,0.50146484 q 0,-0.31103515 0.1523438,-0.55859375 0.1523437,-0.25390625 0.4887695,-0.25390625 0.3808594,0 0.5776367,0.19042969 0.203125,0.18408203 0.203125,0.42529297 0,0.203125 -0.069824,0.51416016 -0.063477,0.31103514 -0.1015625,0.44433594 0.044434,0.057129 0.1586914,0.1523437 0.1206055,0.095215 0.2919922,0.1713868 0.203125,0.095215 0.4252929,0.1523437 0.222168,0.057129 0.628418,0.057129 0.3808594,0 0.7299805,-0.1269531 0.3554687,-0.1269531 0.6220703,-0.40625 0.2792969,-0.29199219 0.4316406,-0.68554688 0.1586914,-0.38720703 0.1586914,-1.02197266 0,-0.34277343 -0.076172,-0.67919926 Q 8.0825195,-1.4599609 7.8857422,-1.7075195 7.6889648,-1.9550781 7.3461914,-2.0883789 7.0097656,-2.2280273 6.4892578,-2.2280273 l -0.831543,0 0,-0.7299805 0.5522461,0 q 0.8759766,0 1.2631836,-0.4824219 0.3872071,-0.4824219 0.3872071,-1.4536133 0,-0.793457 -0.3745118,-1.1933593 -0.3745117,-0.40625 -1.0600586,-0.40625 -0.3300781,0 -0.5458984,0.08252 -0.2094726,0.076172 -0.3427734,0.1523437 -0.1586914,0.088867 -0.2602539,0.1967774 -0.1015625,0.1079101 -0.1523438,0.1586914 0.044434,0.203125 0.1079102,0.5014648 0.063476,0.2919922 0.063476,0.5585938 0,0.2348633 -0.203125,0.425293 -0.1967773,0.184082 -0.5839843,0.184082 -0.3364258,0 -0.4951172,-0.241211 -0.1523438,-0.2412109 -0.1523438,-0.5585937 0,-0.3300781 0.1840821,-0.6728516 0.184082,-0.3427734 0.5458984,-0.6411132 0.3618164,-0.2983399 0.8823242,-0.4824219 0.5205078,-0.1840821 1.199707,-0.1840821 0.7807618,0 1.2885743,0.2348633 0.5141601,0.2285157 0.8061523,0.5585938 0.2856445,0.3237304 0.3935547,0.6791992 0.1079102,0.3554687 0.1079102,0.609375 0,0.3173828 -0.088867,0.6411133 -0.088867,0.3173828 -0.2919922,0.590332 -0.222168,0.2983398 -0.5903321,0.5458984 -0.3618164,0.241211 -0.9140625,0.3935547 l 0,0.1015625 q 0.3554688,0.031738 0.7553711,0.1586914 0.40625,0.1269532 0.7299805,0.3745118 0.3364258,0.2602539 0.5522461,0.6728515 0.2158203,0.40625 0.2158203,1.03466799 0,1.21875 -0.977539,1.97412111 -0.9775391,0.7617187 -2.4438477,0.7617187 z" /><path
                               id="path377"
                               style=""
                               d="m 12.931152,-0.72998047 q 0,0.35546875 -0.260254,0.609375 -0.253906,0.24755859 -0.609375,0.24755859 -0.355468,0 -0.615722,-0.24755859 -0.253906,-0.25390625 -0.253906,-0.609375 0,-0.35546873 0.253906,-0.60937503 0.260254,-0.2602539 0.615722,-0.2602539 0.355469,0 0.609375,0.2602539 0.260254,0.2539063 0.260254,0.60937503 z" /><path
                               id="path379"
                               style=""
                               d="m 20.620605,-2.9262695 q 0,0.6601562 -0.24121,1.2377929 -0.234864,0.5776368 -0.634766,0.98388676 -0.463379,0.4633789 -1.02832,0.68554687 Q 18.157715,0.203125 17.54834,0.203125 q -0.70459,0 -1.275879,-0.26025391 -0.571289,-0.2602539 -0.971191,-0.73632812 -0.40625,-0.48242187 -0.628418,-1.18066407 -0.222168,-0.6982422 -0.222168,-1.5678711 0,-2.2661133 1.345703,-3.821289 1.35205,-1.5551758 3.618164,-1.866211 l 0.114258,0.5712891 -0.571289,0.1015625 q -1.377442,0.4443359 -2.132813,1.383789 -0.749023,0.9394532 -0.971191,2.2788086 0.545898,-0.4760742 1.079101,-0.6728515 0.533203,-0.1967774 1.123535,-0.1967774 1.060059,0 1.809082,0.8125 0.755371,0.8125 0.755371,2.0249024 z m -1.377441,0.1713867 q 0,-1.0283203 -0.476074,-1.6503906 -0.469727,-0.6220703 -1.263184,-0.6220703 -0.476074,0 -0.888672,0.1777343 -0.40625,0.1777344 -0.787109,0.5966797 -0.0063,0.076172 -0.01904,0.3554688 -0.0127,0.2729492 -0.0127,0.4316406 0,1.4853516 0.482422,2.3295898 0.488769,0.83789066 1.282226,0.83789066 0.755371,0 1.21875,-0.6538086 0.463379,-0.66015626 0.463379,-1.80273436 z" /></g></g></g><g
                         transform="scale(1.3328125,1.3328125)"
                         id="g74"><path
                           id="path76"
                           style="fill:none;stroke:#a0a0a4;stroke-width:0.5;stroke-linecap:round;stroke-linejoin:round;stroke-miterlimit:10;stroke-dasharray:0.5, 1;stroke-dashoffset:0;stroke-opacity:1"
                           d="m 60.5,338.5 558,0" /><path
                           id="path78"
                           style="fill:none;stroke:#000000;stroke-width:4;stroke-linecap:round;stroke-linejoin:round;stroke-miterlimit:10;stroke-dasharray:none;stroke-opacity:1"
                           d="m 60.5,338.5 6,0" /><path
                           id="path80"
                           style="fill:none;stroke:#000000;stroke-width:4;stroke-linecap:round;stroke-linejoin:round;stroke-miterlimit:10;stroke-dasharray:none;stroke-opacity:1"
                           d="m 618.5,338.5 -6,0" /></g><g
                         transform="matrix(1.3328125,0,0,1.3328125,42.65,456.48828)"
                         id="g82" /><g
                         transform="matrix(1.3328125,0,0,1.3328125,42.65,456.48828)"
                         id="g84" /><g
                         transform="matrix(1.3328125,0,0,1.3328125,42.65,456.48828)"
                         id="g86"><g
                           id="g88"><g
                             id="text90"
                             style="font-variant:normal;font-weight:normal;font-size:13px;font-family:Georgia;-inkscape-font-specification:Georgia;writing-mode:lr-tb;fill:#000000;fill-opacity:1;fill-rule:nonzero;stroke:none"><path
                               id="path382"
                               style=""
                               d="m 6.2163086,2.3168945 q -0.5966797,0 -1.0917969,-0.1523437 Q 4.6293945,2.0185547 4.2739258,1.7646484 3.918457,1.5107422 3.7216797,1.1806641 3.53125,0.85058594 3.53125,0.50146484 q 0,-0.31103515 0.1523438,-0.55859375 0.1523437,-0.25390625 0.4887695,-0.25390625 0.3808594,0 0.5776367,0.19042969 0.203125,0.18408203 0.203125,0.42529297 0,0.203125 -0.069824,0.51416016 -0.063477,0.31103514 -0.1015625,0.44433594 0.044434,0.057129 0.1586914,0.1523437 0.1206055,0.095215 0.2919922,0.1713868 0.203125,0.095215 0.4252929,0.1523437 0.222168,0.057129 0.628418,0.057129 0.3808594,0 0.7299805,-0.1269531 0.3554687,-0.1269531 0.6220703,-0.40625 0.2792969,-0.29199219 0.4316406,-0.68554688 0.1586914,-0.38720703 0.1586914,-1.02197266 0,-0.34277343 -0.076172,-0.67919926 Q 8.0825195,-1.4599609 7.8857422,-1.7075195 7.6889648,-1.9550781 7.3461914,-2.0883789 7.0097656,-2.2280273 6.4892578,-2.2280273 l -0.831543,0 0,-0.7299805 0.5522461,0 q 0.8759766,0 1.2631836,-0.4824219 0.3872071,-0.4824219 0.3872071,-1.4536133 0,-0.793457 -0.3745118,-1.1933593 -0.3745117,-0.40625 -1.0600586,-0.40625 -0.3300781,0 -0.5458984,0.08252 -0.2094726,0.076172 -0.3427734,0.1523437 -0.1586914,0.088867 -0.2602539,0.1967774 -0.1015625,0.1079101 -0.1523438,0.1586914 0.044434,0.203125 0.1079102,0.5014648 0.063476,0.2919922 0.063476,0.5585938 0,0.2348633 -0.203125,0.425293 -0.1967773,0.184082 -0.5839843,0.184082 -0.3364258,0 -0.4951172,-0.241211 -0.1523438,-0.2412109 -0.1523438,-0.5585937 0,-0.3300781 0.1840821,-0.6728516 0.184082,-0.3427734 0.5458984,-0.6411132 0.3618164,-0.2983399 0.8823242,-0.4824219 0.5205078,-0.1840821 1.199707,-0.1840821 0.7807618,0 1.2885743,0.2348633 0.5141601,0.2285157 0.8061523,0.5585938 0.2856445,0.3237304 0.3935547,0.6791992 0.1079102,0.3554687 0.1079102,0.609375 0,0.3173828 -0.088867,0.6411133 -0.088867,0.3173828 -0.2919922,0.590332 -0.222168,0.2983398 -0.5903321,0.5458984 -0.3618164,0.241211 -0.9140625,0.3935547 l 0,0.1015625 q 0.3554688,0.031738 0.7553711,0.1586914 0.40625,0.1269532 0.7299805,0.3745118 0.3364258,0.2602539 0.5522461,0.6728515 0.2158203,0.40625 0.2158203,1.03466799 0,1.21875 -0.977539,1.97412111 -0.9775391,0.7617187 -2.4438477,0.7617187 z" /><path
                               id="path384"
                               style=""
                               d="m 12.931152,-0.72998047 q 0,0.35546875 -0.260254,0.609375 -0.253906,0.24755859 -0.609375,0.24755859 -0.355468,0 -0.615722,-0.24755859 -0.253906,-0.25390625 -0.253906,-0.609375 0,-0.35546873 0.253906,-0.60937503 0.260254,-0.2602539 0.615722,-0.2602539 0.355469,0 0.609375,0.2602539 0.260254,0.2539063 0.260254,0.60937503 z" /><path
                               id="path386"
                               style=""
                               d="m 20.887207,-2.3867188 q 0,1.0664063 -0.92041,1.83447271 -0.92041,0.7680664 -2.418457,0.7680664 -1.402832,0 -2.24707,-0.70458984 -0.844239,-0.70458987 -0.844239,-1.81542967 0,-0.8188477 0.495117,-1.3647461 0.501465,-0.5522461 1.479004,-0.9331055 -0.806152,-0.4506836 -1.206054,-0.9902344 -0.399903,-0.5395507 -0.399903,-1.21875 0,-1.0346679 0.875977,-1.7329101 0.882324,-0.6982422 2.107422,-0.6982422 1.225097,0 1.980468,0.6601562 0.761719,0.6601563 0.761719,1.6567383 0,0.6411133 -0.418945,1.21875 -0.418945,0.5712891 -1.231445,0.9394532 1.053711,0.4506836 1.517089,0.996582 0.469727,0.5458984 0.469727,1.383789 z m -1.536133,-4.6083984 q 0,-0.774414 -0.463379,-1.2568359 -0.457031,-0.4887696 -1.174316,-0.4887696 -0.717285,0 -1.174317,0.4697266 -0.457031,0.4633789 -0.457031,1.1552734 0,0.666504 0.520508,1.1298829 0.520508,0.4633789 1.853516,0.9902343 0.476074,-0.3046875 0.685547,-0.8061523 0.209472,-0.5014649 0.209472,-1.1933594 z m 0.266602,4.9067383 q 0,-0.3999024 -0.171387,-0.6982422 -0.171387,-0.3046875 -0.495117,-0.5522461 -0.311035,-0.2412109 -0.869629,-0.5014648 -0.552246,-0.2666016 -1.199707,-0.5395508 -0.609375,0.3300781 -0.89502,0.8442383 -0.285644,0.5078125 -0.285644,1.1616211 0,0.9331054 0.545898,1.51074215 0.552246,0.57128906 1.466309,0.57128906 0.875976,0 1.390137,-0.5078125 0.51416,-0.50781251 0.51416,-1.28857421 z" /></g></g></g><g
                         transform="scale(1.3328125,1.3328125)"
                         id="g94"><path
                           id="path96"
                           style="fill:none;stroke:#a0a0a4;stroke-width:0.5;stroke-linecap:round;stroke-linejoin:round;stroke-miterlimit:10;stroke-dasharray:0.5, 1;stroke-dashoffset:0;stroke-opacity:1"
                           d="m 60.5,280.5 558,0" /><path
                           id="path98"
                           style="fill:none;stroke:#000000;stroke-width:4;stroke-linecap:round;stroke-linejoin:round;stroke-miterlimit:10;stroke-dasharray:none;stroke-opacity:1"
                           d="m 60.5,280.5 6,0" /><path
                           id="path100"
                           style="fill:none;stroke:#000000;stroke-width:4;stroke-linecap:round;stroke-linejoin:round;stroke-miterlimit:10;stroke-dasharray:none;stroke-opacity:1"
                           d="m 618.5,280.5 -6,0" /></g><g
                         transform="matrix(1.3328125,0,0,1.3328125,58.64375,380.51797)"
                         id="g102" /><g
                         transform="matrix(1.3328125,0,0,1.3328125,58.64375,380.51797)"
                         id="g104" /><g
                         transform="matrix(1.3328125,0,0,1.3328125,58.64375,380.51797)"
                         id="g106"><g
                           id="g108"><g
                             id="text110"
                             style="font-variant:normal;font-weight:normal;font-size:13px;font-family:Georgia;-inkscape-font-specification:Georgia;writing-mode:lr-tb;fill:#000000;fill-opacity:1;fill-rule:nonzero;stroke:none"><path
                               id="path389"
                               style=""
                               d="m 10.005859,-0.57128906 -1.2885738,0 0,2.88818356 -1.21875,0 0,-2.88818356 -4.0625,0 0,-0.97753904 4.449707,-5.4272461 0.831543,0 0,5.5732422 1.2885738,0 0,0.83154294 z M 7.4985352,-1.402832 l 0,-4.1577149 -3.4277344,4.1577149 3.4277344,0 z" /></g></g></g><g
                         transform="scale(1.3328125,1.3328125)"
                         id="g114"><path
                           id="path116"
                           style="fill:none;stroke:#a0a0a4;stroke-width:0.5;stroke-linecap:round;stroke-linejoin:round;stroke-miterlimit:10;stroke-dasharray:0.5, 1;stroke-dashoffset:0;stroke-opacity:1"
                           d="m 60.5,223.5 558,0" /><path
                           id="path118"
                           style="fill:none;stroke:#000000;stroke-width:4;stroke-linecap:round;stroke-linejoin:round;stroke-miterlimit:10;stroke-dasharray:none;stroke-opacity:1"
                           d="m 60.5,223.5 6,0" /><path
                           id="path120"
                           style="fill:none;stroke:#000000;stroke-width:4;stroke-linecap:round;stroke-linejoin:round;stroke-miterlimit:10;stroke-dasharray:none;stroke-opacity:1"
                           d="m 618.5,223.5 -6,0" /></g><g
                         transform="matrix(1.3328125,0,0,1.3328125,43.982813,303.21484)"
                         id="g122" /><g
                         transform="matrix(1.3328125,0,0,1.3328125,43.982813,303.21484)"
                         id="g124" /><g
                         transform="matrix(1.3328125,0,0,1.3328125,43.982813,303.21484)"
                         id="g126"><g
                           id="g128"><g
                             id="text130"
                             style="font-variant:normal;font-weight:normal;font-size:13px;font-family:Georgia;-inkscape-font-specification:Georgia;writing-mode:lr-tb;fill:#000000;fill-opacity:1;fill-rule:nonzero;stroke:none"><path
                               id="path392"
                               style=""
                               d="m 10.005859,-0.57128906 -1.2885738,0 0,2.88818356 -1.21875,0 0,-2.88818356 -4.0625,0 0,-0.97753904 4.449707,-5.4272461 0.831543,0 0,5.5732422 1.2885738,0 0,0.83154294 z M 7.4985352,-1.402832 l 0,-4.1577149 -3.4277344,4.1577149 3.4277344,0 z" /><path
                               id="path394"
                               style=""
                               d="m 13.103027,-0.72998047 q 0,0.35546875 -0.260254,0.609375 -0.253906,0.24755859 -0.609375,0.24755859 -0.355468,0 -0.615722,-0.24755859 -0.253906,-0.25390625 -0.253906,-0.609375 0,-0.35546873 0.253906,-0.60937503 0.260254,-0.2602539 0.615722,-0.2602539 0.355469,0 0.609375,0.2602539 0.260254,0.2539063 0.260254,0.60937503 z" /><path
                               id="path396"
                               style=""
                               d="m 20.614746,0 -5.947754,0 0,-0.86328125 q 0.171387,-0.19677735 0.476074,-0.43798825 0.304688,-0.2475586 0.723633,-0.5332032 0.253906,-0.1713867 0.609375,-0.3745117 0.355469,-0.203125 0.806153,-0.4443359 0.501464,-0.2666016 0.768066,-0.4697266 0.272949,-0.203125 0.495117,-0.5014648 0.145996,-0.1967774 0.234863,-0.4887695 0.08887,-0.2983399 0.08887,-0.8442383 0,-0.7934571 -0.425293,-1.1616211 -0.425293,-0.3745117 -1.091797,-0.3745117 -0.412598,0 -0.780762,0.165039 -0.368164,0.1586914 -0.552246,0.444336 0.04443,0.203125 0.10791,0.4824218 0.06982,0.2792969 0.06982,0.5458985 0,0.2412109 -0.203125,0.4316406 -0.196777,0.184082 -0.590332,0.184082 -0.317382,0 -0.488769,-0.2158203 -0.171387,-0.222168 -0.171387,-0.590332 0,-0.3427735 0.19043,-0.6855469 0.190429,-0.3491211 0.545898,-0.6411133 0.349121,-0.2856445 0.863281,-0.4633789 0.514161,-0.1777344 1.11084,-0.1777344 1.30127,0 2.062989,0.5839844 0.768066,0.5776367 0.768066,1.5488281 0,0.463379 -0.139648,0.8442383 -0.133301,0.3808594 -0.437989,0.6728516 -0.336426,0.3237305 -0.787109,0.5585937 -0.450684,0.2285157 -1.377442,0.6411133 -0.552246,0.2475586 -1.02832,0.5205078 -0.476074,0.2666016 -0.780762,0.5205078 l 4.881348,0 0,1.1235352 z" /></g></g></g><g
                         transform="scale(1.3328125,1.3328125)"
                         id="g134"><path
                           id="path136"
                           style="fill:none;stroke:#a0a0a4;stroke-width:0.5;stroke-linecap:round;stroke-linejoin:round;stroke-miterlimit:10;stroke-dasharray:0.5, 1;stroke-dashoffset:0;stroke-opacity:1"
                           d="m 60.5,165.5 558,0" /><path
                           id="path138"
                           style="fill:none;stroke:#000000;stroke-width:4;stroke-linecap:round;stroke-linejoin:round;stroke-miterlimit:10;stroke-dasharray:none;stroke-opacity:1"
                           d="m 60.5,165.5 6,0" /><path
                           id="path140"
                           style="fill:none;stroke:#000000;stroke-width:4;stroke-linecap:round;stroke-linejoin:round;stroke-miterlimit:10;stroke-dasharray:none;stroke-opacity:1"
                           d="m 618.5,165.5 -6,0" /></g><g
                         transform="matrix(1.3328125,0,0,1.3328125,43.982813,227.24453)"
                         id="g142" /><g
                         transform="matrix(1.3328125,0,0,1.3328125,43.982813,227.24453)"
                         id="g144" /><g
                         transform="matrix(1.3328125,0,0,1.3328125,43.982813,227.24453)"
                         id="g146"><g
                           id="g148"><g
                             id="text150"
                             style="font-variant:normal;font-weight:normal;font-size:13px;font-family:Georgia;-inkscape-font-specification:Georgia;writing-mode:lr-tb;fill:#000000;fill-opacity:1;fill-rule:nonzero;stroke:none"><path
                               id="path399"
                               style=""
                               d="m 10.005859,-0.57128906 -1.2885738,0 0,2.88818356 -1.21875,0 0,-2.88818356 -4.0625,0 0,-0.97753904 4.449707,-5.4272461 0.831543,0 0,5.5732422 1.2885738,0 0,0.83154294 z M 7.4985352,-1.402832 l 0,-4.1577149 -3.4277344,4.1577149 3.4277344,0 z" /><path
                               id="path401"
                               style=""
                               d="m 13.103027,-0.72998047 q 0,0.35546875 -0.260254,0.609375 -0.253906,0.24755859 -0.609375,0.24755859 -0.355468,0 -0.615722,-0.24755859 -0.253906,-0.25390625 -0.253906,-0.609375 0,-0.35546873 0.253906,-0.60937503 0.260254,-0.2602539 0.615722,-0.2602539 0.355469,0 0.609375,0.2602539 0.260254,0.2539063 0.260254,0.60937503 z" /><path
                               id="path403"
                               style=""
                               d="m 20.849609,-0.57128906 -1.288574,0 0,2.88818356 -1.21875,0 0,-2.88818356 -4.0625,0 0,-0.97753904 4.449707,-5.4272461 0.831543,0 0,5.5732422 1.288574,0 0,0.83154294 z m -2.507324,-0.83154294 0,-4.1577149 -3.427734,4.1577149 3.427734,0 z" /></g></g></g><g
                         transform="scale(1.3328125,1.3328125)"
                         id="g154"><path
                           id="path156"
                           style="fill:none;stroke:#a0a0a4;stroke-width:0.5;stroke-linecap:round;stroke-linejoin:round;stroke-miterlimit:10;stroke-dasharray:0.5, 1;stroke-dashoffset:0;stroke-opacity:1"
                           d="m 60.5,108.5 558,0" /><path
                           id="path158"
                           style="fill:none;stroke:#000000;stroke-width:4;stroke-linecap:round;stroke-linejoin:round;stroke-miterlimit:10;stroke-dasharray:none;stroke-opacity:1"
                           d="m 60.5,108.5 6,0" /><path
                           id="path160"
                           style="fill:none;stroke:#000000;stroke-width:4;stroke-linecap:round;stroke-linejoin:round;stroke-miterlimit:10;stroke-dasharray:none;stroke-opacity:1"
                           d="m 618.5,108.5 -6,0" /></g><g
                         transform="matrix(1.3328125,0,0,1.3328125,43.982813,149.94141)"
                         id="g162" /><g
                         transform="matrix(1.3328125,0,0,1.3328125,43.982813,149.94141)"
                         id="g164" /><g
                         transform="matrix(1.3328125,0,0,1.3328125,43.982813,149.94141)"
                         id="g166"><g
                           id="g168"><g
                             id="text170"
                             style="font-variant:normal;font-weight:normal;font-size:13px;font-family:Georgia;-inkscape-font-specification:Georgia;writing-mode:lr-tb;fill:#000000;fill-opacity:1;fill-rule:nonzero;stroke:none"><path
                               id="path406"
                               style=""
                               d="m 10.005859,-0.57128906 -1.2885738,0 0,2.88818356 -1.21875,0 0,-2.88818356 -4.0625,0 0,-0.97753904 4.449707,-5.4272461 0.831543,0 0,5.5732422 1.2885738,0 0,0.83154294 z M 7.4985352,-1.402832 l 0,-4.1577149 -3.4277344,4.1577149 3.4277344,0 z" /><path
                               id="path408"
                               style=""
                               d="m 13.103027,-0.72998047 q 0,0.35546875 -0.260254,0.609375 -0.253906,0.24755859 -0.609375,0.24755859 -0.355468,0 -0.615722,-0.24755859 -0.253906,-0.25390625 -0.253906,-0.609375 0,-0.35546873 0.253906,-0.60937503 0.260254,-0.2602539 0.615722,-0.2602539 0.355469,0 0.609375,0.2602539 0.260254,0.2539063 0.260254,0.60937503 z" /><path
                               id="path410"
                               style=""
                               d="m 20.79248,-2.9262695 q 0,0.6601562 -0.24121,1.2377929 -0.234864,0.5776368 -0.634766,0.98388676 -0.463379,0.4633789 -1.02832,0.68554687 Q 18.32959,0.203125 17.720215,0.203125 q -0.70459,0 -1.275879,-0.26025391 -0.571289,-0.2602539 -0.971191,-0.73632812 -0.40625,-0.48242187 -0.628418,-1.18066407 -0.222168,-0.6982422 -0.222168,-1.5678711 0,-2.2661133 1.345703,-3.821289 1.35205,-1.5551758 3.618164,-1.866211 l 0.114258,0.5712891 -0.571289,0.1015625 q -1.377442,0.4443359 -2.132813,1.383789 -0.749023,0.9394532 -0.971191,2.2788086 0.545898,-0.4760742 1.079101,-0.6728515 0.533203,-0.1967774 1.123535,-0.1967774 1.060059,0 1.809082,0.8125 0.755371,0.8125 0.755371,2.0249024 z m -1.377441,0.1713867 q 0,-1.0283203 -0.476074,-1.6503906 -0.469727,-0.6220703 -1.263184,-0.6220703 -0.476074,0 -0.888672,0.1777343 Q 16.380859,-4.671875 16,-4.2529297 q -0.0063,0.076172 -0.01904,0.3554688 -0.0127,0.2729492 -0.0127,0.4316406 0,1.4853516 0.482422,2.3295898 0.488769,0.83789066 1.282226,0.83789066 0.755371,0 1.21875,-0.6538086 0.463379,-0.66015626 0.463379,-1.80273436 z" /></g></g></g><g
                         transform="scale(1.3328125,1.3328125)"
                         id="g174"><path
                           id="path176"
                           style="fill:none;stroke:#a0a0a4;stroke-width:0.5;stroke-linecap:round;stroke-linejoin:round;stroke-miterlimit:10;stroke-dasharray:0.5, 1;stroke-dashoffset:0;stroke-opacity:1"
                           d="m 60.5,50.5 558,0" /><path
                           id="path178"
                           style="fill:none;stroke:#000000;stroke-width:4;stroke-linecap:round;stroke-linejoin:round;stroke-miterlimit:10;stroke-dasharray:none;stroke-opacity:1"
                           d="m 60.5,50.5 6,0" /><path
                           id="path180"
                           style="fill:none;stroke:#000000;stroke-width:4;stroke-linecap:round;stroke-linejoin:round;stroke-miterlimit:10;stroke-dasharray:none;stroke-opacity:1"
                           d="m 618.5,50.5 -6,0" /></g><g
                         transform="matrix(1.3328125,0,0,1.3328125,42.65,73.971094)"
                         id="g182" /><g
                         transform="matrix(1.3328125,0,0,1.3328125,42.65,73.971094)"
                         id="g184" /><g
                         transform="matrix(1.3328125,0,0,1.3328125,42.65,73.971094)"
                         id="g186"><g
                           id="g188"><g
                             id="text190"
                             style="font-variant:normal;font-weight:normal;font-size:13px;font-family:Georgia;-inkscape-font-specification:Georgia;writing-mode:lr-tb;fill:#000000;fill-opacity:1;fill-rule:nonzero;stroke:none"><path
                               id="path413"
                               style=""
                               d="m 10.005859,-0.57128906 -1.2885738,0 0,2.88818356 -1.21875,0 0,-2.88818356 -4.0625,0 0,-0.97753904 4.449707,-5.4272461 0.831543,0 0,5.5732422 1.2885738,0 0,0.83154294 z M 7.4985352,-1.402832 l 0,-4.1577149 -3.4277344,4.1577149 3.4277344,0 z" /><path
                               id="path415"
                               style=""
                               d="m 13.103027,-0.72998047 q 0,0.35546875 -0.260254,0.609375 -0.253906,0.24755859 -0.609375,0.24755859 -0.355468,0 -0.615722,-0.24755859 -0.253906,-0.25390625 -0.253906,-0.609375 0,-0.35546873 0.253906,-0.60937503 0.260254,-0.2602539 0.615722,-0.2602539 0.355469,0 0.609375,0.2602539 0.260254,0.2539063 0.260254,0.60937503 z" /><path
                               id="path417"
                               style=""
                               d="m 21.059082,-2.3867188 q 0,1.0664063 -0.92041,1.83447271 -0.92041,0.7680664 -2.418457,0.7680664 -1.402832,0 -2.24707,-0.70458984 -0.844239,-0.70458987 -0.844239,-1.81542967 0,-0.8188477 0.495117,-1.3647461 0.501465,-0.5522461 1.479004,-0.9331055 -0.806152,-0.4506836 -1.206054,-0.9902344 -0.399903,-0.5395507 -0.399903,-1.21875 0,-1.0346679 0.875977,-1.7329101 0.882324,-0.6982422 2.107422,-0.6982422 1.225097,0 1.980468,0.6601562 0.761719,0.6601563 0.761719,1.6567383 0,0.6411133 -0.418945,1.21875 -0.418945,0.5712891 -1.231445,0.9394532 1.053711,0.4506836 1.517089,0.996582 0.469727,0.5458984 0.469727,1.383789 z m -1.536133,-4.6083984 q 0,-0.774414 -0.463379,-1.2568359 -0.457031,-0.4887696 -1.174316,-0.4887696 -0.717285,0 -1.174317,0.4697266 -0.457031,0.4633789 -0.457031,1.1552734 0,0.666504 0.520508,1.1298829 0.520508,0.4633789 1.853516,0.9902343 0.476074,-0.3046875 0.685547,-0.8061523 0.209472,-0.5014649 0.209472,-1.1933594 z m 0.266602,4.9067383 q 0,-0.3999024 -0.171387,-0.6982422 -0.171387,-0.3046875 -0.495117,-0.5522461 -0.311035,-0.2412109 -0.869629,-0.5014648 -0.552246,-0.2666016 -1.199707,-0.5395508 -0.609375,0.3300781 -0.89502,0.8442383 -0.285644,0.5078125 -0.285644,1.1616211 0,0.9331054 0.545898,1.51074215 0.552246,0.57128906 1.466309,0.57128906 0.875976,0 1.390137,-0.5078125 0.51416,-0.50781251 0.51416,-1.28857421 z" /></g></g></g><g
                         transform="scale(1.3328125,1.3328125)"
                         id="g194"><path
                           id="path196"
                           style="fill:none;stroke:#a0a0a4;stroke-width:0.5;stroke-linecap:round;stroke-linejoin:round;stroke-miterlimit:10;stroke-dasharray:0.5, 1;stroke-dashoffset:0;stroke-opacity:1"
                           d="m 60.5,395.5 0,-345" /><path
                           id="path198"
                           style="fill:none;stroke:#000000;stroke-width:4;stroke-linecap:round;stroke-linejoin:round;stroke-miterlimit:10;stroke-dasharray:none;stroke-opacity:1"
                           d="m 60.5,395.5 0,-6" /><path
                           id="path200"
                           style="fill:none;stroke:#000000;stroke-width:4;stroke-linecap:round;stroke-linejoin:round;stroke-miterlimit:10;stroke-dasharray:none;stroke-opacity:1"
                           d="m 60.5,50.5 0,6" /></g><g
                         transform="matrix(1.3328125,0,0,1.3328125,73.971094,553.78359)"
                         id="g202" /><g
                         transform="matrix(1.3328125,0,0,1.3328125,73.971094,553.78359)"
                         id="g204" /><g
                         transform="matrix(1.3328125,0,0,1.3328125,73.971094,553.78359)"
                         id="g206"><g
                           id="g208"><g
                             id="text210"
                             style="font-variant:normal;font-weight:normal;font-size:13px;font-family:Georgia;-inkscape-font-specification:Georgia;writing-mode:lr-tb;fill:#000000;fill-opacity:1;fill-rule:nonzero;stroke:none"><path
                               id="path420"
                               style=""
                               d="m 9.644043,-5.9287109 q 0.40625,0.4887695 0.603027,1.1489257 0.203125,0.6538086 0.203125,1.3710938 0,0.8632812 -0.247558,1.5488281 Q 9.9550781,-1.1806641 9.5234375,-0.72998047 9.0791016,-0.26660156 8.4697266,-0.03173828 7.8603516,0.203125 7.1113281,0.203125 q -0.8188476,0 -1.4599609,-0.27294922 Q 5.0102539,-0.34277344 4.6103516,-0.81884766 4.1914062,-1.3139648 3.9819336,-1.9741211 3.7788086,-2.640625 3.7788086,-3.4086914 q 0,-0.7553711 0.1967773,-1.3901367 0.203125,-0.6347656 0.628418,-1.1489258 0.40625,-0.4951172 1.0473633,-0.7807617 0.6411133,-0.2856446 1.4663086,-0.2856446 0.8696289,0 1.4916992,0.2919922 0.6220703,0.2919922 1.034668,0.7934571 z m -0.5966797,2.5200195 q 0,-1.5107422 -0.5205078,-2.3422852 -0.5141602,-0.8315429 -1.4028321,-0.8315429 -0.9013672,0 -1.421875,0.8315429 -0.5205078,0.831543 -0.5205078,2.3422852 0,1.4345703 0.4951172,2.3105469 0.5014649,0.86962887 1.4345703,0.86962887 0.9331055,0 1.4345703,-0.86962887 0.5014649,-0.8759766 0.5014649,-2.3105469 z" /></g></g></g><g
                         transform="scale(1.3328125,1.3328125)"
                         id="g214"><path
                           id="path216"
                           style="fill:none;stroke:#a0a0a4;stroke-width:0.5;stroke-linecap:round;stroke-linejoin:round;stroke-miterlimit:10;stroke-dasharray:0.5, 1;stroke-dashoffset:0;stroke-opacity:1"
                           d="m 172.5,395.5 0,-345" /><path
                           id="path218"
                           style="fill:none;stroke:#000000;stroke-width:4;stroke-linecap:round;stroke-linejoin:round;stroke-miterlimit:10;stroke-dasharray:none;stroke-opacity:1"
                           d="m 172.5,395.5 0,-6" /><path
                           id="path220"
                           style="fill:none;stroke:#000000;stroke-width:4;stroke-linecap:round;stroke-linejoin:round;stroke-miterlimit:10;stroke-dasharray:none;stroke-opacity:1"
                           d="m 172.5,50.5 0,6" /></g><g
                         transform="matrix(1.3328125,0,0,1.3328125,223.24609,553.78359)"
                         id="g222" /><g
                         transform="matrix(1.3328125,0,0,1.3328125,223.24609,553.78359)"
                         id="g224" /><g
                         transform="matrix(1.3328125,0,0,1.3328125,223.24609,553.78359)"
                         id="g226"><g
                           id="g228"><g
                             id="text230"
                             style="font-variant:normal;font-weight:normal;font-size:13px;font-family:Georgia;-inkscape-font-specification:Georgia;writing-mode:lr-tb;fill:#000000;fill-opacity:1;fill-rule:nonzero;stroke:none"><path
                               id="path423"
                               style=""
                               d="m 8.2602539,0 -4.2783203,0 0,-0.45068359 q 0.1904297,-0.0126953 0.590332,-0.0507813 0.40625,-0.0444336 0.5585938,-0.0888672 0.1967773,-0.0634766 0.2983398,-0.203125 0.1079102,-0.1459961 0.1079102,-0.43164067 l 0,-4.4560546 -1.5805664,0 0,-0.5332032 0.3491211,0 q 0.6855468,0 1.2250976,-0.2539062 0.5458985,-0.2539063 0.7807617,-0.5458985 l 0.5268555,0 Q 6.8193359,-6.6015625 6.800293,-6.0493164 6.78125,-5.4970703 6.78125,-5.059082 l 0,3.7641601 q 0,0.222168 0.095215,0.39990237 0.1015625,0.17138672 0.2856446,0.25390625 0.165039,0.0698242 0.5395508,0.12695312 0.3745117,0.0571289 0.5585937,0.0634766 L 8.2602539,0 Z" /></g></g></g><g
                         transform="scale(1.3328125,1.3328125)"
                         id="g234"><path
                           id="path236"
                           style="fill:none;stroke:#a0a0a4;stroke-width:0.5;stroke-linecap:round;stroke-linejoin:round;stroke-miterlimit:10;stroke-dasharray:0.5, 1;stroke-dashoffset:0;stroke-opacity:1"
                           d="m 283.5,395.5 0,-345" /><path
                           id="path238"
                           style="fill:none;stroke:#000000;stroke-width:4;stroke-linecap:round;stroke-linejoin:round;stroke-miterlimit:10;stroke-dasharray:none;stroke-opacity:1"
                           d="m 283.5,395.5 0,-6" /><path
                           id="path240"
                           style="fill:none;stroke:#000000;stroke-width:4;stroke-linecap:round;stroke-linejoin:round;stroke-miterlimit:10;stroke-dasharray:none;stroke-opacity:1"
                           d="m 283.5,50.5 0,6" /></g><g
                         transform="matrix(1.3328125,0,0,1.3328125,371.85469,553.78359)"
                         id="g242" /><g
                         transform="matrix(1.3328125,0,0,1.3328125,371.85469,553.78359)"
                         id="g244" /><g
                         transform="matrix(1.3328125,0,0,1.3328125,371.85469,553.78359)"
                         id="g246"><g
                           id="g248"><g
                             id="text250"
                             style="font-variant:normal;font-weight:normal;font-size:13px;font-family:Georgia;-inkscape-font-specification:Georgia;writing-mode:lr-tb;fill:#000000;fill-opacity:1;fill-rule:nonzero;stroke:none"><path
                               id="path426"
                               style=""
                               d="m 9.7709961,0 -5.9477539,0 0,-0.86328125 q 0.1713867,-0.19677735 0.4760742,-0.43798825 0.3046875,-0.2475586 0.7236328,-0.5332032 0.2539063,-0.1713867 0.609375,-0.3745117 0.3554688,-0.203125 0.8061524,-0.4443359 0.5014648,-0.2666016 0.7680664,-0.4697266 0.2729492,-0.203125 0.4951172,-0.5014648 0.145996,-0.1967774 0.2348632,-0.4887695 0.088867,-0.2983399 0.088867,-0.8442383 0,-0.7934571 -0.4252929,-1.1616211 -0.425293,-0.3745117 -1.0917969,-0.3745117 -0.4125977,0 -0.7807617,0.165039 -0.3681641,0.1586914 -0.5522461,0.444336 0.044434,0.203125 0.1079101,0.4824218 0.069824,0.2792969 0.069824,0.5458985 0,0.2412109 -0.203125,0.4316406 -0.1967773,0.184082 -0.590332,0.184082 -0.3173828,0 -0.4887695,-0.2158203 -0.1713867,-0.222168 -0.1713867,-0.590332 0,-0.3427735 0.1904296,-0.6855469 0.1904297,-0.3491211 0.5458985,-0.6411133 0.3491211,-0.2856445 0.8632812,-0.4633789 0.5141602,-0.1777344 1.1108399,-0.1777344 1.3012695,0 2.0629883,0.5839844 0.7680664,0.5776367 0.7680664,1.5488281 0,0.463379 -0.1396485,0.8442383 Q 9.1679688,-3.65625 8.8632813,-3.3642578 8.5268555,-3.0405273 8.0761719,-2.8056641 7.6254883,-2.5771484 6.6987305,-2.1645508 6.1464844,-1.9169922 5.6704102,-1.644043 5.1943359,-1.3774414 4.8896484,-1.1235352 l 4.8813477,0 0,1.1235352 z" /></g></g></g><g
                         transform="scale(1.3328125,1.3328125)"
                         id="g254"><path
                           id="path256"
                           style="fill:none;stroke:#a0a0a4;stroke-width:0.5;stroke-linecap:round;stroke-linejoin:round;stroke-miterlimit:10;stroke-dasharray:0.5, 1;stroke-dashoffset:0;stroke-opacity:1"
                           d="m 395.5,395.5 0,-345" /><path
                           id="path258"
                           style="fill:none;stroke:#000000;stroke-width:4;stroke-linecap:round;stroke-linejoin:round;stroke-miterlimit:10;stroke-dasharray:none;stroke-opacity:1"
                           d="m 395.5,395.5 0,-6" /><path
                           id="path260"
                           style="fill:none;stroke:#000000;stroke-width:4;stroke-linecap:round;stroke-linejoin:round;stroke-miterlimit:10;stroke-dasharray:none;stroke-opacity:1"
                           d="m 395.5,50.5 0,6" /></g><g
                         transform="matrix(1.3328125,0,0,1.3328125,521.12969,553.78359)"
                         id="g262" /><g
                         transform="matrix(1.3328125,0,0,1.3328125,521.12969,553.78359)"
                         id="g264" /><g
                         transform="matrix(1.3328125,0,0,1.3328125,521.12969,553.78359)"
                         id="g266"><g
                           id="g268"><g
                             id="text270"
                             style="font-variant:normal;font-weight:normal;font-size:13px;font-family:Georgia;-inkscape-font-specification:Georgia;writing-mode:lr-tb;fill:#000000;fill-opacity:1;fill-rule:nonzero;stroke:none"><path
                               id="path429"
                               style=""
                               d="m 6.2163086,2.3168945 q -0.5966797,0 -1.0917969,-0.1523437 Q 4.6293945,2.0185547 4.2739258,1.7646484 3.918457,1.5107422 3.7216797,1.1806641 3.53125,0.85058594 3.53125,0.50146484 q 0,-0.31103515 0.1523438,-0.55859375 0.1523437,-0.25390625 0.4887695,-0.25390625 0.3808594,0 0.5776367,0.19042969 0.203125,0.18408203 0.203125,0.42529297 0,0.203125 -0.069824,0.51416016 -0.063477,0.31103514 -0.1015625,0.44433594 0.044434,0.057129 0.1586914,0.1523437 0.1206055,0.095215 0.2919922,0.1713868 0.203125,0.095215 0.4252929,0.1523437 0.222168,0.057129 0.628418,0.057129 0.3808594,0 0.7299805,-0.1269531 0.3554687,-0.1269531 0.6220703,-0.40625 0.2792969,-0.29199219 0.4316406,-0.68554688 0.1586914,-0.38720703 0.1586914,-1.02197266 0,-0.34277343 -0.076172,-0.67919926 Q 8.0825195,-1.4599609 7.8857422,-1.7075195 7.6889648,-1.9550781 7.3461914,-2.0883789 7.0097656,-2.2280273 6.4892578,-2.2280273 l -0.831543,0 0,-0.7299805 0.5522461,0 q 0.8759766,0 1.2631836,-0.4824219 0.3872071,-0.4824219 0.3872071,-1.4536133 0,-0.793457 -0.3745118,-1.1933593 -0.3745117,-0.40625 -1.0600586,-0.40625 -0.3300781,0 -0.5458984,0.08252 -0.2094726,0.076172 -0.3427734,0.1523437 -0.1586914,0.088867 -0.2602539,0.1967774 -0.1015625,0.1079101 -0.1523438,0.1586914 0.044434,0.203125 0.1079102,0.5014648 0.063476,0.2919922 0.063476,0.5585938 0,0.2348633 -0.203125,0.425293 -0.1967773,0.184082 -0.5839843,0.184082 -0.3364258,0 -0.4951172,-0.241211 -0.1523438,-0.2412109 -0.1523438,-0.5585937 0,-0.3300781 0.1840821,-0.6728516 0.184082,-0.3427734 0.5458984,-0.6411132 0.3618164,-0.2983399 0.8823242,-0.4824219 0.5205078,-0.1840821 1.199707,-0.1840821 0.7807618,0 1.2885743,0.2348633 0.5141601,0.2285157 0.8061523,0.5585938 0.2856445,0.3237304 0.3935547,0.6791992 0.1079102,0.3554687 0.1079102,0.609375 0,0.3173828 -0.088867,0.6411133 -0.088867,0.3173828 -0.2919922,0.590332 -0.222168,0.2983398 -0.5903321,0.5458984 -0.3618164,0.241211 -0.9140625,0.3935547 l 0,0.1015625 q 0.3554688,0.031738 0.7553711,0.1586914 0.40625,0.1269532 0.7299805,0.3745118 0.3364258,0.2602539 0.5522461,0.6728515 0.2158203,0.40625 0.2158203,1.03466799 0,1.21875 -0.977539,1.97412111 -0.9775391,0.7617187 -2.4438477,0.7617187 z" /></g></g></g><g
                         transform="scale(1.3328125,1.3328125)"
                         id="g274"><path
                           id="path276"
                           style="fill:none;stroke:#a0a0a4;stroke-width:0.5;stroke-linecap:round;stroke-linejoin:round;stroke-miterlimit:10;stroke-dasharray:0.5, 1;stroke-dashoffset:0;stroke-opacity:1"
                           d="m 507.5,395.5 0,-345" /><path
                           id="path278"
                           style="fill:none;stroke:#000000;stroke-width:4;stroke-linecap:round;stroke-linejoin:round;stroke-miterlimit:10;stroke-dasharray:none;stroke-opacity:1"
                           d="m 507.5,395.5 0,-6" /><path
                           id="path280"
                           style="fill:none;stroke:#000000;stroke-width:4;stroke-linecap:round;stroke-linejoin:round;stroke-miterlimit:10;stroke-dasharray:none;stroke-opacity:1"
                           d="m 507.5,50.5 0,6" /></g><g
                         transform="matrix(1.3328125,0,0,1.3328125,669.07187,553.78359)"
                         id="g282" /><g
                         transform="matrix(1.3328125,0,0,1.3328125,669.07187,553.78359)"
                         id="g284" /><g
                         transform="matrix(1.3328125,0,0,1.3328125,669.07187,553.78359)"
                         id="g286"><g
                           id="g288"><g
                             id="text290"
                             style="font-variant:normal;font-weight:normal;font-size:13px;font-family:Georgia;-inkscape-font-specification:Georgia;writing-mode:lr-tb;fill:#000000;fill-opacity:1;fill-rule:nonzero;stroke:none"><path
                               id="path432"
                               style=""
                               d="m 10.005859,-0.57128906 -1.2885738,0 0,2.88818356 -1.21875,0 0,-2.88818356 -4.0625,0 0,-0.97753904 4.449707,-5.4272461 0.831543,0 0,5.5732422 1.2885738,0 0,0.83154294 z M 7.4985352,-1.402832 l 0,-4.1577149 -3.4277344,4.1577149 3.4277344,0 z" /></g></g></g><g
                         transform="scale(1.3328125,1.3328125)"
                         id="g294"><path
                           id="path296"
                           style="fill:none;stroke:#a0a0a4;stroke-width:0.5;stroke-linecap:round;stroke-linejoin:round;stroke-miterlimit:10;stroke-dasharray:0.5, 1;stroke-dashoffset:0;stroke-opacity:1"
                           d="m 618.5,395.5 0,-345" /><path
                           id="path298"
                           style="fill:none;stroke:#000000;stroke-width:4;stroke-linecap:round;stroke-linejoin:round;stroke-miterlimit:10;stroke-dasharray:none;stroke-opacity:1"
                           d="m 618.5,395.5 0,-6" /><path
                           id="path300"
                           style="fill:none;stroke:#000000;stroke-width:4;stroke-linecap:round;stroke-linejoin:round;stroke-miterlimit:10;stroke-dasharray:none;stroke-opacity:1"
                           d="m 618.5,50.5 0,6" /></g><g
                         transform="matrix(1.3328125,0,0,1.3328125,818.34687,553.78359)"
                         id="g302" /><g
                         transform="matrix(1.3328125,0,0,1.3328125,818.34687,553.78359)"
                         id="g304" /><g
                         transform="matrix(1.3328125,0,0,1.3328125,818.34687,553.78359)"
                         id="g306"><g
                           id="g308"><g
                             id="text310"
                             style="font-variant:normal;font-weight:normal;font-size:13px;font-family:Georgia;-inkscape-font-specification:Georgia;writing-mode:lr-tb;fill:#000000;fill-opacity:1;fill-rule:nonzero;stroke:none"><path
                               id="path435"
                               style=""
                               d="m 8.4760742,-2.9770508 q 0.4189453,0.3300781 0.6918946,0.850586 0.2792968,0.5205078 0.2792968,1.30126949 0,1.36474609 -0.9331054,2.25341801 -0.9331055,0.8886718 -2.3676758,0.8886718 -1.1108399,0 -1.8789063,-0.5268554 Q 3.4995117,1.2631836 3.4995117,0.56494141 3.4995117,0.24121094 3.6582031,0 q 0.1586914,-0.24121094 0.4887696,-0.24121094 0.3808593,0 0.5776367,0.203125 0.203125,0.19677735 0.203125,0.43164063 0,0.203125 -0.069824,0.5078125 Q 4.7880859,1.2060547 4.75,1.3520508 q 0.050781,0.044434 0.1650391,0.1206054 0.1142578,0.076172 0.2729492,0.1459961 0.165039,0.069824 0.3999023,0.1206055 0.241211,0.057129 0.5585938,0.057129 0.40625,0 0.7680664,-0.165039 0.3618164,-0.1650391 0.609375,-0.4887696 0.2729492,-0.35546873 0.40625,-0.81249997 0.1396484,-0.4506836 0.1396484,-1.14892579 0,-0.89501954 -0.5014648,-1.47900394 -0.4951172,-0.590332 -1.3076172,-0.590332 -0.5078125,0 -0.9521485,0.1904297 -0.4379882,0.1904297 -0.7871093,0.6347656 l -0.425293,-0.165039 0.5395508,-4.5830079 4.5449219,0 0,1.1298829 -4.0307618,0 -0.3300781,2.6914062 q 0.2856445,-0.203125 0.7490235,-0.3999023 0.4697265,-0.203125 1.0283203,-0.203125 0.4633789,0 0.9584961,0.1459961 0.5014648,0.1396484 0.9204101,0.4697265 z" /></g></g></g><g
                         transform="scale(1.3328125,1.3328125)"
                         id="g314"><path
                           id="path316"
                           style="fill:none;stroke:#000000;stroke-width:4;stroke-linecap:round;stroke-linejoin:round;stroke-miterlimit:10;stroke-dasharray:none;stroke-opacity:1"
                           d="m 60.5,50.5 0,345 558,0 0,-345 -558,0 z" /></g><g
                         transform="matrix(0,-1.3328125,1.3328125,0,20.658594,308.54609)"
                         id="g318" /><g
                         transform="matrix(0,-1.3328125,1.3328125,0,20.658594,308.54609)"
                         id="g320" /><g
                         transform="matrix(0,-1.3328125,1.3328125,0,20.658594,308.54609)"
                         id="g322"><g
                           id="g324"><g
                             id="text326"
                             style="font-variant:normal;font-weight:normal;font-size:13px;font-family:Georgia;-inkscape-font-specification:Georgia;writing-mode:lr-tb;fill:#000000;fill-opacity:1;fill-rule:nonzero;stroke:none"><path
                               id="path438"
                               style=""
                               d="m 6.1762695,-5.5161133 q 0.3745117,0.444336 0.5776367,1.034668 0.2094727,0.5839844 0.2094727,1.3393555 0,0.7426757 -0.2475586,1.3583984 -0.2475586,0.609375 -0.6538086,1.04101562 -0.425293,0.43798828 -0.9458008,0.67285156 -0.5205078,0.23486328 -1.1044922,0.23486328 -0.5649414,0 -0.9267578,-0.12695312 -0.3618164,-0.12695313 -0.590332,-0.29833985 l -0.050781,0 0,1.87890621 q 0,0.2285157 0.088867,0.3808594 0.088867,0.1523438 0.2729493,0.222168 0.1523437,0.057129 0.4316406,0.1079101 0.2856445,0.057129 0.4697266,0.063477 l 0,0.425293 -3.49755864,0 0,-0.425293 Q 0.40625,2.3803711 0.59033203,2.3613281 0.77441406,2.3422852 0.92041016,2.2978516 1.1108398,2.234375 1.1870117,2.0756836 1.2631836,1.9169922 1.2631836,1.7011719 l 0,-6.6586914 q 0,-0.1904297 -0.095215,-0.3681641 Q 1.0727539,-5.503418 0.92041016,-5.6113281 0.80615234,-5.6875 0.60302734,-5.7255859 q -0.203125,-0.044434 -0.39355468,-0.057129 l 0,-0.4125977 2.13281254,-0.1396484 0.088867,0.076172 0,0.7045899 0.050781,0.012695 q 0.3300781,-0.3808594 0.8188477,-0.6347656 0.4887695,-0.2539063 0.9711914,-0.2539063 0.5839843,0 1.0664062,0.2475586 0.4887695,0.2475586 0.8378906,0.6665039 z M 5.1416016,-1.015625 q 0.2539062,-0.3935547 0.3745117,-0.9140625 0.1206054,-0.5205078 0.1206054,-1.1616211 0,-0.4697266 -0.1015625,-0.9584961 Q 5.4335937,-4.5385742 5.2177734,-4.9003906 5.0019531,-5.2685547 4.652832,-5.4970703 4.3037109,-5.7255859 3.8149414,-5.7255859 q -0.4697266,0 -0.7998047,0.2094726 -0.3300781,0.203125 -0.571289,0.4887696 l 0,3.7006835 q 0.057129,0.1713868 0.184082,0.35546879 0.1333008,0.18408204 0.2919922,0.31738282 0.1967773,0.1586914 0.4252929,0.2602539 0.2285157,0.0952148 0.5585938,0.0952148 0.3554687,0 0.6855469,-0.18408204 0.3300781,-0.19042968 0.5522461,-0.53320312 z" /><path
                               id="path440"
                               style=""
                               d="m 17.368652,0 -3.738769,0 0,-0.45068359 q 0.152344,-0.0126953 0.437988,-0.0380859 0.291992,-0.0253906 0.399902,-0.0761719 0.19043,-0.0761719 0.279297,-0.22851562 0.08887,-0.15869141 0.08887,-0.40624997 l 0,-3.2055664 -4.233887,0 0,3.1357422 q 0,0.2221679 0.06982,0.37451167 0.07617,0.15234375 0.291992,0.26660156 0.10791,0.0571289 0.38086,0.11425781 0.279296,0.0571289 0.437988,0.0634766 l 0,0.45068359 -3.7387697,0 0,-0.45068359 q 0.1523438,-0.0126953 0.4379883,-0.0380859 0.2919922,-0.0253906 0.3999023,-0.0761719 0.1904297,-0.0761719 0.2792969,-0.22851562 Q 9.25,-0.95214844 9.25,-1.199707 l 0,-6.5 q 0,-0.203125 -0.08252,-0.3681641 -0.08252,-0.1713867 -0.2856446,-0.2666016 -0.1713867,-0.08252 -0.4189453,-0.1459961 -0.2412109,-0.063477 -0.4189453,-0.076172 l 0,-0.4506836 3.7387697,0 0,0.4506836 q -0.177735,0.00635 -0.437988,0.057129 -0.253907,0.050781 -0.38086,0.095215 -0.21582,0.076172 -0.291992,0.2539063 -0.06982,0.1777344 -0.06982,0.387207 l 0,2.7929688 4.233887,0 0,-2.7294922 q 0,-0.203125 -0.08252,-0.3681641 -0.08252,-0.1713867 -0.285645,-0.2666016 -0.171386,-0.08252 -0.418945,-0.1459961 -0.241211,-0.063477 -0.418945,-0.076172 l 0,-0.4506836 3.738769,0 0,0.4506836 q -0.177734,0.00635 -0.437988,0.057129 -0.253906,0.050781 -0.380859,0.095215 -0.215821,0.076172 -0.291993,0.2539063 -0.06982,0.1777344 -0.06982,0.387207 l 0,6.4936524 q 0,0.2221679 0.06982,0.37451167 0.07617,0.15234375 0.291993,0.26660156 0.10791,0.0571289 0.380859,0.11425781 0.279297,0.0571289 0.437988,0.0634766 L 17.368652,0 Z" /></g></g></g><g
                         transform="matrix(1.3328125,0,0,1.3328125,399.17734,583.10547)"
                         id="g330" /><g
                         transform="matrix(1.3328125,0,0,1.3328125,399.17734,583.10547)"
                         id="g332" /><g
                         transform="matrix(1.3328125,0,0,1.3328125,399.17734,583.10547)"
                         id="g334"><g
                           id="g336"><g
                             id="text338"
                             style="font-variant:normal;font-weight:normal;font-size:13px;font-family:Georgia;-inkscape-font-specification:Georgia;writing-mode:lr-tb;fill:#000000;fill-opacity:1;fill-rule:nonzero;stroke:none"><path
                               id="path443"
                               style=""
                               d="m 7.940918,-6.5634766 -0.4379883,0 Q 7.4458008,-6.7919922 7.293457,-7.1030273 7.1474609,-7.4204102 6.9633789,-7.699707 6.7729492,-7.9916992 6.5444336,-8.2075195 6.3222656,-8.4296875 6.112793,-8.4614258 5.9160156,-8.4868164 5.6176758,-8.4995117 5.3193359,-8.512207 5.0654297,-8.512207 l -0.3681641,0 0,7.2045898 q 0,0.2094727 0.088867,0.38720704 0.088867,0.17138672 0.3110352,0.26660157 0.1142578,0.0444336 0.4760742,0.12060547 0.368164,0.0761719 0.571289,0.0825195 l 0,0.45068359 -4.2529296,0 0,-0.45068359 q 0.1777343,-0.0126953 0.5395507,-0.0507813 0.3681641,-0.0380859 0.5078125,-0.0952148 0.2094727,-0.0825195 0.3046875,-0.23486328 0.1015625,-0.15869141 0.1015625,-0.41894533 l 0,-7.2617187 -0.368164,0 q -0.1967774,0 -0.4887695,0.012695 -0.2919922,0.00635 -0.5585938,0.038086 -0.2094727,0.025391 -0.4379883,0.2539063 -0.222168,0.2221679 -0.4125976,0.5078125 -0.19042972,0.2856445 -0.33642582,0.609375 -0.14599609,0.3173828 -0.203125,0.5268554 l -0.44433594,0 0,-2.4438476 7.84570316,0 0,2.4438476 z" /><path
                               id="path445"
                               style=""
                               d="m 11.528809,0 -3.0278324,0 0,-0.41894531 q 0.1459961,-0.0126953 0.2983398,-0.0253906 0.1586914,-0.0126953 0.2729492,-0.0507813 0.1777344,-0.0571289 0.2602539,-0.19677734 0.088867,-0.1459961 0.088867,-0.37451167 l 0,-3.8657227 q 0,-0.203125 -0.095215,-0.3681641 -0.088867,-0.1713867 -0.2539063,-0.2856445 -0.1206054,-0.076172 -0.3491211,-0.1269531 -0.2285156,-0.057129 -0.4189453,-0.069824 l 0,-0.4125977 2.2089848,-0.1396484 0.08887,0.088867 0,5.1035156 q 0,0.22216794 0.08252,0.36816404 0.08887,0.14599609 0.27295,0.21582031 0.139648,0.0571289 0.272949,0.0952148 0.133301,0.0317383 0.29834,0.0444336 L 11.528809,0 Z m -0.799805,-8.8041992 q 0,0.3618164 -0.241211,0.6347656 -0.234863,0.2666016 -0.5839844,0.2666016 -0.3237305,0 -0.5649414,-0.2539063 -0.2348633,-0.2602539 -0.2348633,-0.590332 0,-0.3491211 0.2348633,-0.609375 0.2412109,-0.2602539 0.5649414,-0.2602539 0.3618164,0 0.5903324,0.2475586 0.234863,0.2412109 0.234863,0.5649414 z" /><path
                               id="path447"
                               style=""
                               d="m 23.006348,0 -3.053223,0 0,-0.41894531 q 0.145996,-0.0126953 0.291992,-0.0253906 0.152344,-0.0126953 0.266602,-0.0507813 0.177734,-0.0571289 0.260254,-0.19677734 0.08887,-0.1459961 0.08887,-0.37451167 l 0,-3.2309571 q 0,-0.6601562 -0.304688,-1.015625 -0.29834,-0.3618164 -0.749023,-0.3618164 -0.311035,0 -0.583984,0.095215 -0.27295,0.095215 -0.501465,0.2666015 -0.184082,0.1396485 -0.311035,0.3046875 -0.120606,0.1586914 -0.184083,0.2666016 l 0,3.6118164 q 0,0.22216796 0.07617,0.36816405 0.07617,0.13964844 0.260254,0.21582031 0.145996,0.0571289 0.260254,0.0888672 0.120606,0.0253906 0.311035,0.0380859 l 0,0.41894531 -2.989746,0 0,-0.41894531 q 0.145996,-0.0126953 0.279297,-0.0253906 0.139649,-0.0126953 0.253906,-0.0507813 0.177735,-0.0571289 0.260254,-0.19677734 0.08887,-0.1459961 0.08887,-0.37451167 l 0,-3.2309571 q 0,-0.6601562 -0.304687,-1.015625 -0.29834,-0.3618164 -0.749023,-0.3618164 -0.311036,0 -0.583985,0.1015625 -0.272949,0.095215 -0.501465,0.2666016 -0.184082,0.1396484 -0.311035,0.3173828 -0.126953,0.1713867 -0.19043,0.2602539 l 0,3.5864258 q 0,0.21582029 0.08887,0.36181638 0.08887,0.1459961 0.266601,0.22216797 0.133301,0.0634766 0.272949,0.0952148 0.139649,0.0317383 0.311036,0.0444336 l 0,0.41894531 -3.040528,0 0,-0.41894531 q 0.145996,-0.0126953 0.29834,-0.0253906 0.158692,-0.0126953 0.272949,-0.0507813 0.177735,-0.0571289 0.260254,-0.19677734 0.08887,-0.1459961 0.08887,-0.37451167 l 0,-3.8911133 q 0,-0.203125 -0.09521,-0.3618164 -0.08887,-0.1650391 -0.253907,-0.2792969 -0.120605,-0.076172 -0.29834,-0.1206055 -0.177734,-0.050781 -0.368164,-0.063477 l 0,-0.4125977 2.094727,-0.1396484 0.08887,0.088867 0,0.8950195 0.04443,0 q 0.158691,-0.1586914 0.387207,-0.3745117 0.228515,-0.2158203 0.425293,-0.3491211 0.222168,-0.1523438 0.552246,-0.2539063 0.336426,-0.1015625 0.723633,-0.1015625 0.609375,0 1.047363,0.3300781 0.437988,0.3237305 0.628418,0.7871094 0.228516,-0.2221679 0.399902,-0.387207 0.177735,-0.1713867 0.463379,-0.3618164 0.241211,-0.1650391 0.564942,-0.2666016 0.330078,-0.1015625 0.72998,-0.1015625 0.793457,0 1.256836,0.5205078 0.463379,0.5205078 0.463379,1.5996094 l 0,3.1801758 q 0,0.22216796 0.07617,0.36816405 0.07617,0.13964844 0.260254,0.21582031 0.145996,0.0571289 0.285644,0.0888672 0.145996,0.0253906 0.323731,0.0380859 L 23.006348,0 Z" /><path
                               id="path449"
                               style=""
                               d="m 29.283203,-1.4726562 q -0.393555,0.74902339 -1.053711,1.19335932 -0.660156,0.44433594 -1.51709,0.44433594 -0.755371,0 -1.32666,-0.26660156 -0.564941,-0.26660156 -0.933105,-0.72363281 -0.368164,-0.45703129 -0.552246,-1.06640629 -0.177735,-0.609375 -0.177735,-1.2885742 0,-0.609375 0.19043,-1.1933594 0.196777,-0.590332 0.571289,-1.0600585 0.361816,-0.4506836 0.89502,-0.7236329 0.53955,-0.2792968 1.206054,-0.2792968 0.685547,0 1.174317,0.2158203 0.488769,0.2158203 0.793457,0.590332 0.291992,0.3554688 0.43164,0.8378906 0.145996,0.4824219 0.145996,1.0473633 l 0,0.4189453 -4.145019,0 q 0,0.6157227 0.114258,1.1171875 0.120605,0.5014649 0.374511,0.8823242 0.247559,0.36816411 0.647461,0.58398442 0.399903,0.20947266 0.952149,0.20947266 0.564941,0 0.971191,-0.26025391 0.412598,-0.26660157 0.793457,-0.95214847 l 0.444336,0.2729493 z M 27.880371,-3.859375 q 0,-0.3554687 -0.06348,-0.7617187 -0.05713,-0.40625 -0.19043,-0.6791993 -0.145996,-0.2919922 -0.399903,-0.4760742 -0.253906,-0.184082 -0.653808,-0.184082 -0.666504,0 -1.11084,0.5585937 -0.437988,0.5522461 -0.476074,1.5424805 l 2.894531,0 z" /><path
                               id="path451"
                               style=""
                               d="m 37.121582,1.9677734 -3.383301,0 0,-11.6098632 3.383301,0 0,0.5776367 -2.253418,0 0,10.4482422 2.253418,0 0,0.5839843 z" /><path
                               id="path453"
                               style=""
                               d="m 48.725098,0 -3.053223,0 0,-0.41894531 q 0.145996,-0.0126953 0.291992,-0.0253906 0.152344,-0.0126953 0.266602,-0.0507813 0.177734,-0.0571289 0.260254,-0.19677734 0.08887,-0.1459961 0.08887,-0.37451167 l 0,-3.2309571 q 0,-0.6601562 -0.304688,-1.015625 -0.29834,-0.3618164 -0.749023,-0.3618164 -0.311035,0 -0.583984,0.095215 -0.27295,0.095215 -0.501465,0.2666015 -0.184082,0.1396485 -0.311035,0.3046875 -0.120606,0.1586914 -0.184083,0.2666016 l 0,3.6118164 q 0,0.22216796 0.07617,0.36816405 0.07617,0.13964844 0.260254,0.21582031 0.145996,0.0571289 0.260254,0.0888672 0.120606,0.0253906 0.311035,0.0380859 l 0,0.41894531 -2.989746,0 0,-0.41894531 q 0.145996,-0.0126953 0.279297,-0.0253906 0.139649,-0.0126953 0.253906,-0.0507813 0.177735,-0.0571289 0.260254,-0.19677734 0.08887,-0.1459961 0.08887,-0.37451167 l 0,-3.2309571 q 0,-0.6601562 -0.304687,-1.015625 -0.29834,-0.3618164 -0.749023,-0.3618164 -0.311036,0 -0.583985,0.1015625 -0.272949,0.095215 -0.501465,0.2666016 -0.184082,0.1396484 -0.311035,0.3173828 -0.126953,0.1713867 -0.19043,0.2602539 l 0,3.5864258 q 0,0.21582029 0.08887,0.36181638 0.08887,0.1459961 0.266601,0.22216797 0.133301,0.0634766 0.272949,0.0952148 0.139649,0.0317383 0.311036,0.0444336 l 0,0.41894531 -3.040528,0 0,-0.41894531 q 0.145996,-0.0126953 0.29834,-0.0253906 0.158691,-0.0126953 0.272949,-0.0507813 0.177735,-0.0571289 0.260254,-0.19677734 0.08887,-0.1459961 0.08887,-0.37451167 l 0,-3.8911133 q 0,-0.203125 -0.09521,-0.3618164 -0.08887,-0.1650391 -0.253907,-0.2792969 -0.120605,-0.076172 -0.29834,-0.1206055 -0.177734,-0.050781 -0.368164,-0.063477 l 0,-0.4125977 2.094727,-0.1396484 0.08887,0.088867 0,0.8950195 0.04443,0 q 0.158691,-0.1586914 0.387207,-0.3745117 0.228515,-0.2158203 0.425293,-0.3491211 0.222168,-0.1523438 0.552246,-0.2539063 0.336426,-0.1015625 0.723633,-0.1015625 0.609375,0 1.047363,0.3300781 0.437988,0.3237305 0.628418,0.7871094 0.228516,-0.2221679 0.399902,-0.387207 0.177735,-0.1713867 0.463379,-0.3618164 0.241211,-0.1650391 0.564942,-0.2666016 0.330078,-0.1015625 0.72998,-0.1015625 0.793457,0 1.256836,0.5205078 0.463379,0.5205078 0.463379,1.5996094 l 0,3.1801758 q 0,0.22216796 0.07617,0.36816405 0.07617,0.13964844 0.260254,0.21582031 0.145996,0.0571289 0.285644,0.0888672 0.145996,0.0253906 0.323731,0.0380859 L 48.725098,0 Z" /><path
                               id="path455"
                               style=""
                               d="m 52.481934,0 -3.027832,0 0,-0.41894531 q 0.145996,-0.0126953 0.298339,-0.0253906 0.158692,-0.0126953 0.27295,-0.0507813 0.177734,-0.0571289 0.260254,-0.19677734 0.08887,-0.1459961 0.08887,-0.37451167 l 0,-3.8657227 q 0,-0.203125 -0.09522,-0.3681641 -0.08887,-0.1713867 -0.253906,-0.2856445 -0.120606,-0.076172 -0.349121,-0.1269531 -0.228516,-0.057129 -0.418946,-0.069824 l 0,-0.4125977 2.208985,-0.1396484 0.08887,0.088867 0,5.1035156 q 0,0.22216794 0.08252,0.36816404 0.08887,0.14599609 0.27295,0.21582031 0.139648,0.0571289 0.272949,0.0952148 0.133301,0.0317383 0.29834,0.0444336 L 52.481934,0 Z m -0.799805,-8.8041992 q 0,0.3618164 -0.241211,0.6347656 -0.234863,0.2666016 -0.583984,0.2666016 -0.323731,0 -0.564942,-0.2539063 -0.234863,-0.2602539 -0.234863,-0.590332 0,-0.3491211 0.234863,-0.609375 0.241211,-0.2602539 0.564942,-0.2602539 0.361816,0 0.590332,0.2475586 0.234863,0.2412109 0.234863,0.5649414 z" /><path
                               id="path457"
                               style=""
                               d="m 60.150879,0 -3.065918,0 0,-0.41894531 q 0.145996,-0.0126953 0.317383,-0.0253906 0.177734,-0.0126953 0.291992,-0.0507813 0.177734,-0.0571289 0.260254,-0.19677734 0.08887,-0.1459961 0.08887,-0.37451167 l 0,-3.2182618 q 0,-0.6665039 -0.317383,-1.0283203 -0.311035,-0.3618164 -0.761719,-0.3618164 -0.336425,0 -0.615722,0.1079102 -0.279297,0.1015625 -0.495117,0.2539062 -0.209473,0.1459961 -0.336426,0.3173828 -0.120606,0.1650391 -0.177735,0.2666016 l 0,3.5991211 q 0,0.2158203 0.08887,0.35546874 0.08887,0.13964844 0.266601,0.21582031 0.133301,0.0634766 0.285645,0.0952148 0.158691,0.0317383 0.32373,0.0444336 l 0,0.41894531 -3.065918,0 0,-0.41894531 q 0.145996,-0.0126953 0.29834,-0.0253906 0.158691,-0.0126953 0.272949,-0.0507813 0.177735,-0.0571289 0.260254,-0.19677734 0.08887,-0.1459961 0.08887,-0.37451167 l 0,-3.8657227 q 0,-0.2158203 -0.09521,-0.3935547 -0.08887,-0.184082 -0.253907,-0.2983398 -0.120605,-0.076172 -0.285644,-0.1079102 -0.165039,-0.038086 -0.355469,-0.050781 l 0,-0.4125977 2.082031,-0.1396484 0.08887,0.088867 0,0.8823242 0.03174,0 q 0.152343,-0.1523438 0.380859,-0.3618164 0.228516,-0.2158203 0.431641,-0.3491211 0.234863,-0.1523438 0.558593,-0.2539063 0.323731,-0.1015625 0.729981,-0.1015625 0.901367,0 1.333008,0.5649414 0.437988,0.5585938 0.437988,1.4916992 l 0,3.2563477 q 0,0.22216797 0.07617,0.36181641 0.07617,0.13330078 0.260254,0.20947265 0.152344,0.0634766 0.260254,0.0888672 0.114258,0.0253906 0.311035,0.0380859 L 60.150879,0 Z" /><path
                               id="path459"
                               style=""
                               d="m 67.619629,-0.11425781 -2.037598,0.13964844 -0.09521,-0.08886719 0,-0.79345703 -0.03809,0 q -0.152343,0.1586914 -0.342773,0.34277343 -0.19043,0.17773438 -0.437988,0.32373047 -0.285645,0.17138672 -0.552246,0.26025391 -0.266602,0.08886719 -0.755371,0.08886719 -0.831543,0 -1.269532,-0.53955079 -0.43164,-0.54589843 -0.43164,-1.58056642 l 0,-2.9960937 q 0,-0.2285157 -0.08887,-0.3808594 -0.08252,-0.1586914 -0.247558,-0.2729492 -0.114258,-0.076172 -0.285645,-0.1079102 -0.171386,-0.038086 -0.361816,-0.050781 l 0,-0.4125977 2.088379,-0.1523437 0.09522,0.088867 0,4.3481445 q 0,0.6791992 0.304687,1.02197264 0.304688,0.34277344 0.729981,0.34277344 0.349121,0 0.62207,-0.10791016 0.272949,-0.10791016 0.457031,-0.25390625 0.171387,-0.13330077 0.29834,-0.27929687 0.133301,-0.1523438 0.203125,-0.2792969 l 0,-3.5483398 q 0,-0.2094727 -0.08887,-0.3681641 -0.08887,-0.165039 -0.247559,-0.2792969 -0.114258,-0.076172 -0.342773,-0.088867 -0.222168,-0.019043 -0.501465,-0.031738 l 0,-0.4125977 2.272461,-0.1523437 0.09522,0.088867 0,4.9702148 q 0,0.2158203 0.08887,0.36816406 0.08887,0.15234375 0.247559,0.2602539 0.114257,0.0698242 0.272949,0.0952148 0.158691,0.019043 0.349121,0.0253906 l 0,0.41259766 z" /><path
                               id="path461"
                               style=""
                               d="m 72.244629,-0.27294922 q -0.412598,0.17138672 -0.780762,0.28564453 -0.368164,0.12060547 -0.901367,0.12060547 -0.787109,0 -1.11084,-0.39355469 -0.317383,-0.39990234 -0.317383,-1.12353519 l 0,-4.2402343 -1.129882,0 0,-0.609375 1.155273,0 0,-1.9487305 1.155273,0 0,1.9487305 1.796387,0 0,0.609375 -1.783691,0 0,3.4975586 q 0,0.3935546 0.02539,0.6601562 0.03174,0.2602539 0.139649,0.4570313 0.101562,0.18408199 0.304687,0.27929683 0.203125,0.0952148 0.545899,0.0952148 0.158691,0 0.463379,-0.0253906 0.311035,-0.0317383 0.437988,-0.0761719 l 0,0.4633789 z" /><path
                               id="path463"
                               style=""
                               d="m 78.423828,-1.4726562 q -0.393555,0.74902339 -1.053711,1.19335932 -0.660156,0.44433594 -1.51709,0.44433594 -0.755371,0 -1.32666,-0.26660156 -0.564941,-0.26660156 -0.933105,-0.72363281 -0.368164,-0.45703129 -0.552246,-1.06640629 -0.177735,-0.609375 -0.177735,-1.2885742 0,-0.609375 0.19043,-1.1933594 0.196777,-0.590332 0.571289,-1.0600585 0.361816,-0.4506836 0.89502,-0.7236329 0.53955,-0.2792968 1.206054,-0.2792968 0.685547,0 1.174317,0.2158203 0.488769,0.2158203 0.793457,0.590332 0.291992,0.3554688 0.43164,0.8378906 0.145996,0.4824219 0.145996,1.0473633 l 0,0.4189453 -4.145019,0 q 0,0.6157227 0.114258,1.1171875 0.120605,0.5014649 0.374511,0.8823242 0.247559,0.36816411 0.647461,0.58398442 0.399903,0.20947266 0.952149,0.20947266 0.564941,0 0.971191,-0.26025391 0.412598,-0.26660157 0.793457,-0.95214847 l 0.444336,0.2729493 z M 77.020996,-3.859375 q 0,-0.3554687 -0.06348,-0.7617187 -0.05713,-0.40625 -0.19043,-0.6791993 -0.145996,-0.2919922 -0.399903,-0.4760742 -0.253906,-0.184082 -0.653808,-0.184082 -0.666504,0 -1.11084,0.5585937 -0.437988,0.5522461 -0.476074,1.5424805 l 2.894531,0 z" /><path
                               id="path465"
                               style=""
                               d="m 82.496094,1.9677734 -3.383301,0 0,-0.5839843 2.253418,0 0,-10.4482422 -2.253418,0 0,-0.5776367 3.383301,0 0,11.6098632 z" /></g></g></g><g
                         transform="matrix(1.3328125,0,0,1.3328125,729.04844,91.297656)"
                         id="g342" /><g
                         transform="matrix(1.3328125,0,0,1.3328125,729.04844,91.297656)"
                         id="g344" /><g
                         transform="matrix(1.3328125,0,0,1.3328125,729.04844,91.297656)"
                         id="g346"><g
                           id="g348"><g
                             id="text350"
                             style="font-variant:normal;font-weight:normal;font-size:13px;font-family:Georgia;-inkscape-font-specification:Georgia;writing-mode:lr-tb;fill:#000000;fill-opacity:1;fill-rule:nonzero;stroke:none"><path
                               id="path468"
                               style=""
                               d="m 6.1762695,-5.5161133 q 0.3745117,0.444336 0.5776367,1.034668 0.2094727,0.5839844 0.2094727,1.3393555 0,0.7426757 -0.2475586,1.3583984 -0.2475586,0.609375 -0.6538086,1.04101562 -0.425293,0.43798828 -0.9458008,0.67285156 -0.5205078,0.23486328 -1.1044922,0.23486328 -0.5649414,0 -0.9267578,-0.12695312 -0.3618164,-0.12695313 -0.590332,-0.29833985 l -0.050781,0 0,1.87890621 q 0,0.2285157 0.088867,0.3808594 0.088867,0.1523438 0.2729493,0.222168 0.1523437,0.057129 0.4316406,0.1079101 0.2856445,0.057129 0.4697266,0.063477 l 0,0.425293 -3.49755864,0 0,-0.425293 Q 0.40625,2.3803711 0.59033203,2.3613281 0.77441406,2.3422852 0.92041016,2.2978516 1.1108398,2.234375 1.1870117,2.0756836 1.2631836,1.9169922 1.2631836,1.7011719 l 0,-6.6586914 q 0,-0.1904297 -0.095215,-0.3681641 Q 1.0727539,-5.503418 0.92041016,-5.6113281 0.80615234,-5.6875 0.60302734,-5.7255859 q -0.203125,-0.044434 -0.39355468,-0.057129 l 0,-0.4125977 2.13281254,-0.1396484 0.088867,0.076172 0,0.7045899 0.050781,0.012695 q 0.3300781,-0.3808594 0.8188477,-0.6347656 0.4887695,-0.2539063 0.9711914,-0.2539063 0.5839843,0 1.0664062,0.2475586 0.4887695,0.2475586 0.8378906,0.6665039 z M 5.1416016,-1.015625 q 0.2539062,-0.3935547 0.3745117,-0.9140625 0.1206054,-0.5205078 0.1206054,-1.1616211 0,-0.4697266 -0.1015625,-0.9584961 Q 5.4335937,-4.5385742 5.2177734,-4.9003906 5.0019531,-5.2685547 4.652832,-5.4970703 4.3037109,-5.7255859 3.8149414,-5.7255859 q -0.4697266,0 -0.7998047,0.2094726 -0.3300781,0.203125 -0.571289,0.4887696 l 0,3.7006835 q 0.057129,0.1713868 0.184082,0.35546879 0.1333008,0.18408204 0.2919922,0.31738282 0.1967773,0.1586914 0.4252929,0.2602539 0.2285157,0.0952148 0.5585938,0.0952148 0.3554687,0 0.6855469,-0.18408204 0.3300781,-0.19042968 0.5522461,-0.53320312 z" /><path
                               id="path470"
                               style=""
                               d="m 17.368652,0 -3.738769,0 0,-0.45068359 q 0.152344,-0.0126953 0.437988,-0.0380859 0.291992,-0.0253906 0.399902,-0.0761719 0.19043,-0.0761719 0.279297,-0.22851562 0.08887,-0.15869141 0.08887,-0.40624997 l 0,-3.2055664 -4.233887,0 0,3.1357422 q 0,0.2221679 0.06982,0.37451167 0.07617,0.15234375 0.291992,0.26660156 0.10791,0.0571289 0.38086,0.11425781 0.279296,0.0571289 0.437988,0.0634766 l 0,0.45068359 -3.7387697,0 0,-0.45068359 q 0.1523438,-0.0126953 0.4379883,-0.0380859 0.2919922,-0.0253906 0.3999023,-0.0761719 0.1904297,-0.0761719 0.2792969,-0.22851562 Q 9.25,-0.95214844 9.25,-1.199707 l 0,-6.5 q 0,-0.203125 -0.08252,-0.3681641 -0.08252,-0.1713867 -0.2856446,-0.2666016 -0.1713867,-0.08252 -0.4189453,-0.1459961 -0.2412109,-0.063477 -0.4189453,-0.076172 l 0,-0.4506836 3.7387697,0 0,0.4506836 q -0.177735,0.00635 -0.437988,0.057129 -0.253907,0.050781 -0.38086,0.095215 -0.21582,0.076172 -0.291992,0.2539063 -0.06982,0.1777344 -0.06982,0.387207 l 0,2.7929688 4.233887,0 0,-2.7294922 q 0,-0.203125 -0.08252,-0.3681641 -0.08252,-0.1713867 -0.285645,-0.2666016 -0.171386,-0.08252 -0.418945,-0.1459961 -0.241211,-0.063477 -0.418945,-0.076172 l 0,-0.4506836 3.738769,0 0,0.4506836 q -0.177734,0.00635 -0.437988,0.057129 -0.253906,0.050781 -0.380859,0.095215 -0.215821,0.076172 -0.291993,0.2539063 -0.06982,0.1777344 -0.06982,0.387207 l 0,6.4936524 q 0,0.2221679 0.06982,0.37451167 0.07617,0.15234375 0.291993,0.26660156 0.10791,0.0571289 0.380859,0.11425781 0.279297,0.0571289 0.437988,0.0634766 L 17.368652,0 Z" /></g></g></g><g
                         transform="scale(1.3328125,1.3328125)"
                         id="g354"><path
                           id="path356"
                           style="fill:none;stroke:#0072bd;stroke-width:6;stroke-linecap:round;stroke-linejoin:round;stroke-miterlimit:10;stroke-dasharray:none;stroke-opacity:1"
                           d="m 570.5,64.5 34,0" /></g><g
                         transform="scale(1.3328125,1.3328125)"
                         id="g358" /><g
                         transform="scale(1.3328125,1.3328125)"
                         id="g360"><path
                           id="path362"
                           style="fill:none;stroke:#0072bd;stroke-width:6;stroke-linecap:round;stroke-linejoin:round;stroke-miterlimit:10;stroke-dasharray:none;stroke-opacity:1"
                           d="m 60.5,390.2 1.2,-6.9 3.6,-19 3.6,-16.3 6.7,-24.4 6.6,-18.7 6.6,-15.1 10.8,-19.3 10.8,-15.1 20.1,-21.4 20.1,-16.2 20.1,-13.2 20.1,-11.1 20.1,-9.6 20.1,-8.3 40.3,-14.2 63.7,-17.4 63.7,-13.9 63.8,-11.5 63.7,-9.9 63.7,-8.5 29,-3.6" /></g><g
                         transform="scale(1.3328125,1.3328125)"
                         id="g364" /><g
                         transform="scale(1.3328125,1.3328125)"
                         id="g366"><path
                           id="path368"
                           style="fill:none;stroke:#000000;stroke-width:4;stroke-linecap:round;stroke-linejoin:round;stroke-miterlimit:10;stroke-dasharray:none;stroke-opacity:1"
                           d="m 60.5,50.5 0,345 558,0 0,-345 -558,0 z" /></g></g></g><g
                     id="g370"><g
                       id="g372" /></g></g></g></g></g></g></g></g></g></svg>