<?xml version="1.0" encoding="UTF-8" standalone="no"?>
<svg
   xmlns:dc="http://purl.org/dc/elements/1.1/"
   xmlns:cc="http://creativecommons.org/ns#"
   xmlns:rdf="http://www.w3.org/1999/02/22-rdf-syntax-ns#"
   xmlns:svg="http://www.w3.org/2000/svg"
   xmlns="http://www.w3.org/2000/svg"
   viewBox="0 0 805.33331 497.33334"
   height="497.33334"
   width="805.33331"
   xml:space="preserve"
   id="svg2"
   version="1.1"><metadata
     id="metadata8"><rdf:RDF><cc:Work
         rdf:about=""><dc:format>image/svg+xml</dc:format><dc:type
           rdf:resource="http://purl.org/dc/dcmitype/StillImage" /></cc:Work></rdf:RDF></metadata><defs
     id="defs6"><clipPath
       id="clipPath20"
       clipPathUnits="userSpaceOnUse"><path
         id="path18"
         d="M 0,0 H 640 V 480 H 0 Z" /></clipPath><clipPath
       id="clipPath38"
       clipPathUnits="userSpaceOnUse"><path
         style="clip-rule:evenodd"
         id="path36"
         d="M 0,0 H 1280 V 960 H 0 Z" /></clipPath></defs><g
     transform="matrix(1.3333333,0,0,-1.3333333,0,497.33333)"
     id="g10"><g
       transform="translate(-9,-49)"
       id="g12"><g
         id="g14"><g
           clip-path="url(#clipPath20)"
           id="g16"><g
             transform="matrix(0.5,0,0,-0.5,0,480)"
             id="g22"><g
               id="g24"><g
                 id="g26" /></g><g
               id="g28"><g
                 id="g30" /></g><g
               id="g32"><g
                 clip-path="url(#clipPath38)"
                 id="g34"><g
                   id="g40" /><g
                   id="g42" /><g
                   transform="scale(2)"
                   id="g44"><path
                     id="path46"
                     style="fill:none;stroke:#a0a0a4;stroke-width:0.5;stroke-linecap:round;stroke-linejoin:round;stroke-miterlimit:10;stroke-dasharray:0.5, 1;stroke-dashoffset:0;stroke-opacity:1"
                     d="m 126.5,361.5 h 477" /><path
                     id="path48"
                     style="fill:none;stroke:#000000;stroke-width:4;stroke-linecap:round;stroke-linejoin:round;stroke-miterlimit:10;stroke-dasharray:none;stroke-opacity:1"
                     d="m 126.5,361.5 h 9" /><path
                     id="path50"
                     style="fill:none;stroke:#000000;stroke-width:4;stroke-linecap:round;stroke-linejoin:round;stroke-miterlimit:10;stroke-dasharray:none;stroke-opacity:1"
                     d="m 603.5,361.5 h -9" /></g><g
                   transform="matrix(2,0,0,2,192,736)"
                   id="g52" /><g
                   transform="matrix(2,0,0,2,192,736)"
                   id="g54" /><g
                   transform="matrix(2,0,0,2,192,736)"
                   id="g56"><g
                     id="g58"><g
                       id="text62"
                       style="font-variant:normal;font-weight:normal;font-size:20px;font-family:'DejaVu Serif';-inkscape-font-specification:DejaVuSerif;writing-mode:lr-tb;fill:#000000;fill-opacity:1;fill-rule:nonzero;stroke:none"
                       aria-label="	0"><path
                         id="path494"
                         style=""
                         d="m 12.701172,-0.68359375 q 1.494141,0 2.236328,-1.64062505 0.742188,-1.640625 0.742188,-4.9511718 0,-3.3203124 -0.742188,-4.9609374 -0.742187,-1.640625 -2.236328,-1.640625 -1.494141,0 -2.236328,1.640625 -0.7421877,1.640625 -0.7421877,4.9609374 0,3.3105468 0.7421877,4.9511718 0.742187,1.64062505 2.236328,1.64062505 z m 0,0.96679688 q -2.373047,0 -3.7109376,-1.99218753 -1.328125,-1.9921875 -1.328125,-5.5664062 0,-3.5839844 1.328125,-5.5761724 1.3378906,-1.992187 3.7109376,-1.992187 2.382812,0 3.710937,1.992187 1.328125,1.992188 1.328125,5.5761724 0,3.5742187 -1.328125,5.5664062 -1.328125,1.99218753 -3.710937,1.99218753 z" /></g></g></g><g
                   transform="scale(2)"
                   id="g64"><path
                     id="path66"
                     style="fill:none;stroke:#a0a0a4;stroke-width:0.5;stroke-linecap:round;stroke-linejoin:round;stroke-miterlimit:10;stroke-dasharray:0.5, 1;stroke-dashoffset:0;stroke-opacity:1"
                     d="m 126.5,312.5 h 477" /><path
                     id="path68"
                     style="fill:none;stroke:#000000;stroke-width:4;stroke-linecap:round;stroke-linejoin:round;stroke-miterlimit:10;stroke-dasharray:none;stroke-opacity:1"
                     d="m 126.5,312.5 h 9" /><path
                     id="path70"
                     style="fill:none;stroke:#000000;stroke-width:4;stroke-linecap:round;stroke-linejoin:round;stroke-miterlimit:10;stroke-dasharray:none;stroke-opacity:1"
                     d="m 603.5,312.5 h -9" /></g><g
                   transform="matrix(2,0,0,2,102,638)"
                   id="g72" /><g
                   transform="matrix(2,0,0,2,102,638)"
                   id="g74" /><g
                   transform="matrix(2,0,0,2,102,638)"
                   id="g76"><g
                     id="g78"><g
                       id="text82"
                       style="font-variant:normal;font-weight:normal;font-size:20px;font-family:'DejaVu Serif';-inkscape-font-specification:DejaVuSerif;writing-mode:lr-tb;fill:#000000;fill-opacity:1;fill-rule:nonzero;stroke:none"
                       aria-label="	0.005"><path
                         id="path497"
                         style=""
                         d="m 12.701172,-0.68359375 q 1.494141,0 2.236328,-1.64062505 0.742188,-1.640625 0.742188,-4.9511718 0,-3.3203124 -0.742188,-4.9609374 -0.742187,-1.640625 -2.236328,-1.640625 -1.494141,0 -2.236328,1.640625 -0.7421877,1.640625 -0.7421877,4.9609374 0,3.3105468 0.7421877,4.9511718 0.742187,1.64062505 2.236328,1.64062505 z m 0,0.96679688 q -2.373047,0 -3.7109376,-1.99218753 -1.328125,-1.9921875 -1.328125,-5.5664062 0,-3.5839844 1.328125,-5.5761724 1.3378906,-1.992187 3.7109376,-1.992187 2.382812,0 3.710937,1.992187 1.328125,1.992188 1.328125,5.5761724 0,3.5742187 -1.328125,5.5664062 -1.328125,1.99218753 -3.710937,1.99218753 z" /><path
                         id="path499"
                         style=""
                         d="m 20.947266,-1.015625 q 0,-0.546875 0.371093,-0.9277344 0.371094,-0.3808594 0.927735,-0.3808594 0.537109,0 0.917968,0.3808594 0.38086,0.3808594 0.38086,0.9277344 0,0.53710937 -0.38086,0.91796875 -0.380859,0.38085938 -0.917968,0.38085938 -0.556641,0 -0.927735,-0.37109375 Q 20.947266,-0.46875 20.947266,-1.015625 Z" /><path
                         id="path501"
                         style=""
                         d="m 31.763672,-0.68359375 q 1.49414,0 2.236328,-1.64062505 0.742187,-1.640625 0.742187,-4.9511718 0,-3.3203124 -0.742187,-4.9609374 -0.742188,-1.640625 -2.236328,-1.640625 -1.494141,0 -2.236328,1.640625 -0.742188,1.640625 -0.742188,4.9609374 0,3.3105468 0.742188,4.9511718 0.742187,1.64062505 2.236328,1.64062505 z m 0,0.96679688 q -2.373047,0 -3.710938,-1.99218753 -1.328125,-1.9921875 -1.328125,-5.5664062 0,-3.5839844 1.328125,-5.5761724 1.337891,-1.992187 3.710938,-1.992187 2.382812,0 3.710937,1.992187 1.328125,1.992188 1.328125,5.5761724 0,3.5742187 -1.328125,5.5664062 -1.328125,1.99218753 -3.710937,1.99218753 z" /><path
                         id="path503"
                         style=""
                         d="m 44.482422,-0.68359375 q 1.49414,0 2.236328,-1.64062505 0.742187,-1.640625 0.742187,-4.9511718 0,-3.3203124 -0.742187,-4.9609374 -0.742188,-1.640625 -2.236328,-1.640625 -1.494141,0 -2.236328,1.640625 -0.742188,1.640625 -0.742188,4.9609374 0,3.3105468 0.742188,4.9511718 0.742187,1.64062505 2.236328,1.64062505 z m 0,0.96679688 q -2.373047,0 -3.710938,-1.99218753 -1.328125,-1.9921875 -1.328125,-5.5664062 0,-3.5839844 1.328125,-5.5761724 1.337891,-1.992187 3.710938,-1.992187 2.382812,0 3.710937,1.992187 1.328125,1.992188 1.328125,5.5761724 0,3.5742187 -1.328125,5.5664062 -1.328125,1.99218753 -3.710937,1.99218753 z" /><path
                         id="path505"
                         style=""
                         d="m 60.902344,-14.580078 v 1.601562 h -6.679688 v 4.1796879 q 0.507813,-0.3515625 1.181641,-0.5273438 0.683594,-0.1757812 1.523437,-0.1757812 2.363282,0 3.730469,1.3085937 1.367188,1.3085938 1.367188,3.5742188 0,2.3144531 -1.386719,3.6132812 -1.376953,1.28906253 -3.876953,1.28906253 -1.00586,0 -2.060547,-0.24414063 -1.054688,-0.24414063 -2.158203,-0.7421875 v -2.8320313 h 1.103515 q 0.08789,1.3867188 0.878907,2.1191407 0.800781,0.73242185 2.236328,0.73242185 1.542968,0 2.373047,-1.01562495 0.830078,-1.0156251 0.830078,-2.9199219 0,-1.8945313 -0.830078,-2.9003906 -0.820313,-1.0156251 -2.373047,-1.0156251 -0.878907,0 -1.552735,0.3125 -0.664062,0.3125001 -1.18164,0.9667969 H 53.1875 v -7.3242186 z" /></g></g></g><g
                   transform="scale(2)"
                   id="g84"><path
                     id="path86"
                     style="fill:none;stroke:#a0a0a4;stroke-width:0.5;stroke-linecap:round;stroke-linejoin:round;stroke-miterlimit:10;stroke-dasharray:0.5, 1;stroke-dashoffset:0;stroke-opacity:1"
                     d="m 126.5,262.5 h 477" /><path
                     id="path88"
                     style="fill:none;stroke:#000000;stroke-width:4;stroke-linecap:round;stroke-linejoin:round;stroke-miterlimit:10;stroke-dasharray:none;stroke-opacity:1"
                     d="m 126.5,262.5 h 9" /><path
                     id="path90"
                     style="fill:none;stroke:#000000;stroke-width:4;stroke-linecap:round;stroke-linejoin:round;stroke-miterlimit:10;stroke-dasharray:none;stroke-opacity:1"
                     d="m 603.5,262.5 h -9" /></g><g
                   transform="matrix(2,0,0,2,132,540)"
                   id="g92" /><g
                   transform="matrix(2,0,0,2,132,540)"
                   id="g94" /><g
                   transform="matrix(2,0,0,2,132,540)"
                   id="g96"><g
                     id="g98"><g
                       id="text102"
                       style="font-variant:normal;font-weight:normal;font-size:20px;font-family:'DejaVu Serif';-inkscape-font-specification:DejaVuSerif;writing-mode:lr-tb;fill:#000000;fill-opacity:1;fill-rule:nonzero;stroke:none"
                       aria-label="	0.01"><path
                         id="path508"
                         style=""
                         d="m 12.701172,-0.68359375 q 1.494141,0 2.236328,-1.64062505 0.742188,-1.640625 0.742188,-4.9511718 0,-3.3203124 -0.742188,-4.9609374 -0.742187,-1.640625 -2.236328,-1.640625 -1.494141,0 -2.236328,1.640625 -0.7421877,1.640625 -0.7421877,4.9609374 0,3.3105468 0.7421877,4.9511718 0.742187,1.64062505 2.236328,1.64062505 z m 0,0.96679688 q -2.373047,0 -3.7109376,-1.99218753 -1.328125,-1.9921875 -1.328125,-5.5664062 0,-3.5839844 1.328125,-5.5761724 1.3378906,-1.992187 3.7109376,-1.992187 2.382812,0 3.710937,1.992187 1.328125,1.992188 1.328125,5.5761724 0,3.5742187 -1.328125,5.5664062 -1.328125,1.99218753 -3.710937,1.99218753 z" /><path
                         id="path510"
                         style=""
                         d="m 20.947266,-1.015625 q 0,-0.546875 0.371093,-0.9277344 0.371094,-0.3808594 0.927735,-0.3808594 0.537109,0 0.917968,0.3808594 0.38086,0.3808594 0.38086,0.9277344 0,0.53710937 -0.38086,0.91796875 -0.380859,0.38085938 -0.917968,0.38085938 -0.556641,0 -0.927735,-0.37109375 Q 20.947266,-0.46875 20.947266,-1.015625 Z" /><path
                         id="path512"
                         style=""
                         d="m 31.763672,-0.68359375 q 1.49414,0 2.236328,-1.64062505 0.742187,-1.640625 0.742187,-4.9511718 0,-3.3203124 -0.742187,-4.9609374 -0.742188,-1.640625 -2.236328,-1.640625 -1.494141,0 -2.236328,1.640625 -0.742188,1.640625 -0.742188,4.9609374 0,3.3105468 0.742188,4.9511718 0.742187,1.64062505 2.236328,1.64062505 z m 0,0.96679688 q -2.373047,0 -3.710938,-1.99218753 -1.328125,-1.9921875 -1.328125,-5.5664062 0,-3.5839844 1.328125,-5.5761724 1.337891,-1.992187 3.710938,-1.992187 2.382812,0 3.710937,1.992187 1.328125,1.992188 1.328125,5.5761724 0,3.5742187 -1.328125,5.5664062 -1.328125,1.99218753 -3.710937,1.99218753 z" /><path
                         id="path514"
                         style=""
                         d="m 40.966797,0 v -1.0351562 h 2.539062 V -13.164063 l -2.939453,1.904297 v -1.279297 l 3.554688,-2.304687 h 1.347656 v 13.8085938 h 2.539062 V 0 Z" /></g></g></g><g
                   transform="scale(2)"
                   id="g104"><path
                     id="path106"
                     style="fill:none;stroke:#a0a0a4;stroke-width:0.5;stroke-linecap:round;stroke-linejoin:round;stroke-miterlimit:10;stroke-dasharray:0.5, 1;stroke-dashoffset:0;stroke-opacity:1"
                     d="m 126.5,213.5 h 477" /><path
                     id="path108"
                     style="fill:none;stroke:#000000;stroke-width:4;stroke-linecap:round;stroke-linejoin:round;stroke-miterlimit:10;stroke-dasharray:none;stroke-opacity:1"
                     d="m 126.5,213.5 h 9" /><path
                     id="path110"
                     style="fill:none;stroke:#000000;stroke-width:4;stroke-linecap:round;stroke-linejoin:round;stroke-miterlimit:10;stroke-dasharray:none;stroke-opacity:1"
                     d="m 603.5,213.5 h -9" /></g><g
                   transform="matrix(2,0,0,2,102,442)"
                   id="g112" /><g
                   transform="matrix(2,0,0,2,102,442)"
                   id="g114" /><g
                   transform="matrix(2,0,0,2,102,442)"
                   id="g116"><g
                     id="g118"><g
                       id="text122"
                       style="font-variant:normal;font-weight:normal;font-size:20px;font-family:'DejaVu Serif';-inkscape-font-specification:DejaVuSerif;writing-mode:lr-tb;fill:#000000;fill-opacity:1;fill-rule:nonzero;stroke:none"
                       aria-label="	0.015"><path
                         id="path517"
                         style=""
                         d="m 12.701172,-0.68359375 q 1.494141,0 2.236328,-1.64062505 0.742188,-1.640625 0.742188,-4.9511718 0,-3.3203124 -0.742188,-4.9609374 -0.742187,-1.640625 -2.236328,-1.640625 -1.494141,0 -2.236328,1.640625 -0.7421877,1.640625 -0.7421877,4.9609374 0,3.3105468 0.7421877,4.9511718 0.742187,1.64062505 2.236328,1.64062505 z m 0,0.96679688 q -2.373047,0 -3.7109376,-1.99218753 -1.328125,-1.9921875 -1.328125,-5.5664062 0,-3.5839844 1.328125,-5.5761724 1.3378906,-1.992187 3.7109376,-1.992187 2.382812,0 3.710937,1.992187 1.328125,1.992188 1.328125,5.5761724 0,3.5742187 -1.328125,5.5664062 -1.328125,1.99218753 -3.710937,1.99218753 z" /><path
                         id="path519"
                         style=""
                         d="m 20.947266,-1.015625 q 0,-0.546875 0.371093,-0.9277344 0.371094,-0.3808594 0.927735,-0.3808594 0.537109,0 0.917968,0.3808594 0.38086,0.3808594 0.38086,0.9277344 0,0.53710937 -0.38086,0.91796875 -0.380859,0.38085938 -0.917968,0.38085938 -0.556641,0 -0.927735,-0.37109375 Q 20.947266,-0.46875 20.947266,-1.015625 Z" /><path
                         id="path521"
                         style=""
                         d="m 31.763672,-0.68359375 q 1.49414,0 2.236328,-1.64062505 0.742187,-1.640625 0.742187,-4.9511718 0,-3.3203124 -0.742187,-4.9609374 -0.742188,-1.640625 -2.236328,-1.640625 -1.494141,0 -2.236328,1.640625 -0.742188,1.640625 -0.742188,4.9609374 0,3.3105468 0.742188,4.9511718 0.742187,1.64062505 2.236328,1.64062505 z m 0,0.96679688 q -2.373047,0 -3.710938,-1.99218753 -1.328125,-1.9921875 -1.328125,-5.5664062 0,-3.5839844 1.328125,-5.5761724 1.337891,-1.992187 3.710938,-1.992187 2.382812,0 3.710937,1.992187 1.328125,1.992188 1.328125,5.5761724 0,3.5742187 -1.328125,5.5664062 -1.328125,1.99218753 -3.710937,1.99218753 z" /><path
                         id="path523"
                         style=""
                         d="m 40.966797,0 v -1.0351562 h 2.539062 V -13.164063 l -2.939453,1.904297 v -1.279297 l 3.554688,-2.304687 h 1.347656 v 13.8085938 h 2.539062 V 0 Z" /><path
                         id="path525"
                         style=""
                         d="m 60.902344,-14.580078 v 1.601562 h -6.679688 v 4.1796879 q 0.507813,-0.3515625 1.181641,-0.5273438 0.683594,-0.1757812 1.523437,-0.1757812 2.363282,0 3.730469,1.3085937 1.367188,1.3085938 1.367188,3.5742188 0,2.3144531 -1.386719,3.6132812 -1.376953,1.28906253 -3.876953,1.28906253 -1.00586,0 -2.060547,-0.24414063 -1.054688,-0.24414063 -2.158203,-0.7421875 v -2.8320313 h 1.103515 q 0.08789,1.3867188 0.878907,2.1191407 0.800781,0.73242185 2.236328,0.73242185 1.542968,0 2.373047,-1.01562495 0.830078,-1.0156251 0.830078,-2.9199219 0,-1.8945313 -0.830078,-2.9003906 -0.820313,-1.0156251 -2.373047,-1.0156251 -0.878907,0 -1.552735,0.3125 -0.664062,0.3125001 -1.18164,0.9667969 H 53.1875 v -7.3242186 z" /></g></g></g><g
                   transform="scale(2)"
                   id="g124"><path
                     id="path126"
                     style="fill:none;stroke:#a0a0a4;stroke-width:0.5;stroke-linecap:round;stroke-linejoin:round;stroke-miterlimit:10;stroke-dasharray:0.5, 1;stroke-dashoffset:0;stroke-opacity:1"
                     d="m 126.5,164.5 h 477" /><path
                     id="path128"
                     style="fill:none;stroke:#000000;stroke-width:4;stroke-linecap:round;stroke-linejoin:round;stroke-miterlimit:10;stroke-dasharray:none;stroke-opacity:1"
                     d="m 126.5,164.5 h 9" /><path
                     id="path130"
                     style="fill:none;stroke:#000000;stroke-width:4;stroke-linecap:round;stroke-linejoin:round;stroke-miterlimit:10;stroke-dasharray:none;stroke-opacity:1"
                     d="m 603.5,164.5 h -9" /></g><g
                   transform="matrix(2,0,0,2,130,342)"
                   id="g132" /><g
                   transform="matrix(2,0,0,2,130,342)"
                   id="g134" /><g
                   transform="matrix(2,0,0,2,130,342)"
                   id="g136"><g
                     id="g138"><g
                       id="text142"
                       style="font-variant:normal;font-weight:normal;font-size:20px;font-family:'DejaVu Serif';-inkscape-font-specification:DejaVuSerif;writing-mode:lr-tb;fill:#000000;fill-opacity:1;fill-rule:nonzero;stroke:none"
                       aria-label="	0.02"><path
                         id="path528"
                         style=""
                         d="m 12.701172,-0.68359375 q 1.494141,0 2.236328,-1.64062505 0.742188,-1.640625 0.742188,-4.9511718 0,-3.3203124 -0.742188,-4.9609374 -0.742187,-1.640625 -2.236328,-1.640625 -1.494141,0 -2.236328,1.640625 -0.7421877,1.640625 -0.7421877,4.9609374 0,3.3105468 0.7421877,4.9511718 0.742187,1.64062505 2.236328,1.64062505 z m 0,0.96679688 q -2.373047,0 -3.7109376,-1.99218753 -1.328125,-1.9921875 -1.328125,-5.5664062 0,-3.5839844 1.328125,-5.5761724 1.3378906,-1.992187 3.7109376,-1.992187 2.382812,0 3.710937,1.992187 1.328125,1.992188 1.328125,5.5761724 0,3.5742187 -1.328125,5.5664062 -1.328125,1.99218753 -3.710937,1.99218753 z" /><path
                         id="path530"
                         style=""
                         d="m 20.947266,-1.015625 q 0,-0.546875 0.371093,-0.9277344 0.371094,-0.3808594 0.927735,-0.3808594 0.537109,0 0.917968,0.3808594 0.38086,0.3808594 0.38086,0.9277344 0,0.53710937 -0.38086,0.91796875 -0.380859,0.38085938 -0.917968,0.38085938 -0.556641,0 -0.927735,-0.37109375 Q 20.947266,-0.46875 20.947266,-1.015625 Z" /><path
                         id="path532"
                         style=""
                         d="m 31.763672,-0.68359375 q 1.49414,0 2.236328,-1.64062505 0.742187,-1.640625 0.742187,-4.9511718 0,-3.3203124 -0.742187,-4.9609374 -0.742188,-1.640625 -2.236328,-1.640625 -1.494141,0 -2.236328,1.640625 -0.742188,1.640625 -0.742188,4.9609374 0,3.3105468 0.742188,4.9511718 0.742187,1.64062505 2.236328,1.64062505 z m 0,0.96679688 q -2.373047,0 -3.710938,-1.99218753 -1.328125,-1.9921875 -1.328125,-5.5664062 0,-3.5839844 1.328125,-5.5761724 1.337891,-1.992187 3.710938,-1.992187 2.382812,0 3.710937,1.992187 1.328125,1.992188 1.328125,5.5761724 0,3.5742187 -1.328125,5.5664062 -1.328125,1.99218753 -3.710937,1.99218753 z" /><path
                         id="path534"
                         style=""
                         d="m 40.683594,-11.103516 h -1.09375 v -2.597656 q 1.044922,-0.556641 2.099609,-0.849609 1.064453,-0.292969 2.080078,-0.292969 2.275391,0 3.59375,1.103516 1.31836,1.103515 1.31836,2.998046 0,2.1386724 -2.988282,5.117188 -0.234375,0.2246094 -0.351562,0.3417969 l -3.681641,3.6816406 h 6.083985 v -1.796875 h 1.142578 V 0 h -9.404297 v -1.0644531 l 4.423828,-4.4140625 q 1.464844,-1.4648438 2.089844,-2.6855469 0.625,-1.2304688 0.625,-2.5781255 0,-1.474609 -0.771485,-2.304687 -0.761718,-0.830078 -2.109375,-0.830078 -1.396484,0 -2.158203,0.693359 -0.761719,0.69336 -0.898437,2.080078 z" /></g></g></g><g
                   transform="scale(2)"
                   id="g144"><path
                     id="path146"
                     style="fill:none;stroke:#a0a0a4;stroke-width:0.5;stroke-linecap:round;stroke-linejoin:round;stroke-miterlimit:10;stroke-dasharray:0.5, 1;stroke-dashoffset:0;stroke-opacity:1"
                     d="m 126.5,115.5 h 300" /><path
                     id="path148"
                     style="fill:none;stroke:#a0a0a4;stroke-width:0.5;stroke-linecap:round;stroke-linejoin:round;stroke-miterlimit:10;stroke-dasharray:0.5, 1;stroke-dashoffset:0;stroke-opacity:1"
                     d="m 591.5,115.5 h 12" /><path
                     id="path150"
                     style="fill:none;stroke:#000000;stroke-width:4;stroke-linecap:round;stroke-linejoin:round;stroke-miterlimit:10;stroke-dasharray:none;stroke-opacity:1"
                     d="m 126.5,115.5 h 9" /><path
                     id="path152"
                     style="fill:none;stroke:#000000;stroke-width:4;stroke-linecap:round;stroke-linejoin:round;stroke-miterlimit:10;stroke-dasharray:none;stroke-opacity:1"
                     d="m 603.5,115.5 h -9" /></g><g
                   transform="matrix(2,0,0,2,102,244)"
                   id="g154" /><g
                   transform="matrix(2,0,0,2,102,244)"
                   id="g156" /><g
                   transform="matrix(2,0,0,2,102,244)"
                   id="g158"><g
                     id="g160"><g
                       id="text164"
                       style="font-variant:normal;font-weight:normal;font-size:20px;font-family:'DejaVu Serif';-inkscape-font-specification:DejaVuSerif;writing-mode:lr-tb;fill:#000000;fill-opacity:1;fill-rule:nonzero;stroke:none"
                       aria-label="	0.025"><path
                         id="path537"
                         style=""
                         d="m 12.701172,-0.68359375 q 1.494141,0 2.236328,-1.64062505 0.742188,-1.640625 0.742188,-4.9511718 0,-3.3203124 -0.742188,-4.9609374 -0.742187,-1.640625 -2.236328,-1.640625 -1.494141,0 -2.236328,1.640625 -0.7421877,1.640625 -0.7421877,4.9609374 0,3.3105468 0.7421877,4.9511718 0.742187,1.64062505 2.236328,1.64062505 z m 0,0.96679688 q -2.373047,0 -3.7109376,-1.99218753 -1.328125,-1.9921875 -1.328125,-5.5664062 0,-3.5839844 1.328125,-5.5761724 1.3378906,-1.992187 3.7109376,-1.992187 2.382812,0 3.710937,1.992187 1.328125,1.992188 1.328125,5.5761724 0,3.5742187 -1.328125,5.5664062 -1.328125,1.99218753 -3.710937,1.99218753 z" /><path
                         id="path539"
                         style=""
                         d="m 20.947266,-1.015625 q 0,-0.546875 0.371093,-0.9277344 0.371094,-0.3808594 0.927735,-0.3808594 0.537109,0 0.917968,0.3808594 0.38086,0.3808594 0.38086,0.9277344 0,0.53710937 -0.38086,0.91796875 -0.380859,0.38085938 -0.917968,0.38085938 -0.556641,0 -0.927735,-0.37109375 Q 20.947266,-0.46875 20.947266,-1.015625 Z" /><path
                         id="path541"
                         style=""
                         d="m 31.763672,-0.68359375 q 1.49414,0 2.236328,-1.64062505 0.742187,-1.640625 0.742187,-4.9511718 0,-3.3203124 -0.742187,-4.9609374 -0.742188,-1.640625 -2.236328,-1.640625 -1.494141,0 -2.236328,1.640625 -0.742188,1.640625 -0.742188,4.9609374 0,3.3105468 0.742188,4.9511718 0.742187,1.64062505 2.236328,1.64062505 z m 0,0.96679688 q -2.373047,0 -3.710938,-1.99218753 -1.328125,-1.9921875 -1.328125,-5.5664062 0,-3.5839844 1.328125,-5.5761724 1.337891,-1.992187 3.710938,-1.992187 2.382812,0 3.710937,1.992187 1.328125,1.992188 1.328125,5.5761724 0,3.5742187 -1.328125,5.5664062 -1.328125,1.99218753 -3.710937,1.99218753 z" /><path
                         id="path543"
                         style=""
                         d="m 40.683594,-11.103516 h -1.09375 v -2.597656 q 1.044922,-0.556641 2.099609,-0.849609 1.064453,-0.292969 2.080078,-0.292969 2.275391,0 3.59375,1.103516 1.31836,1.103515 1.31836,2.998046 0,2.1386724 -2.988282,5.117188 -0.234375,0.2246094 -0.351562,0.3417969 l -3.681641,3.6816406 h 6.083985 v -1.796875 h 1.142578 V 0 h -9.404297 v -1.0644531 l 4.423828,-4.4140625 q 1.464844,-1.4648438 2.089844,-2.6855469 0.625,-1.2304688 0.625,-2.5781255 0,-1.474609 -0.771485,-2.304687 -0.761718,-0.830078 -2.109375,-0.830078 -1.396484,0 -2.158203,0.693359 -0.761719,0.69336 -0.898437,2.080078 z" /><path
                         id="path545"
                         style=""
                         d="m 60.902344,-14.580078 v 1.601562 h -6.679688 v 4.1796879 q 0.507813,-0.3515625 1.181641,-0.5273438 0.683594,-0.1757812 1.523437,-0.1757812 2.363282,0 3.730469,1.3085937 1.367188,1.3085938 1.367188,3.5742188 0,2.3144531 -1.386719,3.6132812 -1.376953,1.28906253 -3.876953,1.28906253 -1.00586,0 -2.060547,-0.24414063 -1.054688,-0.24414063 -2.158203,-0.7421875 v -2.8320313 h 1.103515 q 0.08789,1.3867188 0.878907,2.1191407 0.800781,0.73242185 2.236328,0.73242185 1.542968,0 2.373047,-1.01562495 0.830078,-1.0156251 0.830078,-2.9199219 0,-1.8945313 -0.830078,-2.9003906 -0.820313,-1.0156251 -2.373047,-1.0156251 -0.878907,0 -1.552735,0.3125 -0.664062,0.3125001 -1.18164,0.9667969 H 53.1875 v -7.3242186 z" /></g></g></g><g
                   transform="scale(2)"
                   id="g166"><path
                     id="path168"
                     style="fill:none;stroke:#a0a0a4;stroke-width:0.5;stroke-linecap:round;stroke-linejoin:round;stroke-miterlimit:10;stroke-dasharray:0.5, 1;stroke-dashoffset:0;stroke-opacity:1"
                     d="m 126.5,66.5 h 477" /><path
                     id="path170"
                     style="fill:none;stroke:#000000;stroke-width:4;stroke-linecap:round;stroke-linejoin:round;stroke-miterlimit:10;stroke-dasharray:none;stroke-opacity:1"
                     d="m 126.5,66.5 h 9" /><path
                     id="path172"
                     style="fill:none;stroke:#000000;stroke-width:4;stroke-linecap:round;stroke-linejoin:round;stroke-miterlimit:10;stroke-dasharray:none;stroke-opacity:1"
                     d="m 603.5,66.5 h -9" /></g><g
                   transform="matrix(2,0,0,2,128,146)"
                   id="g174" /><g
                   transform="matrix(2,0,0,2,128,146)"
                   id="g176" /><g
                   transform="matrix(2,0,0,2,128,146)"
                   id="g178"><g
                     id="g180"><g
                       id="text184"
                       style="font-variant:normal;font-weight:normal;font-size:20px;font-family:'DejaVu Serif';-inkscape-font-specification:DejaVuSerif;writing-mode:lr-tb;fill:#000000;fill-opacity:1;fill-rule:nonzero;stroke:none"
                       aria-label="	0.03"><path
                         id="path548"
                         style=""
                         d="m 12.701172,-0.68359375 q 1.494141,0 2.236328,-1.64062505 0.742188,-1.640625 0.742188,-4.9511718 0,-3.3203124 -0.742188,-4.9609374 -0.742187,-1.640625 -2.236328,-1.640625 -1.494141,0 -2.236328,1.640625 -0.7421877,1.640625 -0.7421877,4.9609374 0,3.3105468 0.7421877,4.9511718 0.742187,1.64062505 2.236328,1.64062505 z m 0,0.96679688 q -2.373047,0 -3.7109376,-1.99218753 -1.328125,-1.9921875 -1.328125,-5.5664062 0,-3.5839844 1.328125,-5.5761724 1.3378906,-1.992187 3.7109376,-1.992187 2.382812,0 3.710937,1.992187 1.328125,1.992188 1.328125,5.5761724 0,3.5742187 -1.328125,5.5664062 -1.328125,1.99218753 -3.710937,1.99218753 z" /><path
                         id="path550"
                         style=""
                         d="m 20.947266,-1.015625 q 0,-0.546875 0.371093,-0.9277344 0.371094,-0.3808594 0.927735,-0.3808594 0.537109,0 0.917968,0.3808594 0.38086,0.3808594 0.38086,0.9277344 0,0.53710937 -0.38086,0.91796875 -0.380859,0.38085938 -0.917968,0.38085938 -0.556641,0 -0.927735,-0.37109375 Q 20.947266,-0.46875 20.947266,-1.015625 Z" /><path
                         id="path552"
                         style=""
                         d="m 31.763672,-0.68359375 q 1.49414,0 2.236328,-1.64062505 0.742187,-1.640625 0.742187,-4.9511718 0,-3.3203124 -0.742187,-4.9609374 -0.742188,-1.640625 -2.236328,-1.640625 -1.494141,0 -2.236328,1.640625 -0.742188,1.640625 -0.742188,4.9609374 0,3.3105468 0.742188,4.9511718 0.742187,1.64062505 2.236328,1.64062505 z m 0,0.96679688 q -2.373047,0 -3.710938,-1.99218753 -1.328125,-1.9921875 -1.328125,-5.5664062 0,-3.5839844 1.328125,-5.5761724 1.337891,-1.992187 3.710938,-1.992187 2.382812,0 3.710937,1.992187 1.328125,1.992188 1.328125,5.5761724 0,3.5742187 -1.328125,5.5664062 -1.328125,1.99218753 -3.710937,1.99218753 z" /><path
                         id="path554"
                         style=""
                         d="m 40.068359,-13.964844 q 1.142578,-0.429687 2.1875,-0.654297 1.054688,-0.224609 1.972657,-0.224609 2.138671,0 3.339843,0.927734 1.201172,0.917969 1.201172,2.558594 0,1.318359 -0.830078,2.2070314 -0.830078,0.8789062 -2.353516,1.1914062 1.796875,0.2539063 2.783204,1.3085938 0.996093,1.0449219 0.996093,2.7148437 0,2.0410157 -1.376953,3.13476565 -1.367187,1.08398438 -3.945312,1.08398438 -1.142578,0 -2.236328,-0.24414063 -1.083985,-0.24414063 -2.158204,-0.7421875 v -2.8320313 h 1.09375 q 0.09766,1.40625 0.947266,2.1289063 0.849609,0.72265625 2.392578,0.72265625 1.494141,0 2.353516,-0.85937495 0.86914,-0.8691407 0.86914,-2.3730469 0,-1.71875 -0.888671,-2.5976563 -0.888672,-0.8886718 -2.607422,-0.8886718 h -0.927735 v -0.9960938 h 0.488282 q 1.708984,0 2.558593,-0.703125 0.859375,-0.7128906 0.859375,-2.1386715 0,-1.279297 -0.703125,-1.953125 -0.703125,-0.683594 -2.021484,-0.683594 -1.318359,0 -2.050781,0.625 -0.722657,0.625 -0.84961,1.855469 h -1.09375 z" /></g></g></g><g
                   transform="scale(2)"
                   id="g186"><path
                     id="path188"
                     style="fill:none;stroke:#a0a0a4;stroke-width:0.5;stroke-linecap:round;stroke-linejoin:round;stroke-miterlimit:10;stroke-dasharray:0.5, 1;stroke-dashoffset:0;stroke-opacity:1"
                     d="M 126.5,361.5 V 66.5" /><path
                     id="path190"
                     style="fill:none;stroke:#000000;stroke-width:4;stroke-linecap:round;stroke-linejoin:round;stroke-miterlimit:10;stroke-dasharray:none;stroke-opacity:1"
                     d="m 126.5,361.5 v -10" /><path
                     id="path192"
                     style="fill:none;stroke:#000000;stroke-width:4;stroke-linecap:round;stroke-linejoin:round;stroke-miterlimit:10;stroke-dasharray:none;stroke-opacity:1"
                     d="m 126.5,66.5 v 9" /></g><g
                   transform="matrix(2,0,0,2,234,784)"
                   id="g194" /><g
                   transform="matrix(2,0,0,2,234,784)"
                   id="g196" /><g
                   transform="matrix(2,0,0,2,234,784)"
                   id="g198"><g
                     id="g200"><g
                       id="text204"
                       style="font-variant:normal;font-weight:normal;font-size:20px;font-family:'DejaVu Serif';-inkscape-font-specification:DejaVuSerif;writing-mode:lr-tb;fill:#000000;fill-opacity:1;fill-rule:nonzero;stroke:none"
                       aria-label="	0"><path
                         id="path557"
                         style=""
                         d="m 12.701172,-0.68359375 q 1.494141,0 2.236328,-1.64062505 0.742188,-1.640625 0.742188,-4.9511718 0,-3.3203124 -0.742188,-4.9609374 -0.742187,-1.640625 -2.236328,-1.640625 -1.494141,0 -2.236328,1.640625 -0.7421877,1.640625 -0.7421877,4.9609374 0,3.3105468 0.7421877,4.9511718 0.742187,1.64062505 2.236328,1.64062505 z m 0,0.96679688 q -2.373047,0 -3.7109376,-1.99218753 -1.328125,-1.9921875 -1.328125,-5.5664062 0,-3.5839844 1.328125,-5.5761724 1.3378906,-1.992187 3.7109376,-1.992187 2.382812,0 3.710937,1.992187 1.328125,1.992188 1.328125,5.5761724 0,3.5742187 -1.328125,5.5664062 -1.328125,1.99218753 -3.710937,1.99218753 z" /></g></g></g><g
                   transform="scale(2)"
                   id="g206"><path
                     id="path208"
                     style="fill:none;stroke:#a0a0a4;stroke-width:0.5;stroke-linecap:round;stroke-linejoin:round;stroke-miterlimit:10;stroke-dasharray:0.5, 1;stroke-dashoffset:0;stroke-opacity:1"
                     d="M 173.5,361.5 V 66.5" /><path
                     id="path210"
                     style="fill:none;stroke:#000000;stroke-width:4;stroke-linecap:round;stroke-linejoin:round;stroke-miterlimit:10;stroke-dasharray:none;stroke-opacity:1"
                     d="m 173.5,361.5 v -10" /><path
                     id="path212"
                     style="fill:none;stroke:#000000;stroke-width:4;stroke-linecap:round;stroke-linejoin:round;stroke-miterlimit:10;stroke-dasharray:none;stroke-opacity:1"
                     d="m 173.5,66.5 v 9" /></g><g
                   transform="matrix(2,0,0,2,313,784)"
                   id="g214" /><g
                   transform="matrix(2,0,0,2,313,784)"
                   id="g216" /><g
                   transform="matrix(2,0,0,2,313,784)"
                   id="g218"><g
                     id="g220"><g
                       id="text224"
                       style="font-variant:normal;font-weight:normal;font-size:20px;font-family:'DejaVu Serif';-inkscape-font-specification:DejaVuSerif;writing-mode:lr-tb;fill:#000000;fill-opacity:1;fill-rule:nonzero;stroke:none"
                       aria-label="	0.1"><path
                         id="path560"
                         style=""
                         d="m 12.701172,-0.68359375 q 1.494141,0 2.236328,-1.64062505 0.742188,-1.640625 0.742188,-4.9511718 0,-3.3203124 -0.742188,-4.9609374 -0.742187,-1.640625 -2.236328,-1.640625 -1.494141,0 -2.236328,1.640625 -0.7421877,1.640625 -0.7421877,4.9609374 0,3.3105468 0.7421877,4.9511718 0.742187,1.64062505 2.236328,1.64062505 z m 0,0.96679688 q -2.373047,0 -3.7109376,-1.99218753 -1.328125,-1.9921875 -1.328125,-5.5664062 0,-3.5839844 1.328125,-5.5761724 1.3378906,-1.992187 3.7109376,-1.992187 2.382812,0 3.710937,1.992187 1.328125,1.992188 1.328125,5.5761724 0,3.5742187 -1.328125,5.5664062 -1.328125,1.99218753 -3.710937,1.99218753 z" /><path
                         id="path562"
                         style=""
                         d="m 20.947266,-1.015625 q 0,-0.546875 0.371093,-0.9277344 0.371094,-0.3808594 0.927735,-0.3808594 0.537109,0 0.917968,0.3808594 0.38086,0.3808594 0.38086,0.9277344 0,0.53710937 -0.38086,0.91796875 -0.380859,0.38085938 -0.917968,0.38085938 -0.556641,0 -0.927735,-0.37109375 Q 20.947266,-0.46875 20.947266,-1.015625 Z" /><path
                         id="path564"
                         style=""
                         d="m 28.248047,0 v -1.0351562 h 2.539062 V -13.164063 l -2.939453,1.904297 v -1.279297 l 3.554688,-2.304687 H 32.75 v 13.8085938 h 2.539062 V 0 Z" /></g></g></g><g
                   transform="scale(2)"
                   id="g226"><path
                     id="path228"
                     style="fill:none;stroke:#a0a0a4;stroke-width:0.5;stroke-linecap:round;stroke-linejoin:round;stroke-miterlimit:10;stroke-dasharray:0.5, 1;stroke-dashoffset:0;stroke-opacity:1"
                     d="M 221.5,361.5 V 66.5" /><path
                     id="path230"
                     style="fill:none;stroke:#000000;stroke-width:4;stroke-linecap:round;stroke-linejoin:round;stroke-miterlimit:10;stroke-dasharray:none;stroke-opacity:1"
                     d="m 221.5,361.5 v -10" /><path
                     id="path232"
                     style="fill:none;stroke:#000000;stroke-width:4;stroke-linecap:round;stroke-linejoin:round;stroke-miterlimit:10;stroke-dasharray:none;stroke-opacity:1"
                     d="m 221.5,66.5 v 9" /></g><g
                   transform="matrix(2,0,0,2,408,784)"
                   id="g234" /><g
                   transform="matrix(2,0,0,2,408,784)"
                   id="g236" /><g
                   transform="matrix(2,0,0,2,408,784)"
                   id="g238"><g
                     id="g240"><g
                       id="text244"
                       style="font-variant:normal;font-weight:normal;font-size:20px;font-family:'DejaVu Serif';-inkscape-font-specification:DejaVuSerif;writing-mode:lr-tb;fill:#000000;fill-opacity:1;fill-rule:nonzero;stroke:none"
                       aria-label="	0.2"><path
                         id="path567"
                         style=""
                         d="m 12.701172,-0.68359375 q 1.494141,0 2.236328,-1.64062505 0.742188,-1.640625 0.742188,-4.9511718 0,-3.3203124 -0.742188,-4.9609374 -0.742187,-1.640625 -2.236328,-1.640625 -1.494141,0 -2.236328,1.640625 -0.7421877,1.640625 -0.7421877,4.9609374 0,3.3105468 0.7421877,4.9511718 0.742187,1.64062505 2.236328,1.64062505 z m 0,0.96679688 q -2.373047,0 -3.7109376,-1.99218753 -1.328125,-1.9921875 -1.328125,-5.5664062 0,-3.5839844 1.328125,-5.5761724 1.3378906,-1.992187 3.7109376,-1.992187 2.382812,0 3.710937,1.992187 1.328125,1.992188 1.328125,5.5761724 0,3.5742187 -1.328125,5.5664062 -1.328125,1.99218753 -3.710937,1.99218753 z" /><path
                         id="path569"
                         style=""
                         d="m 20.947266,-1.015625 q 0,-0.546875 0.371093,-0.9277344 0.371094,-0.3808594 0.927735,-0.3808594 0.537109,0 0.917968,0.3808594 0.38086,0.3808594 0.38086,0.9277344 0,0.53710937 -0.38086,0.91796875 -0.380859,0.38085938 -0.917968,0.38085938 -0.556641,0 -0.927735,-0.37109375 Q 20.947266,-0.46875 20.947266,-1.015625 Z" /><path
                         id="path571"
                         style=""
                         d="m 27.964844,-11.103516 h -1.09375 v -2.597656 q 1.044922,-0.556641 2.099609,-0.849609 1.064453,-0.292969 2.080078,-0.292969 2.275391,0 3.59375,1.103516 1.31836,1.103515 1.31836,2.998046 0,2.1386724 -2.988282,5.117188 -0.234375,0.2246094 -0.351562,0.3417969 l -3.681641,3.6816406 h 6.083985 v -1.796875 h 1.142578 V 0 H 26.763672 V -1.0644531 L 31.1875,-5.4785156 q 1.464844,-1.4648438 2.089844,-2.6855469 0.625,-1.2304688 0.625,-2.5781255 0,-1.474609 -0.771485,-2.304687 -0.761718,-0.830078 -2.109375,-0.830078 -1.396484,0 -2.158203,0.693359 -0.761719,0.69336 -0.898437,2.080078 z" /></g></g></g><g
                   transform="scale(2)"
                   id="g246"><path
                     id="path248"
                     style="fill:none;stroke:#a0a0a4;stroke-width:0.5;stroke-linecap:round;stroke-linejoin:round;stroke-miterlimit:10;stroke-dasharray:0.5, 1;stroke-dashoffset:0;stroke-opacity:1"
                     d="M 269.5,361.5 V 66.5" /><path
                     id="path250"
                     style="fill:none;stroke:#000000;stroke-width:4;stroke-linecap:round;stroke-linejoin:round;stroke-miterlimit:10;stroke-dasharray:none;stroke-opacity:1"
                     d="m 269.5,361.5 v -10" /><path
                     id="path252"
                     style="fill:none;stroke:#000000;stroke-width:4;stroke-linecap:round;stroke-linejoin:round;stroke-miterlimit:10;stroke-dasharray:none;stroke-opacity:1"
                     d="m 269.5,66.5 v 9" /></g><g
                   transform="matrix(2,0,0,2,501,784)"
                   id="g254" /><g
                   transform="matrix(2,0,0,2,501,784)"
                   id="g256" /><g
                   transform="matrix(2,0,0,2,501,784)"
                   id="g258"><g
                     id="g260"><g
                       id="text264"
                       style="font-variant:normal;font-weight:normal;font-size:20px;font-family:'DejaVu Serif';-inkscape-font-specification:DejaVuSerif;writing-mode:lr-tb;fill:#000000;fill-opacity:1;fill-rule:nonzero;stroke:none"
                       aria-label="	0.3"><path
                         id="path574"
                         style=""
                         d="m 12.701172,-0.68359375 q 1.494141,0 2.236328,-1.64062505 0.742188,-1.640625 0.742188,-4.9511718 0,-3.3203124 -0.742188,-4.9609374 -0.742187,-1.640625 -2.236328,-1.640625 -1.494141,0 -2.236328,1.640625 -0.7421877,1.640625 -0.7421877,4.9609374 0,3.3105468 0.7421877,4.9511718 0.742187,1.64062505 2.236328,1.64062505 z m 0,0.96679688 q -2.373047,0 -3.7109376,-1.99218753 -1.328125,-1.9921875 -1.328125,-5.5664062 0,-3.5839844 1.328125,-5.5761724 1.3378906,-1.992187 3.7109376,-1.992187 2.382812,0 3.710937,1.992187 1.328125,1.992188 1.328125,5.5761724 0,3.5742187 -1.328125,5.5664062 -1.328125,1.99218753 -3.710937,1.99218753 z" /><path
                         id="path576"
                         style=""
                         d="m 20.947266,-1.015625 q 0,-0.546875 0.371093,-0.9277344 0.371094,-0.3808594 0.927735,-0.3808594 0.537109,0 0.917968,0.3808594 0.38086,0.3808594 0.38086,0.9277344 0,0.53710937 -0.38086,0.91796875 -0.380859,0.38085938 -0.917968,0.38085938 -0.556641,0 -0.927735,-0.37109375 Q 20.947266,-0.46875 20.947266,-1.015625 Z" /><path
                         id="path578"
                         style=""
                         d="m 27.349609,-13.964844 q 1.142578,-0.429687 2.1875,-0.654297 1.054688,-0.224609 1.972657,-0.224609 2.138671,0 3.339843,0.927734 1.201172,0.917969 1.201172,2.558594 0,1.318359 -0.830078,2.2070314 -0.830078,0.8789062 -2.353516,1.1914062 1.796875,0.2539063 2.783204,1.3085938 0.996093,1.0449219 0.996093,2.7148437 0,2.0410157 -1.376953,3.13476565 -1.367187,1.08398438 -3.945312,1.08398438 -1.142578,0 -2.236328,-0.24414063 -1.083985,-0.24414063 -2.158204,-0.7421875 v -2.8320313 h 1.09375 q 0.09766,1.40625 0.947266,2.1289063 0.849609,0.72265625 2.392578,0.72265625 1.494141,0 2.353516,-0.85937495 0.86914,-0.8691407 0.86914,-2.3730469 0,-1.71875 -0.888671,-2.5976563 -0.888672,-0.8886718 -2.607422,-0.8886718 h -0.927735 v -0.9960938 h 0.488282 q 1.708984,0 2.558593,-0.703125 0.859375,-0.7128906 0.859375,-2.1386715 0,-1.279297 -0.703125,-1.953125 -0.703125,-0.683594 -2.021484,-0.683594 -1.318359,0 -2.050781,0.625 -0.722657,0.625 -0.84961,1.855469 h -1.09375 z" /></g></g></g><g
                   transform="scale(2)"
                   id="g266"><path
                     id="path268"
                     style="fill:none;stroke:#a0a0a4;stroke-width:0.5;stroke-linecap:round;stroke-linejoin:round;stroke-miterlimit:10;stroke-dasharray:0.5, 1;stroke-dashoffset:0;stroke-opacity:1"
                     d="M 317.5,361.5 V 66.5" /><path
                     id="path270"
                     style="fill:none;stroke:#000000;stroke-width:4;stroke-linecap:round;stroke-linejoin:round;stroke-miterlimit:10;stroke-dasharray:none;stroke-opacity:1"
                     d="m 317.5,361.5 v -10" /><path
                     id="path272"
                     style="fill:none;stroke:#000000;stroke-width:4;stroke-linecap:round;stroke-linejoin:round;stroke-miterlimit:10;stroke-dasharray:none;stroke-opacity:1"
                     d="m 317.5,66.5 v 9" /></g><g
                   transform="matrix(2,0,0,2,597,784)"
                   id="g274" /><g
                   transform="matrix(2,0,0,2,597,784)"
                   id="g276" /><g
                   transform="matrix(2,0,0,2,597,784)"
                   id="g278"><g
                     id="g280"><g
                       id="text284"
                       style="font-variant:normal;font-weight:normal;font-size:20px;font-family:'DejaVu Serif';-inkscape-font-specification:DejaVuSerif;writing-mode:lr-tb;fill:#000000;fill-opacity:1;fill-rule:nonzero;stroke:none"
                       aria-label="	0.4"><path
                         id="path581"
                         style=""
                         d="m 12.701172,-0.68359375 q 1.494141,0 2.236328,-1.64062505 0.742188,-1.640625 0.742188,-4.9511718 0,-3.3203124 -0.742188,-4.9609374 -0.742187,-1.640625 -2.236328,-1.640625 -1.494141,0 -2.236328,1.640625 -0.7421877,1.640625 -0.7421877,4.9609374 0,3.3105468 0.7421877,4.9511718 0.742187,1.64062505 2.236328,1.64062505 z m 0,0.96679688 q -2.373047,0 -3.7109376,-1.99218753 -1.328125,-1.9921875 -1.328125,-5.5664062 0,-3.5839844 1.328125,-5.5761724 1.3378906,-1.992187 3.7109376,-1.992187 2.382812,0 3.710937,1.992187 1.328125,1.992188 1.328125,5.5761724 0,3.5742187 -1.328125,5.5664062 -1.328125,1.99218753 -3.710937,1.99218753 z" /><path
                         id="path583"
                         style=""
                         d="m 20.947266,-1.015625 q 0,-0.546875 0.371093,-0.9277344 0.371094,-0.3808594 0.927735,-0.3808594 0.537109,0 0.917968,0.3808594 0.38086,0.3808594 0.38086,0.9277344 0,0.53710937 -0.38086,0.91796875 -0.380859,0.38085938 -0.917968,0.38085938 -0.556641,0 -0.927735,-0.37109375 Q 20.947266,-0.46875 20.947266,-1.015625 Z" /><path
                         id="path585"
                         style=""
                         d="m 32.388672,-4.9414062 v -7.7539068 l -4.980469,7.7539068 z M 36.685547,0 h -6.640625 v -1.0351562 h 2.34375 v -2.8613282 h -6.367188 v -1.0644531 l 6.386719,-9.8828125 h 1.933594 v 9.9023438 H 37.125 v 1.0449218 h -2.783203 v 2.8613282 h 2.34375 z" /></g></g></g><g
                   transform="scale(2)"
                   id="g286"><path
                     id="path288"
                     style="fill:none;stroke:#a0a0a4;stroke-width:0.5;stroke-linecap:round;stroke-linejoin:round;stroke-miterlimit:10;stroke-dasharray:0.5, 1;stroke-dashoffset:0;stroke-opacity:1"
                     d="M 365.5,361.5 V 66.5" /><path
                     id="path290"
                     style="fill:none;stroke:#000000;stroke-width:4;stroke-linecap:round;stroke-linejoin:round;stroke-miterlimit:10;stroke-dasharray:none;stroke-opacity:1"
                     d="m 365.5,361.5 v -10" /><path
                     id="path292"
                     style="fill:none;stroke:#000000;stroke-width:4;stroke-linecap:round;stroke-linejoin:round;stroke-miterlimit:10;stroke-dasharray:none;stroke-opacity:1"
                     d="m 365.5,66.5 v 9" /></g><g
                   transform="matrix(2,0,0,2,693,784)"
                   id="g294" /><g
                   transform="matrix(2,0,0,2,693,784)"
                   id="g296" /><g
                   transform="matrix(2,0,0,2,693,784)"
                   id="g298"><g
                     id="g300"><g
                       id="text304"
                       style="font-variant:normal;font-weight:normal;font-size:20px;font-family:'DejaVu Serif';-inkscape-font-specification:DejaVuSerif;writing-mode:lr-tb;fill:#000000;fill-opacity:1;fill-rule:nonzero;stroke:none"
                       aria-label="	0.5"><path
                         id="path588"
                         style=""
                         d="m 12.701172,-0.68359375 q 1.494141,0 2.236328,-1.64062505 0.742188,-1.640625 0.742188,-4.9511718 0,-3.3203124 -0.742188,-4.9609374 -0.742187,-1.640625 -2.236328,-1.640625 -1.494141,0 -2.236328,1.640625 -0.7421877,1.640625 -0.7421877,4.9609374 0,3.3105468 0.7421877,4.9511718 0.742187,1.64062505 2.236328,1.64062505 z m 0,0.96679688 q -2.373047,0 -3.7109376,-1.99218753 -1.328125,-1.9921875 -1.328125,-5.5664062 0,-3.5839844 1.328125,-5.5761724 1.3378906,-1.992187 3.7109376,-1.992187 2.382812,0 3.710937,1.992187 1.328125,1.992188 1.328125,5.5761724 0,3.5742187 -1.328125,5.5664062 -1.328125,1.99218753 -3.710937,1.99218753 z" /><path
                         id="path590"
                         style=""
                         d="m 20.947266,-1.015625 q 0,-0.546875 0.371093,-0.9277344 0.371094,-0.3808594 0.927735,-0.3808594 0.537109,0 0.917968,0.3808594 0.38086,0.3808594 0.38086,0.9277344 0,0.53710937 -0.38086,0.91796875 -0.380859,0.38085938 -0.917968,0.38085938 -0.556641,0 -0.927735,-0.37109375 Q 20.947266,-0.46875 20.947266,-1.015625 Z" /><path
                         id="path592"
                         style=""
                         d="m 35.464844,-14.580078 v 1.601562 h -6.679688 v 4.1796879 q 0.507813,-0.3515625 1.181641,-0.5273438 0.683594,-0.1757812 1.523437,-0.1757812 2.363282,0 3.730469,1.3085937 1.367188,1.3085938 1.367188,3.5742188 0,2.3144531 -1.386719,3.6132812 -1.376953,1.28906253 -3.876953,1.28906253 -1.00586,0 -2.060547,-0.24414063 -1.054688,-0.24414063 -2.158203,-0.7421875 v -2.8320313 h 1.103515 q 0.08789,1.3867188 0.878907,2.1191407 0.800781,0.73242185 2.236328,0.73242185 1.542968,0 2.373047,-1.01562495 0.830078,-1.0156251 0.830078,-2.9199219 0,-1.8945313 -0.830078,-2.9003906 -0.820313,-1.0156251 -2.373047,-1.0156251 -0.878907,0 -1.552735,0.3125 -0.664062,0.3125001 -1.18164,0.9667969 H 27.75 v -7.3242186 z" /></g></g></g><g
                   transform="scale(2)"
                   id="g306"><path
                     id="path308"
                     style="fill:none;stroke:#a0a0a4;stroke-width:0.5;stroke-linecap:round;stroke-linejoin:round;stroke-miterlimit:10;stroke-dasharray:0.5, 1;stroke-dashoffset:0;stroke-opacity:1"
                     d="M 412.5,361.5 V 66.5" /><path
                     id="path310"
                     style="fill:none;stroke:#000000;stroke-width:4;stroke-linecap:round;stroke-linejoin:round;stroke-miterlimit:10;stroke-dasharray:none;stroke-opacity:1"
                     d="m 412.5,361.5 v -10" /><path
                     id="path312"
                     style="fill:none;stroke:#000000;stroke-width:4;stroke-linecap:round;stroke-linejoin:round;stroke-miterlimit:10;stroke-dasharray:none;stroke-opacity:1"
                     d="m 412.5,66.5 v 9" /></g><g
                   transform="matrix(2,0,0,2,789,784)"
                   id="g314" /><g
                   transform="matrix(2,0,0,2,789,784)"
                   id="g316" /><g
                   transform="matrix(2,0,0,2,789,784)"
                   id="g318"><g
                     id="g320"><g
                       id="text324"
                       style="font-variant:normal;font-weight:normal;font-size:20px;font-family:'DejaVu Serif';-inkscape-font-specification:DejaVuSerif;writing-mode:lr-tb;fill:#000000;fill-opacity:1;fill-rule:nonzero;stroke:none"
                       aria-label="	0.6"><path
                         id="path595"
                         style=""
                         d="m 12.701172,-0.68359375 q 1.494141,0 2.236328,-1.64062505 0.742188,-1.640625 0.742188,-4.9511718 0,-3.3203124 -0.742188,-4.9609374 -0.742187,-1.640625 -2.236328,-1.640625 -1.494141,0 -2.236328,1.640625 -0.7421877,1.640625 -0.7421877,4.9609374 0,3.3105468 0.7421877,4.9511718 0.742187,1.64062505 2.236328,1.64062505 z m 0,0.96679688 q -2.373047,0 -3.7109376,-1.99218753 -1.328125,-1.9921875 -1.328125,-5.5664062 0,-3.5839844 1.328125,-5.5761724 1.3378906,-1.992187 3.7109376,-1.992187 2.382812,0 3.710937,1.992187 1.328125,1.992188 1.328125,5.5761724 0,3.5742187 -1.328125,5.5664062 -1.328125,1.99218753 -3.710937,1.99218753 z" /><path
                         id="path597"
                         style=""
                         d="m 20.947266,-1.015625 q 0,-0.546875 0.371093,-0.9277344 0.371094,-0.3808594 0.927735,-0.3808594 0.537109,0 0.917968,0.3808594 0.38086,0.3808594 0.38086,0.9277344 0,0.53710937 -0.38086,0.91796875 -0.380859,0.38085938 -0.917968,0.38085938 -0.556641,0 -0.927735,-0.37109375 Q 20.947266,-0.46875 20.947266,-1.015625 Z" /><path
                         id="path599"
                         style=""
                         d="m 31.949219,-0.68359375 q 1.376953,0 2.11914,-1.00585935 0.742188,-1.015625 0.742188,-2.9101563 0,-1.8945312 -0.742188,-2.9003906 -0.742187,-1.015625 -2.11914,-1.015625 -1.396485,0 -2.128907,0.9765625 -0.732421,0.9765625 -0.732421,2.8222656 0,1.9433594 0.742187,2.9882813 0.742188,1.04492185 2.119141,1.04492185 z M 28.765625,-8.0273438 q 0.664062,-0.7324218 1.503906,-1.09375 0.839844,-0.3613281 1.894531,-0.3613281 2.177735,0 3.4375,1.3085938 1.269532,1.3085937 1.269532,3.5742187 0,2.2167969 -1.367188,3.5546875 -1.357422,1.32812503 -3.632812,1.32812503 -2.470703,0 -3.798828,-1.83593753 -1.328125,-1.8457031 -1.328125,-5.2636718 0,-3.8281248 1.572265,-5.9277348 1.572266,-2.099609 4.433594,-2.099609 0.771484,0 1.621094,0.146484 0.849609,0.146485 1.738281,0.439453 v 2.402344 h -1.103516 q -0.117187,-0.986328 -0.751953,-1.503906 -0.634765,-0.517578 -1.708984,-0.517578 -1.894531,0 -2.822266,1.435547 -0.927734,1.435547 -0.957031,4.4140622 z" /></g></g></g><g
                   transform="scale(2)"
                   id="g326"><path
                     id="path328"
                     style="fill:none;stroke:#a0a0a4;stroke-width:0.5;stroke-linecap:round;stroke-linejoin:round;stroke-miterlimit:10;stroke-dasharray:0.5, 1;stroke-dashoffset:0;stroke-opacity:1"
                     d="m 460.5,361.5 v -238" /><path
                     id="path330"
                     style="fill:none;stroke:#a0a0a4;stroke-width:0.5;stroke-linecap:round;stroke-linejoin:round;stroke-miterlimit:10;stroke-dasharray:0.5, 1;stroke-dashoffset:0;stroke-opacity:1"
                     d="m 460.5,75.5 v -9" /><path
                     id="path332"
                     style="fill:none;stroke:#000000;stroke-width:4;stroke-linecap:round;stroke-linejoin:round;stroke-miterlimit:10;stroke-dasharray:none;stroke-opacity:1"
                     d="m 460.5,361.5 v -10" /><path
                     id="path334"
                     style="fill:none;stroke:#000000;stroke-width:4;stroke-linecap:round;stroke-linejoin:round;stroke-miterlimit:10;stroke-dasharray:none;stroke-opacity:1"
                     d="m 460.5,66.5 v 9" /></g><g
                   transform="matrix(2,0,0,2,885,784)"
                   id="g336" /><g
                   transform="matrix(2,0,0,2,885,784)"
                   id="g338" /><g
                   transform="matrix(2,0,0,2,885,784)"
                   id="g340"><g
                     id="g342"><g
                       id="text346"
                       style="font-variant:normal;font-weight:normal;font-size:20px;font-family:'DejaVu Serif';-inkscape-font-specification:DejaVuSerif;writing-mode:lr-tb;fill:#000000;fill-opacity:1;fill-rule:nonzero;stroke:none"
                       aria-label="	0.7"><path
                         id="path602"
                         style=""
                         d="m 12.701172,-0.68359375 q 1.494141,0 2.236328,-1.64062505 0.742188,-1.640625 0.742188,-4.9511718 0,-3.3203124 -0.742188,-4.9609374 -0.742187,-1.640625 -2.236328,-1.640625 -1.494141,0 -2.236328,1.640625 -0.7421877,1.640625 -0.7421877,4.9609374 0,3.3105468 0.7421877,4.9511718 0.742187,1.64062505 2.236328,1.64062505 z m 0,0.96679688 q -2.373047,0 -3.7109376,-1.99218753 -1.328125,-1.9921875 -1.328125,-5.5664062 0,-3.5839844 1.328125,-5.5761724 1.3378906,-1.992187 3.7109376,-1.992187 2.382812,0 3.710937,1.992187 1.328125,1.992188 1.328125,5.5761724 0,3.5742187 -1.328125,5.5664062 -1.328125,1.99218753 -3.710937,1.99218753 z" /><path
                         id="path604"
                         style=""
                         d="m 20.947266,-1.015625 q 0,-0.546875 0.371093,-0.9277344 0.371094,-0.3808594 0.927735,-0.3808594 0.537109,0 0.917968,0.3808594 0.38086,0.3808594 0.38086,0.9277344 0,0.53710937 -0.38086,0.91796875 -0.380859,0.38085938 -0.917968,0.38085938 -0.556641,0 -0.927735,-0.37109375 Q 20.947266,-0.46875 20.947266,-1.015625 Z" /><path
                         id="path606"
                         style=""
                         d="M 36.685547,-13.583984 30.982422,0 h -1.455078 l 5.439453,-12.978516 h -6.738281 v 1.796875 h -1.142579 v -3.398437 h 9.59961 z" /></g></g></g><g
                   transform="scale(2)"
                   id="g348"><path
                     id="path350"
                     style="fill:none;stroke:#a0a0a4;stroke-width:0.5;stroke-linecap:round;stroke-linejoin:round;stroke-miterlimit:10;stroke-dasharray:0.5, 1;stroke-dashoffset:0;stroke-opacity:1"
                     d="m 508.5,361.5 v -238" /><path
                     id="path352"
                     style="fill:none;stroke:#a0a0a4;stroke-width:0.5;stroke-linecap:round;stroke-linejoin:round;stroke-miterlimit:10;stroke-dasharray:0.5, 1;stroke-dashoffset:0;stroke-opacity:1"
                     d="m 508.5,75.5 v -9" /><path
                     id="path354"
                     style="fill:none;stroke:#000000;stroke-width:4;stroke-linecap:round;stroke-linejoin:round;stroke-miterlimit:10;stroke-dasharray:none;stroke-opacity:1"
                     d="m 508.5,361.5 v -10" /><path
                     id="path356"
                     style="fill:none;stroke:#000000;stroke-width:4;stroke-linecap:round;stroke-linejoin:round;stroke-miterlimit:10;stroke-dasharray:none;stroke-opacity:1"
                     d="m 508.5,66.5 v 9" /></g><g
                   transform="matrix(2,0,0,2,979,784)"
                   id="g358" /><g
                   transform="matrix(2,0,0,2,979,784)"
                   id="g360" /><g
                   transform="matrix(2,0,0,2,979,784)"
                   id="g362"><g
                     id="g364"><g
                       id="text368"
                       style="font-variant:normal;font-weight:normal;font-size:20px;font-family:'DejaVu Serif';-inkscape-font-specification:DejaVuSerif;writing-mode:lr-tb;fill:#000000;fill-opacity:1;fill-rule:nonzero;stroke:none"
                       aria-label="	0.8"><path
                         id="path609"
                         style=""
                         d="m 12.701172,-0.68359375 q 1.494141,0 2.236328,-1.64062505 0.742188,-1.640625 0.742188,-4.9511718 0,-3.3203124 -0.742188,-4.9609374 -0.742187,-1.640625 -2.236328,-1.640625 -1.494141,0 -2.236328,1.640625 -0.7421877,1.640625 -0.7421877,4.9609374 0,3.3105468 0.7421877,4.9511718 0.742187,1.64062505 2.236328,1.64062505 z m 0,0.96679688 q -2.373047,0 -3.7109376,-1.99218753 -1.328125,-1.9921875 -1.328125,-5.5664062 0,-3.5839844 1.328125,-5.5761724 1.3378906,-1.992187 3.7109376,-1.992187 2.382812,0 3.710937,1.992187 1.328125,1.992188 1.328125,5.5761724 0,3.5742187 -1.328125,5.5664062 -1.328125,1.99218753 -3.710937,1.99218753 z" /><path
                         id="path611"
                         style=""
                         d="m 20.947266,-1.015625 q 0,-0.546875 0.371093,-0.9277344 0.371094,-0.3808594 0.927735,-0.3808594 0.537109,0 0.917968,0.3808594 0.38086,0.3808594 0.38086,0.9277344 0,0.53710937 -0.38086,0.91796875 -0.380859,0.38085938 -0.917968,0.38085938 -0.556641,0 -0.927735,-0.37109375 Q 20.947266,-0.46875 20.947266,-1.015625 Z" /><path
                         id="path613"
                         style=""
                         d="m 34.722656,-3.984375 q 0,-1.5625 -0.78125,-2.421875 -0.771484,-0.8691406 -2.177734,-0.8691406 -1.40625,0 -2.1875,0.8691406 -0.771485,0.859375 -0.771485,2.421875 0,1.5722656 0.771485,2.4414063 0.78125,0.85937495 2.1875,0.85937495 1.40625,0 2.177734,-0.85937495 0.78125,-0.8691407 0.78125,-2.4414063 z m -0.40039,-7.080078 q 0,-1.328125 -0.673829,-2.070313 -0.673828,-0.742187 -1.884765,-0.742187 -1.201172,0 -1.884766,0.742187 -0.673828,0.742188 -0.673828,2.070313 0,1.3378905 0.673828,2.080078 0.683594,0.7421875 1.884766,0.7421875 1.210937,0 1.884765,-0.7421875 0.673829,-0.7421875 0.673829,-2.080078 z m -1.054688,3.3007811 q 1.660156,0.2246094 2.587891,1.2304688 0.927734,0.9960937 0.927734,2.5488281 0,2.0507813 -1.298828,3.1640625 -1.298828,1.10351563 -3.720703,1.10351563 -2.41211,0 -3.720703,-1.10351563 -1.298828,-1.1132812 -1.298828,-3.1640625 0,-1.5527344 0.927734,-2.5488281 0.927734,-1.0058594 2.597656,-1.2304688 -1.474609,-0.2636719 -2.265625,-1.1132812 -0.78125,-0.859375 -0.78125,-2.1874999 0,-1.757813 1.210938,-2.763672 1.210937,-1.015625 3.330078,-1.015625 2.11914,0 3.330078,1.015625 1.210937,1.005859 1.210937,2.763672 0,1.3281249 -0.791015,2.1874999 -0.78125,0.8496093 -2.246094,1.1132812 z" /></g></g></g><g
                   transform="scale(2)"
                   id="g370"><path
                     id="path372"
                     style="fill:none;stroke:#a0a0a4;stroke-width:0.5;stroke-linecap:round;stroke-linejoin:round;stroke-miterlimit:10;stroke-dasharray:0.5, 1;stroke-dashoffset:0;stroke-opacity:1"
                     d="m 556.5,361.5 v -238" /><path
                     id="path374"
                     style="fill:none;stroke:#a0a0a4;stroke-width:0.5;stroke-linecap:round;stroke-linejoin:round;stroke-miterlimit:10;stroke-dasharray:0.5, 1;stroke-dashoffset:0;stroke-opacity:1"
                     d="m 556.5,75.5 v -9" /><path
                     id="path376"
                     style="fill:none;stroke:#000000;stroke-width:4;stroke-linecap:round;stroke-linejoin:round;stroke-miterlimit:10;stroke-dasharray:none;stroke-opacity:1"
                     d="m 556.5,361.5 v -10" /><path
                     id="path378"
                     style="fill:none;stroke:#000000;stroke-width:4;stroke-linecap:round;stroke-linejoin:round;stroke-miterlimit:10;stroke-dasharray:none;stroke-opacity:1"
                     d="m 556.5,66.5 v 9" /></g><g
                   transform="matrix(2,0,0,2,1075,784)"
                   id="g380" /><g
                   transform="matrix(2,0,0,2,1075,784)"
                   id="g382" /><g
                   transform="matrix(2,0,0,2,1075,784)"
                   id="g384"><g
                     id="g386"><g
                       id="text390"
                       style="font-variant:normal;font-weight:normal;font-size:20px;font-family:'DejaVu Serif';-inkscape-font-specification:DejaVuSerif;writing-mode:lr-tb;fill:#000000;fill-opacity:1;fill-rule:nonzero;stroke:none"
                       aria-label="	0.9"><path
                         id="path616"
                         style=""
                         d="m 12.701172,-0.68359375 q 1.494141,0 2.236328,-1.64062505 0.742188,-1.640625 0.742188,-4.9511718 0,-3.3203124 -0.742188,-4.9609374 -0.742187,-1.640625 -2.236328,-1.640625 -1.494141,0 -2.236328,1.640625 -0.7421877,1.640625 -0.7421877,4.9609374 0,3.3105468 0.7421877,4.9511718 0.742187,1.64062505 2.236328,1.64062505 z m 0,0.96679688 q -2.373047,0 -3.7109376,-1.99218753 -1.328125,-1.9921875 -1.328125,-5.5664062 0,-3.5839844 1.328125,-5.5761724 1.3378906,-1.992187 3.7109376,-1.992187 2.382812,0 3.710937,1.992187 1.328125,1.992188 1.328125,5.5761724 0,3.5742187 -1.328125,5.5664062 -1.328125,1.99218753 -3.710937,1.99218753 z" /><path
                         id="path618"
                         style=""
                         d="m 20.947266,-1.015625 q 0,-0.546875 0.371093,-0.9277344 0.371094,-0.3808594 0.927735,-0.3808594 0.537109,0 0.917968,0.3808594 0.38086,0.3808594 0.38086,0.9277344 0,0.53710937 -0.38086,0.91796875 -0.380859,0.38085938 -0.917968,0.38085938 -0.556641,0 -0.927735,-0.37109375 Q 20.947266,-0.46875 20.947266,-1.015625 Z" /><path
                         id="path620"
                         style=""
                         d="m 34.761719,-6.5332031 q -0.654297,0.7324219 -1.503907,1.09375 -0.849609,0.3613281 -1.914062,0.3613281 -2.167969,0 -3.427734,-1.3085937 -1.25,-1.3085938 -1.25,-3.5742188 0,-2.2167965 1.357421,-3.5449215 1.367188,-1.337891 3.642579,-1.337891 2.470703,0 3.789062,1.845703 1.328125,1.835938 1.328125,5.2539064 0,3.828125 -1.572266,5.9277344 -1.572265,2.09960933 -4.423828,2.09960933 -0.771484,0 -1.621093,-0.14648438 -0.84961,-0.14648438 -1.738282,-0.43945313 V -2.7246094 h 1.09375 q 0.126953,0.9863282 0.761719,1.5136719 0.634766,0.52734375 1.699219,0.52734375 1.894531,0 2.822265,-1.42578125 0.927735,-1.4355469 0.957032,-4.4238281 z m -3.173828,-7.3437499 q -1.386719,0 -2.128907,1.015625 -0.732422,1.005859 -0.732422,2.9003905 0,1.8945312 0.732422,2.9101563 0.742188,1.015625 2.128907,1.015625 1.386718,0 2.11914,-0.9765625 0.742188,-0.9863282 0.742188,-2.8320313 0,-1.943359 -0.742188,-2.988281 -0.742187,-1.044922 -2.11914,-1.044922 z" /></g></g></g><g
                   transform="scale(2)"
                   id="g392"><path
                     id="path394"
                     style="fill:none;stroke:#a0a0a4;stroke-width:0.5;stroke-linecap:round;stroke-linejoin:round;stroke-miterlimit:10;stroke-dasharray:0.5, 1;stroke-dashoffset:0;stroke-opacity:1"
                     d="M 603.5,361.5 V 66.5" /><path
                     id="path396"
                     style="fill:none;stroke:#000000;stroke-width:4;stroke-linecap:round;stroke-linejoin:round;stroke-miterlimit:10;stroke-dasharray:none;stroke-opacity:1"
                     d="m 603.5,361.5 v -10" /><path
                     id="path398"
                     style="fill:none;stroke:#000000;stroke-width:4;stroke-linecap:round;stroke-linejoin:round;stroke-miterlimit:10;stroke-dasharray:none;stroke-opacity:1"
                     d="m 603.5,66.5 v 9" /></g><g
                   transform="matrix(2,0,0,2,1192,784)"
                   id="g400" /><g
                   transform="matrix(2,0,0,2,1192,784)"
                   id="g402" /><g
                   transform="matrix(2,0,0,2,1192,784)"
                   id="g404"><g
                     id="g406"><g
                       id="text410"
                       style="font-variant:normal;font-weight:normal;font-size:20px;font-family:'DejaVu Serif';-inkscape-font-specification:DejaVuSerif;writing-mode:lr-tb;fill:#000000;fill-opacity:1;fill-rule:nonzero;stroke:none"
                       aria-label="	1"><path
                         id="path623"
                         style=""
                         d="M 9.1855469,0 V -1.0351562 H 11.724609 V -13.164063 l -2.9394527,1.904297 v -1.279297 L 12.339844,-14.84375 H 13.6875 v 13.8085938 h 2.539062 V 0 Z" /></g></g></g><g
                   transform="scale(2)"
                   id="g412"><path
                     id="path414"
                     style="fill:none;stroke:#000000;stroke-width:4;stroke-linecap:round;stroke-linejoin:round;stroke-miterlimit:10;stroke-dasharray:none;stroke-opacity:1"
                     d="m 126.5,66.5 v 295 h 477 v -295 z" /></g><g
                   transform="matrix(0,-2,2,0,50,669)"
                   id="g416" /><g
                   transform="matrix(0,-2,2,0,50,669)"
                   id="g418" /><g
                   transform="matrix(0,-2,2,0,50,669)"
                   id="g420"><g
                     id="g422"><g
                       id="text426"
                       style="font-variant:normal;font-weight:normal;font-size:20px;font-family:'DejaVu Serif';-inkscape-font-specification:DejaVuSerif;writing-mode:lr-tb;fill:#000000;fill-opacity:1;fill-rule:nonzero;stroke:none"
                       aria-label="Concentration	[mmolal]"><path
                         id="path626"
                         style=""
                         d="m 14.101563,-3.8574219 q -0.644532,2.0410157 -2.167969,3.09570315 -1.513672,1.04492188 -3.8378909,1.04492188 -1.4257812,0 -2.6464844,-0.48828126 Q 4.2285156,-0.69335937 3.28125,-1.640625 2.1875,-2.734375 1.6503906,-4.1210937 1.1230469,-5.5175781 1.1230469,-7.2753906 q 0,-3.3984374 1.9628906,-5.4785154 1.9628906,-2.089844 5.1757813,-2.089844 1.1914062,0 2.5390622,0.3125 1.347657,0.3125 2.900391,0.947266 v 3.359375 h -1.103516 q -0.361328,-1.835938 -1.455078,-2.705079 -1.083984,-0.86914 -3.0468749,-0.86914 -2.3339844,0 -3.5351562,1.660156 -1.2011719,1.650391 -1.2011719,4.8632814 0,3.203125 1.2011719,4.8632812 1.2011718,1.65039065 3.5351562,1.65039065 1.6308594,0 2.6855469,-0.77148435 1.054688,-0.78125 1.523438,-2.3242188 z" /><path
                         id="path628"
                         style=""
                         d="m 21.3125,-0.68359375 q 1.445312,0 2.177734,-1.14257815 0.742188,-1.1425781 0.742188,-3.3691406 0,-2.2265625 -0.742188,-3.359375 -0.732422,-1.1425781 -2.177734,-1.1425781 -1.445313,0 -2.1875,1.1425781 -0.732422,1.1328125 -0.732422,3.359375 0,2.2265625 0.742188,3.3691406 0.742187,1.14257815 2.177734,1.14257815 z m 0,0.96679688 q -2.265625,0 -3.642578,-1.49414063 -1.376953,-1.5039063 -1.376953,-3.984375 0,-2.4804687 1.367187,-3.9746094 1.376953,-1.4941411 3.652344,-1.4941411 2.275391,0 3.642578,1.4941411 1.376953,1.4941407 1.376953,3.9746094 0,2.4804687 -1.376953,3.984375 -1.367187,1.49414063 -3.642578,1.49414063 z" /><path
                         id="path630"
                         style=""
                         d="m 28.148437,0 v -1.0351562 h 1.621094 v -8.3007813 h -1.71875 v -1.0449215 h 3.515625 v 1.8457027 q 0.498047,-1.0546875 1.289063,-1.5917967 0.800781,-0.53711 1.855468,-0.53711 1.71875,0 2.529297,0.9863286 0.810547,0.9863281 0.810547,3.0761719 v 5.5664063 h 1.601563 V 0 h -4.960938 v -1.0351562 h 1.552735 v -5 q 0,-1.9042969 -0.46875,-2.6074219 -0.46875,-0.7128907 -1.650391,-0.7128907 -1.25,0 -1.904297,0.9179688 -0.654297,0.9082031 -0.654297,2.65625 v 4.7460938 h 1.5625 V 0 Z" /><path
                         id="path632"
                         style=""
                         d="m 50.486328,-3.1152344 q -0.380859,1.6601563 -1.464844,2.5292969 -1.083984,0.86914063 -2.802734,0.86914063 -2.265625,0 -3.642578,-1.49414063 -1.376953,-1.5039063 -1.376953,-3.984375 0,-2.4902344 1.376953,-3.9746094 1.376953,-1.4941411 3.642578,-1.4941411 0.986328,0 1.962891,0.234375 0.976562,0.22461 1.96289,0.6933599 v 2.65625 h -1.044922 q -0.205078,-1.3671875 -0.898437,-1.9921875 -0.683594,-0.625 -1.962891,-0.625 -1.455078,0 -2.197265,1.1328125 -0.742188,1.1230469 -0.742188,3.3691406 0,2.2460937 0.732422,3.3789063 0.742187,1.13281245 2.207031,1.13281245 1.16211,0 1.855469,-0.60546875 0.693359,-0.6054687 0.947266,-1.8261719 z" /><path
                         id="path634"
                         style=""
                         d="m 62.230469,-5 h -7.744141 v 0.078125 q 0,2.0996094 0.791016,3.1738281 0.791015,1.06445315 2.333984,1.06445315 1.181641,0 1.933594,-0.61523435 0.761719,-0.625 1.064453,-1.8457032 h 1.445312 q -0.429687,1.7089844 -1.591796,2.56835943 -1.152344,0.859375 -3.03711,0.859375 -2.27539,0 -3.662109,-1.49414063 -1.376953,-1.5039063 -1.376953,-3.984375 0,-2.4609375 1.357422,-3.9648438 1.357421,-1.5039067 3.564453,-1.5039067 2.353515,0 3.613281,1.4550786 Q 62.181641,-7.7636719 62.230469,-5 Z m -2.119141,-1.0351562 q -0.05859,-1.8164063 -0.771484,-2.7343751 -0.703125,-0.9277343 -2.03125,-0.9277343 -1.240235,0 -1.953125,0.9277343 -0.712891,0.9277344 -0.869141,2.7343751 z" /><path
                         id="path636"
                         style=""
                         d="m 64.039062,0 v -1.0351562 h 1.621094 v -8.3007813 h -1.71875 v -1.0449215 h 3.515625 v 1.8457027 q 0.498047,-1.0546875 1.289063,-1.5917967 0.800781,-0.53711 1.855468,-0.53711 1.71875,0 2.529297,0.9863286 0.810547,0.9863281 0.810547,3.0761719 v 5.5664063 h 1.601563 V 0 h -4.960938 v -1.0351562 h 1.552735 v -5 q 0,-1.9042969 -0.46875,-2.6074219 -0.46875,-0.7128907 -1.650391,-0.7128907 -1.25,0 -1.904297,0.9179688 -0.654297,0.9082031 -0.654297,2.65625 v 4.7460938 h 1.5625 V 0 Z" /><path
                         id="path638"
                         style=""
                         d="m 78.251953,-9.3359375 h -1.582031 v -1.0449215 h 1.582031 v -3.222657 h 1.806641 v 3.222657 H 83.4375 v 1.0449215 h -3.378906 v 6.5917969 q 0,1.3183594 0.253906,1.6894531 0.253906,0.37109375 0.9375,0.37109375 0.703125,0 1.025391,-0.41015625 0.322265,-0.4199219 0.341796,-1.3476563 h 1.357422 q -0.07813,1.4160157 -0.771484,2.07031255 -0.693359,0.65429688 -2.109375,0.65429688 -1.552734,0 -2.197266,-0.68359376 Q 78.251953,-1.09375 78.251953,-2.7441406 Z" /><path
                         id="path640"
                         style=""
                         d="m 93.685547,-10.400391 v 2.5976566 h -1.035156 q -0.04883,-0.7714844 -0.429688,-1.1523437 -0.380859,-0.3808594 -1.113281,-0.3808594 -1.328125,0 -2.041016,0.9179687 Q 88.363281,-7.5 88.363281,-5.78125 v 4.7460938 h 2.080078 V 0 h -5.498047 v -1.0351562 h 1.621094 v -8.3203126 h -1.71875 v -1.0253902 h 3.515625 v 1.8457027 q 0.527344,-1.0839843 1.357422,-1.6015627 0.830078,-0.527344 2.021484,-0.527344 0.439454,0 0.917969,0.06836 0.488281,0.06836 1.025391,0.195312 z" /><path
                         id="path642"
                         style=""
                         d="m 101.63086,-3.2617188 v -2.1972656 h -2.314454 q -1.33789,0 -1.992187,0.5761719 -0.654297,0.5761719 -0.654297,1.7675781 0,1.0839844 0.664062,1.71875 0.664063,0.63476565 1.796875,0.63476565 1.123051,0 1.806641,-0.69335935 0.69336,-0.6933594 0.69336,-1.8066407 z m 1.79687,-3.2226562 v 5.4492188 h 1.60157 V 0 h -3.39844 v -1.1230469 q -0.5957,0.72265627 -1.37695,1.06445315 -0.781254,0.34179688 -1.826176,0.34179688 -1.728515,0 -2.74414,-0.91796875 -1.015625,-0.91796878 -1.015625,-2.48046878 0,-1.6113281 1.162109,-2.5 1.162109,-0.8886718 3.28125,-0.8886718 h 2.519532 v -0.7128907 q 0,-1.1816406 -0.72266,-1.8261719 -0.71289,-0.6542968 -2.011716,-0.6542968 -1.074218,0 -1.708984,0.4882812 -0.634766,0.4882813 -0.791016,1.4453125 H 95.46875 v -2.0996094 q 0.9375,-0.4003907 1.816406,-0.5957027 0.888672,-0.205079 1.728516,-0.205079 2.158208,0 3.281248,1.0742192 1.13281,1.0644532 1.13281,3.1054688 z" /><path
                         id="path644"
                         style=""
                         d="m 107.75195,-9.3359375 h -1.58203 v -1.0449215 h 1.58203 v -3.222657 h 1.80664 v 3.222657 h 3.37891 v 1.0449215 h -3.37891 v 6.5917969 q 0,1.3183594 0.25391,1.6894531 0.25391,0.37109375 0.9375,0.37109375 0.70313,0 1.02539,-0.41015625 0.32227,-0.4199219 0.3418,-1.3476563 h 1.35742 q -0.0781,1.4160157 -0.77148,2.07031255 -0.69336,0.65429688 -2.10938,0.65429688 -1.55273,0 -2.19727,-0.68359376 -0.64453,-0.69335937 -0.64453,-2.34374997 z" /><path
                         id="path646"
                         style=""
                         d="m 115.56836,-13.603516 q 0,-0.449218 0.32227,-0.78125 0.33203,-0.332031 0.79101,-0.332031 0.44922,0 0.77149,0.332031 0.33203,0.332032 0.33203,0.78125 0,0.458985 -0.32227,0.78125 -0.32226,0.322266 -0.78125,0.322266 -0.45898,0 -0.79101,-0.322266 -0.32227,-0.322265 -0.32227,-0.78125 z m 2.29492,12.5683598 h 1.69922 V 0 h -5.21484 v -1.0351562 h 1.71875 v -8.3007813 h -1.71875 v -1.0449215 h 3.51562 z" /><path
                         id="path648"
                         style=""
                         d="m 126.03124,-0.68359375 q 1.44531,0 2.17774,-1.14257815 0.74218,-1.1425781 0.74218,-3.3691406 0,-2.2265625 -0.74218,-3.359375 -0.73243,-1.1425781 -2.17774,-1.1425781 -1.44531,0 -2.1875,1.1425781 -0.73242,1.1328125 -0.73242,3.359375 0,2.2265625 0.74219,3.3691406 0.74219,1.14257815 2.17773,1.14257815 z m 0,0.96679688 q -2.26562,0 -3.64258,-1.49414063 -1.37695,-1.5039063 -1.37695,-3.984375 0,-2.4804687 1.36719,-3.9746094 1.37695,-1.4941411 3.65234,-1.4941411 2.27539,0 3.64258,1.4941411 1.37695,1.4941407 1.37695,3.9746094 0,2.4804687 -1.37695,3.984375 -1.36719,1.49414063 -3.64258,1.49414063 z" /><path
                         id="path650"
                         style=""
                         d="m 132.86719,0 v -1.0351562 h 1.62109 v -8.3007813 h -1.71875 v -1.0449215 h 3.51563 v 1.8457027 q 0.49804,-1.0546875 1.28906,-1.5917967 0.80078,-0.53711 1.85547,-0.53711 1.71875,0 2.52929,0.9863286 0.81055,0.9863281 0.81055,3.0761719 v 5.5664063 h 1.60156 V 0 h -4.96093 v -1.0351562 h 1.55273 v -5 q 0,-1.9042969 -0.46875,-2.6074219 -0.46875,-0.7128907 -1.65039,-0.7128907 -1.25,0 -1.9043,0.9179688 -0.65429,0.9082031 -0.65429,2.65625 v 4.7460938 h 1.5625 V 0 Z" /><path
                         id="path652"
                         style=""
                         d="m 152.98437,-15.195313 h 4.54102 v 1.035157 h -2.67578 V 1.6015625 h 2.67578 v 1.0351563 h -4.54102 z" /><path
                         id="path654"
                         style=""
                         d="m 169.42383,-8.359375 q 0.51758,-1.1425781 1.31836,-1.71875 0.81054,-0.585938 1.88476,-0.585938 1.63086,0 2.43164,1.0156255 0.80078,1.0058594 0.80078,3.046875 v 5.5664063 h 1.6211 V 0 H 172.5 v -1.0351562 h 1.5625 v -5.3613282 q 0,-1.5917968 -0.46875,-2.265625 -0.46875,-0.6738281 -1.55273,-0.6738281 -1.20118,0 -1.83594,0.9082031 -0.625,0.9082032 -0.625,2.6464844 v 4.7460938 h 1.5625 V 0 h -4.92188 v -1.0351562 h 1.5625 v -5.4296875 q 0,-1.5527344 -0.46875,-2.2070313 -0.46875,-0.6640625 -1.55273,-0.6640625 -1.20117,0 -1.83594,0.9082031 -0.625,0.9082032 -0.625,2.6464844 v 4.7460938 h 1.5625 V 0 h -4.98047 v -1.0351562 h 1.6211 v -8.3203126 h -1.71875 v -1.0253902 h 3.51562 v 1.8457027 q 0.49805,-1.0351562 1.26953,-1.5820317 0.77149,-0.546875 1.74805,-0.546875 1.21094,0 2.02148,0.605469 0.81055,0.5957034 1.08399,1.699219 z" /><path
                         id="path656"
                         style=""
                         d="m 188.37695,-8.359375 q 0.51758,-1.1425781 1.31836,-1.71875 0.81055,-0.585938 1.88477,-0.585938 1.63086,0 2.43164,1.0156255 0.80078,1.0058594 0.80078,3.046875 v 5.5664063 h 1.62109 V 0 h -4.98047 v -1.0351562 h 1.5625 v -5.3613282 q 0,-1.5917968 -0.46875,-2.265625 -0.46875,-0.6738281 -1.55273,-0.6738281 -1.20117,0 -1.83594,0.9082031 -0.625,0.9082032 -0.625,2.6464844 v 4.7460938 h 1.5625 V 0 h -4.92187 v -1.0351562 h 1.5625 v -5.4296875 q 0,-1.5527344 -0.46875,-2.2070313 -0.46875,-0.6640625 -1.55274,-0.6640625 -1.20117,0 -1.83593,0.9082031 -0.625,0.9082032 -0.625,2.6464844 v 4.7460938 h 1.5625 V 0 h -4.98047 v -1.0351562 h 1.62109 v -8.3203126 h -1.71875 v -1.0253902 h 3.51563 v 1.8457027 q 0.49804,-1.0351562 1.26953,-1.5820317 0.77148,-0.546875 1.74804,-0.546875 1.21094,0 2.02149,0.605469 0.81055,0.5957034 1.08398,1.699219 z" /><path
                         id="path658"
                         style=""
                         d="m 202.98437,-0.68359375 q 1.44532,0 2.17774,-1.14257815 0.74219,-1.1425781 0.74219,-3.3691406 0,-2.2265625 -0.74219,-3.359375 -0.73242,-1.1425781 -2.17774,-1.1425781 -1.44531,0 -2.1875,1.1425781 -0.73242,1.1328125 -0.73242,3.359375 0,2.2265625 0.74219,3.3691406 0.74219,1.14257815 2.17773,1.14257815 z m 0,0.96679688 q -2.26562,0 -3.64257,-1.49414063 -1.37696,-1.5039063 -1.37696,-3.984375 0,-2.4804687 1.36719,-3.9746094 1.37695,-1.4941411 3.65234,-1.4941411 2.2754,0 3.64258,1.4941411 1.37696,1.4941407 1.37696,3.9746094 0,2.4804687 -1.37696,3.984375 -1.36718,1.49414063 -3.64258,1.49414063 z" /><path
                         id="path660"
                         style=""
                         d="m 213.10156,-1.0351562 h 1.69922 V 0 h -5.22461 v -1.0351562 h 1.72852 V -14.160156 h -1.72852 v -1.035157 h 3.52539 z" /><path
                         id="path662"
                         style=""
                         d="m 223.34961,-3.2617188 v -2.1972656 h -2.31445 q -1.33789,0 -1.99219,0.5761719 -0.6543,0.5761719 -0.6543,1.7675781 0,1.0839844 0.66406,1.71875 0.66407,0.63476565 1.79688,0.63476565 1.12305,0 1.80664,-0.69335935 0.69336,-0.6933594 0.69336,-1.8066407 z m 1.79687,-3.2226562 v 5.4492188 h 1.60157 V 0 h -3.39844 v -1.1230469 q -0.5957,0.72265627 -1.37695,1.06445315 -0.78125,0.34179688 -1.82618,0.34179688 -1.72851,0 -2.74414,-0.91796875 -1.01562,-0.91796878 -1.01562,-2.48046878 0,-1.6113281 1.16211,-2.5 1.16211,-0.8886718 3.28125,-0.8886718 h 2.51953 v -0.7128907 q 0,-1.1816406 -0.72266,-1.8261719 -0.71289,-0.6542968 -2.01172,-0.6542968 -1.07421,0 -1.70898,0.4882812 -0.63477,0.4882813 -0.79102,1.4453125 h -0.92773 v -2.0996094 q 0.9375,-0.4003907 1.81641,-0.5957027 0.88867,-0.205079 1.72851,-0.205079 2.1582,0 3.28125,1.0742192 1.13281,1.0644532 1.13281,3.1054688 z" /><path
                         id="path664"
                         style=""
                         d="m 231.41406,-1.0351562 h 1.69922 V 0 h -5.22461 v -1.0351562 h 1.72852 V -14.160156 h -1.72852 v -1.035157 h 3.52539 z" /><path
                         id="path666"
                         style=""
                         d="M 239.78711,-15.195313 V 2.6367188 h -4.54102 V 1.6015625 h 2.67578 V -14.160156 h -2.67578 v -1.035157 z" /></g></g></g><g
                   transform="matrix(2,0,0,2,614,856)"
                   id="g428" /><g
                   transform="matrix(2,0,0,2,614,856)"
                   id="g430" /><g
                   transform="matrix(2,0,0,2,614,856)"
                   id="g432"><g
                     id="g434"><g
                       id="text438"
                       style="font-variant:normal;font-weight:normal;font-size:20px;font-family:'DejaVu Serif';-inkscape-font-specification:DejaVuSerif;writing-mode:lr-tb;fill:#000000;fill-opacity:1;fill-rule:nonzero;stroke:none"
                       aria-label="HCl	[mmol]"><path
                         id="path669"
                         style=""
                         d="M 1.1035156,0 V -1.0351562 H 2.9589844 V -13.535156 H 1.1035156 v -1.044922 H 6.796875 v 1.044922 H 4.9414062 v 5.0390622 H 12.5 v -5.0390622 h -1.855469 v -1.044922 h 5.69336 v 1.044922 h -1.855469 v 12.4999998 h 1.855469 V 0 h -5.69336 V -1.0351562 H 12.5 V -7.3046875 H 4.9414062 v 6.2695313 H 6.796875 V 0 Z" /><path
                         id="path671"
                         style=""
                         d="m 31.539062,-3.8574219 q -0.644531,2.0410157 -2.167968,3.09570315 -1.513672,1.04492188 -3.837891,1.04492188 -1.425781,0 -2.646484,-0.48828126 -1.220703,-0.48828124 -2.167969,-1.43554687 -1.09375,-1.09375 -1.630859,-2.4804687 -0.527344,-1.3964844 -0.527344,-3.1542969 0,-3.3984374 1.96289,-5.4785154 1.962891,-2.089844 5.175782,-2.089844 1.191406,0 2.539062,0.3125 1.347656,0.3125 2.900391,0.947266 v 3.359375 h -1.103516 q -0.361328,-1.835938 -1.455078,-2.705079 -1.083984,-0.86914 -3.046875,-0.86914 -2.333984,0 -3.535156,1.660156 -1.201172,1.650391 -1.201172,4.8632814 0,3.203125 1.201172,4.8632812 1.201172,1.65039065 3.535156,1.65039065 1.630859,0 2.685547,-0.77148435 1.054687,-0.78125 1.523437,-2.3242188 z" /><path
                         id="path673"
                         style=""
                         d="m 36.835937,-1.0351562 h 1.699219 V 0 h -5.224609 v -1.0351562 h 1.728515 V -14.160156 h -1.728515 v -1.035157 h 3.52539 z" /><path
                         id="path675"
                         style=""
                         d="m 47.1875,-15.195313 h 4.541016 v 1.035157 H 49.052734 V 1.6015625 h 2.675782 V 2.6367188 H 47.1875 Z" /><path
                         id="path677"
                         style=""
                         d="m 63.626953,-8.359375 q 0.517578,-1.1425781 1.318359,-1.71875 0.810547,-0.585938 1.884766,-0.585938 1.630859,0 2.431641,1.0156255 0.800781,1.0058594 0.800781,3.046875 v 5.5664063 h 1.621094 V 0 h -4.980469 v -1.0351562 h 1.5625 v -5.3613282 q 0,-1.5917968 -0.46875,-2.265625 -0.46875,-0.6738281 -1.552734,-0.6738281 -1.201172,0 -1.835938,0.9082031 -0.625,0.9082032 -0.625,2.6464844 v 4.7460938 h 1.5625 V 0 h -4.921875 v -1.0351562 h 1.5625 v -5.4296875 q 0,-1.5527344 -0.46875,-2.2070313 -0.46875,-0.6640625 -1.552734,-0.6640625 -1.201172,0 -1.835938,0.9082031 -0.625,0.9082032 -0.625,2.6464844 v 4.7460938 h 1.5625 V 0 h -4.980469 v -1.0351562 h 1.621094 v -8.3203126 h -1.71875 v -1.0253902 h 3.515625 v 1.8457027 q 0.498047,-1.0351562 1.269531,-1.5820317 0.771485,-0.546875 1.748047,-0.546875 1.210938,0 2.021485,0.605469 0.810547,0.5957034 1.083984,1.699219 z" /><path
                         id="path679"
                         style=""
                         d="m 82.580078,-8.359375 q 0.517578,-1.1425781 1.318359,-1.71875 0.810547,-0.585938 1.884766,-0.585938 1.630859,0 2.431641,1.0156255 0.800781,1.0058594 0.800781,3.046875 v 5.5664063 h 1.621094 V 0 H 85.65625 v -1.0351562 h 1.5625 v -5.3613282 q 0,-1.5917968 -0.46875,-2.265625 -0.46875,-0.6738281 -1.552734,-0.6738281 -1.201172,0 -1.835938,0.9082031 -0.625,0.9082032 -0.625,2.6464844 v 4.7460938 h 1.5625 V 0 h -4.921875 v -1.0351562 h 1.5625 v -5.4296875 q 0,-1.5527344 -0.46875,-2.2070313 -0.46875,-0.6640625 -1.552734,-0.6640625 -1.201172,0 -1.835938,0.9082031 -0.625,0.9082032 -0.625,2.6464844 v 4.7460938 h 1.5625 V 0 h -4.980469 v -1.0351562 h 1.621094 v -8.3203126 h -1.71875 v -1.0253902 h 3.515625 v 1.8457027 q 0.498047,-1.0351562 1.269531,-1.5820317 0.771485,-0.546875 1.748047,-0.546875 1.210938,0 2.021485,0.605469 0.810547,0.5957034 1.083984,1.699219 z" /><path
                         id="path681"
                         style=""
                         d="m 97.1875,-0.68359375 q 1.445312,0 2.177734,-1.14257815 0.742186,-1.1425781 0.742186,-3.3691406 0,-2.2265625 -0.742186,-3.359375 -0.732422,-1.1425781 -2.177734,-1.1425781 -1.445313,0 -2.1875,1.1425781 -0.732422,1.1328125 -0.732422,3.359375 0,2.2265625 0.742188,3.3691406 0.742187,1.14257815 2.177734,1.14257815 z m 0,0.96679688 q -2.265625,0 -3.642578,-1.49414063 -1.376953,-1.5039063 -1.376953,-3.984375 0,-2.4804687 1.367187,-3.9746094 1.376953,-1.4941411 3.652344,-1.4941411 2.275391,0 3.64258,1.4941411 1.37695,1.4941407 1.37695,3.9746094 0,2.4804687 -1.37695,3.984375 -1.367189,1.49414063 -3.64258,1.49414063 z" /><path
                         id="path683"
                         style=""
                         d="m 107.30468,-1.0351562 h 1.69922 V 0 h -5.22461 v -1.0351562 h 1.72851 V -14.160156 h -1.72851 v -1.035157 h 3.52539 z" /><path
                         id="path685"
                         style=""
                         d="M 115.67773,-15.195313 V 2.6367188 h -4.54101 V 1.6015625 h 2.67578 V -14.160156 h -2.67578 v -1.035157 z" /></g></g></g><g
                   transform="matrix(2,0,0,2,852,190)"
                   id="g440" /><g
                   transform="matrix(2,0,0,2,852,190)"
                   id="g442" /><g
                   transform="matrix(2,0,0,2,852,190)"
                   id="g444"><g
                     id="g446"><g
                       id="text450"
                       style="font-variant:normal;font-weight:normal;font-size:20px;font-family:'DejaVu Serif';-inkscape-font-specification:DejaVuSerif;writing-mode:lr-tb;fill:#000000;fill-opacity:1;fill-rule:nonzero;stroke:none"
                       aria-label="CO2(aq)"><path
                         id="path688"
                         style=""
                         d="m 14.101563,-3.8574219 q -0.644532,2.0410157 -2.167969,3.09570315 -1.513672,1.04492188 -3.8378909,1.04492188 -1.4257812,0 -2.6464844,-0.48828126 Q 4.2285156,-0.69335937 3.28125,-1.640625 2.1875,-2.734375 1.6503906,-4.1210937 1.1230469,-5.5175781 1.1230469,-7.2753906 q 0,-3.3984374 1.9628906,-5.4785154 1.9628906,-2.089844 5.1757813,-2.089844 1.1914062,0 2.5390622,0.3125 1.347657,0.3125 2.900391,0.947266 v 3.359375 h -1.103516 q -0.361328,-1.835938 -1.455078,-2.705079 -1.083984,-0.86914 -3.0468749,-0.86914 -2.3339844,0 -3.5351562,1.660156 -1.2011719,1.650391 -1.2011719,4.8632814 0,3.203125 1.2011719,4.8632812 1.2011718,1.65039065 3.5351562,1.65039065 1.6308594,0 2.6855469,-0.77148435 1.054688,-0.78125 1.523438,-2.3242188 z" /><path
                         id="path690"
                         style=""
                         d="m 23.5,-0.76171875 q 2.392578,0 3.613281,-1.64062505 1.220703,-1.6503906 1.220703,-4.8730468 0,-3.2324224 -1.220703,-4.8730474 -1.220703,-1.65039 -3.613281,-1.65039 -2.402344,0 -3.623047,1.65039 -1.220703,1.640625 -1.220703,4.8730474 0,3.2226562 1.220703,4.8730468 1.220703,1.64062505 3.623047,1.64062505 z m 0,1.04492188 q -1.484375,0 -2.734375,-0.48828126 -1.240234,-0.48828124 -2.1875,-1.43554687 -1.09375,-1.09375 -1.630859,-2.4804687 -0.527344,-1.3867188 -0.527344,-3.1542969 0,-1.7675782 0.527344,-3.1542974 0.537109,-1.396484 1.630859,-2.490234 0.957031,-0.957031 2.1875,-1.435547 1.230469,-0.488281 2.734375,-0.488281 3.173828,0 5.126953,2.080078 1.953125,2.080078 1.953125,5.4882814 0,1.7480469 -0.537109,3.1542969 -0.53711,1.3964843 -1.63086,2.4804687 -0.957031,0.95703125 -2.1875,1.4453125 Q 24.994141,0.28320313 23.5,0.28320313 Z" /><path
                         id="path692"
                         style=""
                         d="m 34.246094,-11.103516 h -1.09375 v -2.597656 q 1.044922,-0.556641 2.099609,-0.849609 1.064453,-0.292969 2.080078,-0.292969 2.275391,0 3.59375,1.103516 1.31836,1.103515 1.31836,2.998046 0,2.1386724 -2.988282,5.117188 -0.234375,0.2246094 -0.351562,0.3417969 l -3.681641,3.6816406 h 6.083985 v -1.796875 h 1.142578 V 0 h -9.404297 v -1.0644531 l 4.423828,-4.4140625 q 1.464844,-1.4648438 2.089844,-2.6855469 0.625,-1.2304688 0.625,-2.5781255 0,-1.474609 -0.771485,-2.304687 -0.761718,-0.830078 -2.109375,-0.830078 -1.396484,0 -2.158203,0.693359 -0.761719,0.69336 -0.898437,2.080078 z" /><path
                         id="path694"
                         style=""
                         d="M 50.783203,3.1152344 Q 48.410156,2.0507813 47.199219,-0.25390625 45.988281,-2.5683594 45.988281,-6.0351562 q 0,-3.4765626 1.210938,-5.7812498 1.210937,-2.314453 3.583984,-3.378907 v 0.957032 q -1.503906,1.035156 -2.158203,2.919922 -0.654297,1.8749996 -0.654297,5.2832028 0,3.3984374 0.654297,5.28320308 0.654297,1.87500002 2.158203,2.91015622 z" /><path
                         id="path696"
                         style=""
                         d="m 60.162109,-3.2617188 v -2.1972656 h -2.314453 q -1.33789,0 -1.992187,0.5761719 -0.654297,0.5761719 -0.654297,1.7675781 0,1.0839844 0.664062,1.71875 0.664063,0.63476565 1.796875,0.63476565 1.123047,0 1.806641,-0.69335935 0.693359,-0.6933594 0.693359,-1.8066407 z m 1.796875,-3.2226562 v 5.4492188 h 1.601563 V 0 h -3.398438 v -1.1230469 q -0.595703,0.72265627 -1.376953,1.06445315 -0.78125,0.34179688 -1.826172,0.34179688 -1.728515,0 -2.74414,-0.91796875 -1.015625,-0.91796878 -1.015625,-2.48046878 0,-1.6113281 1.162109,-2.5 1.162109,-0.8886718 3.28125,-0.8886718 h 2.519531 v -0.7128907 q 0,-1.1816406 -0.722656,-1.8261719 -0.712891,-0.6542968 -2.011719,-0.6542968 -1.074218,0 -1.708984,0.4882812 -0.634766,0.4882813 -0.791016,1.4453125 H 54 v -2.0996094 q 0.9375,-0.4003907 1.816406,-0.5957027 0.888672,-0.205079 1.728516,-0.205079 2.158203,0 3.28125,1.0742192 1.132812,1.0644532 1.132812,3.1054688 z" /><path
                         id="path698"
                         style=""
                         d="M 74.623047,-9.3359375 V 3.1152344 h 1.71875 V 4.1601562 H 71.126953 V 3.1152344 h 1.699219 v -4.7363281 q -0.527344,0.97656245 -1.347656,1.44531245 -0.810547,0.45898438 -2.011719,0.45898438 -1.914063,0 -3.134766,-1.51367183 -1.210937,-1.5234376 -1.210937,-3.9648438 0,-2.4414062 1.210937,-3.9550781 1.210938,-1.5136724 3.134766,-1.5136724 1.201172,0 2.011719,0.46875 0.820312,0.4589849 1.347656,1.4355474 v -1.6210934 h 3.515625 v 1.0449215 z m -1.796875,3.6328125 q 0,-1.8652344 -0.722656,-2.8515625 -0.712891,-0.9863281 -2.080079,-0.9863281 -1.386718,0 -2.099609,1.09375 -0.703125,1.09375 -0.703125,3.2519531 0,2.1484375 0.703125,3.2519531 0.712891,1.10351565 2.099609,1.10351565 1.367188,0 2.080079,-0.97656245 0.722656,-0.9863282 0.722656,-2.8613282 z" /><path
                         id="path700"
                         style=""
                         d="M 78.337891,3.1152344 V 2.1582031 q 1.503906,-1.0351562 2.158203,-2.91015622 0.664062,-1.88476568 0.664062,-5.28320308 0,-3.4082032 -0.664062,-5.2832028 -0.654297,-1.884766 -2.158203,-2.919922 v -0.957032 q 2.382812,1.064454 3.59375,3.378907 1.210937,2.3046872 1.210937,5.7812498 0,3.4667968 -1.210937,5.78124995 -1.210938,2.30468755 -3.59375,3.36914065 z" /></g></g></g><g
                   transform="scale(2)"
                   id="g452"><path
                     id="path454"
                     style="fill:none;stroke:#0072bd;stroke-width:6;stroke-linecap:round;stroke-linejoin:round;stroke-miterlimit:10;stroke-dasharray:none;stroke-opacity:1"
                     d="m 522.5,87.5 h 57" /></g><g
                   transform="scale(2)"
                   id="g456" /><g
                   transform="scale(2)"
                   id="g458"><path
                     id="path460"
                     style="fill:none;stroke:#0072bd;stroke-width:6;stroke-linecap:round;stroke-linejoin:round;stroke-miterlimit:10;stroke-dasharray:none;stroke-opacity:1"
                     d="m 126,361 h 0.5 4.2 l 9.2,-0.1 9.2,-0.1 24.8,-0.5 24.9,-0.9 24.8,-1.6 24.8,-2.4 24.8,-3.5 42.8,-8.9 42.8,-13.4 21,-8.4 21,-9.6 14.8,-7.6 14.8,-8.3 23.2,-14.4 23.2,-16.2 30.2,-23.8 30.2,-27 29.6,-29.8 29.6,-32.9 7.5,-8.9" /></g><g
                   transform="matrix(2,0,0,2,906,238)"
                   id="g462" /><g
                   transform="matrix(2,0,0,2,906,238)"
                   id="g464" /><g
                   transform="matrix(2,0,0,2,906,238)"
                   id="g466"><g
                     id="g468"><g
                       id="text472"
                       style="font-variant:normal;font-weight:normal;font-size:20px;font-family:'DejaVu Serif';-inkscape-font-specification:DejaVuSerif;writing-mode:lr-tb;fill:#000000;fill-opacity:1;fill-rule:nonzero;stroke:none"
                       aria-label="CO3--"><path
                         id="path703"
                         style=""
                         d="m 14.101563,-3.8574219 q -0.644532,2.0410157 -2.167969,3.09570315 -1.513672,1.04492188 -3.8378909,1.04492188 -1.4257812,0 -2.6464844,-0.48828126 Q 4.2285156,-0.69335937 3.28125,-1.640625 2.1875,-2.734375 1.6503906,-4.1210937 1.1230469,-5.5175781 1.1230469,-7.2753906 q 0,-3.3984374 1.9628906,-5.4785154 1.9628906,-2.089844 5.1757813,-2.089844 1.1914062,0 2.5390622,0.3125 1.347657,0.3125 2.900391,0.947266 v 3.359375 h -1.103516 q -0.361328,-1.835938 -1.455078,-2.705079 -1.083984,-0.86914 -3.0468749,-0.86914 -2.3339844,0 -3.5351562,1.660156 -1.2011719,1.650391 -1.2011719,4.8632814 0,3.203125 1.2011719,4.8632812 1.2011718,1.65039065 3.5351562,1.65039065 1.6308594,0 2.6855469,-0.77148435 1.054688,-0.78125 1.523438,-2.3242188 z" /><path
                         id="path705"
                         style=""
                         d="m 23.5,-0.76171875 q 2.392578,0 3.613281,-1.64062505 1.220703,-1.6503906 1.220703,-4.8730468 0,-3.2324224 -1.220703,-4.8730474 -1.220703,-1.65039 -3.613281,-1.65039 -2.402344,0 -3.623047,1.65039 -1.220703,1.640625 -1.220703,4.8730474 0,3.2226562 1.220703,4.8730468 1.220703,1.64062505 3.623047,1.64062505 z m 0,1.04492188 q -1.484375,0 -2.734375,-0.48828126 -1.240234,-0.48828124 -2.1875,-1.43554687 -1.09375,-1.09375 -1.630859,-2.4804687 -0.527344,-1.3867188 -0.527344,-3.1542969 0,-1.7675782 0.527344,-3.1542974 0.537109,-1.396484 1.630859,-2.490234 0.957031,-0.957031 2.1875,-1.435547 1.230469,-0.488281 2.734375,-0.488281 3.173828,0 5.126953,2.080078 1.953125,2.080078 1.953125,5.4882814 0,1.7480469 -0.537109,3.1542969 -0.53711,1.3964843 -1.63086,2.4804687 -0.957031,0.95703125 -2.1875,1.4453125 Q 24.994141,0.28320313 23.5,0.28320313 Z" /><path
                         id="path707"
                         style=""
                         d="m 33.630859,-13.964844 q 1.142578,-0.429687 2.1875,-0.654297 1.054688,-0.224609 1.972657,-0.224609 2.138671,0 3.339843,0.927734 1.201172,0.917969 1.201172,2.558594 0,1.318359 -0.830078,2.2070314 -0.830078,0.8789062 -2.353516,1.1914062 1.796875,0.2539063 2.783204,1.3085938 0.996093,1.0449219 0.996093,2.7148437 0,2.0410157 -1.376953,3.13476565 -1.367187,1.08398438 -3.945312,1.08398438 -1.142578,0 -2.236328,-0.24414063 -1.083985,-0.24414063 -2.158204,-0.7421875 v -2.8320313 h 1.09375 q 0.09766,1.40625 0.947266,2.1289063 0.849609,0.72265625 2.392578,0.72265625 1.494141,0 2.353516,-0.85937495 0.86914,-0.8691407 0.86914,-2.3730469 0,-1.71875 -0.888671,-2.5976563 -0.888672,-0.8886718 -2.607422,-0.8886718 h -0.927735 v -0.9960938 h 0.488282 q 1.708984,0 2.558593,-0.703125 0.859375,-0.7128906 0.859375,-2.1386715 0,-1.279297 -0.703125,-1.953125 -0.703125,-0.683594 -2.021484,-0.683594 -1.318359,0 -2.050781,0.625 -0.722657,0.625 -0.84961,1.855469 h -1.09375 z" /><path
                         id="path709"
                         style=""
                         d="m 45.285156,-6.1230469 h 5 v 1.5234375 h -5 z" /><path
                         id="path711"
                         style=""
                         d="m 52.035156,-6.1230469 h 5 v 1.5234375 h -5 z" /></g></g></g><g
                   transform="scale(2)"
                   id="g474"><path
                     id="path476"
                     style="fill:none;stroke:#d95319;stroke-width:6;stroke-linecap:round;stroke-linejoin:round;stroke-miterlimit:10;stroke-dasharray:none;stroke-opacity:1"
                     d="m 522.5,111.5 h 57" /></g><g
                   transform="scale(2)"
                   id="g478" /><g
                   transform="scale(2)"
                   id="g480"><path
                     id="path482"
                     style="fill:none;stroke:#d95319;stroke-width:6;stroke-linecap:round;stroke-linejoin:round;stroke-miterlimit:10;stroke-dasharray:none;stroke-opacity:1"
                     d="m 126,67.2 v 0.1 l 0.5,0.6 4.2,6.4 9.2,14.2 9.2,14.5 24.8,38.4 24.9,34.3 24.8,27.9 24.8,21.7 24.8,16.8 42.8,20.8 42.8,14.3 21,5.5 21,4.7 14.8,3 14.8,2.6 23.2,3.8 23.2,3.3 30.2,3.7 30.2,3.2 29.6,2.8 29.6,2.4 7.5,0.6" /></g><g
                   transform="scale(2)"
                   id="g484" /><g
                   transform="scale(2)"
                   id="g486"><path
                     id="path488"
                     style="fill:none;stroke:#000000;stroke-width:4;stroke-linecap:round;stroke-linejoin:round;stroke-miterlimit:10;stroke-dasharray:none;stroke-opacity:1"
                     d="m 126.5,66.5 v 295 h 477 v -295 z" /></g></g></g><g
               id="g490"><g
                 id="g492" /></g></g></g></g></g></g></svg>